<svg width="35" height="14" viewBox="0 0 35 14" fill="none" xmlns="http://www.w3.org/2000/svg">
<g clip-path="url(#clip0_1458_7951)">
<path d="M2.85783 0.238H0V13.7151H2.85783V0.238ZM10.7094 13.7151H13.5672V4.26757H10.7094V13.7151ZM18.1105 13.7151H21.4054L24.7003 4.26757H21.8625C21.8625 4.26757 20.314 9.408 19.8581 11.0357H19.8179C19.3614 9.408 17.7934 4.26757 17.7934 4.26757H14.7767L18.1105 13.7151ZM3.78365 8.65687C8.26974 8.65687 9.31791 4.90852 9.31791 4.26817H8.93017C4.44287 4.26817 3.3947 8.01591 3.3947 8.65687H3.78365ZM3.3947 9.2467C3.3947 9.92661 4.17139 13.7529 9.00809 13.7529H9.39643C9.39643 13.0717 8.61913 9.2467 3.78365 9.2467H3.3947ZM13.8454 1.66722C13.8454 0.774261 13.191 0 12.138 0C11.0868 0 10.4312 0.774261 10.4312 1.66722C10.4312 2.56078 11.0868 3.33443 12.138 3.33443C13.191 3.33443 13.8454 2.56078 13.8454 1.66722ZM34.6957 4.26757H31.937V5.55739C31.4604 4.56461 30.3496 4.00948 29.0585 4.00948C26.7163 4.00948 24.8707 5.91409 24.8707 8.99104C24.8707 12.0875 26.6572 13.9732 28.9197 13.9732C30.5072 13.9732 31.4598 13.199 31.9364 12.345V13.7145H34.6957V4.26757ZM31.8573 9.22904C31.8573 10.9766 30.786 11.7904 29.7135 11.7904C28.5423 11.7904 27.7882 10.5998 27.7882 8.99165C27.7882 7.40417 28.5825 6.19287 29.8127 6.19287C30.825 6.19287 31.8573 7.02678 31.8573 8.75304V9.22904Z" fill="#2AA967"/>
</g>
<defs>
<clipPath id="clip0_1458_7951">
<rect width="34.6957" height="14" fill="white"/>
</clipPath>
</defs>
</svg>
