<svg width="241" height="162" viewBox="0 0 241 162" fill="none" xmlns="http://www.w3.org/2000/svg">
<path d="M50.9536 155.201C50.9712 155.205 50.9902 155.203 51.0078 155.196L80.2734 142.658C80.2859 142.653 80.297 142.645 80.3059 142.635C80.3149 142.625 80.3215 142.613 80.3252 142.6C80.3289 142.587 80.3297 142.573 80.3275 142.56C80.3252 142.547 80.3201 142.534 80.3123 142.523L33.5705 75.4101C33.5458 75.3747 33.4997 75.3614 33.4599 75.3784L4.19429 87.9157C4.18184 87.921 4.17073 87.929 4.16177 87.9391C4.15281 87.9493 4.14623 87.9613 4.1425 87.9743C4.13878 87.9873 4.138 88.001 4.14024 88.0143C4.14247 88.0276 4.14766 88.0403 4.15541 88.0514L50.8971 155.164C50.9105 155.183 50.9307 155.197 50.9536 155.201ZM80.099 142.535L51.0042 154.999L4.36882 88.0391L33.4635 75.575L80.099 142.535Z" fill="#479FF7"/>
<path d="M55.5819 149.693C55.5996 149.696 55.6185 149.695 55.6361 149.687L71.8611 142.737C71.8735 142.731 71.8846 142.723 71.8936 142.713C71.9026 142.703 71.9091 142.691 71.9129 142.678C71.9166 142.665 71.9174 142.651 71.9151 142.638C71.9129 142.625 71.9077 142.612 71.8999 142.601C71.1927 141.585 70.9526 140.425 71.2411 139.418C71.4953 138.53 72.1364 137.826 73.0464 137.436C73.0589 137.431 73.07 137.423 73.079 137.413C73.0879 137.403 73.0945 137.391 73.0982 137.378C73.1019 137.365 73.1027 137.351 73.1005 137.338C73.0982 137.325 73.0931 137.312 73.0853 137.301L35.2685 83.0026C35.2565 82.9854 35.2389 82.9729 35.2188 82.9672C35.1986 82.9614 35.1771 82.9627 35.1578 82.9709C33.1244 83.8421 30.3358 82.9224 28.9417 80.9207C28.917 80.8853 28.8709 80.872 28.8311 80.889L12.6062 87.8397C12.5937 87.845 12.5826 87.853 12.5736 87.8632C12.5647 87.8733 12.5581 87.8853 12.5544 87.8983C12.5506 87.9113 12.5499 87.925 12.5521 87.9383C12.5543 87.9517 12.5595 87.9643 12.5673 87.9754C13.2745 88.9908 13.5146 90.1511 13.2262 91.1586C12.9719 92.0463 12.3308 92.7499 11.4208 93.1398C11.4084 93.1451 11.3973 93.1531 11.3883 93.1632C11.3793 93.1733 11.3727 93.1853 11.369 93.1983C11.3653 93.2113 11.3645 93.225 11.3668 93.2384C11.369 93.2517 11.3742 93.2644 11.3819 93.2755L49.1988 147.574C49.2236 147.609 49.2697 147.622 49.3095 147.605C51.3429 146.734 54.1314 147.654 55.5255 149.656C55.5393 149.675 55.5597 149.688 55.5819 149.693ZM71.6877 142.613L55.6321 149.491C54.1933 147.487 51.3876 146.564 49.3063 147.409L11.5944 93.2619C12.5017 92.8421 13.1414 92.1167 13.4013 91.2088C13.6962 90.1791 13.4694 89.002 12.7795 87.9637L28.8353 81.0854C30.274 83.0899 33.0796 84.0127 35.161 83.167L72.8729 137.314C71.9655 137.734 71.3259 138.46 71.066 139.368C70.7711 140.397 70.9979 141.574 71.6877 142.613Z" fill="#479FF7"/>
<path d="M41.655 125.995C44.3169 126.542 46.9851 126.346 49.2399 125.38C52.6124 123.935 54.6415 120.951 54.6676 117.398C54.6677 117.383 54.664 117.368 54.657 117.354C54.6499 117.341 54.6395 117.33 54.6269 117.321C54.6143 117.313 54.5998 117.308 54.5848 117.306C54.5697 117.305 54.5545 117.307 54.5406 117.313L37.7923 124.488C37.7764 124.495 37.7627 124.506 37.7529 124.521C37.7432 124.535 37.7377 124.552 37.7372 124.569C37.7367 124.587 37.7412 124.604 37.7502 124.619C37.7591 124.634 37.7721 124.646 37.7877 124.653C39.0421 125.278 40.3477 125.726 41.655 125.995ZM54.4833 117.536C54.4062 120.953 52.4276 123.816 49.168 125.213C45.9066 126.61 41.7628 126.37 38.0465 124.578L54.4833 117.536Z" fill="#479FF7"/>
<path d="M29.873 113.268C29.891 113.272 29.9099 113.27 29.9273 113.263L46.6785 106.086C46.6945 106.08 46.7082 106.068 46.7179 106.054C46.7277 106.04 46.7331 106.023 46.7336 106.005C46.7341 105.988 46.7296 105.971 46.7207 105.956C46.7118 105.941 46.6988 105.929 46.6832 105.921C42.8739 104.026 38.5914 103.755 35.2275 105.197C31.8539 106.642 29.8251 109.626 29.8003 113.178C29.8002 113.199 29.8074 113.22 29.8207 113.236C29.8339 113.253 29.8524 113.264 29.873 113.268ZM46.4243 105.997L29.9845 113.04C30.0603 109.624 32.0387 106.761 35.2992 105.364C38.5625 103.966 42.7076 104.205 46.4243 105.997Z" fill="#479FF7"/>
<path d="M31.5501 127.343C31.5678 127.347 31.5867 127.345 31.6043 127.337L60.87 114.8C60.8824 114.795 60.8935 114.787 60.9025 114.777C60.9114 114.767 60.918 114.755 60.9218 114.742C60.9255 114.728 60.9262 114.715 60.924 114.701C60.9218 114.688 60.9166 114.675 60.9088 114.664L52.9735 103.271C52.9615 103.253 52.9439 103.241 52.9238 103.235C52.9037 103.229 52.8821 103.231 52.8629 103.239L23.5972 115.776C23.5848 115.782 23.5737 115.79 23.5647 115.8C23.5558 115.81 23.5492 115.822 23.5454 115.835C23.5417 115.848 23.5409 115.862 23.5432 115.875C23.5454 115.888 23.5506 115.901 23.5584 115.912L31.4937 127.306C31.507 127.325 31.5272 127.338 31.5501 127.343ZM60.6955 114.677L31.6007 127.141L23.7716 115.9L52.8664 103.436L60.6955 114.677Z" fill="#479FF7"/>
<path d="M30.5521 125.91C30.5704 125.914 30.5893 125.912 30.6064 125.905L59.872 113.367C59.8844 113.362 59.8955 113.354 59.9045 113.344C59.9135 113.334 59.9201 113.322 59.9238 113.309C59.9275 113.296 59.9283 113.282 59.926 113.269C59.9238 113.255 59.9186 113.243 59.9109 113.231L53.9715 104.704C53.9468 104.668 53.9006 104.655 53.8609 104.672L24.5953 117.209C24.5828 117.215 24.5717 117.223 24.5627 117.233C24.5538 117.243 24.5472 117.255 24.5435 117.268C24.5397 117.281 24.539 117.295 24.5412 117.308C24.5434 117.321 24.5486 117.334 24.5564 117.345L30.4957 125.873C30.5091 125.892 30.5293 125.905 30.5521 125.91ZM59.6974 113.244L30.6027 125.708L24.7696 117.333L53.8644 104.869L59.6974 113.244Z" fill="#479FF7"/>
<path d="M47.8145 160.998C47.8337 161.002 47.8536 161 47.8713 160.991C47.889 160.983 47.9036 160.969 47.9129 160.952L51.0519 155.155C51.0599 155.141 51.0637 155.124 51.0627 155.107C51.0618 155.09 51.0561 155.074 51.0465 155.06L4.30477 87.9473C4.29589 87.9346 4.28389 87.9243 4.26991 87.9175C4.25593 87.9107 4.24044 87.9076 4.22492 87.9084C4.2094 87.9093 4.19436 87.9141 4.18124 87.9225C4.16811 87.9308 4.15734 87.9423 4.14994 87.956L1.01096 93.7527C1.00294 93.7675 0.999192 93.7843 1.00015 93.8011C1.0011 93.818 1.00671 93.8342 1.01636 93.8481L47.7582 160.961C47.7715 160.98 47.7917 160.993 47.8145 160.998ZM50.8651 155.118L47.8231 160.736L1.19787 93.7901L4.23984 88.1727L50.8651 155.118Z" fill="#479FF7"/>
<path d="M28.4108 133.138C28.43 133.142 28.4499 133.139 28.4676 133.131C28.4854 133.123 28.5 133.109 28.5093 133.092L31.6482 127.295C31.6563 127.28 31.66 127.264 31.6591 127.247C31.6581 127.23 31.6525 127.214 31.6428 127.2L23.7075 115.806C23.6986 115.793 23.6866 115.783 23.6726 115.776C23.6587 115.769 23.6432 115.766 23.6277 115.767C23.6121 115.768 23.5971 115.773 23.584 115.781C23.5708 115.79 23.5601 115.801 23.5527 115.815L20.4137 121.611C20.4057 121.626 20.4019 121.643 20.4029 121.66C20.4038 121.677 20.4095 121.693 20.4191 121.707L28.3544 133.101C28.3678 133.12 28.388 133.133 28.4108 133.138ZM31.4614 127.258L28.4194 132.875L20.6006 121.649L23.6426 116.031L31.4614 127.258Z" fill="#479FF7"/>
<path d="M27.4127 131.705C27.4319 131.709 27.4518 131.706 27.4695 131.698C27.4872 131.69 27.5018 131.676 27.5111 131.659L30.6501 125.862C30.6581 125.847 30.6619 125.831 30.6609 125.814C30.66 125.797 30.6543 125.781 30.6447 125.767L24.7054 117.239C24.6965 117.226 24.6845 117.216 24.6705 117.209C24.6565 117.202 24.641 117.199 24.6255 117.2C24.61 117.201 24.595 117.206 24.5818 117.214C24.5687 117.222 24.5579 117.234 24.5505 117.248L21.4115 123.044C21.4034 123.059 21.3997 123.076 21.4006 123.093C21.4016 123.11 21.4072 123.126 21.4169 123.14L27.3562 131.667C27.3699 131.687 27.3901 131.7 27.4127 131.705ZM30.4633 125.825L27.4213 131.442L21.5985 123.082L24.6404 117.464L30.4633 125.825Z" fill="#479FF7"/>
<path d="M47.8145 160.998C47.8323 161.002 47.8512 161 47.8687 160.992L77.1343 148.455C77.1532 148.447 77.1688 148.433 77.1785 148.415L80.3176 142.618C80.3266 142.601 80.3302 142.582 80.3279 142.564C80.3256 142.545 80.3176 142.527 80.3048 142.513C80.292 142.499 80.2752 142.49 80.2567 142.486C80.2382 142.482 80.219 142.484 80.2016 142.491L50.9359 155.028C50.9171 155.036 50.9015 155.051 50.8918 155.069L47.7528 160.865C47.746 160.878 47.7423 160.892 47.7418 160.906C47.7414 160.92 47.7443 160.934 47.7503 160.947C47.7563 160.96 47.7652 160.971 47.7764 160.98C47.7875 160.989 47.8006 160.995 47.8145 160.998ZM77.0335 148.3L48.0376 160.722L51.037 155.183L80.0329 142.762L77.0335 148.3Z" fill="#479FF7"/>
<path d="M47.8145 160.998C47.8337 161.002 47.8536 161 47.8713 160.991C47.889 160.983 47.9036 160.969 47.9129 160.952L51.0519 155.155C51.0599 155.141 51.0637 155.124 51.0627 155.107C51.0618 155.09 51.0561 155.074 51.0465 155.06L4.30477 87.9473C4.29589 87.9346 4.28389 87.9243 4.26991 87.9175C4.25593 87.9107 4.24044 87.9076 4.22492 87.9084C4.2094 87.9093 4.19436 87.9141 4.18124 87.9225C4.16811 87.9308 4.15734 87.9423 4.14994 87.956L1.01096 93.7527C1.00294 93.7675 0.999192 93.7843 1.00015 93.8011C1.0011 93.818 1.00671 93.8342 1.01636 93.8481L47.7582 160.961C47.7715 160.98 47.7917 160.993 47.8145 160.998ZM47.8145 160.998C47.8323 161.002 47.8512 161 47.8687 160.992L77.1343 148.455C77.1532 148.447 77.1688 148.433 77.1785 148.415L80.3176 142.618C80.3266 142.601 80.3302 142.582 80.3279 142.564C80.3256 142.545 80.3176 142.527 80.3048 142.513C80.292 142.499 80.2752 142.49 80.2567 142.486C80.2382 142.482 80.219 142.484 80.2016 142.491L50.9359 155.028C50.9171 155.036 50.9015 155.051 50.8918 155.069L47.7528 160.865C47.746 160.878 47.7423 160.892 47.7418 160.906C47.7414 160.92 47.7443 160.934 47.7503 160.947C47.7563 160.96 47.7652 160.971 47.7764 160.98C47.7875 160.989 47.8006 160.995 47.8145 160.998ZM50.9536 155.201C50.9712 155.205 50.9902 155.203 51.0078 155.196L80.2734 142.658C80.2859 142.653 80.297 142.645 80.3059 142.635C80.3149 142.625 80.3215 142.613 80.3252 142.6C80.3289 142.587 80.3297 142.573 80.3275 142.56C80.3252 142.547 80.3201 142.534 80.3123 142.523L33.5705 75.4101C33.5458 75.3747 33.4997 75.3614 33.4599 75.3784L4.19429 87.9157C4.18184 87.921 4.17073 87.929 4.16177 87.9391C4.15281 87.9493 4.14623 87.9613 4.1425 87.9743C4.13878 87.9873 4.138 88.001 4.14024 88.0143C4.14247 88.0276 4.14766 88.0403 4.15541 88.0514L50.8971 155.164C50.9105 155.183 50.9307 155.197 50.9536 155.201ZM80.099 142.535L51.0042 154.999L4.36882 88.0391L33.4635 75.575L80.099 142.535ZM55.5819 149.693C55.5996 149.696 55.6185 149.695 55.6361 149.687L71.8611 142.737C71.8735 142.731 71.8846 142.723 71.8936 142.713C71.9026 142.703 71.9091 142.691 71.9129 142.678C71.9166 142.665 71.9174 142.651 71.9151 142.638C71.9129 142.625 71.9077 142.612 71.8999 142.601C71.1927 141.585 70.9526 140.425 71.2411 139.418C71.4953 138.53 72.1364 137.826 73.0464 137.436C73.0589 137.431 73.07 137.423 73.079 137.413C73.0879 137.403 73.0945 137.391 73.0982 137.378C73.1019 137.365 73.1027 137.351 73.1005 137.338C73.0982 137.325 73.0931 137.312 73.0853 137.301L35.2685 83.0026C35.2565 82.9854 35.2389 82.9729 35.2188 82.9672C35.1986 82.9614 35.1771 82.9627 35.1578 82.9709C33.1244 83.8421 30.3358 82.9224 28.9417 80.9207C28.917 80.8853 28.8709 80.872 28.8311 80.889L12.6062 87.8397C12.5937 87.845 12.5826 87.853 12.5736 87.8632C12.5647 87.8733 12.5581 87.8853 12.5544 87.8983C12.5506 87.9113 12.5499 87.925 12.5521 87.9383C12.5543 87.9517 12.5595 87.9643 12.5673 87.9754C13.2745 88.9908 13.5146 90.1511 13.2262 91.1586C12.9719 92.0463 12.3308 92.7499 11.4208 93.1398C11.4084 93.1451 11.3973 93.1531 11.3883 93.1632C11.3793 93.1733 11.3727 93.1853 11.369 93.1983C11.3653 93.2113 11.3645 93.225 11.3668 93.2384C11.369 93.2517 11.3742 93.2644 11.3819 93.2755L49.1988 147.574C49.2236 147.609 49.2697 147.622 49.3095 147.605C51.3429 146.734 54.1314 147.654 55.5255 149.656C55.5393 149.675 55.5597 149.688 55.5819 149.693ZM71.6877 142.613L55.6321 149.491C54.1933 147.487 51.3876 146.564 49.3063 147.409L11.5944 93.2619C12.5017 92.8421 13.1414 92.1167 13.4013 91.2088C13.6962 90.1791 13.4694 89.002 12.7795 87.9637L28.8353 81.0854C30.274 83.0899 33.0796 84.0127 35.161 83.167L72.8729 137.314C71.9655 137.734 71.3259 138.46 71.066 139.368C70.7711 140.397 70.9979 141.574 71.6877 142.613ZM41.655 125.995C44.3169 126.542 46.9851 126.346 49.2399 125.38C52.6124 123.935 54.6415 120.951 54.6676 117.398C54.6677 117.383 54.664 117.368 54.657 117.354C54.6499 117.341 54.6395 117.33 54.6269 117.321C54.6143 117.313 54.5998 117.308 54.5848 117.306C54.5697 117.305 54.5545 117.307 54.5406 117.313L37.7923 124.488C37.7764 124.495 37.7627 124.506 37.7529 124.521C37.7432 124.535 37.7377 124.552 37.7372 124.569C37.7367 124.587 37.7412 124.604 37.7502 124.619C37.7591 124.634 37.7721 124.646 37.7877 124.653C39.0421 125.278 40.3477 125.726 41.655 125.995ZM54.4833 117.536C54.4062 120.953 52.4276 123.816 49.168 125.213C45.9066 126.61 41.7628 126.37 38.0465 124.578L54.4833 117.536ZM29.873 113.268C29.891 113.272 29.9099 113.27 29.9273 113.263L46.6785 106.086C46.6945 106.08 46.7082 106.068 46.7179 106.054C46.7277 106.04 46.7331 106.023 46.7336 106.005C46.7341 105.988 46.7296 105.971 46.7207 105.956C46.7118 105.941 46.6988 105.929 46.6832 105.921C42.8739 104.026 38.5914 103.755 35.2275 105.197C31.8539 106.642 29.8251 109.626 29.8003 113.178C29.8002 113.199 29.8074 113.22 29.8207 113.236C29.8339 113.253 29.8524 113.264 29.873 113.268ZM46.4243 105.997L29.9845 113.04C30.0603 109.624 32.0387 106.761 35.2992 105.364C38.5625 103.966 42.7076 104.205 46.4243 105.997ZM31.5501 127.343C31.5678 127.347 31.5867 127.345 31.6043 127.337L60.87 114.8C60.8824 114.795 60.8935 114.787 60.9025 114.777C60.9114 114.767 60.918 114.755 60.9218 114.742C60.9255 114.728 60.9262 114.715 60.924 114.701C60.9218 114.688 60.9166 114.675 60.9088 114.664L52.9735 103.271C52.9615 103.253 52.9439 103.241 52.9238 103.235C52.9037 103.229 52.8821 103.231 52.8629 103.239L23.5972 115.776C23.5848 115.782 23.5737 115.79 23.5647 115.8C23.5558 115.81 23.5492 115.822 23.5454 115.835C23.5417 115.848 23.5409 115.862 23.5432 115.875C23.5454 115.888 23.5506 115.901 23.5584 115.912L31.4937 127.306C31.507 127.325 31.5272 127.338 31.5501 127.343ZM60.6955 114.677L31.6007 127.141L23.7716 115.9L52.8664 103.436L60.6955 114.677ZM30.5521 125.91C30.5704 125.914 30.5893 125.912 30.6064 125.905L59.872 113.367C59.8844 113.362 59.8955 113.354 59.9045 113.344C59.9135 113.334 59.9201 113.322 59.9238 113.309C59.9275 113.296 59.9283 113.282 59.926 113.269C59.9238 113.255 59.9186 113.243 59.9109 113.231L53.9715 104.704C53.9468 104.668 53.9006 104.655 53.8609 104.672L24.5953 117.209C24.5828 117.215 24.5717 117.223 24.5627 117.233C24.5538 117.243 24.5472 117.255 24.5435 117.268C24.5397 117.281 24.539 117.295 24.5412 117.308C24.5434 117.321 24.5486 117.334 24.5564 117.345L30.4957 125.873C30.5091 125.892 30.5293 125.905 30.5521 125.91ZM59.6974 113.244L30.6027 125.708L24.7696 117.333L53.8644 104.869L59.6974 113.244ZM50.8651 155.118L47.8231 160.736L1.19787 93.7901L4.23984 88.1727L50.8651 155.118ZM28.4108 133.138C28.43 133.142 28.4499 133.139 28.4676 133.131C28.4854 133.123 28.5 133.109 28.5093 133.092L31.6482 127.295C31.6563 127.28 31.66 127.264 31.6591 127.247C31.6581 127.23 31.6525 127.214 31.6428 127.2L23.7075 115.806C23.6986 115.793 23.6866 115.783 23.6726 115.776C23.6587 115.769 23.6432 115.766 23.6277 115.767C23.6121 115.768 23.5971 115.773 23.584 115.781C23.5708 115.79 23.5601 115.801 23.5527 115.815L20.4137 121.611C20.4057 121.626 20.4019 121.643 20.4029 121.66C20.4038 121.677 20.4095 121.693 20.4191 121.707L28.3544 133.101C28.3678 133.12 28.388 133.133 28.4108 133.138ZM31.4614 127.258L28.4194 132.875L20.6006 121.649L23.6426 116.031L31.4614 127.258ZM27.4127 131.705C27.4319 131.709 27.4518 131.706 27.4695 131.698C27.4872 131.69 27.5018 131.676 27.5111 131.659L30.6501 125.862C30.6581 125.847 30.6619 125.831 30.6609 125.814C30.66 125.797 30.6543 125.781 30.6447 125.767L24.7054 117.239C24.6965 117.226 24.6845 117.216 24.6705 117.209C24.6565 117.202 24.641 117.199 24.6255 117.2C24.61 117.201 24.595 117.206 24.5818 117.214C24.5687 117.222 24.5579 117.234 24.5505 117.248L21.4115 123.044C21.4034 123.059 21.3997 123.076 21.4006 123.093C21.4016 123.11 21.4072 123.126 21.4169 123.14L27.3562 131.667C27.3699 131.687 27.3901 131.7 27.4127 131.705ZM30.4633 125.825L27.4213 131.442L21.5985 123.082L24.6404 117.464L30.4633 125.825ZM77.0335 148.3L48.0376 160.722L51.037 155.183L80.0329 142.762L77.0335 148.3Z" stroke="#479FF7" stroke-width="0.5"/>
<path fillRule="evenodd" clipRule="evenodd" d="M187.123 138.438C187.965 139.24 188.874 139.975 189.842 140.633C192.798 142.651 196.189 143.962 199.923 144.529C200.999 144.693 202.084 144.791 203.172 144.824C205.046 144.879 206.921 144.75 208.77 144.437C213.54 143.633 218.043 141.679 221.887 138.745C221.904 138.733 221.915 138.715 221.92 138.695C221.925 138.674 221.922 138.653 221.913 138.635L220.438 135.675C220.437 135.673 220.436 135.671 220.435 135.669L220.434 135.666C220.431 135.662 220.429 135.659 220.426 135.655L207.107 119.979L220.848 99.3981C220.857 99.385 220.862 99.3699 220.863 99.3543C220.864 99.3386 220.861 99.323 220.854 99.309L219.378 96.3469C219.372 96.3329 219.361 96.3209 219.348 96.3123C219.344 96.3096 219.34 96.3073 219.335 96.3053C216.943 95.0781 214.366 94.2505 211.706 93.8554C207.84 93.2682 203.792 93.5337 199.874 94.6193L199.815 94.8211C203.743 93.7173 207.803 93.4431 211.679 94.0318C214.288 94.4196 216.817 95.2261 219.168 96.4203L205.09 117.508L204.997 117.227L198.777 98.389L198.689 98.6918L204.926 117.582L204.926 117.582L204.955 117.668L190.762 125.933L190.689 126.182L202.101 119.537L204.986 117.857L205.824 126.806L207.182 141.313C204.302 141.797 201.363 141.823 198.474 141.391C194.767 140.828 191.401 139.527 188.467 137.524C188.164 137.318 187.867 137.104 187.575 136.883L187.522 137.066C187.764 137.249 188.01 137.426 188.261 137.598C188.296 137.623 188.332 137.647 188.367 137.671C191.322 139.69 194.714 141.001 198.448 141.568C198.487 141.574 198.526 141.58 198.565 141.585C199.603 141.738 200.648 141.831 201.697 141.863C201.939 141.87 202.182 141.874 202.425 141.875C204.053 141.884 205.681 141.751 207.291 141.476L207.292 141.476L207.295 141.476C212.03 140.678 216.501 138.747 220.326 135.849L221.72 138.648C217.912 141.54 213.458 143.466 208.74 144.261C205.834 144.758 202.866 144.789 199.95 144.353C196.243 143.79 192.877 142.489 189.944 140.485C188.958 139.816 188.034 139.065 187.179 138.244L187.123 138.438ZM205.174 117.703L219.287 96.5648L220.671 99.3416L206.987 119.837L205.174 117.703ZM205.178 117.984L207.073 138.229L207.359 141.284C209.99 140.832 212.537 140.028 214.935 138.901C215.201 138.776 215.466 138.647 215.729 138.513C217.305 137.715 218.811 136.774 220.228 135.699L205.178 117.984ZM226.538 136.505C226.759 136.36 226.978 136.212 227.195 136.061C227.899 135.571 228.58 135.051 229.235 134.503C229.991 133.871 230.712 133.202 231.394 132.501L231.4 132.494C234.819 128.97 237.139 124.715 238.11 120.189C238.401 118.834 238.567 117.475 238.611 116.126C238.633 115.428 238.622 114.729 238.578 114.029C238.504 112.841 238.334 111.676 238.074 110.543C237.821 109.446 237.481 108.37 237.054 107.323C237.054 107.322 237.053 107.32 237.052 107.318C237.051 107.315 237.05 107.311 237.049 107.307C235.706 104.022 233.533 101.112 230.647 98.8031C229.958 98.2516 229.21 97.7223 228.421 97.2292L212.662 117.431L226.538 136.505ZM230.759 98.6629C233.746 101.053 235.976 104.081 237.321 107.502L238.476 110.336C240.125 114.381 240.494 118.866 239.541 123.306C238.563 127.869 236.224 132.156 232.778 135.706C231.296 137.231 229.63 138.602 227.825 139.78C227.821 139.782 227.817 139.785 227.812 139.787C227.799 139.794 227.784 139.797 227.769 139.797C227.767 139.797 227.764 139.797 227.761 139.796C227.759 139.796 227.757 139.796 227.755 139.795C227.752 139.795 227.749 139.794 227.746 139.793C227.737 139.791 227.728 139.787 227.72 139.781C227.71 139.774 227.702 139.765 227.696 139.755L213.733 120.562C213.731 120.559 213.728 120.555 213.726 120.551C213.725 120.549 213.724 120.546 213.723 120.544L212.467 117.464L212.467 117.463C212.465 117.459 212.464 117.454 212.463 117.45C212.461 117.443 212.46 117.435 212.46 117.428C212.461 117.409 212.467 117.39 212.479 117.374L228.329 97.0551C228.343 97.0376 228.362 97.0258 228.384 97.0219C228.406 97.018 228.428 97.0224 228.447 97.034C229.267 97.5429 230.045 98.091 230.759 98.6629ZM238.095 109.876C238.143 110.06 238.189 110.245 238.232 110.43C238.678 112.333 238.863 114.3 238.785 116.287C238.69 118.791 238.178 121.279 237.255 123.711C236.011 126.99 234.082 129.989 231.522 132.626C231.408 132.744 231.292 132.861 231.175 132.977C229.798 134.346 228.27 135.584 226.627 136.662L227.813 139.572C229.574 138.415 231.2 137.072 232.649 135.581C236.072 132.056 238.394 127.798 239.366 123.269C240.311 118.864 239.945 114.416 238.31 110.403L238.095 109.876ZM227.409 139.057L226.437 136.671L212.912 118.079L213.885 120.466L227.409 139.057Z" fill="#479FF7"/>
<path d="M211.706 93.8554L211.692 93.9436M187.123 138.438C187.965 139.24 188.874 139.975 189.842 140.633C192.798 142.651 196.189 143.962 199.923 144.529C200.999 144.693 202.084 144.791 203.172 144.824C205.046 144.879 206.921 144.75 208.77 144.437C213.54 143.633 218.043 141.679 221.887 138.745C221.904 138.733 221.915 138.715 221.92 138.695C221.925 138.674 221.922 138.653 221.913 138.635L220.438 135.675C220.437 135.673 220.436 135.671 220.435 135.669L220.434 135.666C220.431 135.662 220.429 135.659 220.426 135.655L207.107 119.979L220.848 99.3981C220.857 99.385 220.862 99.3699 220.863 99.3543C220.864 99.3386 220.861 99.323 220.854 99.309L219.378 96.3469C219.372 96.3329 219.361 96.3209 219.348 96.3123C219.344 96.3096 219.34 96.3073 219.335 96.3053C216.943 95.0781 214.366 94.2505 211.706 93.8554C207.84 93.2682 203.792 93.5337 199.874 94.6193L199.815 94.8211C203.743 93.7173 207.803 93.4431 211.679 94.0318C214.288 94.4196 216.817 95.2261 219.168 96.4203L205.09 117.508L204.997 117.227L198.777 98.389L198.689 98.6918L204.926 117.582L204.926 117.582L204.955 117.668L190.762 125.933L190.689 126.182L202.101 119.537L204.986 117.857L205.824 126.806L207.182 141.313C204.302 141.797 201.363 141.823 198.474 141.391C194.767 140.828 191.401 139.527 188.467 137.524C188.164 137.318 187.867 137.104 187.575 136.883L187.522 137.066C187.764 137.249 188.01 137.426 188.261 137.598C188.296 137.623 188.332 137.647 188.367 137.671C191.322 139.69 194.714 141.001 198.448 141.568C198.487 141.574 198.526 141.58 198.565 141.585C199.603 141.738 200.648 141.831 201.697 141.863C201.939 141.87 202.182 141.874 202.425 141.875C204.053 141.884 205.681 141.751 207.291 141.476L207.292 141.476L207.295 141.476C212.03 140.678 216.501 138.747 220.326 135.849L221.72 138.648C217.912 141.54 213.458 143.466 208.74 144.261C205.834 144.758 202.866 144.789 199.95 144.353C196.243 143.79 192.877 142.489 189.944 140.485C188.958 139.816 188.034 139.065 187.179 138.244L187.123 138.438ZM219.287 96.5648L205.174 117.703L206.987 119.837L220.671 99.3416L219.287 96.5648ZM207.073 138.229L205.178 117.984L220.228 135.699C218.811 136.774 217.305 137.715 215.729 138.513C215.466 138.647 215.201 138.776 214.935 138.901C212.537 140.028 209.99 140.832 207.359 141.284L207.073 138.229ZM227.195 136.061C226.978 136.212 226.759 136.36 226.538 136.505L212.662 117.431L228.421 97.2292C229.21 97.7223 229.958 98.2516 230.647 98.8031C233.533 101.112 235.706 104.022 237.049 107.307C237.05 107.311 237.051 107.315 237.052 107.318C237.053 107.32 237.054 107.322 237.054 107.323C237.481 108.37 237.821 109.446 238.074 110.543C238.334 111.676 238.504 112.841 238.578 114.029C238.622 114.729 238.633 115.428 238.611 116.126C238.567 117.475 238.401 118.834 238.11 120.189C237.139 124.715 234.819 128.97 231.4 132.494L231.394 132.501C230.712 133.202 229.991 133.871 229.235 134.503C228.58 135.051 227.899 135.571 227.195 136.061ZM237.321 107.502C235.976 104.081 233.746 101.053 230.759 98.6629C230.045 98.091 229.267 97.5429 228.447 97.034C228.428 97.0224 228.406 97.018 228.384 97.0219C228.362 97.0258 228.343 97.0376 228.329 97.0551L212.479 117.374C212.467 117.39 212.461 117.409 212.46 117.428C212.46 117.435 212.461 117.443 212.463 117.45C212.464 117.454 212.465 117.459 212.467 117.463L212.467 117.464L213.723 120.544C213.724 120.546 213.725 120.549 213.726 120.551C213.728 120.555 213.731 120.559 213.733 120.562L227.696 139.755C227.702 139.765 227.71 139.774 227.72 139.781C227.728 139.787 227.737 139.791 227.746 139.793C227.749 139.794 227.752 139.795 227.755 139.795C227.757 139.796 227.759 139.796 227.761 139.796C227.764 139.797 227.767 139.797 227.769 139.797C227.784 139.797 227.799 139.794 227.812 139.787C227.817 139.785 227.821 139.782 227.825 139.78C229.63 138.602 231.296 137.231 232.778 135.706C236.224 132.156 238.563 127.869 239.541 123.306C240.494 118.866 240.125 114.381 238.476 110.336L237.321 107.502ZM238.232 110.43C238.189 110.245 238.143 110.06 238.095 109.876L238.31 110.403C239.945 114.416 240.311 118.864 239.366 123.269C238.394 127.798 236.072 132.056 232.649 135.581C231.2 137.072 229.574 138.415 227.813 139.572L226.627 136.662C228.27 135.584 229.798 134.346 231.175 132.977C231.292 132.861 231.408 132.744 231.522 132.626C234.082 129.989 236.011 126.99 237.255 123.711C238.178 121.279 238.69 118.791 238.785 116.287C238.863 114.3 238.678 112.333 238.232 110.43ZM226.437 136.671L227.409 139.057L213.885 120.466L212.912 118.079L226.437 136.671Z" stroke="#479FF7" stroke-width="0.5"/>
<path d="M106.428 95.0992C106.402 95.0992 106.377 95.0896 106.358 95.0717L98.6323 87.9413C98.6194 87.9293 98.6098 87.9143 98.6043 87.8975C98.5988 87.8808 98.5976 87.863 98.6009 87.8457C98.6041 87.8284 98.6117 87.8122 98.623 87.7987C98.6342 87.7851 98.6487 87.7746 98.665 87.7682L101.391 86.7052C100.814 83.0942 101.085 79.2038 102.176 75.4488C103.914 69.4665 107.642 63.9904 112.673 60.0293C117.654 56.1074 123.577 53.9198 129.349 53.8697C129.373 53.8694 129.397 53.8777 129.416 53.8931C129.434 53.9085 129.447 53.93 129.452 53.9539C129.456 53.9778 129.452 54.0026 129.441 54.0239C129.429 54.0452 129.41 54.0616 129.387 54.0704L124.549 55.9524L128.594 59.6944C128.609 59.7086 128.62 59.727 128.624 59.7472C128.629 59.7675 128.628 59.7887 128.62 59.8081C128.613 59.8275 128.599 59.8442 128.582 59.8561C128.565 59.8679 128.545 59.8743 128.524 59.8745C119.417 59.9532 110.512 67.0281 107.809 76.3314C107.025 79.0325 106.795 81.8404 107.143 84.4611L109.702 83.4632C109.72 83.4562 109.74 83.4544 109.759 83.458C109.778 83.4615 109.795 83.4703 109.81 83.4834C109.824 83.4964 109.834 83.5132 109.839 83.5319C109.845 83.5505 109.845 83.5702 109.839 83.5889L106.528 95.0245C106.521 95.0461 106.508 95.0651 106.49 95.0787C106.472 95.0922 106.45 95.0995 106.428 95.0994L106.428 95.0992ZM98.8952 87.9014L106.375 94.8052L109.581 83.733L107.096 84.7023C107.082 84.708 107.066 84.7104 107.05 84.7091C107.035 84.7079 107.02 84.7032 107.006 84.6952C106.993 84.6873 106.981 84.6765 106.972 84.6635C106.964 84.6504 106.958 84.6356 106.956 84.6201C106.578 81.9335 106.804 79.0471 107.61 76.2733C108.948 71.6687 111.816 67.4544 115.688 64.4064C119.447 61.4471 123.902 59.7711 128.263 59.6708L124.286 55.9919C124.274 55.9799 124.264 55.9649 124.258 55.9482C124.253 55.9314 124.252 55.9136 124.255 55.8963C124.258 55.879 124.266 55.8628 124.277 55.8493C124.288 55.8357 124.303 55.8253 124.319 55.8189L128.764 54.0897C117.111 54.4847 105.836 63.5925 102.375 75.5068C101.285 79.261 101.02 83.1505 101.609 86.7546C101.613 86.7781 101.608 86.8021 101.597 86.8228C101.585 86.8435 101.566 86.8594 101.544 86.8681L98.8952 87.9014Z" fill="#479FF7"/>
<path d="M145.056 91.4687C145.04 91.4686 145.024 91.4648 145.01 91.4576C144.995 91.4504 144.983 91.4399 144.973 91.427C144.964 91.4141 144.957 91.3991 144.954 91.3833C144.951 91.3674 144.952 91.3511 144.957 91.3356L146.398 86.3876L140.631 88.6254C140.61 88.6335 140.587 88.6346 140.566 88.6287C140.544 88.6228 140.525 88.6102 140.511 88.5927C140.498 88.5752 140.49 88.5537 140.489 88.5315C140.489 88.5092 140.495 88.4874 140.508 88.4692C141.967 86.3837 143.056 84.1249 143.744 81.7555C145.214 76.696 144.727 71.6513 142.372 67.5508C140.32 63.9754 136.977 61.4412 132.952 60.4059L132.174 63.0849C132.169 63.1018 132.16 63.1173 132.147 63.1297C132.134 63.1421 132.119 63.1511 132.102 63.1559C132.085 63.1606 132.067 63.1609 132.05 63.1568C132.032 63.1526 132.016 63.1442 132.003 63.1322L124.286 55.9922C124.273 55.9802 124.264 55.9652 124.258 55.9485C124.253 55.9317 124.252 55.9139 124.255 55.8966C124.258 55.8793 124.266 55.8631 124.277 55.8496C124.288 55.836 124.303 55.8256 124.319 55.8192L135.358 51.5252C135.376 51.5181 135.396 51.5163 135.415 51.5198C135.434 51.5234 135.451 51.5322 135.466 51.5453C135.48 51.5584 135.49 51.5752 135.496 51.5939C135.501 51.6125 135.501 51.6323 135.495 51.6509L134.682 54.4497C140.121 55.7136 144.652 59.0214 147.451 63.7732C150.648 69.1996 151.33 75.899 149.373 82.6374C148.472 85.738 147.048 88.6945 145.141 91.4245C145.132 91.4382 145.119 91.4494 145.104 91.4572C145.089 91.4649 145.073 91.469 145.056 91.469V91.4687ZM146.557 86.1109C146.573 86.1109 146.589 86.1147 146.603 86.1219C146.618 86.1291 146.63 86.1396 146.64 86.1525C146.649 86.1654 146.656 86.1803 146.659 86.1962C146.662 86.212 146.661 86.2284 146.656 86.2438L145.338 90.768C147.049 88.2074 148.338 85.4557 149.173 82.5792C151.115 75.8964 150.44 69.255 147.273 63.8784C144.484 59.1452 139.959 55.8597 134.529 54.6273C134.515 54.6242 134.502 54.6183 134.491 54.6099C134.479 54.6016 134.47 54.591 134.462 54.5788C134.455 54.5666 134.451 54.5531 134.449 54.539C134.447 54.525 134.448 54.5107 134.452 54.4971L135.237 51.7948L124.549 55.9524L132.021 62.8656L132.781 60.2516C132.788 60.2258 132.805 60.2039 132.829 60.1905C132.852 60.1771 132.88 60.1733 132.906 60.1798C137.029 61.2131 140.455 63.794 142.553 67.4475C144.935 71.5974 145.429 76.6993 143.944 81.8135C143.279 84.0998 142.246 86.2837 140.87 88.3099L146.519 86.1181C146.532 86.1134 146.544 86.1111 146.557 86.1111L146.557 86.1109Z" fill="#479FF7"/>
<path d="M121.94 104.206C120.795 104.206 119.663 104.123 118.555 103.955C115.04 103.421 111.748 102.026 109.034 99.9188C106.34 97.8281 104.2 95.0265 102.844 91.8168C102.835 91.795 102.834 91.7706 102.84 91.7478C102.847 91.725 102.861 91.7052 102.88 91.6915C102.9 91.6779 102.923 91.6713 102.947 91.6729C102.97 91.6744 102.993 91.684 103.01 91.7001L106.375 94.8052L108.115 88.7958C108.121 88.7752 108.133 88.757 108.15 88.7437C108.167 88.7303 108.187 88.7225 108.209 88.7212C108.23 88.72 108.251 88.7253 108.27 88.7366C108.288 88.7479 108.302 88.7646 108.31 88.7843C110.405 93.7487 114.869 97.2001 120.251 98.0166C126.058 98.8975 132.399 96.7362 137.235 92.232L135.445 90.5743C135.433 90.5623 135.423 90.5472 135.417 90.5305C135.412 90.5138 135.411 90.4959 135.414 90.4786C135.417 90.4613 135.425 90.4452 135.436 90.4316C135.448 90.4181 135.462 90.4077 135.478 90.4013L146.519 86.1179C146.537 86.1109 146.557 86.109 146.576 86.1126C146.595 86.1162 146.613 86.1251 146.627 86.1382C146.641 86.1513 146.651 86.1681 146.657 86.1868C146.662 86.2055 146.662 86.2252 146.656 86.2438L143.326 97.6715C143.321 97.6884 143.312 97.7038 143.3 97.7162C143.287 97.7286 143.271 97.7376 143.254 97.7423C143.237 97.747 143.219 97.7473 143.202 97.7432C143.185 97.739 143.169 97.7306 143.156 97.7186L141.268 95.9686C138.162 98.9732 134.446 101.297 130.517 102.691C127.685 103.695 124.772 104.206 121.94 104.206ZM103.233 92.1882C106.038 98.4042 111.741 102.711 118.586 103.749C126.384 104.932 134.835 101.942 141.194 95.7511C141.233 95.7127 141.296 95.7119 141.337 95.7493L143.174 97.4521L146.398 86.3876L135.709 90.5348L137.458 92.1554C137.468 92.1651 137.476 92.1768 137.482 92.1898C137.488 92.2029 137.491 92.2169 137.491 92.2311C137.491 92.2454 137.488 92.2595 137.482 92.2725C137.477 92.2856 137.468 92.2974 137.458 92.3071C132.566 96.906 126.122 99.1171 120.22 98.2217C117.512 97.811 114.976 96.7351 112.885 95.1103C110.886 93.5564 109.282 91.4935 108.234 89.1307L106.527 95.0241C106.523 95.0411 106.513 95.0566 106.501 95.0691C106.488 95.0816 106.473 95.0907 106.456 95.0954C106.439 95.1002 106.421 95.1005 106.403 95.0963C106.386 95.0921 106.37 95.0836 106.357 95.0715L103.233 92.188L103.233 92.1882Z" fill="#479FF7"/>
<path d="M151.981 49.431C151.976 49.431 151.971 49.4306 151.966 49.4298L118.3 44.3222C118.285 44.32 118.271 44.3147 118.259 44.3066C118.247 44.2985 118.236 44.2879 118.228 44.2755C118.22 44.263 118.215 44.249 118.213 44.2344C118.211 44.2198 118.212 44.2049 118.216 44.1907L121.139 34.1286C121.153 34.0787 121.203 34.047 121.254 34.0549L154.92 39.1625C154.934 39.1647 154.948 39.1701 154.961 39.1781C154.973 39.1862 154.984 39.1968 154.992 39.2093C155 39.2217 155.005 39.2357 155.007 39.2503C155.009 39.2649 155.008 39.2799 155.004 39.2941L152.081 49.3559C152.075 49.3775 152.062 49.3964 152.044 49.4099C152.026 49.4234 152.004 49.4309 151.981 49.431ZM118.448 44.1346L151.907 49.2108L154.772 39.3501L121.313 34.2739L118.448 44.1346Z" fill="#479FF7"/>
<path d="M129.754 125.946C129.749 125.946 129.744 125.946 129.739 125.945L96.0727 120.837C96.0581 120.835 96.0441 120.83 96.0317 120.822C96.0193 120.814 96.0088 120.803 96.0008 120.791C95.9928 120.778 95.9876 120.764 95.9855 120.749C95.9834 120.735 95.9844 120.72 95.9885 120.706L100.146 106.392C100.161 106.343 100.21 106.311 100.262 106.319L133.927 111.426C133.942 111.429 133.956 111.434 133.968 111.442C133.981 111.45 133.991 111.461 133.999 111.473C134.007 111.486 134.013 111.5 134.015 111.514C134.017 111.529 134.016 111.544 134.012 111.558L129.854 125.871C129.848 125.893 129.834 125.912 129.816 125.925C129.799 125.939 129.777 125.946 129.754 125.946ZM96.221 120.65L129.68 125.726L133.779 111.614L100.32 106.538L96.221 120.65Z" fill="#479FF7"/>
<path d="M90.9844 82.3264C90.9791 82.3264 90.9739 82.326 90.9687 82.3252L62.268 77.9709C62.2534 77.9687 62.2394 77.9634 62.227 77.9553C62.2146 77.9473 62.204 77.9367 62.1961 77.9242C62.1881 77.9118 62.1829 77.8977 62.1808 77.8831C62.1786 77.8685 62.1797 77.8535 62.1838 77.8393L66.8919 61.6323C66.9064 61.5824 66.956 61.5507 67.0071 61.5586L95.7078 65.913C95.7224 65.9152 95.7364 65.9206 95.7488 65.9286C95.7612 65.9367 95.7717 65.9473 95.7796 65.9597C95.7876 65.9722 95.7928 65.9862 95.795 66.0008C95.7971 66.0154 95.7961 66.0304 95.792 66.0446L91.0839 82.2517C91.0777 82.2732 91.0646 82.2922 91.0466 82.3057C91.0287 82.3192 91.0068 82.3264 90.9844 82.3264ZM62.4163 77.7834L90.91 82.1063L95.5596 66.1004L67.0659 61.7775L62.4163 77.7834Z" fill="#479FF7"/>
<path d="M184.563 96.524C184.558 96.524 184.553 96.5236 184.548 96.5227L155.842 92.1677C155.828 92.1655 155.814 92.1602 155.801 92.1522C155.789 92.1441 155.778 92.1335 155.77 92.121C155.762 92.1086 155.757 92.0946 155.755 92.0799C155.753 92.0653 155.754 92.0504 155.758 92.0362L160.466 75.8291C160.481 75.7792 160.531 75.7478 160.581 75.7554L189.287 80.1106C189.302 80.1128 189.316 80.1181 189.328 80.1262C189.34 80.1342 189.351 80.1448 189.359 80.1573C189.367 80.1697 189.372 80.1838 189.374 80.1984C189.376 80.213 189.375 80.2279 189.371 80.2421L184.663 96.4491C184.657 96.4707 184.643 96.4897 184.626 96.5032C184.608 96.5167 184.586 96.524 184.563 96.524ZM155.991 91.9802L184.489 96.3039L189.139 80.2981L160.64 75.9743L155.991 91.9802Z" fill="#479FF7"/>
<path d="M133.988 76.4549C133.983 76.4549 133.978 76.4545 133.972 76.4536L119.742 74.2947C119.727 74.2924 119.713 74.2871 119.701 74.2791C119.688 74.271 119.678 74.2604 119.67 74.248C119.662 74.2355 119.657 74.2215 119.654 74.2069C119.652 74.1922 119.653 74.1773 119.658 74.1631L120.719 70.5098C120.726 70.4856 120.741 70.4648 120.763 70.4513C120.784 70.4378 120.809 70.4324 120.834 70.4362L135.065 72.5952C135.079 72.5974 135.093 72.6028 135.106 72.6108C135.118 72.6189 135.129 72.6295 135.137 72.6419C135.144 72.6544 135.15 72.6684 135.152 72.683C135.154 72.6977 135.153 72.7126 135.149 72.7268L134.088 76.38C134.081 76.4016 134.068 76.4205 134.05 76.434C134.032 76.4475 134.01 76.4548 133.988 76.4549ZM119.89 74.1072L133.914 76.2347L134.916 72.7828L120.893 70.6551L119.89 74.1072Z" fill="#479FF7"/>
<path d="M135.161 85.3438C135.156 85.3438 135.15 85.3434 135.145 85.3426L113.721 82.0921C113.707 82.0899 113.693 82.0846 113.68 82.0765C113.668 82.0685 113.657 82.0579 113.649 82.0454C113.641 82.033 113.636 82.019 113.634 82.0043C113.632 81.9897 113.633 81.9748 113.637 81.9606L114.698 78.3073C114.705 78.2832 114.721 78.2624 114.742 78.2489C114.763 78.2353 114.789 78.2299 114.814 78.2337L136.237 81.4842C136.252 81.4864 136.266 81.4917 136.278 81.4997C136.291 81.5078 136.301 81.5184 136.309 81.5309C136.317 81.5433 136.323 81.5573 136.325 81.572C136.327 81.5866 136.326 81.6015 136.322 81.6157L135.26 85.269C135.254 85.2905 135.241 85.3095 135.223 85.323C135.205 85.3365 135.183 85.3438 135.161 85.3438ZM113.869 81.9047L135.086 85.1237L136.089 81.6717L114.872 78.4527L113.869 81.9047ZM183.712 84.823C183.707 84.823 183.702 84.8226 183.697 84.8217L163.133 81.7019C163.119 81.7001 163.106 81.6956 163.094 81.6886C163.082 81.6817 163.072 81.6724 163.064 81.6613C163.055 81.6503 163.049 81.6377 163.046 81.6243C163.042 81.611 163.042 81.597 163.044 81.5834C163.046 81.5697 163.051 81.5566 163.058 81.5449C163.065 81.5331 163.075 81.5229 163.086 81.5148C163.097 81.5067 163.11 81.5009 163.123 81.4978C163.137 81.4947 163.15 81.4943 163.164 81.4966L183.728 84.6165C183.754 84.6203 183.777 84.6339 183.794 84.6544C183.81 84.6749 183.818 84.7008 183.816 84.7269C183.814 84.7531 183.802 84.7775 183.783 84.7953C183.764 84.8131 183.739 84.823 183.712 84.823ZM176.156 89.8989C176.151 89.8989 176.145 89.8985 176.14 89.8977L161.402 87.6615C161.388 87.6597 161.375 87.6552 161.363 87.6483C161.351 87.6413 161.34 87.632 161.332 87.621C161.324 87.6099 161.318 87.5974 161.315 87.584C161.311 87.5706 161.31 87.5567 161.313 87.543C161.315 87.5294 161.319 87.5163 161.327 87.5045C161.334 87.4927 161.343 87.4825 161.354 87.4744C161.366 87.4663 161.378 87.4606 161.392 87.4575C161.405 87.4543 161.419 87.4539 161.433 87.4563L176.171 89.6924C176.185 89.6944 176.198 89.6991 176.21 89.7062C176.221 89.7132 176.231 89.7225 176.24 89.7335C176.248 89.7445 176.253 89.7569 176.257 89.7702C176.26 89.7834 176.261 89.7972 176.258 89.8107C176.255 89.8352 176.242 89.8576 176.224 89.8738C176.205 89.89 176.181 89.8989 176.156 89.8989ZM127.886 115.077C127.881 115.077 127.876 115.076 127.87 115.075L103.832 111.428C103.818 111.427 103.805 111.422 103.793 111.415C103.781 111.408 103.771 111.399 103.762 111.388C103.754 111.377 103.748 111.364 103.745 111.351C103.741 111.338 103.741 111.324 103.743 111.31C103.745 111.296 103.75 111.283 103.757 111.271C103.764 111.26 103.773 111.249 103.785 111.241C103.796 111.233 103.809 111.227 103.822 111.224C103.835 111.221 103.849 111.221 103.863 111.223L127.902 114.87C127.928 114.874 127.951 114.888 127.967 114.908C127.984 114.929 127.992 114.954 127.99 114.981C127.988 115.007 127.976 115.031 127.957 115.049C127.938 115.067 127.912 115.077 127.886 115.077ZM121.972 120.402C121.966 120.402 121.961 120.401 121.956 120.4L102.1 117.388C102.087 117.386 102.074 117.382 102.062 117.375C102.05 117.368 102.039 117.359 102.031 117.348C102.023 117.336 102.017 117.324 102.013 117.311C102.01 117.297 102.009 117.283 102.011 117.27C102.014 117.256 102.018 117.243 102.025 117.231C102.033 117.219 102.042 117.209 102.053 117.201C102.065 117.193 102.077 117.187 102.091 117.184C102.104 117.181 102.118 117.18 102.132 117.183L121.987 120.195C122.013 120.199 122.036 120.213 122.053 120.233C122.069 120.254 122.077 120.279 122.075 120.306C122.073 120.332 122.062 120.356 122.042 120.374C122.023 120.392 121.998 120.402 121.972 120.402ZM82.3532 69.4453C82.348 69.4453 82.3427 69.4449 82.3375 69.444L69.5534 67.5045C69.527 67.4994 69.5035 67.4844 69.488 67.4624C69.4725 67.4405 69.466 67.4134 69.4701 67.3868C69.4741 67.3602 69.4883 67.3362 69.5096 67.3198C69.531 67.3035 69.5578 67.296 69.5846 67.2991L82.3687 69.2388C82.3946 69.2426 82.4181 69.2562 82.4344 69.2766C82.4508 69.2971 82.4588 69.323 82.4569 69.3492C82.4549 69.3753 82.4432 69.3997 82.424 69.4175C82.4048 69.4354 82.3794 69.4453 82.3532 69.4453ZM86.9506 76.365C86.9454 76.3649 86.9401 76.3645 86.935 76.3637L67.8222 73.464C67.8085 73.4622 67.7953 73.4577 67.7834 73.4507C67.7715 73.4437 67.7611 73.4345 67.7528 73.4234C67.7445 73.4124 67.7385 73.3998 67.7351 73.3864C67.7317 73.373 67.7311 73.3591 67.7331 73.3455C67.7352 73.3318 67.74 73.3187 67.7472 73.307C67.7544 73.2952 67.7638 73.2849 67.775 73.2769C67.7862 73.2688 67.7989 73.263 67.8123 73.2599C67.8258 73.2568 67.8397 73.2564 67.8533 73.2587L86.9661 76.1584C86.992 76.1623 87.0155 76.1758 87.0319 76.1963C87.0482 76.2168 87.0562 76.2427 87.0543 76.2688C87.0523 76.295 87.0406 76.3194 87.0214 76.3372C87.0022 76.355 86.9768 76.365 86.9506 76.365ZM148.629 43.6699C148.624 43.6699 148.619 43.6695 148.614 43.6687L124.575 40.0216C124.549 40.0166 124.525 40.0015 124.51 39.9796C124.494 39.9576 124.488 39.9305 124.492 39.9039C124.496 39.8773 124.51 39.8533 124.531 39.837C124.553 39.8206 124.579 39.8132 124.606 39.8162L148.645 43.4633C148.671 43.4675 148.694 43.4811 148.71 43.5016C148.726 43.522 148.734 43.5477 148.732 43.5736C148.73 43.5996 148.718 43.6238 148.699 43.6417C148.68 43.6595 148.655 43.6695 148.629 43.6699Z" fill="#479FF7"/>
<path d="M106.428 94.9953L98.7027 87.8649L101.507 86.7714C100.913 83.1428 101.173 79.2728 102.276 75.4779C105.88 63.0693 117.544 54.076 129.35 53.9735L124.357 55.9157M106.428 94.9953L109.74 83.5597L107.059 84.6056C106.682 81.924 106.901 79.0854 107.71 76.3022C110.481 66.7616 119.446 59.8489 128.523 59.7704L124.357 55.9157M106.428 94.9953L108.215 88.8246C110.319 93.8106 114.729 97.2838 120.235 98.1193C126.132 99.0139 132.556 96.7729 137.387 92.2317L135.516 90.4981L146.557 86.2147M106.428 94.9953L102.94 91.7763C105.677 98.256 111.413 102.766 118.57 103.852C126.397 105.039 134.943 101.983 141.266 95.8253L143.227 97.6424L146.557 86.2147M124.357 55.9157L135.396 51.6216L134.552 54.526L134.552 54.5259C146.521 57.2426 153.085 69.4862 149.273 82.608C148.376 85.6963 146.94 88.6672 145.056 91.3647L146.557 86.2147M124.357 55.9157L132.074 63.0557L132.88 60.2803C141.854 62.5289 146.736 71.8272 143.844 81.7843C143.153 84.1607 142.047 86.4501 140.593 88.5285L146.557 86.2147M124.549 55.9524L129.387 54.0704C129.41 54.0616 129.429 54.0452 129.441 54.0239C129.452 54.0026 129.456 53.9778 129.452 53.9539C129.447 53.93 129.434 53.9085 129.416 53.8931C129.397 53.8777 129.373 53.8694 129.349 53.8697C123.577 53.9198 117.654 56.1074 112.673 60.0293C107.642 63.9904 103.914 69.4665 102.176 75.4488C101.085 79.2038 100.814 83.0942 101.391 86.7052L98.665 87.7682C98.6487 87.7746 98.6342 87.7851 98.623 87.7987C98.6117 87.8122 98.6041 87.8284 98.6009 87.8457C98.5976 87.863 98.5988 87.8808 98.6043 87.8975C98.6098 87.9143 98.6194 87.9293 98.6323 87.9413L106.358 95.0717C106.377 95.0896 106.402 95.0992 106.428 95.0992L106.428 95.0994C106.45 95.0995 106.472 95.0922 106.49 95.0787C106.508 95.0651 106.521 95.0461 106.528 95.0245L109.839 83.5889C109.845 83.5702 109.845 83.5505 109.839 83.5319C109.834 83.5132 109.824 83.4964 109.81 83.4834C109.795 83.4703 109.778 83.4615 109.759 83.458C109.74 83.4544 109.72 83.4562 109.702 83.4632L107.143 84.4611C106.795 81.8404 107.025 79.0325 107.809 76.3314C110.512 67.0281 119.417 59.9532 128.524 59.8745C128.545 59.8743 128.565 59.8679 128.582 59.8561C128.599 59.8442 128.613 59.8275 128.62 59.8081C128.628 59.7887 128.629 59.7675 128.624 59.7472C128.62 59.727 128.609 59.7086 128.594 59.6944L124.549 55.9524ZM124.549 55.9524L135.237 51.7948L134.452 54.4971C134.448 54.5107 134.447 54.525 134.449 54.539C134.451 54.5531 134.455 54.5666 134.462 54.5788C134.47 54.591 134.479 54.6016 134.491 54.6099C134.502 54.6183 134.515 54.6242 134.529 54.6273C139.959 55.8597 144.484 59.1452 147.273 63.8784C150.44 69.255 151.115 75.8964 149.173 82.5792C148.338 85.4557 147.049 88.2074 145.338 90.768L146.656 86.2438M124.549 55.9524L132.021 62.8656L132.781 60.2516C132.788 60.2258 132.805 60.2039 132.829 60.1905C132.852 60.1771 132.88 60.1733 132.906 60.1798C137.029 61.2131 140.455 63.794 142.553 67.4475C144.935 71.5974 145.429 76.6993 143.944 81.8135C143.279 84.0998 142.246 86.2837 140.87 88.3099L146.519 86.1181C146.532 86.1134 146.544 86.1111 146.557 86.1111L146.557 86.1109C146.573 86.1109 146.589 86.1147 146.603 86.1219C146.618 86.1291 146.63 86.1396 146.64 86.1525C146.649 86.1654 146.656 86.1803 146.659 86.1962C146.662 86.212 146.661 86.2284 146.656 86.2438M106.375 94.8052L98.8952 87.9014L101.544 86.8681C101.566 86.8594 101.585 86.8435 101.597 86.8228C101.608 86.8021 101.613 86.7781 101.609 86.7546C101.02 83.1505 101.285 79.261 102.375 75.5068C105.836 63.5925 117.111 54.4847 128.764 54.0897L124.319 55.8189C124.303 55.8253 124.288 55.8357 124.277 55.8493C124.266 55.8628 124.258 55.879 124.255 55.8963C124.252 55.9136 124.253 55.9314 124.258 55.9482C124.264 55.9649 124.274 55.9799 124.286 55.9919L128.263 59.6708C123.902 59.7711 119.447 61.4471 115.688 64.4064C111.816 67.4544 108.948 71.6687 107.61 76.2733C106.804 79.0471 106.578 81.9335 106.956 84.6201C106.958 84.6356 106.964 84.6504 106.972 84.6635C106.981 84.6765 106.993 84.6873 107.006 84.6952C107.02 84.7032 107.035 84.7079 107.05 84.7091C107.066 84.7104 107.082 84.708 107.096 84.7023L109.581 83.733L106.375 94.8052ZM106.375 94.8052L103.01 91.7001C102.993 91.684 102.97 91.6744 102.947 91.6729C102.923 91.6713 102.9 91.6779 102.88 91.6915C102.861 91.7052 102.847 91.725 102.84 91.7478C102.834 91.7706 102.835 91.795 102.844 91.8168C104.2 95.0265 106.34 97.8281 109.034 99.9188C111.748 102.026 115.04 103.421 118.555 103.955C119.663 104.123 120.795 104.206 121.94 104.206C124.772 104.206 127.685 103.695 130.517 102.691C134.446 101.297 138.162 98.9732 141.268 95.9686L143.156 97.7186C143.169 97.7306 143.185 97.739 143.202 97.7432C143.219 97.7473 143.237 97.747 143.254 97.7423C143.271 97.7376 143.287 97.7286 143.3 97.7162C143.312 97.7038 143.321 97.6884 143.326 97.6715L146.656 86.2438M106.375 94.8052L108.115 88.7958C108.121 88.7752 108.133 88.757 108.15 88.7437C108.167 88.7303 108.187 88.7225 108.209 88.7212C108.23 88.72 108.251 88.7253 108.27 88.7366C108.288 88.7479 108.302 88.7646 108.31 88.7843C110.405 93.7487 114.869 97.2001 120.251 98.0166C126.058 98.8975 132.399 96.7362 137.235 92.232L135.445 90.5743C135.433 90.5623 135.423 90.5472 135.417 90.5305C135.412 90.5138 135.411 90.4959 135.414 90.4786C135.417 90.4613 135.425 90.4452 135.436 90.4316C135.448 90.4181 135.462 90.4077 135.478 90.4013L146.519 86.1179C146.537 86.1109 146.557 86.109 146.576 86.1126C146.595 86.1162 146.613 86.1251 146.627 86.1382C146.641 86.1513 146.651 86.1681 146.657 86.1868C146.662 86.2055 146.662 86.2252 146.656 86.2438M146.398 86.3876L144.957 91.3356C144.952 91.3511 144.951 91.3674 144.954 91.3833C144.957 91.3991 144.964 91.4141 144.973 91.427C144.983 91.4399 144.995 91.4504 145.01 91.4576C145.024 91.4648 145.04 91.4686 145.056 91.4687V91.469C145.073 91.469 145.089 91.4649 145.104 91.4572C145.119 91.4494 145.132 91.4382 145.141 91.4245C147.048 88.6945 148.472 85.738 149.373 82.6374C151.33 75.899 150.648 69.1996 147.451 63.7732C144.652 59.0214 140.121 55.7136 134.682 54.4497L135.495 51.6509C135.501 51.6323 135.501 51.6125 135.496 51.5939C135.49 51.5752 135.48 51.5584 135.466 51.5453C135.451 51.5322 135.434 51.5234 135.415 51.5198C135.396 51.5163 135.376 51.5181 135.358 51.5252L124.319 55.8192C124.303 55.8256 124.288 55.836 124.277 55.8496C124.266 55.8631 124.258 55.8793 124.255 55.8966C124.252 55.9139 124.253 55.9317 124.258 55.9485C124.264 55.9652 124.273 55.9802 124.286 55.9922L132.003 63.1322C132.016 63.1442 132.032 63.1526 132.05 63.1568C132.067 63.1609 132.085 63.1606 132.102 63.1559C132.119 63.1511 132.134 63.1421 132.147 63.1297C132.16 63.1173 132.169 63.1018 132.174 63.0849L132.952 60.4059C136.977 61.4412 140.32 63.9754 142.372 67.5508C144.727 71.6513 145.214 76.696 143.744 81.7555C143.056 84.1249 141.967 86.3837 140.508 88.4692C140.495 88.4874 140.489 88.5092 140.489 88.5315C140.49 88.5537 140.498 88.5752 140.511 88.5927C140.525 88.6102 140.544 88.6228 140.566 88.6287C140.587 88.6346 140.61 88.6335 140.631 88.6254L146.398 86.3876ZM146.398 86.3876L143.174 97.4521L141.337 95.7493C141.296 95.7119 141.233 95.7127 141.194 95.7511C134.835 101.942 126.384 104.932 118.586 103.749C111.741 102.711 106.038 98.4042 103.233 92.1882L103.233 92.188L106.357 95.0715C106.37 95.0836 106.386 95.0921 106.403 95.0963C106.421 95.1005 106.439 95.1002 106.456 95.0954C106.473 95.0907 106.488 95.0816 106.501 95.0691C106.513 95.0566 106.523 95.0411 106.527 95.0241L108.234 89.1307C109.282 91.4935 110.886 93.5564 112.885 95.1103C114.976 96.7351 117.512 97.811 120.22 98.2217C126.122 99.1171 132.566 96.906 137.458 92.3071C137.468 92.2974 137.477 92.2856 137.482 92.2725C137.488 92.2595 137.491 92.2454 137.491 92.2311C137.491 92.2169 137.488 92.2029 137.482 92.1898C137.476 92.1768 137.468 92.1651 137.458 92.1554L135.709 90.5348L146.398 86.3876ZM121.238 34.1576L118.315 44.2194L151.981 49.3271L154.904 39.2653L121.238 34.1576ZM151.981 49.431C151.976 49.431 151.971 49.4306 151.966 49.4298L118.3 44.3222C118.285 44.32 118.271 44.3147 118.259 44.3066C118.247 44.2985 118.236 44.2879 118.228 44.2755C118.22 44.263 118.215 44.249 118.213 44.2344C118.211 44.2198 118.212 44.2049 118.216 44.1907L121.139 34.1286C121.153 34.0787 121.203 34.047 121.254 34.0549L154.92 39.1625C154.934 39.1647 154.948 39.1701 154.961 39.1781C154.973 39.1862 154.984 39.1968 154.992 39.2093C155 39.2217 155.005 39.2357 155.007 39.2503C155.009 39.2649 155.008 39.2799 155.004 39.2941L152.081 49.3559C152.075 49.3775 152.062 49.3964 152.044 49.4099C152.026 49.4234 152.004 49.4309 151.981 49.431ZM118.448 44.1346L151.907 49.2108L154.772 39.3501L121.313 34.2739L118.448 44.1346ZM100.246 106.421L96.0882 120.735L129.754 125.842L133.912 111.529L100.246 106.421ZM129.754 125.946C129.749 125.946 129.744 125.946 129.739 125.945L96.0727 120.837C96.0581 120.835 96.0441 120.83 96.0317 120.822C96.0193 120.814 96.0088 120.803 96.0008 120.791C95.9928 120.778 95.9876 120.764 95.9855 120.749C95.9834 120.735 95.9844 120.72 95.9885 120.706L100.146 106.392C100.161 106.343 100.21 106.311 100.262 106.319L133.927 111.426C133.942 111.429 133.956 111.434 133.968 111.442C133.981 111.45 133.991 111.461 133.999 111.473C134.007 111.486 134.013 111.5 134.015 111.514C134.017 111.529 134.016 111.544 134.012 111.558L129.854 125.871C129.848 125.893 129.834 125.912 129.816 125.925C129.799 125.939 129.777 125.946 129.754 125.946ZM96.221 120.65L129.68 125.726L133.779 111.614L100.32 106.538L96.221 120.65ZM66.9916 61.6612L62.2836 77.8683L90.9843 82.2227L95.6924 66.0156L66.9916 61.6612ZM90.9844 82.3264C90.9791 82.3264 90.9739 82.326 90.9687 82.3252L62.268 77.9709C62.2534 77.9687 62.2394 77.9634 62.227 77.9553C62.2146 77.9473 62.204 77.9367 62.1961 77.9242C62.1881 77.9118 62.1829 77.8977 62.1808 77.8831C62.1786 77.8685 62.1797 77.8535 62.1838 77.8393L66.8919 61.6323C66.9064 61.5824 66.956 61.5507 67.0071 61.5586L95.7078 65.913C95.7224 65.9152 95.7364 65.9206 95.7488 65.9286C95.7612 65.9367 95.7717 65.9473 95.7796 65.9597C95.7876 65.9722 95.7928 65.9862 95.795 66.0008C95.7971 66.0154 95.7961 66.0304 95.792 66.0446L91.0839 82.2517C91.0777 82.2732 91.0646 82.2922 91.0466 82.3057C91.0287 82.3192 91.0068 82.3264 90.9844 82.3264ZM62.4163 77.7834L90.91 82.1063L95.5596 66.1004L67.0659 61.7775L62.4163 77.7834ZM160.566 75.858L155.858 92.0651L184.563 96.4202L189.272 80.2131L160.566 75.858ZM184.563 96.524C184.558 96.524 184.553 96.5236 184.548 96.5227L155.842 92.1677C155.828 92.1655 155.814 92.1602 155.801 92.1522C155.789 92.1441 155.778 92.1335 155.77 92.121C155.762 92.1086 155.757 92.0946 155.755 92.0799C155.753 92.0653 155.754 92.0504 155.758 92.0362L160.466 75.8291C160.481 75.7792 160.531 75.7478 160.581 75.7554L189.287 80.1106C189.302 80.1128 189.316 80.1181 189.328 80.1262C189.34 80.1342 189.351 80.1448 189.359 80.1573C189.367 80.1697 189.372 80.1838 189.374 80.1984C189.376 80.213 189.375 80.2279 189.371 80.2421L184.663 96.4491C184.657 96.4707 184.643 96.4897 184.626 96.5032C184.608 96.5167 184.586 96.524 184.563 96.524ZM155.991 91.9802L184.489 96.3039L189.139 80.2981L160.64 75.9743L155.991 91.9802ZM135.049 72.6978L120.818 70.5387L119.757 74.1919L133.988 76.351L135.049 72.6978ZM133.988 76.4549C133.983 76.4549 133.978 76.4545 133.972 76.4536L119.742 74.2947C119.727 74.2924 119.713 74.2871 119.701 74.2791C119.688 74.271 119.678 74.2604 119.67 74.248C119.662 74.2355 119.657 74.2215 119.654 74.2069C119.652 74.1922 119.653 74.1773 119.658 74.1631L120.719 70.5098C120.726 70.4856 120.741 70.4648 120.763 70.4513C120.784 70.4378 120.809 70.4324 120.834 70.4362L135.065 72.5952C135.079 72.5974 135.093 72.6028 135.106 72.6108C135.118 72.6189 135.129 72.6295 135.137 72.6419C135.144 72.6544 135.15 72.6684 135.152 72.683C135.154 72.6977 135.153 72.7126 135.149 72.7268L134.088 76.38C134.081 76.4016 134.068 76.4205 134.05 76.434C134.032 76.4475 134.01 76.4548 133.988 76.4549ZM119.89 74.1072L133.914 76.2347L134.916 72.7828L120.893 70.6551L119.89 74.1072ZM136.222 81.5868L114.798 78.3364L113.737 81.9896L135.161 85.24L136.222 81.5868ZM135.161 85.3438C135.156 85.3438 135.15 85.3434 135.145 85.3426L113.721 82.0921C113.707 82.0899 113.693 82.0846 113.68 82.0765C113.668 82.0685 113.657 82.0579 113.649 82.0454C113.641 82.033 113.636 82.019 113.634 82.0043C113.632 81.9897 113.633 81.9748 113.637 81.9606L114.698 78.3073C114.705 78.2832 114.721 78.2624 114.742 78.2489C114.763 78.2353 114.789 78.2299 114.814 78.2337L136.237 81.4842C136.252 81.4864 136.266 81.4917 136.278 81.4997C136.291 81.5078 136.301 81.5184 136.309 81.5309C136.317 81.5433 136.323 81.5573 136.325 81.572C136.327 81.5866 136.326 81.6015 136.322 81.6157L135.26 85.269C135.254 85.2905 135.241 85.3095 135.223 85.323C135.205 85.3365 135.183 85.3438 135.161 85.3438ZM113.869 81.9047L135.086 85.1237L136.089 81.6717L114.872 78.4527L113.869 81.9047ZM183.712 84.823C183.707 84.823 183.702 84.8226 183.697 84.8217L163.133 81.7019C163.119 81.7001 163.106 81.6956 163.094 81.6886C163.082 81.6817 163.072 81.6724 163.064 81.6613C163.055 81.6503 163.049 81.6377 163.046 81.6243C163.042 81.611 163.042 81.597 163.044 81.5834C163.046 81.5697 163.051 81.5566 163.058 81.5449C163.065 81.5331 163.075 81.5229 163.086 81.5148C163.097 81.5067 163.11 81.5009 163.123 81.4978C163.137 81.4947 163.15 81.4943 163.164 81.4966L183.728 84.6165C183.754 84.6203 183.777 84.6339 183.794 84.6544C183.81 84.6749 183.818 84.7008 183.816 84.7269C183.814 84.7531 183.802 84.7775 183.783 84.7953C183.764 84.8131 183.739 84.823 183.712 84.823ZM176.156 89.8989C176.151 89.8989 176.145 89.8985 176.14 89.8977L161.402 87.6615C161.388 87.6597 161.375 87.6552 161.363 87.6483C161.351 87.6413 161.34 87.632 161.332 87.621C161.324 87.6099 161.318 87.5974 161.315 87.584C161.311 87.5706 161.31 87.5567 161.313 87.543C161.315 87.5294 161.319 87.5163 161.327 87.5045C161.334 87.4927 161.343 87.4825 161.354 87.4744C161.366 87.4663 161.378 87.4606 161.392 87.4575C161.405 87.4543 161.419 87.4539 161.433 87.4563L176.171 89.6924C176.185 89.6944 176.198 89.6991 176.21 89.7062C176.221 89.7132 176.231 89.7225 176.24 89.7335C176.248 89.7445 176.253 89.7569 176.257 89.7702C176.26 89.7834 176.261 89.7972 176.258 89.8107C176.255 89.8352 176.242 89.8576 176.224 89.8738C176.205 89.89 176.181 89.8989 176.156 89.8989ZM127.886 115.077C127.881 115.077 127.876 115.076 127.87 115.075L103.832 111.428C103.818 111.427 103.805 111.422 103.793 111.415C103.781 111.408 103.771 111.399 103.762 111.388C103.754 111.377 103.748 111.364 103.745 111.351C103.741 111.338 103.741 111.324 103.743 111.31C103.745 111.296 103.75 111.283 103.757 111.271C103.764 111.26 103.773 111.249 103.785 111.241C103.796 111.233 103.809 111.227 103.822 111.224C103.835 111.221 103.849 111.221 103.863 111.223L127.902 114.87C127.928 114.874 127.951 114.888 127.967 114.908C127.984 114.929 127.992 114.954 127.99 114.981C127.988 115.007 127.976 115.031 127.957 115.049C127.938 115.067 127.912 115.077 127.886 115.077ZM121.972 120.402C121.966 120.402 121.961 120.401 121.956 120.4L102.1 117.388C102.087 117.386 102.074 117.382 102.062 117.375C102.05 117.368 102.039 117.359 102.031 117.348C102.023 117.336 102.017 117.324 102.013 117.311C102.01 117.297 102.009 117.283 102.011 117.27C102.014 117.256 102.018 117.243 102.025 117.231C102.033 117.219 102.042 117.209 102.053 117.201C102.065 117.193 102.077 117.187 102.091 117.184C102.104 117.181 102.118 117.18 102.132 117.183L121.987 120.195C122.013 120.199 122.036 120.213 122.053 120.233C122.069 120.254 122.077 120.279 122.075 120.306C122.073 120.332 122.062 120.356 122.042 120.374C122.023 120.392 121.998 120.402 121.972 120.402ZM82.3532 69.4453C82.348 69.4453 82.3427 69.4449 82.3375 69.444L69.5534 67.5045C69.527 67.4994 69.5035 67.4844 69.488 67.4624C69.4725 67.4405 69.466 67.4134 69.4701 67.3868C69.4741 67.3602 69.4883 67.3362 69.5096 67.3198C69.531 67.3035 69.5578 67.296 69.5846 67.2991L82.3687 69.2388C82.3946 69.2426 82.4181 69.2562 82.4344 69.2766C82.4508 69.2971 82.4588 69.323 82.4569 69.3492C82.4549 69.3753 82.4432 69.3997 82.424 69.4175C82.4048 69.4354 82.3794 69.4453 82.3532 69.4453ZM86.9506 76.365C86.9454 76.3649 86.9401 76.3645 86.935 76.3637L67.8222 73.464C67.8085 73.4622 67.7953 73.4577 67.7834 73.4507C67.7715 73.4437 67.7611 73.4345 67.7528 73.4234C67.7445 73.4124 67.7385 73.3998 67.7351 73.3864C67.7317 73.373 67.7311 73.3591 67.7331 73.3455C67.7352 73.3318 67.74 73.3187 67.7472 73.307C67.7544 73.2952 67.7638 73.2849 67.775 73.2769C67.7862 73.2688 67.7989 73.263 67.8123 73.2599C67.8258 73.2568 67.8397 73.2564 67.8533 73.2587L86.9661 76.1584C86.992 76.1623 87.0155 76.1758 87.0319 76.1963C87.0482 76.2168 87.0562 76.2427 87.0543 76.2688C87.0523 76.295 87.0406 76.3194 87.0214 76.3372C87.0022 76.355 86.9768 76.365 86.9506 76.365ZM148.629 43.6699C148.624 43.6699 148.619 43.6695 148.614 43.6687L124.575 40.0216C124.549 40.0166 124.525 40.0015 124.51 39.9796C124.494 39.9576 124.488 39.9305 124.492 39.9039C124.496 39.8773 124.51 39.8533 124.531 39.837C124.553 39.8206 124.579 39.8132 124.606 39.8162L148.645 43.4633C148.671 43.4675 148.694 43.4811 148.71 43.5016C148.726 43.522 148.734 43.5477 148.732 43.5736C148.73 43.5996 148.718 43.6238 148.699 43.6417C148.68 43.6595 148.655 43.6695 148.629 43.6699Z" stroke="#479FF7" stroke-width="0.5"/>
<path fillRule="evenodd" clipRule="evenodd" d="M48.1487 42.3262C48.1925 42.3456 48.2327 42.3725 48.2675 42.4057C48.3088 42.4451 48.3416 42.4925 48.3639 42.545L54.275 55.681L54.3488 55.4282L48.5198 42.4748C48.4743 42.3659 48.3961 42.2741 48.2963 42.212C48.26 42.1887 48.2211 42.1695 48.1803 42.1547C48.1171 42.1323 48.0502 42.1222 47.9832 42.1251C47.9101 42.1286 47.8387 42.1478 47.7737 42.1814C47.7718 42.1824 47.7701 42.1834 47.7683 42.1844C47.7664 42.1856 47.7645 42.1869 47.7627 42.1882C47.7612 42.1893 47.7598 42.1904 47.7584 42.1915L36.5124 51.443C36.4635 51.473 36.4095 51.4936 36.3532 51.5036C36.3471 51.5035 36.341 51.5039 36.3349 51.5051C36.3257 51.5069 36.3163 51.5084 36.307 51.5094C36.2588 51.5131 36.2104 51.509 36.1634 51.4975C36.1391 51.4904 36.1154 51.4808 36.0928 51.4687C36.0643 51.4531 36.0378 51.4337 36.014 51.4111C35.9816 51.3803 35.955 51.3439 35.9354 51.3038C35.9318 51.2961 35.9284 51.2883 35.9253 51.2804L22.5424 21.5411C22.4942 21.4263 22.4096 21.3306 22.3017 21.2689C22.2901 21.2623 22.2784 21.2561 22.2665 21.2504C22.246 21.24 22.2249 21.2309 22.2032 21.2229C22.137 21.1992 22.0666 21.1894 21.9964 21.194C21.9262 21.1986 21.8577 21.2176 21.7951 21.2498L16.9867 23.7132C16.9479 23.7333 16.9059 23.7459 16.8628 23.7505C16.8149 23.7549 16.7666 23.7498 16.7206 23.7354C16.6995 23.7288 16.6792 23.7203 16.6598 23.7101C16.6495 23.7046 16.6395 23.6984 16.6298 23.6918C16.5708 23.6518 16.5222 23.5984 16.4877 23.5362C16.4787 23.5199 16.4708 23.503 16.4638 23.4856C16.4382 23.4218 16.4274 23.353 16.4321 23.2843L17.6427 1.55659C17.6429 1.54989 17.6432 1.54321 17.6437 1.53655C17.6485 1.47213 17.6686 1.40969 17.7024 1.35448C17.7265 1.31526 17.7569 1.28059 17.7923 1.25182C17.8118 1.23597 17.8329 1.22191 17.8551 1.20987C17.9151 1.17922 17.9826 1.1665 18.0496 1.17324C18.1165 1.17997 18.1802 1.20588 18.2329 1.24786L34.881 13.8258C34.9422 13.8729 34.9903 13.9349 35.0208 14.006C35.0513 14.077 35.0631 14.1546 35.0552 14.2315C35.051 14.3008 35.0292 14.3678 34.9919 14.4263C34.9545 14.4848 34.9029 14.5327 34.8419 14.5656L30.0334 17.029C29.8995 17.1052 29.7994 17.2293 29.7531 17.3763C29.7069 17.5234 29.7179 17.6826 29.7839 17.8219L38.6909 37.6146C38.7226 37.6885 38.7692 37.7551 38.8277 37.8102C38.8861 37.8654 38.9553 37.908 39.0308 37.9353C39.0962 37.9589 39.1658 37.9689 39.2352 37.9645C39.2413 37.9641 39.2473 37.9636 39.2533 37.963L39.2546 37.9639L39.283 37.9592L39.2878 37.9584C39.291 37.9579 39.2942 37.9573 39.2974 37.9567C39.2999 37.9562 39.3025 37.9557 39.305 37.9552L39.3124 37.9536C39.3546 37.9443 39.3956 37.9297 39.4343 37.9099C39.4398 37.9071 39.4449 37.9037 39.4497 37.8998L50.6993 28.6465C50.7523 28.6142 50.8113 28.5931 50.8728 28.5847C50.9346 28.5762 50.9975 28.5807 51.0576 28.5978C51.1076 28.6157 51.1534 28.6439 51.1919 28.6806C51.2304 28.7173 51.2609 28.7617 51.2813 28.8109L57.8529 43.4142L57.9266 43.1615L51.4372 28.7407C51.4072 28.6699 51.3628 28.6062 51.3068 28.5537C51.2507 28.5011 51.1843 28.4609 51.1118 28.4355C51.0281 28.4109 50.9402 28.404 50.8537 28.4152C50.7712 28.4259 50.6917 28.4529 50.6198 28.4946L46.3134 29.2135C46.2987 29.216 46.2848 29.2222 46.2733 29.2317L38.1228 35.9359L29.9397 17.7516C29.8912 17.6524 29.8819 17.5385 29.9137 17.4327C29.9455 17.3269 30.0161 17.2371 30.1112 17.1813L34.9196 14.7177C35.0065 14.6717 35.0801 14.6043 35.1337 14.5218C35.1872 14.4393 35.2187 14.3444 35.2254 14.2463C35.2358 14.1405 35.2192 14.0338 35.1769 13.9362C35.1346 13.8387 35.0682 13.7536 34.9839 13.6891L18.3355 1.11135C18.2575 1.04974 18.1634 1.01191 18.0645 1.00238C17.9701 0.993291 17.8751 1.01034 17.7898 1.05154L13.4795 1.77132C13.4708 1.77275 13.4624 1.77552 13.4546 1.77954C13.3652 1.82693 13.2898 1.89717 13.2362 1.98314C13.1826 2.0691 13.1527 2.16774 13.1495 2.26905L11.9389 23.9963C11.9326 24.0905 11.9478 24.1849 11.9831 24.2725C12.0185 24.36 12.0731 24.4385 12.143 24.5019C12.2476 24.5982 12.3859 24.6495 12.528 24.6447C12.5482 24.6437 12.5684 24.6416 12.5884 24.6383L16.9098 23.9168L16.9111 23.9167C16.9164 23.916 16.9215 23.9148 16.9265 23.9131C16.9744 23.9037 17.021 23.8876 17.0648 23.8652L18.4369 23.1622L31.4468 52.0728C31.4886 52.1752 31.561 52.262 31.6542 52.3213C31.7473 52.3805 31.8565 52.4094 31.9668 52.4038C31.9914 52.4025 32.0159 52.3998 32.0402 52.3956L36.3307 51.6792L36.3394 51.6783C36.3423 51.678 36.3453 51.6776 36.3483 51.6773C36.3505 51.677 36.3526 51.6767 36.3548 51.6764C36.4422 51.6649 36.5262 51.6351 36.6013 51.5888C36.6041 51.5872 36.6068 51.5855 36.6093 51.5836C36.611 51.5823 36.6126 51.581 36.6142 51.5797L44.7648 44.8747L52.4474 61.9471L52.5211 61.6946L44.9015 44.7623L47.8589 42.3294C47.8892 42.3149 47.9215 42.3049 47.9546 42.2997C48.0208 42.2918 48.0875 42.3011 48.1487 42.3262ZM21.9749 21.3683C21.9395 21.3741 21.9052 21.3853 21.8732 21.4017L18.589 23.0843L31.6024 52.0024C31.6337 52.0819 31.6919 52.148 31.7667 52.189C31.8415 52.2301 31.9284 52.2436 32.0121 52.2271L35.9383 51.5715C35.9284 51.5636 35.9187 51.5553 35.9094 51.5467C35.9061 51.5438 35.9029 51.5408 35.8997 51.5378C35.8438 51.4854 35.7995 51.4219 35.7696 51.3513L22.3867 21.6116C22.3641 21.5595 22.3312 21.5125 22.29 21.4734C22.2636 21.4484 22.2342 21.4269 22.2025 21.4095C22.1326 21.3733 22.0533 21.3589 21.9749 21.3683ZM46.364 29.3783L38.1955 36.0976L38.8466 37.5444C38.869 37.5971 38.9019 37.6447 38.9434 37.6842C38.9848 37.7236 39.0339 37.7542 39.0876 37.7739C39.1298 37.7893 39.1747 37.7961 39.2196 37.7939C39.2645 37.7918 39.3085 37.7807 39.3491 37.7614L50.3495 28.7128L46.364 29.3783ZM16.2617 23.2748C16.2611 23.2834 16.2607 23.292 16.2605 23.3007C16.2584 23.3862 16.2739 23.4713 16.306 23.5508C16.3413 23.6383 16.3959 23.7167 16.4657 23.7801C16.4778 23.7909 16.4903 23.8013 16.5032 23.8111L12.5603 24.4695C12.5059 24.4776 12.4503 24.4732 12.3978 24.4568C12.3453 24.4403 12.2971 24.4122 12.2569 24.3745C12.2062 24.3282 12.1665 24.2709 12.141 24.2071C12.1154 24.1432 12.1046 24.0744 12.1093 24.0058L13.3199 2.27855C13.3218 2.20924 13.3413 2.14155 13.3766 2.08189C13.4118 2.02223 13.4617 1.97259 13.5215 1.93765L17.5576 1.2637C17.5049 1.34908 17.4755 1.44683 17.4723 1.54717L16.2617 23.2748Z" fill="#479FF7"/>
<path d="M17.8551 1.20987L17.8163 1.1338M48.2675 42.4057C48.2327 42.3725 48.1925 42.3456 48.1487 42.3262C48.0875 42.3011 48.0208 42.2918 47.9546 42.2997C47.9215 42.3049 47.8892 42.3149 47.8589 42.3294L44.9015 44.7623L52.5211 61.6946L52.4474 61.9471L44.7648 44.8747L36.6142 51.5797C36.6126 51.581 36.611 51.5823 36.6093 51.5836C36.6068 51.5855 36.6041 51.5872 36.6013 51.5888C36.5262 51.6351 36.4422 51.6649 36.3548 51.6764C36.3526 51.6767 36.3505 51.677 36.3483 51.6773C36.3453 51.6776 36.3423 51.678 36.3394 51.6783L36.3307 51.6792L32.0402 52.3956C32.0159 52.3998 31.9914 52.4025 31.9668 52.4038C31.8565 52.4094 31.7473 52.3805 31.6542 52.3213C31.561 52.262 31.4886 52.1752 31.4468 52.0728L18.4369 23.1622L17.0648 23.8652C17.021 23.8876 16.9744 23.9037 16.9265 23.9131C16.9215 23.9148 16.9164 23.916 16.9111 23.9167L16.9098 23.9168L12.5884 24.6383C12.5684 24.6416 12.5482 24.6437 12.528 24.6447C12.3859 24.6495 12.2476 24.5982 12.143 24.5019C12.0731 24.4385 12.0185 24.36 11.9831 24.2725C11.9478 24.1849 11.9326 24.0905 11.9389 23.9963L13.1495 2.26905C13.1527 2.16774 13.1826 2.0691 13.2362 1.98314C13.2898 1.89717 13.3652 1.82693 13.4546 1.77954C13.4624 1.77552 13.4708 1.77275 13.4795 1.77132L17.7898 1.05154C17.8751 1.01034 17.9701 0.993291 18.0645 1.00238C18.1634 1.01191 18.2575 1.04974 18.3355 1.11135L34.9839 13.6891C35.0682 13.7536 35.1346 13.8387 35.1769 13.9362C35.2192 14.0338 35.2358 14.1405 35.2254 14.2463C35.2187 14.3444 35.1872 14.4393 35.1337 14.5218C35.0801 14.6043 35.0065 14.6717 34.9196 14.7177L30.1112 17.1813C30.0161 17.2371 29.9455 17.3269 29.9137 17.4327C29.8819 17.5385 29.8912 17.6524 29.9397 17.7516L38.1228 35.9359L46.2733 29.2317C46.2848 29.2222 46.2987 29.216 46.3134 29.2135L50.6198 28.4946C50.6917 28.4529 50.7712 28.4259 50.8537 28.4152C50.9402 28.404 51.0281 28.4109 51.1118 28.4355C51.1843 28.4609 51.2507 28.5011 51.3068 28.5537C51.3628 28.6062 51.4072 28.6699 51.4372 28.7407L57.9266 43.1615L57.8529 43.4142L51.2813 28.8109C51.2609 28.7617 51.2304 28.7173 51.1919 28.6806C51.1534 28.6439 51.1076 28.6157 51.0576 28.5978C50.9975 28.5807 50.9346 28.5762 50.8728 28.5847C50.8113 28.5931 50.7523 28.6142 50.6993 28.6465L39.4497 37.8998C39.4449 37.9037 39.4398 37.9071 39.4343 37.9099C39.3956 37.9297 39.3546 37.9443 39.3124 37.9536L39.305 37.9552C39.3025 37.9557 39.2999 37.9562 39.2974 37.9567C39.2942 37.9573 39.291 37.9579 39.2878 37.9584L39.283 37.9592L39.2546 37.9639L39.2533 37.963C39.2473 37.9636 39.2413 37.9641 39.2352 37.9645C39.1658 37.9689 39.0962 37.9589 39.0308 37.9353C38.9553 37.908 38.8861 37.8654 38.8277 37.8102C38.7692 37.7551 38.7226 37.6885 38.6909 37.6146L29.7839 17.8219C29.7179 17.6826 29.7069 17.5234 29.7531 17.3763C29.7994 17.2293 29.8995 17.1052 30.0334 17.029L34.8419 14.5656C34.9029 14.5327 34.9545 14.4848 34.9919 14.4263C35.0292 14.3678 35.051 14.3008 35.0552 14.2315C35.0631 14.1546 35.0513 14.077 35.0208 14.006C34.9903 13.9349 34.9422 13.8729 34.881 13.8258L18.2329 1.24786C18.1802 1.20588 18.1165 1.17997 18.0496 1.17324C17.9826 1.1665 17.9151 1.17922 17.8551 1.20987C17.8329 1.22191 17.8118 1.23597 17.7923 1.25182C17.7569 1.28059 17.7265 1.31526 17.7024 1.35448C17.6686 1.40969 17.6485 1.47213 17.6437 1.53655C17.6432 1.54321 17.6429 1.54989 17.6427 1.55659L16.4321 23.2843C16.4274 23.353 16.4382 23.4218 16.4638 23.4856C16.4708 23.503 16.4787 23.5199 16.4877 23.5362C16.5222 23.5984 16.5708 23.6518 16.6298 23.6918C16.6395 23.6984 16.6495 23.7046 16.6598 23.7101C16.6792 23.7203 16.6995 23.7288 16.7206 23.7354C16.7666 23.7498 16.8149 23.7549 16.8628 23.7505C16.9059 23.7459 16.9479 23.7333 16.9867 23.7132L21.7951 21.2498C21.8577 21.2176 21.9262 21.1986 21.9964 21.194C22.0666 21.1894 22.137 21.1992 22.2032 21.2229C22.2249 21.2309 22.246 21.24 22.2665 21.2504C22.2784 21.2561 22.2901 21.2623 22.3017 21.2689C22.4096 21.3306 22.4942 21.4263 22.5424 21.5411L35.9253 51.2804C35.9284 51.2883 35.9318 51.2961 35.9354 51.3038C35.955 51.3439 35.9816 51.3803 36.014 51.4111C36.0378 51.4337 36.0643 51.4531 36.0928 51.4687C36.1154 51.4808 36.1391 51.4904 36.1634 51.4975C36.2104 51.509 36.2588 51.5131 36.307 51.5094C36.3163 51.5084 36.3257 51.5069 36.3349 51.5051C36.341 51.5039 36.3471 51.5035 36.3532 51.5036C36.4095 51.4936 36.4635 51.473 36.5124 51.443L47.7584 42.1915C47.7598 42.1904 47.7612 42.1893 47.7627 42.1882C47.7645 42.1869 47.7664 42.1856 47.7683 42.1844C47.7701 42.1834 47.7718 42.1824 47.7737 42.1814C47.8387 42.1478 47.9101 42.1286 47.9832 42.1251C48.0502 42.1222 48.1171 42.1323 48.1803 42.1547C48.2211 42.1695 48.26 42.1887 48.2963 42.212C48.3961 42.2741 48.4743 42.3659 48.5198 42.4748L54.3488 55.4282L54.275 55.681L48.3639 42.545C48.3416 42.4925 48.3088 42.4451 48.2675 42.4057ZM21.8732 21.4017C21.9052 21.3853 21.9395 21.3741 21.9749 21.3683C22.0533 21.3589 22.1326 21.3733 22.2025 21.4095C22.2342 21.4269 22.2636 21.4484 22.29 21.4734C22.3312 21.5125 22.3641 21.5595 22.3867 21.6116L35.7696 51.3513C35.7995 51.4219 35.8438 51.4854 35.8997 51.5378C35.9029 51.5408 35.9061 51.5438 35.9094 51.5467C35.9187 51.5553 35.9284 51.5636 35.9383 51.5715L32.0121 52.2271C31.9284 52.2436 31.8415 52.2301 31.7667 52.189C31.6919 52.148 31.6337 52.0819 31.6024 52.0024L18.589 23.0843L21.8732 21.4017ZM38.1955 36.0976L46.364 29.3783L50.3495 28.7128L39.3491 37.7614C39.3085 37.7807 39.2645 37.7918 39.2196 37.7939C39.1747 37.7961 39.1298 37.7893 39.0876 37.7739C39.0339 37.7542 38.9848 37.7236 38.9434 37.6842C38.9019 37.6447 38.869 37.5971 38.8466 37.5444L38.1955 36.0976ZM16.2605 23.3007C16.2607 23.292 16.2611 23.2834 16.2617 23.2748L17.4723 1.54717C17.4755 1.44683 17.5049 1.34908 17.5576 1.2637L13.5215 1.93765C13.4617 1.97259 13.4118 2.02223 13.3766 2.08189C13.3413 2.14155 13.3218 2.20924 13.3199 2.27855L12.1093 24.0058C12.1046 24.0744 12.1154 24.1432 12.141 24.2071C12.1665 24.2709 12.2062 24.3282 12.2569 24.3745C12.2971 24.4122 12.3453 24.4403 12.3978 24.4568C12.4503 24.4732 12.5059 24.4776 12.5603 24.4695L16.5032 23.8111C16.4903 23.8013 16.4778 23.7909 16.4657 23.7801C16.3959 23.7167 16.3413 23.6383 16.306 23.5508C16.2739 23.4713 16.2584 23.3862 16.2605 23.3007Z" stroke="#479FF7" stroke-width="0.5"/>
<path fillRule="evenodd" clipRule="evenodd" d="M183.833 139.399V139.4C182.533 143.875 178.305 147.113 174.042 147.113C173.629 147.113 173.217 147.082 172.808 147.021L72.816 131.853L72.6524 131.618L172.84 146.815C173.978 146.988 175.135 146.908 176.251 146.615C179.599 145.738 182.585 142.95 183.634 139.342L211.13 44.7042C211.836 42.2743 211.544 39.7916 210.331 37.8917C209.239 36.1835 207.497 35.0697 205.427 34.7558L74.9251 14.96C74.5263 14.8996 74.1235 14.8693 73.7202 14.8695C69.5461 14.8695 65.406 18.0442 64.1309 22.4332L44.2619 90.8186L44.1094 90.5995L63.9314 22.3755C65.3572 17.4675 70.3036 14.0492 74.9561 14.7546L205.457 34.5503C206.897 34.7687 208.182 35.3629 209.211 36.2678C209.213 36.2696 209.215 36.2716 209.217 36.2736L211.616 38.3899C213.864 40.3732 214.673 43.6255 213.728 46.8782L186.232 141.516C184.932 145.992 180.704 149.229 176.441 149.229C176.028 149.229 175.615 149.198 175.207 149.137L74.1793 133.812L74.0158 133.577L175.238 148.931C179.791 149.622 184.634 146.27 186.033 141.458L213.529 46.8206C214.451 43.646 213.666 40.4752 211.479 38.5459L210.357 37.5559C211.713 39.5135 212.092 42.1378 211.329 44.7623L183.833 139.399ZM47.6909 95.7464L68.0777 25.5785C69.1407 21.9196 72.8285 19.3712 76.2983 19.8975L201.364 38.8688C202.129 38.9746 202.862 39.245 203.513 39.6613C204.164 40.0777 204.716 40.6301 205.133 41.2805C206.063 42.7358 206.288 44.6345 205.749 46.4896L179.686 136.194C178.715 139.534 175.562 141.949 172.382 141.949C172.075 141.949 171.767 141.926 171.463 141.88L68.9757 126.334L68.8123 126.099L171.494 141.675C174.863 142.186 178.45 139.702 179.486 136.136L205.549 46.4317C206.071 44.6341 205.856 42.7974 204.958 41.3924C204.557 40.7671 204.025 40.236 203.399 39.8358C202.774 39.4356 202.068 39.1757 201.333 39.0741L76.2673 20.103C75.9722 20.0583 75.6742 20.0359 75.3757 20.0361C72.2863 20.0361 69.2214 22.3868 68.2773 25.6364L47.8435 95.9656L47.6909 95.7464ZM52.3831 71.288C52.4374 71.2961 52.4922 71.3002 52.5472 71.3002C53.1136 71.3002 53.675 70.8706 53.8476 70.2766C53.8965 70.1214 53.9117 69.9577 53.8923 69.7962C53.8729 69.6347 53.8193 69.4793 53.735 69.3401C53.6592 69.2215 53.5585 69.1207 53.44 69.0447C53.3215 68.9687 53.1879 68.9192 53.0485 68.8998C52.4275 68.8056 51.7689 69.2566 51.5805 69.905C51.5314 70.0609 51.5161 70.2254 51.5356 70.3877C51.5552 70.5499 51.6091 70.7061 51.6937 70.8459C51.7699 70.965 51.8709 71.0662 51.99 71.1425C52.109 71.2188 52.2431 71.2684 52.3831 71.288ZM51.7799 69.963C51.9262 69.4593 52.4011 69.0948 52.8794 69.0948C52.9258 69.0949 52.972 69.0985 53.0178 69.1056C53.128 69.1208 53.2335 69.1596 53.3272 69.2195C53.4209 69.2794 53.5005 69.3589 53.5606 69.4525C53.6289 69.5667 53.6721 69.6941 53.6873 69.8263C53.7025 69.9585 53.6893 70.0924 53.6487 70.2191C53.4875 70.7743 52.9339 71.1618 52.4148 71.0831C52.3041 71.0679 52.198 71.0288 52.1038 70.9687C52.0096 70.9085 51.9296 70.8287 51.8692 70.7346C51.8004 70.6197 51.7568 70.4915 51.7414 70.3584C51.726 70.2254 51.7391 70.0905 51.7799 69.963Z" fill="#479FF7"/>
<path d="M209.149 36.3515L211.547 38.4678C213.691 40.3591 214.595 43.522 213.629 46.8494L186.132 141.487C184.718 146.353 179.837 149.734 175.223 149.034L74.0975 133.694M209.15 36.3522C211.293 38.2436 212.197 41.4061 211.23 44.733L183.733 139.371M183.733 139.371C182.32 144.237 177.438 147.618 172.824 146.918L72.7342 131.735M183.733 139.371L211.23 44.733C212.644 39.867 210.056 35.353 205.442 34.653L74.9411 14.8573C70.3309 14.158 65.4449 17.5382 64.0311 22.4045L44.1856 90.709M47.7673 95.8562L68.1776 25.6075C69.2285 21.9905 72.8564 19.4804 76.2829 20.0002L201.348 38.9715C204.775 39.4912 206.7 42.8436 205.649 46.4612L179.586 136.166C178.535 139.783 174.905 142.298 171.479 141.778L68.8945 126.217M183.833 139.4V139.399L211.329 44.7623C212.092 42.1378 211.713 39.5135 210.357 37.5559L211.479 38.5459C213.666 40.4752 214.451 43.646 213.529 46.8206L186.033 141.458C184.634 146.27 179.791 149.622 175.238 148.931L74.0158 133.577L74.1793 133.812L175.207 149.137C175.615 149.198 176.028 149.229 176.441 149.229C180.704 149.229 184.932 145.992 186.232 141.516L213.728 46.8782C214.673 43.6255 213.864 40.3732 211.616 38.3899L209.217 36.2736C209.215 36.2716 209.213 36.2696 209.211 36.2678C208.182 35.3629 206.897 34.7687 205.457 34.5503L74.9561 14.7546C70.3036 14.0492 65.3572 17.4675 63.9314 22.3755L44.1094 90.5995L44.2619 90.8186L64.1309 22.4332C65.406 18.0442 69.5461 14.8695 73.7202 14.8695C74.1235 14.8693 74.5263 14.8996 74.9251 14.96L205.427 34.7558C207.497 35.0697 209.239 36.1835 210.331 37.8917C211.544 39.7916 211.836 42.2743 211.13 44.7042L183.634 139.342C182.585 142.95 179.599 145.738 176.251 146.615C175.135 146.908 173.978 146.988 172.84 146.815L72.6524 131.618L72.816 131.853L172.808 147.021C173.217 147.082 173.629 147.113 174.042 147.113C178.305 147.113 182.533 143.875 183.833 139.4ZM68.0777 25.5785L47.6909 95.7464L47.8435 95.9656L68.2773 25.6364C69.2214 22.3868 72.2863 20.0361 75.3757 20.0361C75.6742 20.0359 75.9722 20.0583 76.2673 20.103L201.333 39.0741C202.068 39.1757 202.774 39.4356 203.399 39.8358C204.025 40.236 204.557 40.7671 204.958 41.3924C205.856 42.7974 206.071 44.6341 205.549 46.4317L179.486 136.136C178.45 139.702 174.863 142.186 171.494 141.675L68.8123 126.099L68.9757 126.334L171.463 141.88C171.767 141.926 172.075 141.949 172.382 141.949C175.562 141.949 178.715 139.534 179.686 136.194L205.749 46.4896C206.288 44.6345 206.063 42.7358 205.133 41.2805C204.716 40.6301 204.164 40.0777 203.513 39.6613C202.862 39.245 202.129 38.9746 201.364 38.8688L76.2983 19.8975C72.8285 19.3712 69.1407 21.9196 68.0777 25.5785ZM52.5472 71.3002C52.4922 71.3002 52.4374 71.2961 52.3831 71.288C52.2431 71.2684 52.109 71.2188 51.99 71.1425C51.8709 71.0662 51.7699 70.965 51.6937 70.8459C51.6091 70.7061 51.5552 70.5499 51.5356 70.3877C51.5161 70.2254 51.5314 70.0609 51.5805 69.905C51.7689 69.2566 52.4275 68.8056 53.0485 68.8998C53.1879 68.9192 53.3215 68.9687 53.44 69.0447C53.5585 69.1207 53.6592 69.2215 53.735 69.3401C53.8193 69.4793 53.8729 69.6347 53.8923 69.7962C53.9117 69.9577 53.8965 70.1214 53.8476 70.2766C53.675 70.8706 53.1136 71.3002 52.5472 71.3002ZM52.8794 69.0948C52.4011 69.0948 51.9262 69.4593 51.7799 69.963C51.7391 70.0905 51.726 70.2254 51.7414 70.3584C51.7568 70.4915 51.8004 70.6197 51.8692 70.7346C51.9296 70.8287 52.0096 70.9085 52.1038 70.9687C52.198 71.0288 52.3041 71.0679 52.4148 71.0831C52.9339 71.1618 53.4875 70.7743 53.6487 70.2191C53.6893 70.0924 53.7025 69.9585 53.6873 69.8263C53.6721 69.6941 53.6289 69.5667 53.5606 69.4525C53.5005 69.3589 53.4209 69.2794 53.3272 69.2195C53.2335 69.1596 53.128 69.1208 53.0178 69.1056C52.972 69.0985 52.9258 69.0949 52.8794 69.0948Z" stroke="#479FF7" stroke-width="0.5"/>
</svg>
