<svg width="60" height="60" viewBox="0 0 60 60" fill="none" xmlns="http://www.w3.org/2000/svg">    <g filter="url(#filter0_d_860_4035)">        <path d="M2 13C2 6.37258 7.37258 1 14 1H46C52.6274 1 58 6.37258 58 13V45C58 51.6274 52.6274 57 46 57H14C7.37258 57 2 51.6274 2 45V13Z" fill="white" fill-opacity="0.05" shape-rendering="crispEdges"/>        <path d="M29.9993 40.6666C31.166 34.8333 39.3327 34.1546 39.3327 26.6666C39.3327 21.5119 35.154 17.3333 29.9993 17.3333C24.8447 17.3333 20.666 21.5119 20.666 26.6666C20.666 34.1546 28.8327 34.8333 29.9993 40.6666Z" stroke="white" stroke-width="2" stroke-linecap="round" stroke-linejoin="round"/>        <path d="M29.9993 30.1666C31.9323 30.1666 33.4993 28.5996 33.4993 26.6666C33.4993 24.7336 31.9323 23.1666 29.9993 23.1666C28.0664 23.1666 26.4993 24.7336 26.4993 26.6666C26.4993 28.5996 28.0664 30.1666 29.9993 30.1666Z" stroke="white" stroke-width="2" stroke-linecap="round" stroke-linejoin="round"/>    </g>    <defs>        <filter id="filter0_d_860_4035" x="0" y="0" width="60" height="60" filterUnits="userSpaceOnUse" color-interpolation-filters="sRGB">            <feFlood flood-opacity="0" result="BackgroundImageFix"/>            <feColorMatrix in="SourceAlpha" type="matrix" values="0 0 0 0 0 0 0 0 0 0 0 0 0 0 0 0 0 0 127 0" result="hardAlpha"/>            <feOffset dy="1"/>            <feGaussianBlur stdDeviation="1"/>            <feComposite in2="hardAlpha" operator="out"/>            <feColorMatrix type="matrix" values="0 0 0 0 0.0627451 0 0 0 0 0.0941176 0 0 0 0 0.156863 0 0 0 0.05 0"/>            <feBlend mode="normal" in2="BackgroundImageFix" result="effect1_dropShadow_860_4035"/>            <feBlend mode="normal" in="SourceGraphic" in2="effect1_dropShadow_860_4035" result="shape"/>        </filter>    </defs></svg>