<svg width="227" height="162" viewBox="0 0 227 162" fill="none" xmlns="http://www.w3.org/2000/svg">
<path d="M168.828 154.795C172.539 156.393 176.743 156.82 180.936 156.634M168.828 154.795C160.408 151.171 158.32 147.127 155.852 142.364L158.422 148.315C162.34 155.706 167.247 157.863 170.563 159.128C174.337 160.568 178.478 161.152 182.671 160.967C186.014 160.819 189.391 160.178 192.647 159.082C197.522 157.44 202.123 154.779 205.922 151.213C206.217 150.936 206.306 150.506 206.156 150.131L204.67 146.418M168.828 154.795C165.51 153.534 162.735 151.705 160.542 149.494M168.828 154.795C172.604 156.231 176.743 156.82 180.936 156.634M180.936 156.634C184.279 156.486 187.656 155.844 190.912 154.749M180.936 156.634C184.279 156.486 187.657 155.845 190.912 154.749M190.912 154.749C195.996 153.039 200.781 150.218 204.67 146.418M190.912 154.749L183.846 130.734M204.67 146.418L183.846 130.734M183.846 130.734L185.855 132.234C186.349 132.603 187.057 132.441 187.341 131.893L197.631 112.066C197.765 111.808 197.78 111.504 197.672 111.234L196.107 107.327M183.846 130.734L196.107 107.327M183.846 130.734L171.447 110.738M183.846 130.734L160.542 149.494M196.107 107.327C193.168 106.578 190.105 106.295 187.031 106.431C181.663 106.669 176.265 108.186 171.447 110.738M171.447 110.738C166.373 113.428 161.939 117.267 158.871 121.982C152.57 131.665 153.643 142.526 160.542 149.494M194.734 130.439L207.285 107.274C207.511 106.858 207.997 106.655 208.446 106.803C209.169 107.039 209.875 107.303 210.562 107.596C223.793 113.233 227.609 128.538 219.037 141.637M194.734 130.439L214.545 147.067M194.734 130.439L196.765 134.683C196.827 134.812 196.915 134.926 197.024 135.017L216.669 151.506M214.545 147.067C216.257 145.402 217.767 143.577 219.037 141.637M214.545 147.067L216.669 151.506M214.545 147.067C216.257 145.402 217.766 143.577 219.037 141.637M219.037 141.637C225.16 132.288 224.911 121.542 219.518 114.428L221.981 118.053C227.087 125.385 227.281 136.725 221.162 146.075C219.891 148.016 218.382 149.841 216.669 151.506M194.486 43.1862C195.48 38.5989 192.798 34.5939 188.489 34.2435L66.6234 24.335C62.319 23.985 58.0207 27.4225 57.0268 32.0098L44.9745 87.2083M43.6934 130.168C39.389 129.818 36.7032 125.813 37.6971 121.226L40.6487 108.528M192.449 35.9316L194.305 37.4841C196.407 39.0939 197.446 41.9585 196.766 45.0953L183.4 106.674M192.449 35.9316L192.023 35.5751C192.171 35.6879 192.313 35.8068 192.449 35.9316ZM192.449 35.9316C194.263 37.5876 195.117 40.2693 194.485 43.1863L180.619 106.983M155.282 140.972L45.9741 132.077C44.6131 131.967 43.4021 131.511 42.4299 130.766L41.5922 130.096L39.9802 128.628C40.9524 129.372 42.3318 130.058 43.6928 130.168L154.973 139.118M175.675 108.837L189.439 45.1408C190.178 41.731 188.184 38.757 184.984 38.4968L68.1942 29.0009C64.9944 28.7407 61.8031 31.2932 61.0643 34.703L47.7551 95.8598M154.664 134.792L47.1962 125.917C43.9963 125.657 42.0034 122.679 42.7422 119.268L45.2832 107.601M156.826 125.508L134.814 123.718C133.162 123.584 132.133 122.05 132.515 120.289L135.15 108.127C135.531 106.366 137.179 105.045 138.831 105.179L164.271 107.247C165.923 107.382 166.951 108.921 166.569 110.682L165.787 114.399M154.629 112.132L141.313 111.049C139.716 110.919 138.12 112.195 137.751 113.898L137.592 114.632C137.223 116.335 138.22 117.822 139.818 117.952L153.131 119.034M154.629 112.132C153.479 112.843 152.574 114.045 152.269 115.454C151.964 116.863 152.325 118.165 153.131 119.034M154.629 112.132C155.429 111.637 156.346 111.38 157.265 111.455C159.506 111.637 160.902 113.726 160.385 116.114C160.193 116.999 159.766 117.801 159.19 118.451C158.787 118.906 158.312 119.286 157.794 119.568C157.051 119.973 156.221 120.177 155.39 120.109C154.47 120.034 153.693 119.639 153.131 119.034M157.847 119.652L158.962 121.314M160.224 119.96L159.298 118.648M95.6476 51.984L104.039 52.5814C104.638 52.624 105.064 53.1808 104.949 53.7699L103.372 61.8715M89.4681 104.202L101.62 105.182C102.122 105.223 102.576 104.883 102.679 104.389L103.681 99.5677M143.231 90.298L153.692 91.0575C154.291 91.101 154.717 91.6589 154.601 92.2481L151.883 106.056M87.1968 49.2454L83.3955 48.9364C82.8959 48.8958 82.4434 49.2314 82.3372 49.7213L80.7108 57.2268C80.5827 57.8178 81.0044 58.3863 81.6071 58.4353L84.2701 58.6518C84.7698 58.6925 85.2224 58.3568 85.3285 57.8668L87.1949 49.2471M135.507 64.0344L136.302 60.0766C136.401 59.5835 136.851 59.2406 137.353 59.276L147.866 60.0176M157.131 56.2743L156.781 57.8893M167.664 57.1275L167.362 58.4723M155.454 64.105L155.919 61.9016M163.035 64.7042L163.501 62.5008M168.893 65.1977L169.358 62.9943M94.9062 88.9599C94.5349 88.9737 94.1734 88.9658 93.8234 88.9373C87.7185 88.4408 84.9418 81.7067 87.7957 74.9333C90.1549 69.3331 101.167 58.1668 120.367 59.7277C121.161 59.7922 121.969 59.8784 122.791 59.9881C143.244 62.713 146.497 77.2068 144.006 87.3553C141.605 97.142 137.101 99.2066 132.252 100.773C129.892 101.535 121.812 101.5 113.94 100.914C113.567 100.886 112.115 100.768 111.763 100.737C105.6 100.194 99.9117 99.32 97.6436 98.2363C93.366 96.196 92.957 91.1113 94.9062 88.9599ZM94.9062 88.9599C97.026 86.2099 100.613 83.2391 106.622 81.9219C111.668 80.8175 117.709 80.9101 120.685 82.3846M108.127 60.7125L107.261 64.8887M88.089 74.9431L92.4094 75.2944C92.9087 75.335 93.361 74.9998 93.4676 74.5103L93.5594 74.088C93.6658 73.5989 94.1175 73.2638 94.6165 73.3038L98.9764 73.6533M98.9764 73.6533C98.9898 73.5922 99.0078 73.5324 99.0295 73.4746C99.2256 72.9534 99.746 72.5854 100.267 72.6277C100.843 72.6746 101.205 73.2104 101.072 73.8236C100.939 74.4336 100.361 74.8931 99.7847 74.8462C99.2625 74.8038 98.9174 74.3641 98.9517 73.831C98.9553 73.7728 98.9634 73.7133 98.9764 73.6533ZM111.818 70.8944L114.977 71.1451C115.5 71.1866 115.868 71.6779 115.76 72.1912V72.1912C115.652 72.7039 116.019 73.1948 116.541 73.2373L117.482 73.3137M111.818 70.8944C111.805 70.9555 111.787 71.0152 111.766 71.073C111.569 71.5941 111.049 71.9622 110.531 71.9201C109.952 71.8729 109.59 71.3371 109.723 70.724C109.856 70.1138 110.434 69.6544 111.013 69.7016C111.533 69.7438 111.878 70.1834 111.843 70.7166C111.84 70.7747 111.831 70.8342 111.818 70.8944ZM94.1155 93.5289L99.3726 93.9541C99.9464 94.0005 100.346 94.5441 100.219 95.1056V95.1056C100.093 95.6648 100.489 96.2069 101.061 96.2566L104.58 96.5624M97.3328 86.4446L103.14 86.9169C103.618 86.9558 104.051 86.6352 104.154 86.1667V86.1667C104.256 85.6974 104.691 85.3767 105.169 85.4166L110.602 85.8688M141.157 94.5438L137.797 94.2706C137.3 94.2302 136.849 94.5621 136.74 95.0486L136.711 95.1755C136.603 95.6614 136.153 95.9932 135.656 95.9536L130.125 95.5125M125.502 79.1297L125.14 80.8137C125.013 81.4038 125.434 81.971 126.035 82.0206L126.442 82.0542C127.044 82.1038 127.465 82.6718 127.337 83.2622L126.357 87.7957M126.357 87.7957C126.299 87.7909 126.241 87.7917 126.184 87.7966C125.667 87.8421 125.186 88.2692 125.066 88.8212C124.934 89.4312 125.295 89.9671 125.875 90.0142C126.454 90.0612 127.029 89.6016 127.162 88.9916C127.282 88.4385 127.002 87.9488 126.521 87.8234C126.469 87.8098 126.414 87.8003 126.357 87.7957ZM144.154 76.5075L137.598 75.9172C137.096 75.872 136.639 76.2072 136.531 76.6993L136.305 77.7346M140.171 68.3273L139.541 71.2602C139.435 71.7516 138.981 72.0882 138.48 72.0465L132.363 71.5364M84.9815 98.376L86.5296 98.5019C87.1287 98.5506 87.5498 99.1131 87.4277 99.7017L87.0599 101.475M85.9831 106.547L85.5673 108.467C85.4612 108.957 85.0086 109.292 84.509 109.252L82.7675 109.11M70.1712 108.07L68.7202 107.952C68.1175 107.903 67.6958 107.334 67.8239 106.743L68.1794 105.102M69.2713 100.029L69.705 97.9957C69.8104 97.5018 70.2676 97.1639 70.7708 97.2082L72.5976 97.3691M46.3305 104.918L16.8182 111.356C14.6241 111.834 12.2782 110.514 11.5894 108.412L2.32926 80.1536M46.3305 104.918C47.5319 104.656 48.4429 103.908 48.9085 102.941L47.7711 105.381C47.3055 106.349 46.3945 107.096 45.1931 107.358L15.6808 113.796C13.4867 114.275 11.1408 112.954 10.452 110.853L1.19176 82.5939C0.879982 81.6426 0.960502 80.692 1.34542 79.8919L2.48283 77.4517C2.09791 78.2517 2.01748 79.2023 2.32926 80.1536M46.3305 104.918C48.5256 104.439 49.751 102.34 49.0622 100.238L39.8019 71.9793C39.1131 69.8774 36.7675 68.5582 34.5724 69.037L5.06013 75.4749C2.86604 75.9535 1.64045 78.0518 2.32926 80.1536M34.8399 12.1595L38.117 13.8317M34.8399 12.1595C34.7469 12.1175 34.6787 12.0526 34.6379 11.9747L35.7165 14.0693C35.7574 14.1471 35.8256 14.212 35.9185 14.2541L36.5596 14.6294C37.0862 14.9378 37.7638 14.7067 37.9922 14.1409L38.117 13.8317M34.8399 12.1595C34.5892 12.0462 34.5189 11.767 34.6789 11.515L36.556 8.54629C36.7057 8.31048 37.0094 8.17269 37.3291 8.22423L40.6365 8.90378C40.9672 8.97173 41.3083 8.86639 41.5548 8.63564C42.1102 8.11574 42.7117 7.63345 43.3505 7.19646C43.6751 6.97441 43.8574 6.59236 43.8047 6.20263L43.4214 3.37095C43.3716 3.12045 43.5656 2.83821 43.8648 2.72404L47.3927 1.38794C47.5139 1.34166 47.6365 1.32906 47.746 1.34576C47.9068 1.37036 48.0393 1.45836 48.0978 1.59649L49.2947 4.00807C49.4898 4.401 49.9178 4.61729 50.3538 4.56912C51.0555 4.4916 51.7522 4.46777 52.4351 4.49912C52.7683 4.51442 53.0933 4.37931 53.3029 4.11981L55.579 1.30146C55.738 1.08598 56.0232 0.969361 56.2693 1.00699C56.3028 1.01217 56.3357 1.02013 56.3673 1.03115L59.4764 2.10688C59.7403 2.19867 59.839 2.46643 59.702 2.72578M38.117 13.8317C37.8572 14.6064 37.6976 15.3866 37.638 16.1566C37.609 16.531 37.4005 16.8734 37.0648 17.0416L33.7049 18.725C33.4122 18.8598 33.2458 19.1483 33.3196 19.3926L34.1893 22.2504C34.2382 22.4089 34.38 22.5135 34.5573 22.5406M59.702 2.72578C59.7804 2.57758 59.7817 2.42648 59.7192 2.30722L60.7978 4.4017C60.8604 4.52096 60.859 4.67204 60.7806 4.82035L60.0189 6.40375C59.7515 6.95956 59.0367 7.12229 58.5551 6.73698V6.73698C58.2027 6.45508 58.0944 5.96571 58.295 5.56148L59.702 2.72578ZM59.702 2.72578L58.3807 5.51619C58.1717 5.95767 58.317 6.48057 58.688 6.79835C59.0183 7.08134 59.3223 7.38696 59.5981 7.71337C59.8687 8.03374 60.2935 8.19465 60.6988 8.08702L64.1901 7.15999C64.2956 7.1284 64.3994 7.12117 64.4933 7.13555C64.6708 7.16267 64.8123 7.26666 64.8607 7.42648M41.6429 18.9253L42.7215 21.0198C41.9312 19.5124 41.8402 17.6378 42.6334 15.7138M41.6429 18.9253C40.8527 17.4179 40.7615 15.5433 41.5547 13.6193M41.6429 18.9253V18.9253C41.8141 19.1398 42.3567 18.8317 42.3088 18.5614C42.1525 17.6781 42.2114 16.7374 42.6334 15.7138M42.6334 15.7138C44.2957 11.6815 49.2124 8.95854 53.6148 9.63194M53.6148 9.63194C55.9166 9.98401 57.622 11.1949 58.488 12.8465L57.4093 10.752M53.6148 9.63194C55.0204 9.84694 56.0036 10.3435 56.7533 11.0737C56.9458 11.2612 57.4799 11.0113 57.4093 10.752V10.752M57.4093 10.752C56.5434 9.10038 54.8379 7.88952 52.5361 7.53745M52.5361 7.53745C48.1337 6.86406 43.2171 9.58703 41.5547 13.6193M52.5361 7.53745C56.9385 8.21085 59.1597 12.0258 57.4973 16.058C55.835 20.0903 50.9183 22.8132 46.516 22.1398C42.1136 21.4664 39.8924 17.6516 41.5547 13.6193M35.9391 24.6097C35.8339 24.6422 35.7299 24.6495 35.636 24.6351C35.4843 24.6119 35.3585 24.5323 35.2947 24.4106L34.216 22.316C34.2799 22.4377 34.4057 22.5174 34.5573 22.5406M35.9391 24.6097L34.8604 22.5151M35.9391 24.6097L40.1065 23.5056M34.8604 22.5151C34.7552 22.5476 34.6513 22.555 34.5573 22.5406M34.8604 22.5151L39.0279 21.411M40.1065 23.5056L39.0279 21.411M40.1065 23.5056V23.5056C40.3363 23.8613 40.8467 23.7739 41.0343 23.3943V23.3943M39.0279 21.411C39.5634 22.1722 40.2387 22.8402 41.0343 23.3943M66.8111 12.3792L65.9393 9.52096C65.9322 9.49717 65.9228 9.47463 65.9117 9.45339L64.833 7.35882C64.8442 7.38008 64.8535 7.40269 64.8607 7.42648M66.8111 12.3792L65.7324 10.2846M66.8111 12.3792C66.8858 12.6216 66.7163 12.9115 66.4244 13.0446M65.7324 10.2846L64.8607 7.42648M65.7324 10.2846C65.8071 10.527 65.6377 10.8171 65.3457 10.9501M41.0343 23.3943L39.3488 26.9492C39.2117 27.2086 39.3098 27.4783 39.5737 27.57M61.4381 12.9093L62.5168 15.0038M61.4381 12.9093L65.3457 10.9501M61.4381 12.9093C61.432 13.8758 61.2619 14.8647 60.9352 15.8454M62.5168 15.0038L66.4244 13.0446M62.5168 15.0038C62.5168 15.1881 62.5169 15.3736 62.5062 15.5576C62.4742 16.1115 61.8751 16.325 61.3809 16.0728L60.9352 15.8454M66.4244 13.0446L65.3457 10.9501M60.9352 15.8454L64.212 17.5175C64.4616 17.6288 64.5311 17.9099 64.3732 18.1622M46.085 25.1403L47.1637 27.2349M46.085 25.1403C47.1703 25.2372 48.2968 25.1923 49.4299 25.0063M46.085 25.1403L43.4731 28.3757M47.1637 27.2349C47.8114 27.2927 48.4738 27.3001 49.1436 27.257C49.821 27.2135 50.1901 26.4824 49.8793 25.8789L49.4299 25.0063M47.1637 27.2349L44.5517 30.4702M49.4299 25.0063L50.9549 28.0789C51.0136 28.2176 51.1468 28.3065 51.3082 28.3312M39.5737 27.57L42.6857 28.6442M39.5737 27.57C39.4612 27.5309 39.3788 27.4595 39.3319 27.3701L40.4106 29.4646C40.4574 29.554 40.5398 29.6254 40.6525 29.6646L43.7643 30.7388M42.6857 28.6442L43.7643 30.7388M42.6857 28.6442C42.7173 28.6553 42.75 28.6632 42.7835 28.6684C43.0292 28.706 43.3129 28.5892 43.4731 28.3757M43.7643 30.7388C43.796 30.7498 43.8287 30.7577 43.8622 30.7629C44.1079 30.8005 44.3916 30.6838 44.5517 30.4702M43.4731 28.3757L44.5517 30.4702M55.1584 22.8341L56.2371 24.9286M55.1584 22.8341C56.1597 22.2093 57.0774 21.479 57.8852 20.6646M55.1584 22.8341L55.6294 26.304M56.2371 24.9286C57.2384 24.3038 58.1561 23.5735 58.9639 22.7591M56.2371 24.9286L56.708 28.3986M58.9639 22.7591L57.8852 20.6646M58.9639 22.7591L62.8025 23.5458M57.8852 20.6646L61.7239 21.4512M62.8025 23.5458L61.7239 21.4512M62.8025 23.5458C63.1202 23.5969 63.424 23.4591 63.5736 23.2234M61.7239 21.4512C62.0416 21.5024 62.3453 21.3646 62.4949 21.1289M64.3732 18.1622C64.4728 18.0032 64.482 17.8327 64.4126 17.7005L65.4913 19.7951C65.5606 19.9273 65.5513 20.0977 65.4519 20.2568L63.5736 23.2234M64.3732 18.1622L62.4949 21.1289M63.5736 23.2234L62.4949 21.1289M52.7379 30.3839C52.6174 30.4298 52.4957 30.4423 52.3869 30.4256C52.2368 30.4027 52.1113 30.3244 52.0471 30.2021L50.9685 28.1075C51.0326 28.2298 51.1582 28.3083 51.3082 28.3312M52.7379 30.3839L51.6593 28.2893M52.7379 30.3839L56.2649 29.0456M51.6593 28.2893C51.5388 28.3352 51.417 28.3478 51.3082 28.3312M51.6593 28.2893L55.1862 26.951M55.6294 26.304L56.708 28.3986M55.6294 26.304C55.6784 26.5563 55.4855 26.8368 55.1862 26.951M56.708 28.3986C56.7571 28.6509 56.5641 28.9314 56.2649 29.0456M56.2649 29.0456L55.1862 26.951M20.8806 20.3727C20.8519 20.2677 20.866 20.1663 20.9146 20.0842L19.9155 22.1366C19.867 22.2186 19.8529 22.3201 19.8815 22.425V22.425C19.9937 22.8125 20.454 22.9745 20.7841 22.7425L21.4168 22.2978M20.8806 20.3727L21.4168 22.2978M20.8806 20.3727C20.8325 20.1965 20.9047 20.0301 21.0587 19.9486C21.0906 19.9317 21.126 19.9184 21.1646 19.9095L23.5759 19.3353C23.7975 19.2824 24.056 19.3891 24.1812 19.5879L25.0167 20.9077C25.1995 21.1964 25.5173 21.3679 25.8584 21.3891C27.0188 21.4613 28.1731 21.7495 29.252 22.2171C29.5949 22.3657 29.9929 22.3371 30.2955 22.1178L31.4013 21.3164C31.5724 21.2258 31.8122 21.2544 31.9863 21.3955L34.0757 23.0739C34.2683 23.2275 34.3251 23.4673 34.21 23.6404L33.5845 24.5719C33.3408 24.9347 33.3659 25.4106 33.6109 25.7724C33.8896 26.184 34.1336 26.6183 34.3382 27.0734C34.5567 27.5587 34.7183 28.0438 34.8277 28.5244C34.9083 28.8784 35.145 29.183 35.4841 29.3128L37.0216 29.9012C37.2516 29.9896 37.4019 30.2085 37.3727 30.415L37.0478 32.6669C37.0304 32.7842 36.9588 32.8774 36.8564 32.9316M21.4168 22.2978C20.4024 22.8445 19.5953 23.6015 19.0298 24.4974C18.8021 24.8581 18.4012 25.089 17.9774 25.0409L16.5192 24.8758C16.4148 24.8646 16.3181 24.8833 16.2395 24.9248C16.1372 24.979 16.0655 25.0723 16.0481 25.1896M34.4085 32.7361L36.5768 32.9807C36.6811 32.9917 36.7778 32.9731 36.8564 32.9316M34.4085 32.7361L34.0291 33.5156C33.7268 34.1366 34.1299 34.8697 34.8161 34.947L35.5778 35.0329C35.6821 35.0441 35.7789 35.0255 35.8574 34.9839C35.9192 34.9511 35.9697 34.9043 36.004 34.8464L37.003 32.7942C36.9688 32.852 36.9182 32.8989 36.8564 32.9316M34.4085 32.7361C33.8527 33.9043 32.9209 34.8917 31.6791 35.5587M29.9293 27.7472C30.5572 28.8507 30.5381 29.9962 30.0244 30.872C30.0209 30.8781 30.0169 30.8838 30.0125 30.8893V30.8893C29.9208 31.003 29.7129 30.9236 29.6963 30.7785C29.4048 28.2243 24.7578 26.2143 22.7266 27.9552M29.9293 27.7472C29.0626 26.2215 27.1509 25.2775 25.4189 25.5187C24.9747 25.5808 24.5756 25.7105 24.2288 25.894C22.7482 26.6776 22.2182 28.4421 23.1665 30.1091C24.0333 31.6348 25.9449 32.5786 27.6769 32.3377C28.1222 32.2759 28.522 32.146 28.8694 31.9622C30.3492 31.179 30.8782 29.4149 29.9293 27.7472ZM31.6791 35.5587C32.7473 34.985 33.586 34.1741 34.1534 33.215M31.6791 35.5587V35.5587C31.8073 36.0188 32.3377 36.2412 32.6733 35.9014C33.379 35.187 33.6698 34.2086 34.1534 33.215M31.6791 35.5587L32.2155 37.4838C32.2647 37.6611 32.1904 37.8268 32.0374 37.9078M33.1545 35.2674L34.1534 33.215M16.0481 25.1896C16.0551 25.143 16.0704 25.1004 16.0929 25.0623L15.094 27.1147C15.0715 27.1527 15.056 27.1954 15.0491 27.2418L14.7242 29.4938M16.0481 25.1896L15.7232 27.4414M15.7232 27.4414L14.7242 29.4938M15.7232 27.4414C15.6942 27.6478 15.8423 27.8677 16.0741 27.9552M14.7242 29.4938C14.6951 29.7002 14.8433 29.92 15.0751 30.0075M16.0741 27.9552L15.0751 30.0075M16.0741 27.9552L18.161 28.7538M15.0751 30.0075L17.162 30.8061M17.162 30.8061L18.161 28.7538M17.162 30.8061C17.2575 31.4743 17.3708 31.9289 17.6771 32.6097C17.7883 32.857 17.9221 33.1284 18.0698 33.4015C18.4191 34.0471 19.2936 33.9682 19.6149 33.3081L19.9223 32.6765M18.161 28.7538C18.2565 29.422 18.4514 30.1024 18.7578 30.7831C19.0631 31.4622 19.4574 32.0963 19.9223 32.6765M19.9223 32.6765L18.8859 34.2161C18.7708 34.3892 18.8274 34.6289 19.0199 34.7825M29.5181 38.5221L31.9312 37.947C31.9698 37.9381 32.0053 37.9248 32.0374 37.9078M29.5181 38.5221L28.5191 40.5744M29.5181 38.5221C29.2965 38.575 29.0399 38.4673 28.9147 38.2685M32.0374 37.9078C32.0996 37.8749 32.1487 37.8281 32.1818 37.772L31.1829 39.8243C31.1497 39.8804 31.1007 39.9272 31.0384 39.9602C31.0063 39.9771 30.9708 39.9904 30.9322 39.9992L28.5191 40.5744M28.5191 40.5744C28.2976 40.6273 28.041 40.5196 27.9158 40.3208M27.7858 36.4852L26.7868 38.5375M27.7858 36.4852L28.9147 38.2685M27.7858 36.4852C26.2423 36.4808 24.6903 36.0843 23.2928 35.3818M26.7868 38.5375L27.9158 40.3208M26.7868 38.5375C25.2433 38.5331 23.6914 38.1367 22.2939 37.4341M27.9158 40.3208L28.9147 38.2685M23.2928 35.3818L22.2939 37.4341M23.2928 35.3818L21.6946 36.5401M22.2939 37.4341L20.6955 38.5924M18.0209 36.8349C17.8343 36.6859 17.775 36.456 17.8766 36.2843L18.8756 34.232C18.774 34.4036 18.8333 34.6335 19.0199 34.7825M18.0209 36.8349L19.0199 34.7825M18.0209 36.8349L20.1104 38.5133M19.0199 34.7825L21.1094 36.4609M21.6946 36.5401L20.6955 38.5924M21.6946 36.5401C21.5235 36.6307 21.2835 36.602 21.1094 36.4609M20.6955 38.5924C20.5244 38.683 20.2845 38.6543 20.1104 38.5133M20.1104 38.5133L21.1094 36.4609M157.029 112.544C155.349 112.408 153.675 113.747 153.287 115.537C152.9 117.322 153.946 118.883 155.626 119.019C157.301 119.156 158.976 117.816 159.362 116.031C159.75 114.241 158.704 112.681 157.029 112.544ZM95.1679 40.8403L72.5727 39.0031C70.9248 38.8691 69.2729 40.1902 68.8913 41.9514L65.5554 57.348C65.174 59.1088 66.2072 60.6434 67.855 60.7774L90.4502 62.6146C92.1028 62.749 93.7536 61.4326 94.1352 59.6717L97.4711 44.2751C97.8527 42.5139 96.8204 40.9747 95.1679 40.8403ZM173.841 51.2686L153.551 49.6189C151.898 49.4846 150.252 50.801 149.871 52.5619L146.571 67.7933C146.189 69.5541 147.217 71.0931 148.869 71.2275L169.159 72.8772C170.812 73.0116 172.464 71.6905 172.845 69.9296L176.145 54.6982C176.527 52.9373 175.494 51.403 173.841 51.2686ZM114.98 109.994C114.447 108.797 113.075 104.624 112.156 101.801C111.969 101.227 112.466 100.65 113.068 100.698V100.698C113.561 100.738 113.872 101.192 113.881 101.687C113.916 103.477 115.035 104.839 117.283 105.715C117.692 105.874 117.979 106.259 117.973 106.699C117.958 107.645 117.929 108.466 117.878 109.035C117.746 110.516 117.041 111.274 116.309 111.214C115.824 111.175 115.329 110.777 114.98 109.994ZM117.802 105.974C115.073 105.113 113.72 103.654 113.688 101.674C113.68 101.157 114.154 100.794 114.67 100.83C121.023 101.267 127.365 101.341 130.644 100.927C131.386 100.833 132.077 101.488 131.771 102.17C130.631 104.71 127.647 107.145 122.535 106.782C122.423 106.774 122.311 106.765 122.202 106.757C120.466 106.615 119.002 106.352 117.802 105.974ZM107.217 64.8807C107.159 64.876 107.102 64.8766 107.044 64.8817C106.527 64.9273 106.049 65.3547 105.929 65.9064C105.796 66.5197 106.155 67.0521 106.734 67.0992C107.314 67.1463 107.888 66.6898 108.022 66.0766C108.142 65.5235 107.862 65.0338 107.381 64.9084C107.329 64.8948 107.274 64.8853 107.217 64.8807ZM118.754 72.3601C118.253 72.3194 117.754 72.6552 117.542 73.1435C117.508 73.2198 117.482 73.2997 117.464 73.3824C117.456 73.4214 117.449 73.46 117.445 73.4983C117.378 74.0613 117.73 74.5312 118.272 74.5753C118.849 74.6221 119.426 74.1659 119.559 73.5527C119.693 72.9395 119.33 72.407 118.754 72.3601ZM125.985 76.9113C125.409 76.8645 124.832 77.3206 124.698 77.9339C124.578 78.4867 124.86 78.9764 125.339 79.1019C125.391 79.1157 125.446 79.1251 125.503 79.1297C125.56 79.1344 125.618 79.1339 125.676 79.1289C126.193 79.0834 126.673 78.6562 126.793 78.1043C126.927 77.491 126.564 76.9584 125.985 76.9113ZM131.525 70.3368C130.946 70.2896 130.368 70.7491 130.234 71.3622C130.102 71.9724 130.463 72.5083 131.043 72.5554C131.562 72.5977 132.083 72.2282 132.278 71.7082C132.299 71.6515 132.317 71.5928 132.33 71.5326C132.343 71.4715 132.351 71.411 132.355 71.3517C132.388 70.8174 132.044 70.3789 131.525 70.3368ZM136.301 77.7501C136.243 77.7454 136.185 77.7459 136.128 77.751C135.611 77.796 135.134 78.2208 135.014 78.7727C134.88 79.3859 135.239 79.9215 135.818 79.9686C136.397 80.0156 136.973 79.5561 137.106 78.9429C137.226 78.3909 136.947 77.9046 136.467 77.7785C136.414 77.7645 136.359 77.7548 136.301 77.7501ZM129.32 94.3199C128.741 94.2728 128.164 94.729 128.03 95.3423C127.897 95.9555 128.259 96.4912 128.838 96.5384C129.356 96.5806 129.877 96.2125 130.073 95.6913C130.094 95.6335 130.112 95.5738 130.126 95.5127C130.139 95.4524 130.147 95.3931 130.151 95.3349C130.186 94.7996 129.84 94.3621 129.32 94.3199ZM105.871 95.5398C105.349 95.4973 104.828 95.8666 104.633 96.3866C104.612 96.4435 104.594 96.502 104.581 96.5622C104.568 96.6234 104.559 96.6838 104.556 96.743C104.522 97.2774 104.867 97.716 105.388 97.7584C105.964 97.8053 106.543 97.3458 106.676 96.7325C106.809 96.1225 106.447 95.5867 105.871 95.5398ZM111.877 84.8539C111.378 84.8134 110.88 85.1485 110.666 85.6339C110.647 85.6779 110.634 85.7244 110.624 85.7713L110.577 85.9828C110.566 86.0323 110.559 86.0826 110.559 86.1333C110.561 86.6316 110.897 87.032 111.394 87.0724C111.97 87.1193 112.549 86.6598 112.681 86.0498C112.815 85.4366 112.453 84.9008 111.877 84.8539ZM88.1587 95.9072L70.5754 94.4775C68.9275 94.3435 67.2756 95.6647 66.8941 97.4256L64.7935 107.121C64.4121 108.882 65.4452 110.416 67.093 110.55L84.6763 111.98C86.3287 112.114 87.975 110.798 88.3566 109.037L90.4572 99.3414C90.8387 97.5805 89.811 96.0415 88.1587 95.9072ZM78.3183 100.032C75.5058 99.8037 72.7155 101.282 71.3896 102.115C70.9334 102.402 70.8445 103 71.2116 103.394C72.1725 104.427 74.1994 106.202 76.9333 106.425C79.7491 106.654 82.5403 105.176 83.8664 104.342C84.3227 104.056 84.4115 103.458 84.0444 103.063C83.0832 102.031 81.0554 100.255 78.3183 100.032ZM77.1484 105.437C76.004 105.344 75.2904 104.28 75.5546 103.06C75.8189 101.84 76.961 100.927 78.1054 101.02C79.2498 101.113 79.9634 102.177 79.6991 103.397C79.4349 104.617 78.2928 105.53 77.1484 105.437ZM46.747 100.744L37.4868 72.4852C37.1981 71.6043 36.2192 71.0526 35.2993 71.2532L5.78699 77.6911C4.86708 77.8917 4.35516 78.7687 4.64385 79.6496L13.904 107.908C14.1927 108.789 15.1724 109.34 16.0923 109.139L45.6046 102.701C46.5245 102.5 47.0357 101.625 46.747 100.744ZM19.8625 87.6789L19.6164 91.883C19.5777 92.5441 20.1808 93.0596 20.8279 92.9184L24.1182 92.2006C24.8401 92.0432 25.1478 91.1842 24.6901 90.6041L22.216 87.469C22.0889 87.3085 21.9652 87.1512 21.8449 86.9973C21.2924 86.2905 19.9082 86.783 19.8625 87.6789V87.6789ZM33.3552 19.1966L34.2132 21.8123L35.3151 24.4158L34.4436 21.9379L33.3552 19.1966ZM77.8617 47.0966L80.5252 47.3131C81.1279 47.3621 81.5495 47.9306 81.4215 48.5216L79.4994 57.3931C79.3932 57.883 78.9407 58.2187 78.441 58.1781L75.7775 57.9615C75.1748 57.9125 74.7532 57.344 74.8812 56.7531L76.8033 47.8815C76.9095 47.3916 77.362 47.0559 77.8617 47.0966ZM165.907 68.6358L166.497 65.9135C166.603 65.4235 167.056 65.0879 167.555 65.1285L169.949 65.3232C170.552 65.3722 170.974 65.9407 170.846 66.5316L170.256 69.2539C170.15 69.7439 169.697 70.0795 169.197 70.0389L166.803 69.8442C166.201 69.7952 165.779 69.2267 165.907 68.6358ZM161.704 64.5911L164.098 64.7858C164.7 64.8348 165.122 65.4033 164.994 65.9942L164.404 68.7165C164.298 69.2065 163.846 69.5421 163.346 69.5015L160.952 69.3068C160.349 69.2578 159.928 68.6893 160.056 68.0984L160.645 65.3761C160.751 64.8861 161.204 64.5505 161.704 64.5911ZM153.427 57.6134L159.911 58.1406C160.513 58.1896 160.935 58.7581 160.807 59.349L160.391 61.269C160.285 61.7589 159.832 62.0946 159.333 62.0539L152.849 61.5267C152.246 61.4777 151.824 60.9092 151.952 60.3183L152.368 58.3983C152.475 57.9084 152.927 57.5728 153.427 57.6134ZM19.4241 95.9861L19.228 100.141C19.2067 100.593 18.8844 100.974 18.4422 101.071L17.9473 101.179C17.2966 101.32 16.6915 100.799 16.7364 100.134L17.8696 83.3497C17.8995 82.9057 18.2194 82.5349 18.6542 82.44L19.9087 82.1664C20.2732 82.0869 20.6516 82.2168 20.8903 82.5034L32.5458 96.4981C33.026 97.0747 32.7236 97.9551 31.9905 98.1151L31.4747 98.2276C31.1034 98.3086 30.7182 98.1721 30.4808 97.8753L27.4219 94.0522C27.1845 93.7554 26.7993 93.6189 26.428 93.6999L20.2099 95.0563C19.7677 95.1527 19.4455 95.5341 19.4241 95.9861ZM170.431 58.8436L163.952 58.3168C163.452 58.2762 163 58.6118 162.894 59.1018L162.478 61.0217C162.35 61.6127 162.771 62.1812 163.374 62.2302L169.853 62.757C170.353 62.7976 170.805 62.462 170.912 61.9721L171.328 60.0521C171.456 59.4612 171.034 58.8926 170.431 58.8436ZM169.432 57.2713L155.649 56.1506C155.046 56.1016 154.624 55.5331 154.752 54.9421L155.075 53.455C155.181 52.9651 155.633 52.6295 156.133 52.6701L169.916 53.7908C170.519 53.8398 170.94 54.4083 170.812 54.9993L170.49 56.4864C170.384 56.9763 169.931 57.3119 169.432 57.2713ZM90.0992 59.1258L87.4359 58.9093C86.8333 58.8603 86.4116 58.2919 86.5396 57.701L89.4488 44.267C89.5549 43.777 90.0075 43.4413 90.5072 43.4819L93.1704 43.6985C93.773 43.7475 94.1947 44.3159 94.0667 44.9068L91.1575 58.3408C91.0514 58.8308 90.5989 59.1665 90.0992 59.1258ZM156.51 64.2305L154.116 64.0358C153.617 63.9952 153.164 64.3308 153.058 64.8208L152.468 67.5431C152.34 68.134 152.762 68.7025 153.364 68.7515L155.758 68.9462C156.258 68.9868 156.711 68.6512 156.817 68.1612L157.407 65.4389C157.535 64.848 157.113 64.2795 156.51 64.2305ZM37.2369 96.9706L36.804 97.065C36.3029 97.1743 35.8003 96.8868 35.6406 96.3994L30.583 80.9654C30.3984 80.4023 30.7412 79.8032 31.3201 79.677L31.753 79.5825C32.2541 79.4732 32.7567 79.7607 32.9164 80.2481L37.9741 95.6822C38.1586 96.2452 37.8158 96.8443 37.2369 96.9706ZM72.607 57.7037L69.9485 57.4875C69.3458 57.4385 68.9242 56.87 69.0522 56.2791L69.9435 52.1653C70.0497 51.6754 70.5022 51.3397 71.0019 51.3804L73.6604 51.5965C74.2631 51.6455 74.6847 52.214 74.5567 52.805L73.6654 56.9187C73.5592 57.4087 73.1067 57.7443 72.607 57.7037Z" stroke="#479FF7" stroke-width="0.5" stroke-linecap="round" stroke-linejoin="round"/>
</svg>
