<svg width="365" height="261" viewBox="0 0 365 261" fill="none" xmlns="http://www.w3.org/2000/svg">
<path d="M272.58 249.872C278.585 252.456 285.388 253.148 292.173 252.847M272.58 249.872C258.955 244.007 255.575 237.463 251.581 229.756L255.74 239.385C262.081 251.346 270.02 254.836 275.387 256.883C281.494 259.212 288.195 260.159 294.98 259.858C300.39 259.619 305.855 258.582 311.123 256.808C319.14 254.108 326.7 249.705 332.905 243.791C333.197 243.512 333.287 243.083 333.137 242.707L330.578 236.316M272.58 249.872C267.21 247.831 262.719 244.871 259.171 241.293M272.58 249.872C278.691 252.195 285.388 253.148 292.173 252.847M292.173 252.847C297.583 252.607 303.047 251.569 308.316 249.797M292.173 252.847C297.583 252.607 303.048 251.571 308.316 249.797M308.316 249.797C316.543 247.03 324.285 242.464 330.578 236.316M308.316 249.797L296.882 210.936M330.578 236.316L296.882 210.936M296.882 210.936L300.716 213.798C301.21 214.167 301.917 214.005 302.202 213.457L319.319 180.476C319.453 180.217 319.468 179.913 319.36 179.643L316.723 173.058M296.882 210.936L316.723 173.058M296.882 210.936L276.817 178.579M296.882 210.936L259.171 241.293M316.723 173.058C311.967 171.847 307.009 171.388 302.035 171.609C293.349 171.993 284.614 174.448 276.817 178.579M276.817 178.579C268.607 182.931 261.432 189.143 256.467 196.773C246.271 212.442 248.008 230.017 259.171 241.293M314.501 210.459L335.05 172.532C335.276 172.116 335.762 171.913 336.213 172.056C337.548 172.478 338.851 172.956 340.113 173.494C361.524 182.615 367.699 207.382 353.827 228.578M314.501 210.459L346.558 237.365M314.501 210.459L317.845 217.447C317.907 217.575 317.995 217.689 318.104 217.781L349.996 244.549M346.558 237.365C349.33 234.672 351.772 231.718 353.827 228.578M346.558 237.365L349.996 244.549M346.558 237.365C349.33 234.672 351.771 231.718 353.827 228.578M353.827 228.578C363.735 213.45 363.333 196.062 354.606 184.55L358.591 190.415C366.854 202.28 367.168 220.63 357.266 235.761C355.21 238.901 352.767 241.855 349.996 244.549M314.099 69.2657C315.707 61.8425 311.369 55.3616 304.396 54.7947L107.192 38.7608C100.226 38.1944 93.271 43.757 91.6627 51.1801L72.1596 140.502M70.0865 210.02C63.1211 209.454 58.775 202.973 60.3834 195.55L65.1596 175.002M310.804 57.5263L313.806 60.0385C317.208 62.6436 318.889 67.2791 317.789 72.355L296.159 172.002M310.804 57.5263L310.114 56.9495C310.353 57.132 310.582 57.3244 310.804 57.5263ZM310.804 57.5263C313.739 60.2061 315.121 64.5456 314.098 69.2659L291.659 172.502M250.659 227.502L73.7772 213.109C71.5748 212.93 69.6152 212.193 68.042 210.988L66.6863 209.903L64.0779 207.527C65.6511 208.732 67.8831 209.841 70.0855 210.02L250.159 224.502M283.659 175.502L305.933 72.4287C307.128 66.9109 303.902 62.0983 298.724 61.6773L109.734 46.3112C104.556 45.8901 99.3916 50.0205 98.1962 55.5383L76.6592 154.502M249.659 217.502L75.7547 203.142C70.5767 202.721 67.3518 197.9 68.5473 192.382L72.6592 173.502M253.158 202.479L217.539 199.583C214.865 199.366 213.2 196.883 213.818 194.033L218.081 174.353C218.699 171.504 221.365 169.365 224.039 169.583L265.205 172.93C267.878 173.147 269.541 175.637 268.924 178.487L267.658 184.502M249.603 180.833L228.055 179.081C225.47 178.871 222.887 180.936 222.291 183.691L222.033 184.88C221.436 187.635 223.05 190.041 225.635 190.252L247.179 192.003M249.603 180.833C247.742 181.985 246.278 183.929 245.784 186.21C245.29 188.489 245.874 190.597 247.179 192.003M249.603 180.833C250.897 180.034 252.381 179.617 253.868 179.738C257.495 180.033 259.754 183.413 258.917 187.278C258.607 188.71 257.915 190.007 256.983 191.06C256.331 191.795 255.563 192.411 254.724 192.868C253.523 193.522 252.179 193.852 250.834 193.743C249.346 193.622 248.088 192.982 247.179 192.003M254.81 193.003L256.615 195.692M258.657 193.502L257.158 191.378M154.159 83.5023L168.434 84.5186C169.033 84.5612 169.459 85.118 169.344 85.7072L166.659 99.5024M144.159 168.002L164.367 169.631C164.869 169.672 165.323 169.332 165.426 168.838L167.159 160.502M231.159 145.502L248.783 146.782C249.382 146.825 249.808 147.383 249.692 147.972L245.159 171.002M140.484 79.0708L133.793 78.5269C133.293 78.4862 132.841 78.8219 132.735 79.3118L129.839 92.6762C129.711 93.2672 130.132 93.8357 130.735 93.8847L136.288 94.3362C136.787 94.3768 137.24 94.0411 137.346 93.5511L140.481 79.0735M218.659 103.002L220.053 96.0647C220.152 95.5715 220.602 95.2287 221.103 95.2641L238.659 96.5023M253.651 90.445L253.085 93.0583M270.696 91.8256L270.206 94.0017M250.938 103.117L251.691 99.5511M263.206 104.086L263.959 100.521M272.685 104.885L273.437 101.319M152.959 143.337C152.358 143.359 151.773 143.346 151.207 143.3C141.328 142.497 136.835 131.6 141.453 120.639C145.271 111.577 163.09 93.5074 194.159 96.0332C195.445 96.1376 196.752 96.2772 198.082 96.4546C231.179 100.864 236.443 124.318 232.412 140.74C228.527 156.577 221.239 159.918 213.392 162.452C209.573 163.685 196.498 163.629 183.76 162.681C183.156 162.636 180.806 162.445 180.237 162.395C170.264 161.516 161.059 160.102 157.389 158.348C150.467 155.046 149.805 146.818 152.959 143.337ZM152.959 143.337C156.389 138.887 162.194 134.079 171.918 131.948C180.083 130.161 189.859 130.311 194.675 132.697M174.353 97.6268L172.952 104.385M141.927 120.655L149.458 121.267C149.957 121.308 150.41 120.973 150.516 120.483L150.895 118.743C151.001 118.254 151.453 117.919 151.952 117.959L159.546 118.568M159.546 118.568C159.567 118.469 159.596 118.372 159.631 118.278C159.949 117.435 160.791 116.84 161.634 116.908C162.567 116.984 163.152 117.851 162.936 118.843C162.722 119.83 161.786 120.574 160.853 120.498C160.008 120.429 159.45 119.718 159.506 118.855C159.511 118.761 159.525 118.665 159.546 118.568ZM180.326 114.103L185.901 114.546C186.502 114.593 186.924 115.158 186.8 115.748L186.61 116.655C186.486 117.244 186.907 117.808 187.507 117.857L189.491 118.018M180.326 114.103C180.305 114.202 180.276 114.299 180.241 114.392C179.924 115.236 179.082 115.831 178.243 115.763C177.306 115.687 176.72 114.82 176.936 113.827C177.151 112.84 178.087 112.097 179.024 112.173C179.864 112.241 180.422 112.953 180.367 113.815C180.361 113.91 180.347 114.006 180.326 114.103ZM151.68 150.73L160.797 151.468C161.403 151.517 161.826 152.091 161.692 152.685L161.423 153.875C161.29 154.466 161.708 155.039 162.312 155.092L168.614 155.639M156.886 139.267L166.763 140.07C167.262 140.11 167.714 139.776 167.821 139.287L168.026 138.346C168.134 137.856 168.587 137.521 169.086 137.563L178.358 138.335M227.803 152.373L221.829 151.887C221.332 151.847 220.881 152.179 220.772 152.665L220.491 153.919C220.382 154.405 219.932 154.736 219.436 154.697L209.95 153.94M202.469 127.43L201.735 130.843C201.608 131.433 202.029 132 202.63 132.05L204.693 132.22C205.295 132.27 205.716 132.838 205.589 133.428L203.852 141.453M203.852 141.453C203.759 141.445 203.666 141.446 203.573 141.454C202.736 141.528 201.959 142.219 201.764 143.112C201.55 144.099 202.135 144.967 203.072 145.043C204.009 145.119 204.94 144.375 205.155 143.388C205.35 142.493 204.896 141.701 204.118 141.498C204.033 141.476 203.944 141.46 203.852 141.453ZM232.651 123.186L221.5 122.182C220.998 122.137 220.541 122.472 220.433 122.964L219.95 125.172M226.207 109.949L225.072 115.226C224.967 115.718 224.513 116.054 224.012 116.013L213.572 115.142M136.899 158.574L140.101 158.834C140.7 158.883 141.122 159.446 140.999 160.034L140.262 163.589M138.52 171.797L137.732 175.432C137.626 175.922 137.174 176.257 136.674 176.217L133.316 175.944M112.933 174.26L109.881 174.012C109.279 173.963 108.857 173.395 108.985 172.804L109.71 169.459M111.477 161.249L112.293 157.424C112.398 156.93 112.855 156.592 113.358 156.636L116.859 156.945M74.3538 169.16L26.5971 179.578C23.0466 180.352 19.2505 178.216 18.1358 174.815L3.151 129.087M74.3538 169.16C76.298 168.736 77.7721 167.526 78.5255 165.96L76.685 169.909C75.9315 171.475 74.4574 172.685 72.5133 173.109L24.7565 183.527C21.206 184.301 17.4099 182.165 16.2953 178.763L1.3103 133.035C0.805786 131.496 0.936084 129.958 1.55896 128.663L3.39951 124.714C2.77664 126.009 2.64649 127.547 3.151 129.087M74.3538 169.16C77.906 168.385 79.8889 164.988 78.7743 161.587L63.7893 115.859C62.6746 112.458 58.879 110.323 55.3269 111.098L7.57011 121.515C4.01963 122.29 2.03638 125.685 3.151 129.087M55.7598 19.0583L61.0628 21.7643M55.7598 19.0583C55.6093 18.9903 55.4989 18.8853 55.4329 18.7593L57.1783 22.1488C57.2444 22.2747 57.3548 22.3797 57.5052 22.4478L59.1602 23.4169C59.6868 23.7253 60.3644 23.4942 60.5929 22.9283L61.0628 21.7643M55.7598 19.0583C55.354 18.875 55.2404 18.4232 55.4993 18.0154L58.5368 13.2114C58.7789 12.8298 59.2705 12.6069 59.7878 12.6903L65.4675 13.8572C65.7983 13.9252 66.1399 13.8206 66.3831 13.5864C67.4426 12.5663 68.6108 11.6318 69.8632 10.8042C70.1913 10.5874 70.3729 10.2045 70.3202 9.81474L69.6463 4.83668C69.5658 4.43132 69.8796 3.9746 70.3639 3.78984L76.0727 1.62777C76.2689 1.55287 76.4673 1.53249 76.6445 1.55952C76.9047 1.59932 77.1191 1.74172 77.2137 1.96524L79.3534 6.27626C79.5484 6.66918 79.9765 6.88692 80.4115 6.83014C81.8133 6.64715 83.2057 6.59563 84.5617 6.6801C84.8947 6.70084 85.2197 6.56468 85.4293 6.30518L89.3198 1.48782C89.577 1.13914 90.0386 0.950421 90.4369 1.01131C90.4911 1.01969 90.5443 1.03258 90.5955 1.0504L95.6265 2.79116C96.0536 2.93969 96.2134 3.37297 95.9916 3.79266M61.0628 21.7643C60.5999 23.1446 60.3335 24.5358 60.2634 25.9038C60.2442 26.2788 60.0339 26.621 59.6982 26.7892L53.9231 29.6825C53.4494 29.9008 53.1801 30.3676 53.2996 30.763L54.707 35.3875C54.7861 35.6439 55.0155 35.8132 55.3025 35.857M95.9916 3.79266C96.1185 3.55284 96.1206 3.30834 96.0194 3.11535L97.7649 6.50464C97.8661 6.69763 97.8639 6.94209 97.7371 7.1821L96.2036 10.3699C95.9249 10.9492 95.1797 11.1188 94.6777 10.7172L93.7881 10.0055C93.4208 9.71164 93.3079 9.20154 93.517 8.78018L95.9916 3.79266ZM95.9916 3.79266L93.6297 8.78095C93.4207 9.22244 93.5639 9.74718 93.9469 10.0503C94.7553 10.6902 95.4749 11.4091 96.0963 12.198C96.3558 12.5274 96.7823 12.6866 97.1876 12.579L103.254 10.9681C103.425 10.917 103.593 10.9053 103.745 10.9286C104.032 10.9724 104.261 11.1407 104.339 11.3993M66.7684 30.0067L68.5137 33.3961C67.2349 30.9568 67.0877 27.9233 68.3712 24.8099M66.7684 30.0067C65.4896 27.5674 65.3422 24.534 66.6257 21.4206M66.7684 30.0067V30.0067C67.0455 30.3539 67.9234 29.8553 67.846 29.4179C67.5931 27.9886 67.6883 26.4663 68.3712 24.8099M68.3712 24.8099C71.0612 18.2848 79.0174 13.8785 86.1413 14.9682M86.1413 14.9682C89.866 15.5379 92.6259 17.4973 94.0271 20.17L92.2816 16.7808M86.1413 14.9682C88.4159 15.3161 90.0069 16.1197 91.2201 17.3012C91.5316 17.6047 92.3959 17.2004 92.2816 16.7808V16.7808M92.2816 16.7808C90.8804 14.108 88.1205 12.1486 84.3958 11.5789M84.3958 11.5789C77.2719 10.4892 69.3157 14.8955 66.6257 21.4206M84.3958 11.5789C91.5197 12.6686 95.1141 18.8419 92.4241 25.367C89.734 31.892 81.7779 36.2982 74.654 35.2085C67.5301 34.1188 63.9357 27.9457 66.6257 21.4206M57.5385 39.2052C57.3682 39.2578 57.2 39.2696 57.048 39.2463C56.8026 39.2088 56.599 39.08 56.4957 38.883L54.7502 35.4936C54.8535 35.6906 55.0571 35.8195 55.3025 35.857M57.5385 39.2052L55.793 35.8158M57.5385 39.2052L64.2822 37.4186M55.793 35.8158C55.6227 35.8683 55.4545 35.8803 55.3025 35.857M55.793 35.8158L62.5367 34.0292M64.2822 37.4186L62.5367 34.0292M64.2822 37.4186V37.4186C64.6538 37.9936 65.4736 37.8656 65.777 37.2518L65.7836 37.2385M62.5367 34.0292C63.4033 35.2609 64.4962 36.3419 65.7836 37.2385M107.496 19.4138L106.085 14.7886C106.073 14.7501 106.058 14.7136 106.04 14.6793L104.295 11.2898C104.313 11.3243 104.328 11.3608 104.339 11.3993M107.496 19.4138L105.75 16.0243M107.496 19.4138C107.616 19.8061 107.342 20.2753 106.87 20.4905M105.75 16.0243L104.339 11.3993M105.75 16.0243C105.871 16.4166 105.597 16.886 105.124 17.1012M65.7836 37.2385L63.056 42.991C62.8342 43.4108 62.9929 43.8472 63.4201 43.9955M98.801 20.2716L100.547 23.6609M98.801 20.2716L105.124 17.1012M98.801 20.2716C98.7912 21.8357 98.5159 23.4359 97.9873 25.0228M100.547 23.6609L106.87 20.4905M100.547 23.6609C100.547 24.1675 100.547 24.6795 100.462 25.1753C100.369 25.7223 99.7569 25.9259 99.2627 25.6737L97.9873 25.0228M106.87 20.4905L105.124 17.1012M97.9873 25.0228L103.29 27.7287C103.694 27.9087 103.806 28.3637 103.551 28.7719M73.9566 40.0638L75.7021 43.4533M73.9566 40.0638C75.7129 40.2207 77.5358 40.148 79.3693 39.847M73.9566 40.0638L69.73 45.2994M75.7021 43.4533C77.0226 43.5713 78.3807 43.5594 79.7527 43.4183C80.4279 43.3489 80.7963 42.618 80.4855 42.0145L79.3693 39.847M75.7021 43.4533L71.4754 48.6888M79.3693 39.847L81.8371 44.8191C81.9321 45.0435 82.1476 45.1874 82.4088 45.2273M63.4201 43.9955L68.4558 45.734M63.4201 43.9955C63.2379 43.9323 63.1046 43.8167 63.0288 43.6721L64.7743 47.0615C64.8501 47.206 64.9834 47.3217 65.1657 47.385L70.2013 49.1234M68.4558 45.734L70.2013 49.1234M68.4558 45.734C68.5071 45.7518 68.5599 45.7647 68.6142 45.7731C69.0118 45.8339 69.4709 45.6449 69.73 45.2994M70.2013 49.1234C70.2525 49.1412 70.3054 49.154 70.3597 49.1624C70.7573 49.2232 71.2163 49.0344 71.4754 48.6888M69.73 45.2994L71.4754 48.6888M88.6392 36.332L90.3847 39.7213M88.6392 36.332C90.2595 35.3209 91.7445 34.1392 93.0517 32.8213M88.6392 36.332L89.4013 41.947M90.3847 39.7213C92.005 38.7102 93.49 37.5285 94.7972 36.2106M90.3847 39.7213L91.1468 45.3365M94.7972 36.2106L93.0517 32.8213M94.7972 36.2106L101.009 37.4836M93.0517 32.8213L99.2635 34.0941M101.009 37.4836L99.2635 34.0941M101.009 37.4836C101.523 37.5664 102.015 37.3433 102.257 36.9619M99.2635 34.0941C99.7775 34.1769 100.269 33.954 100.511 33.5726M103.551 28.7719C103.712 28.5147 103.727 28.2387 103.614 28.0248L105.36 31.4142C105.472 31.6281 105.457 31.9039 105.296 32.1613L102.257 36.9619M103.551 28.7719L100.511 33.5726M102.257 36.9619L100.511 33.5726M84.7224 48.549C84.5274 48.6233 84.3304 48.6435 84.1543 48.6166C83.9115 48.5795 83.7083 48.4528 83.6045 48.2549L81.859 44.8654C81.9628 45.0634 82.166 45.1902 82.4088 45.2273M84.7224 48.549L82.9769 45.1596M84.7224 48.549L90.4297 46.3834M82.9769 45.1596C82.7819 45.2339 82.5849 45.2542 82.4088 45.2273M82.9769 45.1596L88.6842 42.9939M89.4013 41.947L91.1468 45.3365M89.4013 41.947C89.4807 42.3553 89.1685 42.8092 88.6842 42.9939M91.1468 45.3365C91.2262 45.7447 90.914 46.1986 90.4297 46.3834M90.4297 46.3834L88.6842 42.9939M33.1708 32.3489C33.1244 32.1791 33.1471 32.015 33.2258 31.8821L31.6091 35.2032C31.5306 35.336 31.5078 35.5002 31.5541 35.6699V35.6699C31.7356 36.2971 32.4805 36.5591 33.0146 36.1837L34.0385 35.4641M33.1708 32.3489L34.0385 35.4641M33.1708 32.3489C33.0929 32.0638 33.2098 31.7945 33.459 31.6626C33.5107 31.6353 33.568 31.6138 33.6304 31.5993L37.5323 30.6702C37.8909 30.5846 38.3093 30.7573 38.5118 31.079L40.0453 33.5012C40.228 33.7899 40.5457 33.9629 40.8872 33.9764C43.0025 34.0605 45.1136 34.5921 47.0608 35.4868C47.4004 35.6428 47.799 35.6128 48.1015 35.3935L50.1954 33.876C50.4723 33.7294 50.8604 33.7758 51.1421 34.004L54.5232 36.72C54.8348 36.9686 54.9267 37.3567 54.7404 37.6368L53.4751 39.5211C53.2315 39.8839 53.2546 40.3608 53.5107 40.7149C54.0712 41.4897 54.5546 42.317 54.9479 43.192C55.3554 44.0972 55.6407 45.002 55.8152 45.8958C55.8848 46.2521 56.1235 46.5561 56.4626 46.6859L59.2903 47.7679C59.6624 47.911 59.9056 48.2653 59.8584 48.5994L59.3326 52.2435C59.3044 52.4332 59.1885 52.5841 59.0228 52.6717M34.0385 35.4641C32.2562 36.4247 30.8694 37.7863 29.949 39.4013C29.7378 39.7719 29.3345 40.0007 28.9107 39.9527L26.1131 39.6358C25.9443 39.6178 25.7877 39.6479 25.6606 39.7152C25.495 39.8028 25.379 39.9539 25.3508 40.1436M55.0617 52.3554L58.5704 52.7512C58.7392 52.7691 58.8957 52.739 59.0228 52.6717M55.0617 52.3554L54.0646 54.4037C53.7624 55.0246 54.1655 55.7577 54.8517 55.8351L56.9538 56.0721C57.1227 56.0902 57.2792 56.0601 57.4063 55.9928C57.5063 55.9398 57.588 55.8639 57.6435 55.7703L59.26 52.4493C59.2047 52.5429 59.1229 52.6188 59.0228 52.6717M55.0617 52.3554C54.1622 54.2458 52.6545 55.8437 50.6449 56.9229M47.8135 44.2824C48.8295 46.068 48.7986 47.9217 47.9674 49.339C47.9617 49.3487 47.9552 49.3581 47.9481 49.3669V49.3669C47.7997 49.5509 47.4632 49.4224 47.4364 49.1875C46.9646 45.0544 39.4449 41.8018 36.158 44.6189M47.8135 44.2824C46.4109 41.8135 43.3174 40.2859 40.5147 40.6762C39.7959 40.7766 39.1501 40.9865 38.5889 41.2835C36.1929 42.5515 35.3354 45.4069 36.8699 48.1044C38.2725 50.5732 41.3658 52.1005 44.1686 51.7107C44.8892 51.6106 45.5361 51.4006 46.0983 51.103C48.4928 49.8356 49.349 46.981 47.8135 44.2824ZM50.6449 56.9229C52.3735 55.9946 53.7308 54.6824 54.6489 53.1304M50.6449 56.9229L50.7141 57.1712C50.8861 57.7884 51.5949 58.0883 52.068 57.6562C53.3471 56.4879 53.8252 54.8228 54.6489 53.1304M50.6449 56.9229L51.513 60.0381C51.5925 60.325 51.4724 60.5931 51.2247 60.7243M53.0324 56.4515L54.6489 53.1304M25.3508 40.1436C25.3621 40.0683 25.387 39.9992 25.4234 39.9377L23.8069 43.2588C23.7705 43.3203 23.7455 43.3895 23.7343 43.4646L23.2085 47.1087M25.3508 40.1436L24.8252 43.7875M24.8252 43.7875L23.2085 47.1087M24.8252 43.7875C24.7781 44.1215 25.0178 44.4773 25.3929 44.6189M23.2085 47.1087C23.1615 47.4427 23.4013 47.7984 23.7764 47.94M25.3929 44.6189L23.7764 47.94M25.3929 44.6189L28.7699 45.9112M23.7764 47.94L27.1534 49.2323M27.1534 49.2323L28.7699 45.9112M27.1534 49.2323C27.308 50.3136 27.4913 51.0491 27.987 52.1509C28.2826 52.8088 28.6775 53.5717 29.1083 54.2795C29.4899 54.9065 30.3738 54.8194 30.6951 54.1593L31.6201 52.259M28.7699 45.9112C28.9245 46.9925 29.2399 48.0935 29.7358 49.1951C30.2297 50.2939 30.8679 51.3201 31.6201 52.259M31.6201 52.259L29.943 54.7503C29.7567 55.0304 29.8483 55.4183 30.1599 55.6669M47.148 61.7183L51.0528 60.7876C51.1153 60.7733 51.1728 60.7518 51.2247 60.7243M47.148 61.7183L45.5315 65.0394M47.148 61.7183C46.7895 61.8038 46.3742 61.6296 46.1717 61.3079M51.2247 60.7243C51.3255 60.6711 51.4048 60.5952 51.4584 60.5045L49.8419 63.8256C49.7883 63.9163 49.7089 63.9921 49.6082 64.0454C49.5563 64.0728 49.4988 64.0944 49.4363 64.1086L45.5315 65.0394M45.5315 65.0394C45.1729 65.1249 44.7577 64.9506 44.5551 64.6289M44.3448 58.4221L42.7283 61.7432M44.3448 58.4221L46.1717 61.3079M44.3448 58.4221C41.8471 58.415 39.3357 57.7735 37.0743 56.6366M42.7283 61.7432L44.5551 64.6289M42.7283 61.7432C40.2306 61.7361 37.7192 61.0946 35.4578 59.9577M44.5551 64.6289L46.1717 61.3079M37.0743 56.6366L35.4578 59.9577M37.0743 56.6366L34.488 58.511M35.4578 59.9577L32.8713 61.832M28.5432 58.988C28.2412 58.747 28.1453 58.3749 28.3097 58.0972L29.9263 54.776C29.762 55.0538 29.8579 55.4258 30.1599 55.6669M28.5432 58.988L30.1599 55.6669M28.5432 58.988L31.9245 61.7041M30.1599 55.6669L33.5411 58.3829M34.488 58.511L32.8713 61.832M34.488 58.511C34.2111 58.6576 33.8228 58.6112 33.5411 58.3829M32.8713 61.832C32.5944 61.9787 32.2062 61.9323 31.9245 61.7041M31.9245 61.7041L33.5411 58.3829M253.486 181.501C250.768 181.28 248.058 183.447 247.431 186.344C246.805 189.233 248.498 191.758 251.216 191.979C253.927 192.2 256.637 190.033 257.262 187.144C257.89 184.247 256.197 181.722 253.486 181.501ZM153.383 65.4696L116.819 62.4967C114.152 62.2799 111.479 64.4177 110.862 67.2676L105.464 92.1823C104.846 95.0318 106.518 97.5151 109.185 97.7319L145.748 100.705C148.423 100.922 151.094 98.7921 151.712 95.9427L157.11 71.0278C157.727 68.1779 156.057 65.687 153.383 65.4696ZM280.691 82.3447L247.858 79.6752C245.184 79.4578 242.52 81.5881 241.903 84.4375L236.563 109.085C235.945 111.934 237.608 114.425 240.282 114.642L273.116 117.312C275.79 117.529 278.463 115.391 279.08 112.542L284.42 87.8945C285.038 85.0451 283.366 82.5622 280.691 82.3447ZM185.443 177.373C184.547 175.361 182.186 168.153 180.703 163.594C180.482 162.912 181.029 162.225 181.744 162.283C182.06 162.309 182.387 162.335 182.688 162.359C183.274 162.406 183.688 162.946 183.668 163.534C183.556 166.741 185.503 169.139 189.597 170.609C190.01 170.758 190.297 171.146 190.291 171.585C190.27 173.307 190.222 174.81 190.133 175.823C189.918 178.22 188.777 179.445 187.593 179.349C186.809 179.285 186.007 178.641 185.443 177.373ZM190.01 170.869C185.337 169.395 183.159 166.838 183.364 163.347C183.395 162.831 183.862 162.469 184.378 162.505C195.537 163.297 206.779 163.4 211.792 162.556C212.529 162.432 213.223 163.066 212.983 163.773C211.484 168.198 206.571 172.809 197.668 172.176C197.487 172.164 197.306 172.15 197.129 172.135C194.32 171.907 191.951 171.481 190.01 170.869ZM172.881 104.372C172.787 104.364 172.694 104.365 172.601 104.373C171.765 104.447 170.991 105.139 170.797 106.032C170.581 107.024 171.163 107.886 172.1 107.962C173.037 108.038 173.967 107.299 174.182 106.307C174.377 105.412 173.924 104.62 173.146 104.417C173.061 104.395 172.973 104.379 172.881 104.372ZM191.55 116.475C190.74 116.409 189.931 116.953 189.588 117.743C189.534 117.866 189.492 117.995 189.463 118.129C189.449 118.192 189.438 118.255 189.431 118.317C189.323 119.228 189.893 119.988 190.77 120.06C191.703 120.135 192.637 119.397 192.853 118.405C193.069 117.413 192.482 116.551 191.55 116.475ZM203.251 123.84C202.319 123.764 201.384 124.502 201.169 125.495C200.974 126.389 201.431 127.182 202.205 127.385C202.29 127.407 202.378 127.422 202.47 127.43C202.564 127.437 202.657 127.436 202.75 127.428C203.587 127.355 204.365 126.663 204.559 125.77C204.775 124.778 204.188 123.916 203.251 123.84ZM212.216 113.201C211.279 113.125 210.343 113.868 210.127 114.86C209.913 115.848 210.498 116.715 211.435 116.791C212.275 116.859 213.119 116.262 213.434 115.42C213.468 115.328 213.497 115.233 213.518 115.136C213.539 115.037 213.553 114.939 213.559 114.843C213.613 113.979 213.055 113.269 212.216 113.201ZM219.944 125.197C219.85 125.189 219.757 125.19 219.664 125.199C218.828 125.271 218.055 125.959 217.861 126.852C217.645 127.844 218.226 128.711 219.163 128.787C220.1 128.863 221.031 128.12 221.247 127.127C221.441 126.234 220.989 125.447 220.214 125.243C220.128 125.22 220.038 125.205 219.944 125.197ZM208.648 152.01C207.711 151.934 206.776 152.672 206.561 153.665C206.345 154.657 206.93 155.524 207.867 155.6C208.707 155.669 209.548 155.073 209.866 154.23C209.901 154.136 209.93 154.039 209.951 153.941C209.972 153.843 209.986 153.747 209.992 153.653C210.048 152.787 209.489 152.079 208.648 152.01ZM170.702 153.984C169.858 153.916 169.014 154.513 168.699 155.355C168.664 155.447 168.636 155.541 168.615 155.639C168.593 155.738 168.58 155.836 168.574 155.932C168.519 156.796 169.078 157.506 169.921 157.575C170.854 157.651 171.789 156.907 172.005 155.914C172.22 154.927 171.635 154.06 170.702 153.984ZM180.421 136.693C179.6 136.626 178.781 137.188 178.445 137.996C178.426 138.04 178.413 138.087 178.403 138.133L178.308 138.565C178.297 138.615 178.29 138.665 178.289 138.716C178.27 139.544 178.82 140.216 179.64 140.282C180.572 140.358 181.508 139.615 181.723 138.628C181.939 137.635 181.353 136.768 180.421 136.693ZM142.04 154.579L113.587 152.265C110.92 152.049 108.247 154.187 107.63 157.036L104.231 172.725C103.613 175.574 105.285 178.058 107.952 178.275L136.405 180.588C139.079 180.805 141.743 178.675 142.361 175.825L145.76 160.136C146.377 157.287 144.714 154.796 142.04 154.579ZM126.117 161.254C121.172 160.852 116.269 163.71 114.403 164.948C113.953 165.246 113.864 165.843 114.217 166.25C115.553 167.791 119.027 171.204 123.875 171.598C128.826 172.001 133.73 169.143 135.597 167.905C136.046 167.607 136.135 167.01 135.782 166.603C134.446 165.062 130.97 161.649 126.117 161.254ZM124.223 170C122.372 169.849 121.217 168.127 121.644 166.154C122.072 164.18 123.92 162.702 125.772 162.853C127.624 163.003 128.779 164.726 128.351 166.699C127.923 168.672 126.075 170.151 124.223 170ZM75.0278 162.406L60.043 116.677C59.5758 115.252 57.9917 114.359 56.5031 114.684L8.74632 125.102C7.25772 125.426 6.42932 126.845 6.89648 128.271L21.8813 173.999C22.3485 175.424 23.9338 176.315 25.4224 175.991L73.1792 165.573C74.6678 165.248 75.495 163.831 75.0278 162.406ZM31.5232 141.264L31.0775 148.881C31.0388 149.542 31.6419 150.057 32.2889 149.916L39.376 148.37C40.0978 148.213 40.4055 147.354 39.9478 146.774L35.3318 140.924C34.7673 140.211 34.2442 139.539 33.7624 138.906C33.1269 138.071 31.5747 138.63 31.5685 139.679C31.5653 140.206 31.5503 140.734 31.5232 141.264ZM53.3572 30.4457L54.7456 34.6784L56.5287 38.8914L55.1186 34.8817L53.3572 30.4457ZM124.838 75.5496L130.391 76.0011C130.994 76.0501 131.416 76.6186 131.288 77.2096L127.913 92.7845C127.807 93.2745 127.354 93.6101 126.855 93.5695L121.302 93.118C120.699 93.069 120.277 92.5005 120.405 91.9095L123.78 76.3346C123.886 75.8446 124.338 75.509 124.838 75.5496ZM267.703 111.138L268.922 105.514C269.028 105.024 269.481 104.688 269.98 104.729L275.097 105.145C275.7 105.194 276.122 105.763 275.994 106.353L274.775 111.978C274.669 112.468 274.217 112.803 273.717 112.763L268.6 112.347C267.997 112.298 267.575 111.729 267.703 111.138ZM260.511 103.859L265.628 104.275C266.231 104.324 266.653 104.893 266.525 105.484L265.306 111.108C265.2 111.598 264.748 111.934 264.248 111.893L259.131 111.477C258.528 111.428 258.106 110.859 258.234 110.269L259.453 104.644C259.559 104.154 260.012 103.819 260.511 103.859ZM247.117 92.568L258.853 93.5222C259.456 93.5712 259.877 94.1397 259.749 94.7306L258.812 99.0565C258.706 99.5464 258.253 99.8821 257.754 99.8414L246.018 98.8872C245.416 98.8382 244.994 98.2697 245.122 97.6788L246.059 93.3529C246.165 92.863 246.618 92.5273 247.117 92.568ZM30.8363 154.233L30.4742 161.903C30.4529 162.355 30.1306 162.737 29.6884 162.833L27.6201 163.284C26.9694 163.426 26.3644 162.904 26.4092 162.24L28.3296 133.795C28.3596 133.351 28.6794 132.98 29.1142 132.885L31.9648 132.264C32.3292 132.184 32.7076 132.314 32.9463 132.601L52.6991 156.318C53.1794 156.894 52.877 157.775 52.1439 157.935L49.9394 158.416C49.5681 158.497 49.1829 158.36 48.9455 158.063L43.5164 151.278C43.2789 150.981 42.8937 150.844 42.5224 150.925L31.6221 153.303C31.1799 153.399 30.8576 153.781 30.8363 154.233ZM275.878 94.6598L264.15 93.7063C263.65 93.6656 263.197 94.0013 263.091 94.4912L262.154 98.8171C262.026 99.408 262.448 99.9766 263.05 100.026L274.778 100.979C275.278 101.02 275.73 100.684 275.836 100.194L276.774 95.8683C276.902 95.2774 276.48 94.7088 275.878 94.6598ZM274.096 92.1022L250.549 90.1876C249.946 90.1386 249.525 89.5701 249.653 88.9791L250.438 85.3537C250.544 84.8637 250.997 84.5281 251.497 84.5687L275.044 86.4833C275.646 86.5323 276.068 87.1009 275.94 87.6918L275.154 91.3172C275.048 91.8072 274.596 92.1428 274.096 92.1022ZM145.72 95.1032L140.167 94.6517C139.565 94.6027 139.143 94.0343 139.271 93.4434L144.243 70.4855C144.349 69.9955 144.801 69.6598 145.301 69.7004L150.854 70.1519C151.456 70.2009 151.878 70.7693 151.75 71.3603L146.778 94.3181C146.672 94.8081 146.22 95.1438 145.72 95.1032ZM253.351 103.377L248.233 102.961C247.734 102.92 247.281 103.256 247.175 103.746L245.957 109.37C245.829 109.961 246.25 110.529 246.853 110.578L251.97 110.995C252.47 111.035 252.922 110.699 253.028 110.21L254.247 104.585C254.375 103.994 253.953 103.426 253.351 103.377ZM60.3075 156.154L58.3927 156.572C57.8916 156.681 57.389 156.393 57.2293 155.906L48.658 129.749C48.4735 129.186 48.8162 128.587 49.3951 128.461L51.31 128.043C51.8111 127.934 52.3137 128.222 52.4734 128.709L61.0447 154.865C61.2292 155.428 60.8864 156.028 60.3075 156.154ZM117.414 92.8018L111.869 92.351C111.266 92.302 110.845 91.7335 110.973 91.1425L112.679 83.2667C112.785 82.7767 113.238 82.4411 113.737 82.4817L119.283 82.9325C119.885 82.9815 120.307 83.55 120.179 84.141L118.473 92.0169C118.366 92.5068 117.914 92.8425 117.414 92.8018Z" stroke="#479FF7" stroke-width="0.5" stroke-linecap="round" stroke-linejoin="round"/>
</svg>
