<svg width="193" height="20" viewBox="0 0 193 20" fill="none" xmlns="http://www.w3.org/2000/svg">
    <g clip-path="url(#clip0_753_4058)">
        <path d="M162.322 0.41923H158.097V19.4469H163.063L169.353 6.57903H169.449L169.159 19.4469H173.383V0.41923H168.417L162.129 13.2871H162.032L162.322 0.41923ZM116.139 10.0298V9.80407C116.139 5.74053 118.849 4.12801 123.267 4.12801C127.686 4.12801 130.427 5.74053 130.427 9.80407V10.0298C130.427 14.0933 127.686 15.7382 123.267 15.7382C118.816 15.7058 116.139 14.0611 116.139 10.0298ZM111.14 10.2878C111.14 16.0929 115.946 19.8662 123.267 19.8662C130.588 19.8662 135.426 16.1251 135.426 10.2878V9.54607C135.426 3.74101 130.588 0.0322266 123.267 0.0322266C115.946 0.0322266 111.14 3.74101 111.14 9.54607V10.2878ZM191.573 0.41923H179.479L179.318 10.9651C179.253 14.1902 178.77 15.3189 177.028 15.3189H175.932V19.4469H177.157C181.833 19.4469 183.188 17.5764 183.317 10.9651L183.414 4.06352H187.348V19.4469H191.54V0.41923H191.573ZM85.9531 19.4469H90.3069L90.1134 6.83705H90.2102L94.951 19.4469H99.3048L103.981 6.83705H104.078L103.884 19.4469H108.238V0.41923H102.24L97.1763 14.4804H97.0795L91.9518 0.41923H85.9531V19.4469ZM148.777 15.7704H142.778V12.1906H148.777C150.196 12.1906 150.809 12.8033 150.809 13.9966C150.809 15.1898 150.196 15.7704 148.777 15.7704ZM138.295 0.41923V19.4469H148.615C152.389 19.4469 155.195 18.0602 155.195 13.9966C155.195 9.93307 152.421 8.57856 148.615 8.57856H142.811V4.16027H154.55V0.41923H138.295Z" fill="#FA6400"/>
        <path d="M23.4561 14.6739L19.0377 12.7712C17.651 15.2544 15.3934 15.8026 12.6522 15.8026C8.13713 15.8026 5.84735 13.8032 5.84735 10.0621V9.8041C5.84735 6.06305 8.13713 4.06354 12.6522 4.06354C15.3934 4.06354 17.651 4.57955 19.0377 7.09506L23.4561 5.1923C21.3597 0.870759 17.1027 0 12.6522 0C5.46035 0 0.945312 3.70879 0.945312 9.57834V10.2879C0.945312 16.1897 5.46035 19.8662 12.6522 19.8662C17.1027 19.8339 21.3597 18.9955 23.4561 14.6739ZM65.5427 0.419254H60.8664V19.4469H66.0587L77.1205 6.19206H77.2173L77.1528 19.4469H81.8291V0.419254H76.6368L65.5749 13.6741H65.4782L65.5427 0.419254ZM30.2286 0.419254H26.0038V19.4469H30.9704L37.2591 6.57906H37.3559L37.0656 19.4469H41.2905V0.419254H36.3238L30.0673 13.2872H29.9706L30.2286 0.419254ZM48.9015 4.1603V19.4147H53.2875V4.1603H58.3831V0.419254H43.8059V4.1603H48.9015Z" fill="#6E00BE"/>
    </g>
    <defs>
        <clipPath id="clip0_753_4058">
            <rect width="191.579" height="20" fill="white" transform="translate(0.945312)"/>
        </clipPath>
    </defs>
</svg>
