<svg width="36" height="20" viewBox="0 0 36 20" fill="none" xmlns="http://www.w3.org/2000/svg">
    <path d="M29.9049 20C29.347 18.8841 28.7313 17.7585 28.0579 16.6234C27.4037 15.469 26.6437 14.2953 25.7779 13.1025C25.5086 13.4488 25.1623 13.9298 24.739 14.5455C24.3349 15.1611 23.9213 15.8153 23.498 16.5079C23.094 17.2006 22.7092 17.8644 22.3436 18.4993C21.978 19.1342 21.7087 19.6344 21.5355 20H16.3984C17.245 18.4416 18.2262 16.8062 19.3422 15.0938C20.4773 13.3814 21.7375 11.5633 23.1228 9.63925L16.687 0H22.1416L26.0377 6.23377L29.8472 0H34.9843L28.6351 9.69697C30.2513 11.7941 31.6077 13.7374 32.7044 15.5267C33.801 17.2968 34.6668 18.7879 35.3018 20H29.9049Z" fill="black"/>
    <path d="M0.351562 20V0H13.8581V3.78066H4.85373V7.70563H12.848V11.3997H4.85373V16.2193H14.5218V20H0.351562Z" fill="black"/>
</svg>
