<svg width="70" height="34" viewBox="0 0 70 34" fill="none" xmlns="http://www.w3.org/2000/svg">
<g clip-path="url(#clip0_1414_10828)">
<path d="M31.7168 0L0 11.9309L31.7168 6.18182V0Z" fill="#FFE600"/>
<path d="M21.2481 16.6909L18.5843 21.9455L15.8587 16.6909H10.5312L16.1684 26.3964V32.7018H20.9383V26.3964L26.5136 16.6909H21.2481Z" fill="black"/>
<path d="M4.76991 26.3964H10.531V23.0582H4.76991V20.4H11.1504L9.04425 16.6909H0V32.7018H12.7611V29.0546H4.76991V26.3964Z" fill="black"/>
<mask id="mask0_1414_10828" style="mask-type:luminance" maskUnits="userSpaceOnUse" x="26" y="28" width="44" height="7">
<path d="M69.9999 28.4363H26.0176V34.6181H69.9999V28.4363Z" fill="white"/>
</mask>
<g mask="url(#mask0_1414_10828)">
<path d="M61.8218 32.0836C61.574 32.0836 61.2643 31.8981 61.2643 31.0945C61.2643 30.3527 61.574 30.2291 61.8218 30.2291C62.1316 30.2291 62.2554 30.4145 62.3793 30.5381V31.7745C62.2554 31.96 62.0696 32.0836 61.8218 32.0836ZM62.3793 29.8581C62.1935 29.6727 61.9457 29.5491 61.6979 29.5491C60.9546 29.5491 60.459 30.1672 60.459 31.1563C60.459 32.2072 60.8926 32.8254 61.636 32.8254C61.8838 32.8254 62.1316 32.7018 62.3174 32.5163V32.7636H63.0608V28.3745L62.3174 28.7454L62.3793 29.8581Z" fill="black"/>
<path d="M59.1582 28.6837L59.9016 28.3127V29.92V32.7637H59.1582V28.6837Z" fill="black"/>
<path d="M58.6006 30.4763C58.4148 30.4145 58.2289 30.2908 58.0431 30.2908C57.6714 30.2908 57.4856 30.5381 57.4856 31.0327V32.7636H56.7422V29.6727H57.4856V29.9199C57.6714 29.6727 57.9192 29.6108 58.167 29.6108C58.3528 29.6108 58.6006 29.6727 58.7245 29.7963L58.6006 30.4763Z" fill="black"/>
<path d="M54.8838 32.0836C54.5121 32.0836 54.2643 31.7127 54.2643 31.1563C54.2643 30.6 54.5121 30.2291 54.8838 30.2291C55.2554 30.2291 55.5032 30.6 55.5032 31.1563C55.5032 31.7127 55.2554 32.0836 54.8838 32.0836ZM54.8838 29.5491C54.0785 29.5491 53.459 30.2291 53.459 31.1563C53.459 32.0836 54.0785 32.7636 54.8838 32.7636C55.6891 32.7636 56.3085 32.0836 56.3085 31.1563C56.2466 30.2291 55.6891 29.5491 54.8838 29.5491Z" fill="black"/>
<path d="M52.5307 29.6108H53.274L52.4068 32.7017H51.7254L51.4156 31.4654C51.3537 31.2181 51.2917 30.9708 51.2298 30.7854C51.2298 30.909 51.1059 31.2799 51.044 31.4654L50.7342 32.7636H50.0528L49.1855 29.6727H49.9909L50.3006 30.8472C50.3625 31.0327 50.4245 31.4036 50.4864 31.589C50.5484 31.3417 50.6103 31.0327 50.6723 30.7854L50.982 29.6108H51.6634L51.9732 30.7854C52.0351 30.9708 52.097 31.3417 52.159 31.589C52.2209 31.4036 52.2829 31.0945 52.3448 30.7854L52.5307 29.6108Z" fill="black"/>
<path d="M46.5825 30.5382V31.7745C46.4586 31.96 46.3347 32.0836 46.0249 32.0836C45.7772 32.0836 45.4674 31.8982 45.4674 31.0945C45.4674 30.3527 45.7772 30.2291 46.0249 30.2291C46.3347 30.2291 46.5205 30.4145 46.5825 30.5382ZM46.5825 29.8582C46.3966 29.6727 46.1488 29.5491 45.901 29.5491C45.1577 29.5491 44.6621 30.1673 44.6621 31.1563C44.6621 32.2073 45.0957 32.8254 45.8391 32.8254C46.0869 32.8254 46.3347 32.7018 46.5205 32.5163V32.5782C46.5205 32.9491 46.5205 33.3818 45.5294 33.3818H45.4674L45.7152 34C46.7064 34 47.2019 33.5054 47.2019 32.4545V29.6109H46.4586V29.8582H46.5825Z" fill="black"/>
<path d="M42.2473 32.7636H41.5039V29.6727H42.2473V29.9199C42.4331 29.7345 42.6809 29.6108 43.0526 29.6108C43.7959 29.6108 44.1676 30.1054 44.1676 31.0327V32.7636H43.4243V31.0327C43.4243 30.5381 43.2384 30.2908 42.8667 30.2908C42.4951 30.2908 42.3092 30.5381 42.3092 31.0327V32.7636H42.2473Z" fill="black"/>
<path d="M40.8215 28.8072V29.1781H40.0781V28.4363H40.8215V28.8072Z" fill="black"/>
<path d="M40.0176 29.6108H40.7609V30.9708V32.7636H40.0176V29.6108Z" fill="black"/>
<path d="M38.5914 30.6618L39.5206 32.7636H38.6533L37.9719 31.3418L37.5383 31.8363V32.7636H36.7949V28.7454L37.5383 28.3745V30.8472C37.6622 30.7236 37.7241 30.5381 37.848 30.4763L38.4675 29.6727H39.3347L38.5914 30.6618Z" fill="black"/>
<path d="M36.3609 30.4763C36.237 30.3527 36.0512 30.2908 35.8653 30.2908C35.4937 30.2908 35.3078 30.5381 35.3078 31.0327V32.7636H34.5645V29.6727H35.3078V29.9199C35.4937 29.6727 35.7414 29.6108 35.9892 29.6108C36.1751 29.6108 36.4229 29.6727 36.5468 29.7963L36.3609 30.4763Z" fill="black"/>
<path d="M32.6455 32.0836C32.2738 32.0836 32.026 31.7127 32.026 31.1563C32.026 30.6 32.2738 30.2291 32.6455 30.2291C33.0172 30.2291 33.265 30.6 33.265 31.1563C33.265 31.7127 33.0172 32.0836 32.6455 32.0836ZM32.6455 29.5491C31.8402 29.5491 31.2207 30.2291 31.2207 31.1563C31.2207 32.0836 31.8402 32.7636 32.6455 32.7636C33.4508 32.7636 34.0703 32.0836 34.0703 31.1563C34.0703 30.2291 33.4508 29.5491 32.6455 29.5491Z" fill="black"/>
<path d="M30.291 29.6109H31.0344L30.1671 32.7018H29.4857L29.114 31.4036C29.0521 31.1563 28.9901 30.9091 28.9282 30.7236C28.9282 30.8473 28.8043 31.2182 28.7423 31.4036L28.4945 32.7018H27.8751L27.0078 29.6109H27.8131L28.1229 30.7854C28.1848 30.9709 28.2468 31.3418 28.3087 31.5273C28.3706 31.28 28.4326 30.9709 28.4945 30.7236L28.8043 29.5491H29.4857L29.7954 30.7236C29.8574 30.9091 29.9193 31.28 29.9813 31.5273C30.0432 31.3418 30.1052 31.0327 30.1671 30.7236L30.291 29.6109Z" fill="black"/>
</g>
<mask id="mask1_1414_10828" style="mask-type:luminance" maskUnits="userSpaceOnUse" x="26" y="22" width="44" height="7">
<path d="M69.9999 22.2546H26.0176V28.4365H69.9999V22.2546Z" fill="white"/>
</mask>
<g mask="url(#mask1_1414_10828)">
<path d="M69.814 25.0364C69.6901 24.9128 69.5043 24.8509 69.3185 24.8509C68.9468 24.8509 68.7609 25.0982 68.7609 25.5928V27.2619H68.0176V24.1709H68.7609V24.4182C68.9468 24.1709 69.1946 24.1091 69.4424 24.1091C69.6282 24.1091 69.876 24.1709 69.9999 24.2946L69.814 25.0364Z" fill="black"/>
<path d="M65.6002 25.4073C65.6002 25.0364 65.848 24.7891 66.1578 24.7891C66.5914 24.7891 66.7153 25.0982 66.7153 25.4073H65.6002ZM66.8392 26.3964C66.7153 26.52 66.5294 26.6437 66.2197 26.6437C66.0958 26.6437 65.6002 26.5819 65.5383 25.9637H67.4586C67.4586 25.9019 67.4586 25.7782 67.4586 25.7164C67.4586 24.7273 66.9631 24.1091 66.1578 24.1091C65.3524 24.1091 64.7949 24.7891 64.7949 25.7164C64.7949 26.7055 65.3524 27.3237 66.2816 27.3237C66.7153 27.3237 67.087 27.1382 67.3967 26.8291L66.8392 26.3964Z" fill="black"/>
<path d="M63.7428 26.2109C63.7428 26.4582 63.8667 26.6436 64.0526 26.6436C64.2384 26.6436 64.3623 26.5818 64.4862 26.52L64.4243 27.2C64.2384 27.3236 64.0526 27.3236 63.8048 27.3236C63.1853 27.3236 62.9995 26.8291 62.9995 26.3963V24.9127H62.5039V24.1709H62.9995V23.3672L63.7428 22.9963V24.1709H64.4243V24.9127H63.7428V26.2109Z" fill="black"/>
<path d="M62.2563 27.2C62.0704 27.3236 61.8846 27.3236 61.6368 27.3236C61.0174 27.3236 60.8315 26.8291 60.8315 26.3963V24.9127H60.3359V24.1709H60.8315V23.3672L61.5749 22.9963V24.1709H62.2563V24.9127H61.5749V26.2109C61.5749 26.4582 61.6988 26.6436 61.8846 26.6436C62.0705 26.6436 62.1943 26.5818 62.3182 26.52L62.2563 27.2Z" fill="black"/>
<path d="M58.1672 25.4073C58.1672 25.0364 58.415 24.7891 58.7247 24.7891C59.1583 24.7891 59.2822 25.0982 59.2822 25.4073H58.1672ZM59.4681 26.3964C59.3442 26.52 59.1583 26.6437 58.8486 26.6437C58.7247 26.6437 58.1672 26.5819 58.1672 25.9637H60.0875C60.0875 25.9019 60.0875 25.7782 60.0875 25.7164C60.0875 24.7273 59.592 24.1091 58.7867 24.1091C57.9814 24.1091 57.4238 24.7891 57.4238 25.7164C57.4238 26.7055 57.9814 27.3237 58.9106 27.3237C59.3442 27.3237 59.7159 27.1382 60.0256 26.8291L59.4681 26.3964Z" fill="black"/>
<path d="M55.6896 24.7891C55.9993 24.7891 56.2471 25.0363 56.2471 25.6545C56.2471 26.2727 56.0612 26.6436 55.6896 26.6436C55.3798 26.6436 55.194 26.4582 55.132 26.3345V25.0982C55.2559 24.9127 55.4418 24.7891 55.6896 24.7891ZM55.8134 24.1091C55.5657 24.1091 55.3179 24.2327 55.132 24.4182V22.9963L54.3887 23.3672V27.3236H55.132V27.0763C55.3179 27.2618 55.5657 27.3854 55.8134 27.3854C56.5568 27.3854 56.9904 26.7672 56.9904 25.7163C57.0524 24.7272 56.5568 24.1091 55.8134 24.1091Z" fill="black"/>
<path d="M50.485 26.2727C50.485 26.0254 50.6708 25.84 51.0425 25.84C51.2903 25.84 51.4762 25.9018 51.662 25.9636V26.3964C51.5381 26.5818 51.3523 26.7054 51.0425 26.7054C50.6708 26.7054 50.485 26.52 50.485 26.2727ZM50.2372 24.9127C50.485 24.7891 50.7328 24.7273 51.0425 24.7273C51.4142 24.7273 51.6 24.8509 51.6 25.16V25.3454C51.4142 25.2836 51.1664 25.2218 50.9186 25.2218C50.3611 25.2218 49.6797 25.4691 49.6797 26.2727C49.6797 27.0764 50.2992 27.3854 50.8567 27.3854C51.1045 27.3854 51.4142 27.3236 51.6 27.0764V27.3236H52.3434V25.2218C52.3434 24.5418 51.8478 24.1709 51.1045 24.1709C50.6708 24.1709 50.2992 24.2945 49.9275 24.48L50.2372 24.9127Z" fill="black"/>
<path d="M47.0786 25.0982V26.3346C46.9547 26.52 46.8308 26.6437 46.521 26.6437C46.2732 26.6437 45.9635 26.4582 45.9635 25.6546C45.9635 24.9128 46.2732 24.7891 46.521 24.7891C46.8308 24.7891 47.0166 24.9746 47.0786 25.0982ZM47.0786 24.4182C46.8927 24.2328 46.6449 24.1091 46.3971 24.1091C45.6538 24.1091 45.1582 24.7273 45.1582 25.7164C45.1582 26.7673 45.5918 27.3855 46.3352 27.3855C46.583 27.3855 46.8308 27.2619 47.0166 27.0764V27.1382C47.0166 27.5091 47.0166 27.9419 46.0255 27.9419H45.9635L46.2113 28.56C47.2024 28.56 47.698 28.0037 47.698 27.0146V24.1709H47.0786V24.4182Z" fill="black"/>
<path d="M42.8039 27.2619H42.0605V24.1709H42.8039V24.4182C42.9897 24.2328 43.2375 24.1091 43.6092 24.1091C44.3526 24.1091 44.7243 24.6037 44.7243 25.5309V27.2619H43.9809V25.5309C43.9809 25.0364 43.7951 24.7891 43.4234 24.7891C43.0517 24.7891 42.8659 25.0364 42.8659 25.5309L42.8039 27.2619Z" fill="black"/>
<path d="M41.3176 23.3672V23.7382H40.5742V22.9963H41.3176V23.3672Z" fill="black"/>
<path d="M40.5742 24.1709H41.3176V25.16V27.2618H40.5742V24.1709Z" fill="black"/>
<path d="M38.5927 26.6437C38.345 26.6437 38.0352 26.4583 38.0352 25.6546C38.0352 24.9128 38.345 24.7892 38.5927 24.7892C38.9025 24.7892 39.0264 24.9746 39.1503 25.0983V26.3346C38.9644 26.5201 38.8405 26.6437 38.5927 26.6437ZM39.0883 24.4183C38.9025 24.2328 38.6547 24.1092 38.4069 24.1092C37.6635 24.1092 37.168 24.7273 37.168 25.7164C37.168 26.7673 37.6016 27.3855 38.345 27.3855C38.5927 27.3855 38.8405 27.2619 39.0264 27.0764V27.3237H39.7697V22.8728L39.0264 23.2437L39.0883 24.4183Z" fill="black"/>
<path d="M35.9277 23.2437L36.6711 22.8728V25.2219V27.3237H35.9277V23.2437Z" fill="black"/>
<path d="M35.2473 23.3672V23.7382H34.5039V22.9963H35.2473V23.3672Z" fill="black"/>
<path d="M35.2473 25.2838V27.3238H34.5039V24.2329H35.2473V25.2838Z" fill="black"/>
<path d="M31.0957 25.9638V24.2329H31.8391V25.9638C31.8391 26.4584 32.0249 26.7056 32.3966 26.7056C32.7683 26.7056 32.9541 26.4584 32.9541 25.9638V24.2329H33.6975V27.3238H32.9541V27.0765C32.7683 27.262 32.5205 27.3856 32.2107 27.3856C31.2196 27.3856 31.0957 26.4584 31.0957 25.9638Z" fill="black"/>
<path d="M29.0523 24.6654H28.0612V23.7382H28.9904C29.3621 23.7382 29.5479 23.8618 29.5479 24.1709C29.6098 24.4182 29.4859 24.6654 29.0523 24.6654ZM29.0523 26.5818H28.0612V25.3454H29.0523C29.4859 25.3454 29.6718 25.5309 29.6718 25.9636C29.7337 26.3345 29.4859 26.5818 29.0523 26.5818ZM30.539 25.9018C30.539 25.2836 30.1054 25.0363 29.9196 24.9745C30.2293 24.7891 30.4152 24.48 30.4152 24.1091C30.4152 23.4291 29.9196 22.9963 29.1143 22.9963H27.2559V27.2618H29.0523C29.9815 27.2618 30.539 26.7672 30.539 25.9018Z" fill="black"/>
</g>
</g>
<defs>
<clipPath id="clip0_1414_10828">
<rect width="70" height="34" fill="white"/>
</clipPath>
</defs>
</svg>
