<svg width="65" height="20" viewBox="0 0 65 20" fill="none" xmlns="http://www.w3.org/2000/svg">
    <path d="M23.8008 17.859C24.7987 17.8075 24.8764 17.7695 24.8764 17.0949V10.7013C24.8764 10.0261 24.7987 9.98781 23.8008 9.93689V9.49146H30.5804V11.7329H30.1265C29.8024 10.4719 29.5427 10.0261 28.156 10.0261H27.1317C26.756 10.0261 26.6655 10.1025 26.6655 10.4847V13.6182H28.2728C29.1932 13.6182 29.3231 13.363 29.4911 12.4847H29.9451V15.3498H29.4911C29.3231 14.4581 29.1932 14.2164 28.2728 14.2164H26.6655V17.082C26.6655 17.7695 26.756 17.8075 27.9615 17.859V18.305H23.8008V17.859Z" fill="#A01635"/>
    <path d="M34.3084 17.0949C34.3084 17.7695 34.3819 17.8075 35.3265 17.859V18.305H31.5977V17.859C32.5419 17.8075 32.6155 17.7695 32.6155 17.0949V10.7013C32.6155 10.0261 32.5419 9.98781 31.5977 9.93689V9.49146H35.3265V9.93689C34.3819 9.98781 34.3084 10.0261 34.3084 10.7013V17.0949Z" fill="#A01635"/>
    <path d="M39.4503 9.49146C40.8525 11.6313 42.2923 13.7581 43.7319 15.9105L43.7822 15.9234V12.4716C43.7822 11.5801 43.7567 11.0835 43.7072 10.6378C43.6692 10.2172 43.519 10.039 43.1689 10.0007L42.5052 9.93689V9.49146H45.4972V9.93689L45.0466 9.98781C44.746 10.0261 44.5956 10.2172 44.5458 10.6378C44.4957 11.0706 44.4831 11.5678 44.4831 12.4716V18.305H43.2938C41.704 15.8722 40.1013 13.4394 38.4736 10.9942H38.4241V15.3244C38.4241 16.2155 38.4486 16.7124 38.4986 17.1587C38.5363 17.5781 38.6867 17.7566 39.0369 17.7952L39.7006 17.859V18.305H36.7083V17.859L37.1594 17.8075C37.4598 17.7695 37.6099 17.5781 37.66 17.1587C37.7101 16.7256 37.7227 16.2287 37.7227 15.3244V10.7013C37.7227 10.0261 37.6474 9.98781 36.6836 9.93689V9.49146H39.4503Z" fill="#A01635"/>
    <path d="M53.8147 18.0358C53.0966 18.4415 51.8142 18.644 50.8781 18.644C49.3651 18.644 48.1979 18.2892 47.4156 17.5668C46.5953 16.7937 46.1719 15.6273 46.1719 14.1825C46.1719 12.7624 46.544 11.6089 47.3131 10.7723C48.0827 9.96072 49.3138 9.49146 51.0193 9.49146C51.8526 9.49146 53.071 9.64379 53.7637 10.0237V12.1918H53.3146C53.0453 11.0639 52.4298 10.0237 50.9038 10.0237C48.5574 10.0237 48.1469 12.6613 48.1469 14.0048C48.1469 15.475 48.5444 18.1118 50.968 18.1118C52.494 18.1118 53.0839 17.0602 53.5194 15.6911H53.9685L53.8147 18.0358Z" fill="#A01635"/>
    <path d="M59.3768 14.5093L58.2729 11.0835H58.2346C58.0931 11.4912 57.2724 14.051 57.1188 14.5093H59.3768ZM54.3086 17.859C55.0529 17.833 55.1814 17.7191 55.4123 17.1204C55.7716 16.2032 56.233 14.8274 56.6695 13.5924L58.1063 9.49146H59.4791L62.0827 17.1967C62.275 17.7824 62.4297 17.833 63.1222 17.859V18.305H59.3506V17.859L60.0301 17.8075C60.3514 17.7824 60.4027 17.6167 60.2999 17.2986L59.5561 15.07H56.926C56.6822 15.8848 56.4255 16.6109 56.2589 17.3238C56.182 17.6425 56.1946 17.7824 56.5154 17.8075L57.2467 17.859V18.305H54.3086V17.859Z" fill="#A01635"/>
    <path d="M13.6756 6.55194C13.5867 6.50718 13.6019 6.4424 13.6025 6.4399L13.605 6.42433H13.6214C13.6228 6.42433 13.7819 6.42322 13.8775 6.35288C13.9267 6.31507 13.9372 6.29561 13.9544 6.26614L14.057 6.13353C14.1389 6.04902 14.1697 6.03929 14.1906 6.04985C14.2061 6.05763 14.2083 6.07515 14.205 6.07626C14.205 6.07682 14.2236 6.12074 14.267 6.13826C14.2967 6.15077 14.332 6.14743 14.3733 6.12908L14.5708 6.05124L14.587 6.0454L14.595 6.06319C14.5958 6.06736 14.6311 6.15216 14.5964 6.20943C14.58 6.23723 14.5508 6.25335 14.5106 6.25752C14.445 6.26308 14.4275 6.29839 14.4108 6.33203C14.3972 6.35844 14.382 6.38874 14.3431 6.38874C14.3342 6.38874 14.3272 6.41349 14.3217 6.43545C14.3131 6.47048 14.3028 6.51413 14.267 6.5347C14.2436 6.5486 14.2164 6.55027 14.1811 6.54081C14.1606 6.53553 14.1464 6.53553 14.1378 6.54081C14.1242 6.54999 14.1195 6.57974 14.1145 6.61143C14.1053 6.66703 14.0939 6.74376 14.0175 6.78546L13.9714 6.8116C13.905 6.85135 13.8936 6.84913 13.845 6.78852L13.7728 6.70484C13.6864 6.61338 13.6858 6.5814 13.6961 6.56361L13.6756 6.55194ZM13.3231 9.28532C13.305 9.27337 13.2942 9.25391 13.2947 9.23528C13.3008 9.15911 13.4064 9.08544 13.4206 8.99063C13.4297 8.9228 13.4825 8.89278 13.5333 8.89444C13.5942 8.89528 13.6583 8.9253 13.6964 8.95727C13.7294 8.98452 13.7528 9.00148 13.7792 9.00092C13.8047 9.00148 13.8433 8.98563 13.9033 8.93587C13.9367 8.90807 13.9697 8.895 14.0017 8.89528C14.102 8.89861 14.172 8.99759 14.3017 9.0265C14.4861 9.06931 14.4645 9.12019 14.547 9.15494C14.5647 9.16244 14.5839 9.16661 14.6039 9.16661C14.6783 9.16689 14.7714 9.11324 14.8525 9.03206C14.9061 8.97812 14.9484 8.94726 14.9961 8.94671C15.0439 8.94726 15.0831 8.98007 15.1259 9.03345C15.1909 9.11824 15.2209 9.1833 15.2653 9.17968C15.2809 9.17968 15.3028 9.17329 15.3325 9.15605C15.3531 9.1441 15.3695 9.13742 15.385 9.13742C15.395 9.13715 15.4059 9.14076 15.4128 9.14854C15.4203 9.15688 15.4225 9.16689 15.4225 9.17523C15.4189 9.22249 15.3706 9.29033 15.3039 9.29505C15.2922 9.29533 15.2814 9.29255 15.2706 9.28727C15.2442 9.2742 15.2272 9.27115 15.2089 9.27087C15.172 9.27031 15.1225 9.28949 15.0145 9.28949C14.9431 9.29505 14.9642 9.30006 14.9478 9.34565C14.937 9.39041 14.9011 9.44824 14.7661 9.47937C14.6983 9.49578 14.66 9.50801 14.6392 9.51607C14.6153 9.52413 14.6211 9.52608 14.6022 9.52942C14.585 9.52747 14.5828 9.51635 14.5822 9.51663C14.5817 9.51607 14.5817 9.51607 14.5797 9.51413C14.5756 9.51023 14.5631 9.50134 14.5317 9.48938C14.5083 9.48049 14.4889 9.47659 14.472 9.47659C14.3983 9.47381 14.3433 9.55861 14.2025 9.66564C14.1195 9.72819 14.1081 9.7585 14.1042 9.76767C14.1008 9.76851 14.1075 9.78046 14.0814 9.78769C14.0547 9.78129 14.0647 9.77712 14.0331 9.76295C13.9947 9.74348 13.9831 9.71207 13.975 9.69594C13.9647 9.68065 13.9675 9.67621 13.93 9.67426C13.9083 9.67426 13.8753 9.67843 13.8258 9.69011C13.7689 9.70401 13.7364 9.71096 13.7119 9.71124C13.6717 9.7129 13.6561 9.67954 13.6486 9.65619C13.6372 9.62978 13.6186 9.59253 13.5536 9.53915C13.4972 9.49272 13.4667 9.48188 13.4519 9.48243C13.4331 9.47937 13.4222 9.50551 13.3783 9.50968C13.3558 9.50912 13.3322 9.49911 13.3014 9.47548C13.2697 9.45241 13.2536 9.42766 13.2531 9.40098C13.2542 9.36539 13.2789 9.34398 13.2981 9.32619C13.3186 9.30896 13.3311 9.29366 13.3294 9.292C13.3294 9.292 13.3306 9.29144 13.3231 9.28532ZM14.6072 18.4118C14.3022 18.369 13.1139 18.1691 12.6828 17.5986C12.1858 16.9425 11.6297 16.5611 11.5136 15.5244C11.3972 14.4883 11.5347 13.5583 11.6405 13.2937C11.7458 13.0293 12.2422 12.9664 12.475 12.6378C12.6105 12.4463 12.9075 12.374 13.1325 12.3468C13.2042 12.3707 13.2839 12.3868 13.3783 12.391C13.9714 12.4152 13.3306 12.4694 13.8178 12.731C13.9106 12.7802 14.2311 13.2197 14.0706 12.731C13.9106 12.242 14.2089 12.4746 14.3767 12.3943C14.5675 12.3031 14.2539 12.6659 14.81 12.786C14.8953 12.8049 14.5697 12.8725 14.7478 13.1663C14.7492 13.1663 14.7678 13.1991 14.7678 13.1991C14.76 13.188 14.7536 13.1769 14.7478 13.1663C14.7445 13.1674 14.7889 13.2656 15.0531 13.7932C15.0531 13.7932 15.4675 13.6239 15.58 14.1032C15.6842 14.5428 15.5892 13.878 15.8989 13.6428C16.2086 13.4063 16.0992 13.1983 16.0992 13.1983C16.5637 12.778 16.5678 13.3618 16.5428 12.9723C16.5181 12.582 16.7159 12.6562 16.945 12.582C17.1728 12.5075 17.3281 12.2322 17.1989 12.1866C16.7789 12.0385 16.92 11.5372 16.92 11.5372C16.92 11.5372 16.9081 11.3821 17.3964 11.5308C17.8845 11.6801 17.7614 11.3949 17.9406 11.2333C18.119 11.0724 18.367 11.1413 18.367 11.1413C18.5331 11.1783 19.0715 11.3331 18.7865 11.0793C18.5734 10.8894 18.7865 10.5355 18.2178 10.677C17.6492 10.8185 17.5259 10.5355 17.297 10.3245C17.0687 10.1141 16.7409 10.523 16.7534 10.3115C16.7659 10.1016 16.5303 10.1819 16.7159 9.84246C16.9014 9.50217 16.5678 9.27865 16.8581 9.26586C17.1489 9.25335 16.4625 8.9506 17.0806 8.96256C17.6992 8.97534 17.0562 8.70929 17.6373 8.9506C18.1781 9.17523 18.2923 8.7585 18.2923 8.7585C17.9148 8.59808 17.9298 8.39486 18.0115 8.30145C18.0934 8.20776 18.2923 7.59947 18.0231 7.54081C17.2389 7.36984 17.8831 7.16606 17.4962 7.07209C17.1103 6.97868 16.9937 6.73292 16.9937 6.73292C16.5723 6.33425 15.8242 6.58085 15.7656 6.46297C15.707 6.34649 15.625 6.11157 15.8123 6.06514C16.2445 5.957 15.8123 5.66703 16.1045 5.69038C16.8342 5.74904 16.83 5.56973 16.83 5.56973C16.7789 5.30506 16.6925 5.51885 16.5403 5.01371C16.3884 4.50773 16.3525 4.85024 16.0748 4.71068C15.4378 4.38958 15.9359 4.57306 15.5573 4.13103C15.1789 3.68899 15.57 3.90529 15.3825 3.48827C15.1936 3.07154 15.1059 3.37429 15.1059 3.37429C14.8642 3.64034 15.0417 3.77823 14.8897 3.77823C14.4872 3.77823 14.6642 3.67648 14.1856 3.89222C13.7083 4.10823 13.7819 3.96812 13.5183 3.8672C13.2542 3.76517 13.3525 3.57723 13.4542 3.59002C13.5561 3.60225 13.7067 3.61532 13.6686 3.42489C13.6303 3.23445 13.82 2.85747 13.7564 2.81966C13.6931 2.78213 13.2903 2.89555 13.3783 2.68038C13.4672 2.46436 13.2519 2.51746 12.9247 2.53025C12.5961 2.54276 12.5961 2.53025 12.5228 2.41599C12.4486 2.30145 12.5842 2.01371 12.4333 1.88666C12.2839 1.75961 12.1189 1.9506 12.1189 1.9506C11.7403 1.96283 11.8294 1.73459 11.8294 1.73459C11.8294 1.73459 11.5775 1.7799 11.5653 1.63534C11.5533 1.48549 11.5022 1.40681 11.4405 1.42266C10.9347 1.55555 10.6752 1.27393 10.6752 1.27393C10.6752 1.27393 10.5247 1.43934 10.3669 1.39681C10.2091 1.35455 10.2261 1.39681 10.0769 1.54665C10.0769 1.54665 10.1566 1.95449 10.0202 1.97256C9.53633 2.03734 9.73661 1.70929 9.44744 1.64451C8.99188 1.54248 9.2305 1.75071 9.06466 1.75071C8.89827 1.75071 9.06466 1.56167 8.81993 1.86136C8.57576 2.16133 8.63132 1.86136 8.63132 1.86136C8.63132 1.86136 8.65382 1.77823 8.30354 1.88888C7.95298 2.00009 8.08187 2.24473 8.08187 2.24473C8.08187 2.24473 8.05742 2.65341 7.25325 2.64118C6.44962 2.62839 7.19825 2.83912 6.96269 3.00592C6.72768 3.17329 7.02408 3.34621 6.87657 3.87804C6.72768 4.41015 7.2838 3.58808 7.66131 4.24335C8.03853 4.89889 7.6677 4.47854 7.61797 4.63284C7.56825 4.78741 7.35269 4.56445 7.21602 4.75043C7.08047 4.93614 7.19825 4.29283 6.98769 4.26809C6.77713 4.24334 6.74296 4.12714 6.74296 4.12714C6.74296 4.12714 6.70963 3.82828 6.24629 4.08266C5.78156 4.3362 5.93073 4.16912 5.566 4.09433C5.201 4.02038 5.07183 3.56862 4.96044 3.69261C4.84905 3.81632 4.93516 4.32341 4.86155 4.36066C4.78655 4.39736 4.58321 4.44184 4.54599 4.59586C4.50876 4.75043 4.7496 4.62644 4.76238 4.77518C4.77516 4.92391 4.89127 5.1213 4.73766 5.30701C4.58321 5.493 4.48876 5.49494 4.92321 5.59197C5.08988 5.6295 4.8171 5.72513 5.08988 5.79603C5.28183 5.84579 5.06238 5.6548 5.44961 5.86331C5.86739 6.08822 5.49156 6.02427 5.55378 6.08627C5.61572 6.14854 6.05962 6.22833 6.0724 6.32786C6.08545 6.42711 6.20268 6.30951 6.08545 6.53859C5.96767 6.76711 6.66602 6.40209 6.76463 6.48883C6.86435 6.57557 7.12963 6.55055 7.12963 6.76711C7.12963 6.98313 7.00574 6.79825 6.75268 6.89138C6.49935 6.98313 6.41296 6.79214 6.19601 6.77962C5.98017 6.76711 6.19601 6.86636 5.84406 6.91557C5.49156 6.96534 5.84406 6.69289 5.18822 6.99592C4.53321 7.29922 4.89849 7.21888 4.70016 7.32369C4.70016 7.32369 4.34765 7.21221 4.05737 7.3362C3.76681 7.45991 4.00792 7.67648 3.81681 7.78797C3.62542 7.89945 3.8782 8.17746 3.52625 8.2022C3.1743 8.2275 3.35986 8.21471 3.22319 8.41877C3.08736 8.62311 3.1743 8.7218 3.18597 8.99981C3.19847 9.27865 3.27291 8.87026 3.52625 8.87026C3.77959 8.87026 3.83431 8.77684 4.06987 8.92558C4.30543 9.07459 4.16209 9.19247 4.42237 9.22333C4.68182 9.25335 4.53988 9.01816 4.77516 8.96256C5.01044 8.90751 4.89238 8.68455 5.32516 8.69678C5.75767 8.70929 5.6335 8.48772 5.81906 8.54248C6.00462 8.59809 5.72684 8.70401 5.96767 8.84551C6.20851 8.98785 6.17712 8.6915 6.40018 8.89528C6.62324 9.09934 6.25795 9.16717 6.18351 9.35288C6.10962 9.53915 6.0974 9.34621 5.88156 9.60698C5.66517 9.86692 5.57267 9.81688 5.32516 9.74265C5.07683 9.66842 5.26294 9.9342 5.27516 10.0093C5.28794 10.0832 5.46072 10.2873 5.32516 10.6893C5.18822 11.0913 5.08988 10.6098 4.83655 10.8261C4.58321 11.0421 4.7496 11.0979 4.44682 11.1541C4.14431 11.2092 4.26182 11.2091 4.32987 11.2831C4.39765 11.3573 4.45376 11.364 4.29293 11.4691C4.13154 11.5745 4.19404 11.7599 3.8782 11.7841C3.56375 11.8097 3.8407 12.0132 3.8407 12.0132C3.8407 12.0132 3.8482 11.9339 4.02709 11.8469C4.20598 11.7599 4.4346 11.7652 4.53321 11.9019C4.63265 12.0385 4.51543 12.0629 4.73766 12.0999C4.96044 12.1371 5.04738 12.2542 4.89849 12.3284C4.7496 12.4032 4.70738 12.5636 4.64488 12.7932C4.58321 13.0223 4.7496 12.9222 4.77516 13.0093C4.7996 13.0954 4.8121 13.2325 4.88655 13.108C4.96044 12.984 4.71821 12.8241 5.02794 12.6442C5.33794 12.4649 5.31239 12.811 5.50433 12.5695C5.69628 12.3284 5.5235 12.0999 5.95601 12.0749C6.3874 12.0504 6.17184 11.7532 6.51129 11.8647C6.85157 11.9762 6.65324 12.0927 6.74018 12.2294C6.82713 12.3651 6.72768 12.4335 7.17908 12.2169C7.63047 12.0004 7.32714 12.3598 7.50686 12.4402C7.68603 12.5202 7.58103 11.9631 7.92076 11.9881C8.26104 12.0132 7.82909 11.4374 8.27326 11.5492C8.33048 11.5636 8.37159 11.5656 8.40326 11.5606C8.5291 11.6353 8.68993 11.7396 8.86466 11.8733C8.86494 11.8741 8.86577 11.8755 8.86688 11.8767C9.07994 12.1683 9.16883 12.2192 9.19966 12.1574C9.31577 12.267 9.43411 12.3868 9.54828 12.5214C10.2033 13.2937 9.92884 13.0818 10.0444 13.9495C10.1611 14.8158 9.893 15.6959 9.85439 16.0432C9.78773 16.6428 9.0816 17.188 8.52299 17.4396C8.01159 17.669 7.66964 18.0034 6.97074 18.0721C6.74852 18.0946 6.48962 18.089 6.17879 18.0454C6.17323 18.0423 6.16823 18.0393 6.16295 18.0368C3.38347 16.4427 1.51094 13.4443 1.51094 10.0081C1.51094 4.90139 5.64683 0.761554 10.7494 0.761554C15.8506 0.761554 19.9881 4.90139 19.9881 10.0081C19.9881 13.7365 17.7826 16.9489 14.6072 18.4118ZM11.033 9.08683C11.033 9.0846 11.033 9.08071 11.033 9.07487C11.033 9.05485 11.0344 9.01677 11.048 8.93086C11.0661 8.82077 11.0639 8.75488 11.0894 8.70595C11.118 8.65535 11.1733 8.64423 11.278 8.64451C11.4402 8.6459 11.51 8.53331 11.6194 8.52914C11.645 8.52914 11.6714 8.53664 11.6986 8.55416C11.7686 8.59808 11.7858 8.65508 11.8097 8.68983C11.8341 8.72402 11.8594 8.74793 11.9683 8.7496C12.1403 8.75099 12.2294 8.61282 12.3583 8.60865C12.3872 8.60865 12.4169 8.61699 12.4472 8.63562C12.5161 8.67732 12.5542 8.67593 12.5747 8.67843C12.5786 8.67899 12.5992 8.6801 12.6019 8.70401C12.5964 8.73236 12.5814 8.73792 12.5472 8.79297C12.4472 8.94059 12.3778 8.91696 12.3141 9.03734C12.2269 9.18385 11.9855 9.1074 11.8983 9.17412C11.7794 9.24918 11.6619 9.1997 11.5158 9.35761C11.3669 9.51885 11.4544 9.51218 11.3886 9.61393C11.355 9.65869 11.2927 9.67315 11.2266 9.6737C11.1427 9.6737 11.0491 9.64868 10.9861 9.60754C10.9372 9.57362 10.923 9.50996 10.9225 9.44296C10.923 9.32981 10.9639 9.1972 11.0033 9.13325C11.0361 9.08182 11.0339 9.09072 11.033 9.08683ZM11.158 3.44657C11.1641 3.47854 11.1972 3.50579 11.2641 3.53359L11.3691 3.57418C11.4247 3.59558 11.4458 3.60309 11.4458 3.62728C11.4458 3.64173 11.4386 3.6623 11.4264 3.69455L11.3964 3.78074C11.3633 3.88138 11.3216 3.91946 11.2769 3.95866C11.2227 4.00843 11.1664 4.05847 11.1369 4.22138L11.1116 4.40904C11.1069 4.45296 11.1025 4.49856 11.0947 4.50579C11.09 4.50384 11.0661 4.48382 11.0275 4.44379C10.9325 4.34621 10.9 4.31257 10.9 4.24807C10.9 4.21777 10.9069 4.17996 10.9183 4.12686C10.923 4.10184 10.9261 4.08127 10.9261 4.06375C10.9261 3.98035 10.8761 3.96061 10.8314 3.94337L10.7605 3.90084C10.7427 3.88054 10.7344 3.8608 10.7344 3.83689C10.7344 3.7977 10.7577 3.74988 10.7936 3.68065L10.8147 3.63951C10.8489 3.56973 10.8589 3.50579 10.8672 3.45018C10.8741 3.40014 10.8811 3.35677 10.9033 3.31702C10.9033 3.31702 10.9166 3.28421 10.9252 3.28616C10.9341 3.28866 10.9564 3.28949 10.9622 3.31118C10.968 3.33314 10.9877 3.36122 10.9877 3.36122L10.9977 3.36873C11.0161 3.38513 11.0308 3.39708 11.0486 3.37846C11.0644 3.3615 11.1308 3.36372 11.1691 3.36539C11.1691 3.36539 11.2011 3.35788 11.2011 3.37012C11.2011 3.39931 11.1575 3.40793 11.1575 3.43795C11.1575 3.44045 11.158 3.44379 11.158 3.44657ZM10.4977 10.9778C10.5036 10.9703 10.5105 10.9631 10.5172 10.9553C10.6836 10.751 10.8497 10.3743 11.2516 10.7135C11.6541 11.0543 11.2272 11.0735 11.9819 11.4938C12.2016 11.6164 12.3608 11.7413 12.4911 11.8569C12.2508 12.0515 11.8603 12.3523 11.7458 12.3523C11.5794 12.3523 11.1064 12.9033 10.4977 10.9778ZM9.66911 8.70818C9.66911 8.66064 9.67939 8.60559 9.73384 8.60309C9.73717 8.60309 9.74022 8.60337 9.74217 8.60337C9.74689 8.6042 9.75106 8.60448 9.75523 8.60448C9.78911 8.60281 9.79384 8.59308 9.803 8.55666C9.80939 8.52135 9.80717 8.46826 9.81328 8.41098C9.81773 8.37206 9.82439 8.34454 9.85662 8.34037C9.90439 8.34899 9.91745 8.40348 9.92189 8.40348L9.92384 8.40793V8.41321C9.92384 8.41321 9.92412 8.49439 9.93523 8.53664C9.93634 8.54554 9.94801 8.55082 9.97162 8.55666C9.99106 8.56111 10.0286 8.57084 10.0291 8.61171C10.0291 8.65786 10.0291 8.75071 10.0527 8.8533C10.0611 8.89055 10.0852 8.9039 10.1144 8.91474C10.1405 8.92892 10.175 8.91668 10.1872 8.96172C10.1872 8.97256 10.1827 8.98035 10.1772 8.98785C10.1766 8.98841 10.1763 8.9898 10.1763 8.99397C10.1736 9.02344 10.2275 9.09155 10.2311 9.13715C10.2311 9.14521 10.2283 9.15661 10.22 9.16383C10.2111 9.17134 10.2011 9.17329 10.1916 9.17329C10.1847 9.17329 10.1772 9.17218 10.1683 9.17023C10.1625 9.16884 10.158 9.16856 10.1544 9.16856C10.1419 9.16856 10.1461 9.16884 10.1433 9.19831C10.1433 9.1997 10.1433 9.20192 10.1433 9.20387C10.1433 9.22472 10.1405 9.27226 10.0938 9.27281C10.0808 9.27281 10.0663 9.26976 10.0486 9.26308C10.0372 9.25891 10.0269 9.25725 10.0166 9.25725C9.95551 9.25391 9.89634 9.32897 9.81328 9.33259C9.813 9.33259 9.81273 9.33259 9.81273 9.33259C9.77578 9.33259 9.73745 9.3134 9.70078 9.2692C9.62189 9.17662 9.6055 9.07543 9.6055 9.00704C9.6055 8.957 9.61439 8.92391 9.61467 8.92252L9.61883 8.90723H9.70133C9.69022 8.8647 9.66939 8.77712 9.66911 8.70818ZM8.26604 6.94838C8.16548 7.0796 8.02715 7.16995 7.92576 7.17162C7.92492 7.17162 7.92409 7.17162 7.92353 7.17162C7.88576 7.17162 7.85075 7.15522 7.83298 7.12213C7.82075 7.09544 7.77492 7.08738 7.72492 7.08182C7.67881 7.07598 7.61714 7.06736 7.61547 7.00759C7.61575 6.97507 7.63325 6.93614 7.67409 6.87776L7.67714 6.87331L7.68325 6.87081C7.96965 6.76211 7.99187 6.74432 8.07215 6.62116C8.12354 6.54498 8.25409 6.5183 8.40104 6.51774C8.54132 6.51774 8.69771 6.54443 8.81716 6.59558C8.9266 6.64201 8.99077 6.66036 9.03077 6.66008C9.07605 6.65952 9.09661 6.64006 9.14049 6.59947C9.19772 6.54832 9.29633 6.44657 9.37494 6.44323C9.41716 6.44351 9.44078 6.48104 9.44078 6.53776L9.43994 6.91752C9.43605 6.91752 9.38689 7.13687 9.25355 7.14493C9.2355 7.14493 9.21661 7.1402 9.19855 7.12964C9.07105 7.05791 8.98799 7.07987 8.82243 6.95227C8.74021 6.88721 8.61799 6.84273 8.50576 6.84301C8.40993 6.84301 8.32298 6.87415 8.26604 6.94838ZM7.72659 9.02983C7.72631 9.01621 7.73047 8.99647 7.74492 8.97562C7.75964 8.95283 7.7852 8.94421 7.80964 8.94448C7.87825 8.94838 7.9627 8.99592 7.96937 9.05902C7.96965 9.07265 7.9627 9.08738 7.95076 9.09656C7.93714 9.10601 7.92242 9.1441 7.92298 9.18385C7.92464 9.24474 7.94853 9.29783 8.01048 9.29811C8.01909 9.29811 8.02826 9.297 8.03854 9.29505C8.06354 9.28949 8.08409 9.28699 8.10187 9.28699C8.13659 9.28699 8.16131 9.29617 8.17659 9.31257C8.19215 9.32897 8.19604 9.34843 8.19604 9.36317C8.19604 9.37429 8.19381 9.38291 8.1927 9.38763V9.75933L8.30326 9.82578L8.30548 9.82883C8.30576 9.8305 8.34354 9.87498 8.34521 9.91974C8.34576 9.9317 8.34159 9.9456 8.32993 9.95561C8.31882 9.96534 8.30437 9.96895 8.2877 9.96895C8.26798 9.96895 8.24409 9.96422 8.21243 9.95422C8.18826 9.94643 8.1702 9.94365 8.15631 9.94365C8.11798 9.94421 8.10965 9.96283 8.08354 9.99564C8.0602 10.0276 8.0202 10.064 7.93909 10.0629C7.92714 10.0629 7.91437 10.0626 7.90076 10.0612C7.78853 10.0507 7.74992 10.0182 7.72936 9.98035C7.70797 9.94532 7.70325 9.91807 7.62547 9.8836C7.59575 9.87053 7.57214 9.86581 7.55269 9.86581C7.47436 9.86219 7.43853 9.95644 7.32519 10.002C7.24658 10.0259 7.23075 10.1296 7.15741 10.141C7.11852 10.1388 7.09352 10.1071 7.05435 10.039C6.95991 9.86859 6.89213 9.82049 6.89074 9.70651C6.89074 9.6826 6.89407 9.65647 6.90046 9.62728C6.93991 9.44574 7.13241 9.44601 7.20741 9.42377C7.26214 9.42238 7.24352 9.18858 7.27575 9.08516C7.2888 9.04596 7.32575 9.03067 7.36047 9.03178C7.42436 9.03289 7.50631 9.06375 7.59436 9.06347C7.61047 9.06347 7.62659 9.06264 7.64242 9.06014C7.67659 9.05485 7.69964 9.05152 7.71325 9.04763C7.72131 9.04596 7.7252 9.04485 7.72714 9.04401C7.72714 9.04095 7.72659 9.03623 7.72659 9.02983ZM10.2669 12.2887C10.0952 12.7599 10.0758 12.5319 9.15716 11.5594C9.15411 11.5561 9.15077 11.553 9.14855 11.5497C9.14577 11.5075 9.14744 11.4741 9.15716 11.4563C9.23133 11.3204 9.51633 11.2217 9.58328 10.8928C9.65133 10.5653 9.6205 10.6893 9.83689 11.0045C9.89801 11.0932 9.96495 11.1435 10.0338 11.1669C10.1741 11.5383 10.3455 12.0715 10.2669 12.2887ZM17.6264 3.12519C15.8653 1.36317 13.4347 0.273926 10.7491 0.273926C8.06298 0.273926 5.63239 1.36317 3.87209 3.12519C2.11179 4.88666 1.02344 7.31952 1.02344 10.0081C1.02344 12.6965 2.11179 15.1291 3.87209 16.8914C5.30266 18.3226 7.17519 19.3098 9.268 19.6301C9.32216 19.5859 9.50383 19.4607 9.85495 19.4065C9.90467 19.3643 10.0852 19.2119 10.245 19.1925C10.3111 19.1861 10.3963 19.1652 10.4922 19.1533L10.5122 18.5517C10.4936 18.555 10.4675 18.5586 10.4358 18.5586C10.3122 18.5594 10.1041 18.5038 9.94551 18.2053C9.708 17.7591 9.69828 17.4168 9.61967 17.2989C9.61161 17.2875 9.60661 17.275 9.60606 17.2617C9.60689 17.2283 9.64022 17.218 9.66522 17.218C9.79356 17.2194 10.143 17.3929 10.3883 17.7852C10.4988 17.9631 10.5566 18.096 10.5852 18.1952L10.6663 17.7276C10.6663 17.7268 10.6638 17.6907 10.6638 17.6345C10.6655 17.4649 10.6813 17.1132 10.8708 16.9926C10.8711 16.992 11.2616 16.6506 11.3244 16.5116C11.3491 16.4627 11.3625 16.4332 11.3997 16.4288C11.4397 16.4343 11.445 16.468 11.4536 16.5047C11.4611 16.5439 11.4644 16.5967 11.4644 16.6598C11.4636 16.9361 11.4002 17.3985 11.2777 17.5867C11.1044 17.8477 10.8897 17.7643 10.8033 17.8872C10.7158 17.9976 10.6236 18.4268 10.6247 18.7165C10.6247 18.7527 10.6261 18.7866 10.6288 18.8185C10.6411 18.9503 10.6461 19.0493 10.6461 19.1241C10.6461 19.1327 10.6455 19.138 10.6452 19.1449C10.7091 19.1469 10.7766 19.1555 10.8452 19.1794C10.9625 19.2164 11.0008 19.2728 11.0197 19.2942C11.0347 19.3098 11.0519 19.3281 11.2069 19.3445C11.328 19.3557 11.3872 19.3782 11.4255 19.4118C11.4633 19.451 11.4622 19.4621 11.4714 19.4641C11.4789 19.4683 11.5047 19.4749 11.5603 19.4749C11.8136 19.476 12.0678 19.5998 12.0714 19.6009L12.1533 19.6401C14.2767 19.3326 16.1781 18.3401 17.6264 16.8914C19.3865 15.1291 20.4754 12.6965 20.4754 10.0081C20.4754 7.31952 19.3865 4.88666 17.6264 3.12519Z" fill="#FFFFFE"/>
    <path d="M13.7735 6.70475L13.8457 6.78843C13.8943 6.84904 13.9057 6.85126 13.9721 6.81151L14.0182 6.78538C14.0946 6.74368 14.106 6.66694 14.1152 6.61134C14.1202 6.57965 14.1249 6.5499 14.1385 6.54073C14.1471 6.53545 14.1613 6.53545 14.1819 6.54073C14.2171 6.55018 14.2444 6.54851 14.2677 6.53461C14.3035 6.51404 14.3138 6.47039 14.3224 6.43536C14.328 6.4134 14.3349 6.38866 14.3438 6.38866C14.3827 6.38866 14.398 6.35835 14.4116 6.33194C14.4282 6.2983 14.4457 6.263 14.5113 6.25744C14.5516 6.25327 14.5807 6.23714 14.5971 6.20934C14.6319 6.15207 14.5966 6.06728 14.5957 6.06311L14.5877 6.04532L14.5716 6.05115L14.3741 6.129C14.3327 6.14735 14.2974 6.15068 14.2677 6.13817C14.2244 6.12066 14.2057 6.07673 14.2057 6.07617C14.2091 6.07506 14.2069 6.05755 14.1913 6.04976C14.1705 6.0392 14.1396 6.04893 14.0577 6.13344L13.9552 6.26606C13.938 6.29552 13.9274 6.31498 13.8782 6.35279C13.7827 6.42313 13.6235 6.42424 13.6221 6.42424H13.6057L13.6032 6.43981C13.6027 6.44231 13.5874 6.50709 13.6763 6.55185L13.6968 6.56353C13.6866 6.58132 13.6871 6.61329 13.7735 6.70475ZM11.2018 3.37003C11.2018 3.3578 11.1699 3.3653 11.1699 3.3653C11.1315 3.36364 11.0651 3.36141 11.0493 3.37837C11.0315 3.397 11.0168 3.38504 10.9985 3.36864L10.9885 3.36113C10.9885 3.36113 10.9688 3.33306 10.9629 3.31109C10.9571 3.28941 10.9349 3.28857 10.926 3.28607C10.9174 3.28413 10.904 3.31693 10.904 3.31693C10.8818 3.35669 10.8749 3.40006 10.8679 3.4501C10.8596 3.5057 10.8496 3.56964 10.8154 3.63942L10.7943 3.68057C10.7585 3.74979 10.7351 3.79761 10.7351 3.83681C10.7351 3.86072 10.7435 3.88046 10.7613 3.90075L10.8321 3.94329C10.8768 3.96052 10.9268 3.98026 10.9268 4.06366C10.9268 4.08118 10.9238 4.10175 10.919 4.12677C10.9076 4.17987 10.9007 4.21768 10.9007 4.24798C10.9007 4.31248 10.9332 4.34612 11.0282 4.4437C11.0668 4.48374 11.0907 4.50375 11.0954 4.5057C11.1032 4.49847 11.1076 4.45288 11.1124 4.40895L11.1376 4.2213C11.1671 4.05838 11.2235 4.00834 11.2776 3.95858C11.3224 3.91938 11.364 3.88129 11.3971 3.78065L11.4271 3.69447C11.4393 3.66222 11.4465 3.64165 11.4465 3.62719C11.4465 3.603 11.4254 3.5955 11.3699 3.57409L11.2649 3.5335C11.1979 3.5057 11.1649 3.47845 11.1588 3.44648C11.1588 3.4437 11.1582 3.44037 11.1582 3.43786C11.1582 3.40784 11.2018 3.39922 11.2018 3.37003ZM17.6272 16.8913C19.3872 15.129 20.4761 12.6964 20.4761 10.0081C20.4761 7.31943 19.3872 4.88657 17.6272 3.1251C15.866 1.36308 13.4355 0.273839 10.7499 0.273839C8.06371 0.273839 5.63312 1.36308 3.87282 3.1251C2.11252 4.88657 1.02417 7.31943 1.02417 10.0081C1.02417 12.6964 2.11252 15.129 3.87282 16.8913C5.3034 18.3225 7.17592 19.3097 9.26873 19.63C9.3229 19.5858 9.50457 19.4607 9.85568 19.4065C9.90541 19.3642 10.086 19.2118 10.2457 19.1924C10.3118 19.186 10.3971 19.1651 10.4929 19.1532L10.5129 18.5516C10.4943 18.5549 10.4682 18.5585 10.4365 18.5585C10.3129 18.5594 10.1049 18.5038 9.94624 18.2052C9.70874 17.759 9.69901 17.4167 9.6204 17.2989C9.61235 17.2875 9.60735 17.275 9.60679 17.2616C9.60762 17.2282 9.64096 17.218 9.66596 17.218C9.79429 17.2193 10.1437 17.3928 10.389 17.7851C10.4996 17.963 10.5574 18.0959 10.586 18.1952L10.6671 17.7276C10.6671 17.7267 10.6646 17.6906 10.6646 17.6344C10.6662 17.4648 10.6821 17.1132 10.8715 16.9925C10.8718 16.9919 11.2624 16.6505 11.3251 16.5115C11.3499 16.4626 11.3632 16.4331 11.4004 16.4287C11.4404 16.4342 11.4457 16.4679 11.4543 16.5046C11.4618 16.5438 11.4651 16.5966 11.4651 16.6597C11.4643 16.9361 11.401 17.3984 11.2785 17.5866C11.1051 17.8477 10.8904 17.7642 10.804 17.8871C10.7165 17.9975 10.6243 18.4267 10.6254 18.7164C10.6254 18.7526 10.6268 18.7865 10.6296 18.8185C10.6418 18.9502 10.6468 19.0492 10.6468 19.124C10.6468 19.1326 10.6462 19.1379 10.646 19.1448C10.7099 19.1468 10.7774 19.1554 10.846 19.1793C10.9632 19.2163 11.0015 19.2727 11.0204 19.2941C11.0354 19.3097 11.0526 19.3281 11.2076 19.3445C11.3288 19.3556 11.3879 19.3781 11.4263 19.4117C11.464 19.4509 11.4629 19.4621 11.4721 19.464C11.4796 19.4682 11.5054 19.4748 11.561 19.4748C11.8143 19.476 12.0685 19.5997 12.0721 19.6008L12.154 19.64C14.2774 19.3325 16.1788 18.34 17.6272 16.8913ZM10.7499 20.0167C5.22673 20.0158 0.750278 15.5352 0.75 10.0081C0.750278 4.4804 5.22673 0 10.7499 0C16.2708 0 20.7483 4.47845 20.75 10.0042V10.0117C20.7483 15.5374 16.2708 20.0158 10.7499 20.0167ZM13.2988 9.32611C13.2796 9.3439 13.2549 9.3653 13.2538 9.40089C13.2543 9.42758 13.2705 9.45232 13.3021 9.4754C13.333 9.49903 13.3566 9.50904 13.3791 9.50959C13.423 9.50542 13.4338 9.47929 13.4527 9.48235C13.4674 9.48179 13.498 9.49263 13.5543 9.53906C13.6193 9.59244 13.638 9.62969 13.6493 9.6561C13.6568 9.67945 13.6724 9.71282 13.7127 9.71115C13.7371 9.71087 13.7696 9.70392 13.8266 9.69002C13.876 9.67834 13.9091 9.67417 13.9307 9.67417C13.9682 9.67612 13.9655 9.68057 13.9757 9.69586C13.9838 9.71198 13.9955 9.7434 14.0338 9.76286C14.0655 9.77704 14.0555 9.78121 14.0821 9.7876C14.1082 9.78037 14.1016 9.76842 14.1049 9.76758C14.1088 9.75841 14.1202 9.72811 14.2032 9.66556C14.3441 9.55852 14.3991 9.47373 14.4727 9.47651C14.4896 9.47651 14.5091 9.4804 14.5324 9.4893C14.5638 9.50125 14.5763 9.51015 14.5805 9.51404C14.5824 9.51599 14.5824 9.51599 14.583 9.51654C14.5835 9.51626 14.5857 9.52738 14.603 9.52933C14.6219 9.52599 14.616 9.52405 14.6399 9.51599C14.6607 9.50792 14.6991 9.49569 14.7669 9.47929C14.9019 9.44815 14.9377 9.39033 14.9485 9.34557C14.9649 9.29997 14.9438 9.29497 15.0152 9.28941C15.1233 9.28941 15.1727 9.27023 15.2096 9.27078C15.228 9.27106 15.2449 9.27412 15.2713 9.28718C15.2821 9.29247 15.293 9.29525 15.3046 9.29497C15.3713 9.29024 15.4196 9.22241 15.4233 9.17515C15.4233 9.16681 15.421 9.1568 15.4135 9.14846C15.4066 9.14067 15.3958 9.13706 15.3858 9.13734C15.3702 9.13734 15.3538 9.14401 15.3333 9.15596C15.3035 9.1732 15.2816 9.17959 15.266 9.17959C15.2216 9.18321 15.1916 9.11815 15.1266 9.03336C15.0838 8.97998 15.0446 8.94718 14.9969 8.94662C14.9491 8.94718 14.9069 8.97804 14.8533 9.03197C14.7721 9.11315 14.6791 9.16681 14.6046 9.16653C14.5846 9.16653 14.5655 9.16236 14.5477 9.15485C14.4652 9.1201 14.4869 9.06922 14.3024 9.02641C14.1727 8.9975 14.1027 8.89853 14.0024 8.89519C13.9705 8.89491 13.9374 8.90798 13.9041 8.93578C13.8441 8.98554 13.8055 9.00139 13.7799 9.00083C13.7535 9.00139 13.7302 8.98443 13.6971 8.95719C13.6591 8.92522 13.5949 8.89519 13.5341 8.89436C13.4832 8.89269 13.4305 8.92271 13.4213 8.99055C13.4071 9.08535 13.3016 9.15902 13.2955 9.2352C13.2949 9.25382 13.3057 9.27328 13.3238 9.28524C13.3313 9.29135 13.3302 9.29191 13.3302 9.29191C13.3318 9.29358 13.3193 9.30887 13.2988 9.32611ZM10.9232 9.44287C10.9238 9.50987 10.9379 9.57353 10.9868 9.60745C11.0499 9.6486 11.1435 9.67362 11.2274 9.67362C11.2935 9.67306 11.3557 9.6586 11.3893 9.61384C11.4551 9.51209 11.3676 9.51877 11.5165 9.35752C11.6627 9.19961 11.7802 9.2491 11.899 9.17403C11.9863 9.10731 12.2277 9.18376 12.3149 9.03725C12.3785 8.91687 12.4479 8.94051 12.5479 8.79288C12.5821 8.73784 12.5971 8.73228 12.6027 8.70392C12.5999 8.68001 12.5793 8.6789 12.5754 8.67834C12.5549 8.67584 12.5168 8.67723 12.4479 8.63553C12.4177 8.6169 12.3879 8.60856 12.359 8.60856C12.2302 8.61273 12.141 8.7509 11.969 8.74951C11.8602 8.74785 11.8349 8.72394 11.8104 8.68974C11.7865 8.65499 11.7693 8.598 11.6993 8.55407C11.6721 8.53656 11.6457 8.52905 11.6202 8.52905C11.5107 8.53322 11.441 8.64582 11.2788 8.64443C11.174 8.64415 11.1188 8.65527 11.0901 8.70587C11.0646 8.7548 11.0668 8.82068 11.0488 8.93078C11.0351 9.01668 11.0338 9.05477 11.0338 9.07478C11.0338 9.08062 11.0338 9.08451 11.0338 9.08674C11.0346 9.09063 11.0368 9.08173 11.004 9.13317C10.9646 9.19711 10.9238 9.32972 10.9232 9.44287ZM9.61957 8.90714L9.6154 8.92244C9.61512 8.92383 9.60623 8.95691 9.60623 9.00695C9.60623 9.07534 9.62262 9.17654 9.70151 9.26911C9.73818 9.31332 9.77651 9.3325 9.81346 9.3325C9.81346 9.3325 9.81374 9.3325 9.81401 9.3325C9.89707 9.32889 9.95624 9.25382 10.0174 9.25716C10.0276 9.25716 10.0379 9.25883 10.0493 9.263C10.0671 9.26967 10.0815 9.27273 10.0946 9.27273C10.1412 9.27217 10.144 9.22463 10.144 9.20378C10.144 9.20183 10.144 9.19961 10.144 9.19822C10.1468 9.16875 10.1426 9.16847 10.1551 9.16847C10.1587 9.16847 10.1632 9.16875 10.169 9.17014C10.1779 9.17209 10.1854 9.1732 10.1924 9.1732C10.2018 9.1732 10.2118 9.17125 10.2207 9.16375C10.229 9.15652 10.2318 9.14512 10.2318 9.13706C10.2282 9.09146 10.1743 9.02335 10.1771 8.99388C10.1771 8.98971 10.1774 8.98832 10.1779 8.98777C10.1835 8.98026 10.1879 8.97248 10.1879 8.96163C10.1757 8.9166 10.1412 8.92883 10.1151 8.91465C10.086 8.90381 10.0618 8.89046 10.0535 8.85321C10.0299 8.75063 10.0299 8.65777 10.0299 8.61162C10.0293 8.57075 9.99179 8.56102 9.97235 8.55657C9.94874 8.55074 9.93707 8.54545 9.93596 8.53656C9.92485 8.4943 9.92457 8.41312 9.92457 8.41312V8.40784L9.92263 8.40339C9.91818 8.40339 9.90513 8.3489 9.85735 8.34028C9.82513 8.34445 9.81846 8.37198 9.81401 8.4109C9.8079 8.46817 9.81013 8.52127 9.80374 8.55657C9.79457 8.59299 9.78985 8.60273 9.75596 8.60439C9.75179 8.60439 9.74763 8.60411 9.7429 8.60328C9.74096 8.60328 9.7379 8.603 9.73457 8.603C9.68012 8.6055 9.66985 8.66055 9.66985 8.70809C9.67012 8.77704 9.69096 8.86461 9.70207 8.90714H9.61957ZM7.64315 9.06005C7.62732 9.06255 7.61121 9.06339 7.5951 9.06339C7.50704 9.06366 7.42509 9.03281 7.3612 9.03169C7.32648 9.03058 7.28954 9.04587 7.27648 9.08507C7.24426 9.18849 7.26287 9.4223 7.20815 9.42369C7.13314 9.44593 6.94064 9.44565 6.9012 9.62719C6.89481 9.65638 6.89147 9.68251 6.89147 9.70642C6.89286 9.82041 6.96064 9.8685 7.05509 10.0389C7.09425 10.107 7.11926 10.1387 7.15814 10.141C7.23148 10.1296 7.24731 10.0259 7.32592 10.0019C7.43926 9.95635 7.47509 9.86211 7.55343 9.86572C7.57287 9.86572 7.59648 9.87045 7.62621 9.88351C7.70399 9.91799 7.70871 9.94523 7.7301 9.98026C7.75065 10.0181 7.78926 10.0506 7.90149 10.0612C7.9151 10.0626 7.92788 10.0628 7.93982 10.0628C8.02093 10.0639 8.06094 10.0275 8.08427 9.99555C8.11038 9.96275 8.11871 9.94412 8.15705 9.94356C8.17094 9.94356 8.18899 9.94634 8.21316 9.95413C8.24483 9.96414 8.26872 9.96886 8.28844 9.96886C8.3051 9.96886 8.31955 9.96525 8.33066 9.95552C8.34233 9.94551 8.34649 9.93161 8.34594 9.91965C8.34427 9.8749 8.30649 9.83041 8.30622 9.82875L8.30399 9.82569L8.19344 9.75924V9.38755C8.19455 9.38282 8.19677 9.3742 8.19677 9.36308C8.19677 9.34835 8.19288 9.32889 8.17733 9.31248C8.16205 9.29608 8.13732 9.28691 8.1026 9.28691C8.08482 9.28691 8.06427 9.28941 8.03927 9.29497C8.02899 9.29691 8.01982 9.29803 8.01121 9.29803C7.94927 9.29775 7.92538 9.24465 7.92371 9.18376C7.92316 9.14401 7.93788 9.10592 7.95149 9.09647C7.96343 9.08729 7.97038 9.07256 7.9701 9.05894C7.96343 8.99583 7.87899 8.94829 7.81038 8.94439C7.78593 8.94412 7.76038 8.95274 7.74565 8.97554C7.73121 8.99639 7.72704 9.01612 7.72732 9.02975C7.72732 9.03614 7.72787 9.04087 7.72787 9.04393C7.72593 9.04476 7.72204 9.04587 7.71399 9.04754C7.70037 9.05143 7.67732 9.05477 7.64315 9.06005ZM8.82317 6.95218C8.98873 7.07979 9.07178 7.05783 9.19928 7.12955C9.21734 7.14012 9.23623 7.14484 9.25428 7.14484C9.38762 7.13678 9.43679 6.91743 9.44068 6.91743L9.44151 6.53767C9.44151 6.48096 9.4179 6.44343 9.37568 6.44315C9.29706 6.44648 9.19845 6.54823 9.14123 6.59939C9.09734 6.63998 9.07678 6.65944 9.0315 6.65999C8.9915 6.66027 8.92734 6.64192 8.81789 6.5955C8.69844 6.54434 8.54205 6.51765 8.40177 6.51765C8.25483 6.51821 8.12427 6.5449 8.07288 6.62107C7.9926 6.74423 7.97038 6.76202 7.68399 6.87073L7.67787 6.87323L7.67482 6.87768C7.63398 6.93606 7.61648 6.97498 7.61621 7.00751C7.61787 7.06728 7.67954 7.0759 7.72565 7.08173C7.77565 7.08729 7.82149 7.09536 7.83371 7.12205C7.85149 7.15513 7.88649 7.17153 7.92427 7.17153C7.92482 7.17153 7.92565 7.17153 7.92649 7.17153C8.02788 7.16986 8.16621 7.07951 8.26677 6.94829C8.32372 6.87406 8.41066 6.84292 8.5065 6.84292C8.61872 6.84265 8.74094 6.88713 8.82317 6.95218ZM9.83763 11.0044C9.62123 10.6892 9.65207 10.5652 9.58401 10.8927C9.51707 11.2216 9.23206 11.3203 9.15789 11.4562C9.14817 11.474 9.14651 11.5074 9.14928 11.5496C9.15151 11.553 9.15484 11.556 9.15789 11.5594C10.0765 12.5318 10.096 12.7598 10.2676 12.2886C10.3462 12.0714 10.1749 11.5382 10.0346 11.1668C9.96568 11.1435 9.89874 11.0931 9.83763 11.0044ZM10.7501 0.761468C5.64757 0.761468 1.51168 4.90131 1.51168 10.0081C1.51168 13.4443 3.3842 16.4426 6.16369 18.0367C6.16896 18.0392 6.17396 18.0423 6.17952 18.0453C6.49036 18.089 6.74925 18.0945 6.97148 18.072C7.67037 18.0033 8.01232 17.6689 8.52372 17.4395C9.08234 17.1879 9.78846 16.6428 9.85513 16.0431C9.89374 15.6959 10.1618 14.8157 10.0451 13.9494C9.92957 13.0817 10.204 13.2936 9.54901 12.5213C9.43484 12.3867 9.31651 12.2669 9.2004 12.1574C9.16956 12.2191 9.08067 12.1682 8.86761 11.8766C8.8665 11.8755 8.86567 11.8741 8.86539 11.8732C8.69067 11.7395 8.52983 11.6353 8.404 11.5605C8.37233 11.5655 8.33122 11.5635 8.27399 11.5491C7.82982 11.4373 8.26177 12.0131 7.92149 11.988C7.58176 11.963 7.68676 12.5202 7.50759 12.4401C7.32787 12.3597 7.63121 12.0003 7.17981 12.2168C6.72842 12.4334 6.82786 12.365 6.74092 12.2294C6.65397 12.0926 6.85231 11.9761 6.51202 11.8646C6.17258 11.7531 6.38813 12.0503 5.95674 12.0748C5.52423 12.0998 5.69701 12.3283 5.50507 12.5694C5.31312 12.811 5.33867 12.4648 5.02867 12.6441C4.71894 12.824 4.96117 12.9839 4.88728 13.1079C4.81283 13.2324 4.80033 13.0954 4.77589 13.0092C4.75033 12.9222 4.58394 13.0222 4.64561 12.7932C4.70811 12.5635 4.75033 12.4031 4.89922 12.3283C5.04812 12.2541 4.96117 12.1371 4.73839 12.0998C4.51616 12.0628 4.63339 12.0384 4.53394 11.9019C4.43533 11.7651 4.20671 11.7598 4.02782 11.8468C3.84893 11.9338 3.84143 12.0131 3.84143 12.0131C3.84143 12.0131 3.56448 11.8096 3.87893 11.784C4.19477 11.7598 4.13227 11.5744 4.29366 11.469C4.4545 11.3639 4.39838 11.3572 4.33061 11.283C4.26255 11.2091 4.14505 11.2091 4.44755 11.154C4.75033 11.0979 4.58394 11.042 4.83728 10.826C5.09062 10.6097 5.18895 11.0912 5.3259 10.6892C5.46145 10.2872 5.28867 10.0831 5.2759 10.0092C5.26367 9.93411 5.07756 9.66833 5.3259 9.74256C5.5734 9.81679 5.6659 9.86683 5.88229 9.60689C6.09813 9.34612 6.11035 9.53906 6.18424 9.35279C6.25869 9.16708 6.62397 9.09925 6.40091 8.89519C6.17785 8.69141 6.20924 8.98777 5.96841 8.84543C5.72757 8.70392 6.00535 8.598 5.81979 8.5424C5.63423 8.48763 5.7584 8.7092 5.3259 8.69669C4.89311 8.68446 5.01117 8.90742 4.77589 8.96247C4.54061 9.01807 4.68255 9.25327 4.42311 9.22324C4.16283 9.19238 4.30616 9.07451 4.0706 8.92549C3.83504 8.77676 3.78032 8.87017 3.52698 8.87017C3.27365 8.87017 3.1992 9.27857 3.1867 8.99972C3.17503 8.72171 3.08809 8.62302 3.22392 8.41868C3.36059 8.21462 3.17503 8.22741 3.52698 8.20211C3.87893 8.17737 3.62615 7.89936 3.81754 7.78788C4.00866 7.6764 3.76754 7.45983 4.0581 7.33611C4.34838 7.21212 4.70089 7.3236 4.70089 7.3236C4.89922 7.21879 4.53394 7.29914 5.18895 6.99583C5.84479 6.6928 5.49229 6.96525 5.84479 6.91549C6.19674 6.86628 5.98091 6.76703 6.19674 6.77954C6.41369 6.79205 6.50008 6.98304 6.75342 6.8913C7.00648 6.79817 7.13037 6.98304 7.13037 6.76703C7.13037 6.55046 6.86509 6.57548 6.76536 6.48874C6.66675 6.402 5.96841 6.76703 6.08618 6.5385C6.20341 6.30942 6.08619 6.42702 6.07313 6.32777C6.06035 6.22825 5.61646 6.14846 5.55451 6.08618C5.49229 6.02419 5.86813 6.08813 5.45034 5.86322C5.06312 5.65471 5.28256 5.8457 5.09062 5.79594C4.81783 5.72505 5.09062 5.62941 4.92395 5.59188C4.4895 5.49486 4.58394 5.49291 4.73839 5.30692C4.892 5.12121 4.77589 4.92383 4.76311 4.77509C4.75033 4.62636 4.5095 4.75035 4.54672 4.59577C4.58394 4.44176 4.78728 4.39728 4.86228 4.36058C4.93589 4.32332 4.84978 3.81624 4.96117 3.69252C5.07256 3.56853 5.20173 4.0203 5.56673 4.09425C5.93146 4.16903 5.78229 4.33611 6.24702 4.08257C6.71036 3.82819 6.74369 4.12705 6.74369 4.12705C6.74369 4.12705 6.77786 4.24326 6.98842 4.268C7.19898 4.29274 7.0812 4.93606 7.21676 4.75035C7.35343 4.56436 7.56898 4.78732 7.61871 4.63275C7.66843 4.47845 8.03927 4.8988 7.66204 4.24326C7.28453 3.58799 6.72842 4.41006 6.87731 3.87795C7.02481 3.34612 6.72842 3.1732 6.96342 3.00584C7.19898 2.83903 6.45036 2.6283 7.25398 2.64109C8.05816 2.65332 8.0826 2.24465 8.0826 2.24465C8.0826 2.24465 7.95371 2 8.30427 1.8888C8.65455 1.77815 8.63205 1.86127 8.63205 1.86127C8.63205 1.86127 8.5765 2.16125 8.82067 1.86127C9.06539 1.56158 8.899 1.75063 9.06539 1.75063C9.23123 1.75063 8.99261 1.5424 9.44818 1.64443C9.73735 1.7092 9.53707 2.03725 10.021 1.97248C10.1574 1.95441 10.0776 1.54657 10.0776 1.54657C10.2268 1.39672 10.2099 1.35446 10.3676 1.39672C10.5254 1.43925 10.676 1.27384 10.676 1.27384C10.676 1.27384 10.9354 1.55546 11.4413 1.42257C11.5029 1.40673 11.554 1.4854 11.566 1.63525C11.5782 1.77982 11.8302 1.7345 11.8302 1.7345C11.8302 1.7345 11.741 1.96275 12.1196 1.95051C12.1196 1.95051 12.2846 1.75952 12.4341 1.88657C12.5849 2.01362 12.4493 2.30136 12.5235 2.4159C12.5968 2.53016 12.5968 2.54267 12.9254 2.53016C13.2527 2.51738 13.468 2.46428 13.3791 2.68029C13.291 2.89547 13.6938 2.78204 13.7571 2.81957C13.8207 2.85738 13.631 3.23436 13.6693 3.4248C13.7074 3.61523 13.5568 3.60217 13.4549 3.58994C13.3532 3.57715 13.2549 3.76508 13.5191 3.86711C13.7827 3.96803 13.7091 4.10815 14.1863 3.89213C14.6649 3.6764 14.488 3.77815 14.8905 3.77815C15.0424 3.77815 14.8649 3.64026 15.1066 3.3742C15.1066 3.3742 15.1944 3.07145 15.3833 3.48818C15.5708 3.9052 15.1796 3.68891 15.558 4.13094C15.9366 4.57298 15.4385 4.38949 16.0755 4.71059C16.3533 4.85015 16.3891 4.50765 16.5411 5.01362C16.6933 5.51877 16.7797 5.30498 16.8308 5.56964C16.8308 5.56964 16.8349 5.74896 16.1052 5.6903C15.813 5.66694 16.2452 5.95691 15.813 6.06505C15.6258 6.11148 15.7077 6.3464 15.7663 6.46289C15.8249 6.58076 16.573 6.33417 16.9944 6.73283C16.9944 6.73283 17.1111 6.97859 17.4969 7.072C17.8838 7.16597 17.2397 7.36975 18.0239 7.54073C18.293 7.59939 18.0941 8.20767 18.0122 8.30136C17.9305 8.39477 17.9155 8.598 18.293 8.75841C18.293 8.75841 18.1789 9.17515 17.638 8.95051C17.0569 8.7092 17.7 8.97526 17.0813 8.96247C16.4633 8.95051 17.1497 9.25327 16.8588 9.26578C16.5686 9.27857 16.9022 9.50209 16.7166 9.84237C16.5311 10.1818 16.7666 10.1015 16.7541 10.3114C16.7416 10.5229 17.0694 10.114 17.2977 10.3244C17.5266 10.5354 17.65 10.8185 18.2186 10.677C18.7872 10.5354 18.5741 10.8894 18.7872 11.0792C19.0722 11.3331 18.5339 11.1782 18.3677 11.1412C18.3677 11.1412 18.1197 11.0723 17.9413 11.2332C17.7622 11.3948 17.8852 11.68 17.3972 11.5307C16.9088 11.382 16.9208 11.5371 16.9208 11.5371C16.9208 11.5371 16.7797 12.0384 17.1997 12.1865C17.3288 12.2321 17.1736 12.5074 16.9458 12.5819C16.7166 12.6561 16.5188 12.5819 16.5436 12.9722C16.5686 13.3617 16.5644 12.7779 16.0999 13.1982C16.0999 13.1982 16.2094 13.4062 15.8997 13.6428C15.5899 13.878 15.6849 14.5427 15.5808 14.1031C15.4683 13.6239 15.0538 13.7932 15.0538 13.7932C14.7896 13.2655 14.7452 13.1674 14.7485 13.1662C14.5705 12.8724 14.896 12.8048 14.8108 12.7859C14.2546 12.6658 14.5682 12.303 14.3774 12.3942C14.2096 12.4746 13.9113 12.2419 14.0713 12.7309C14.2319 13.2196 13.9113 12.7801 13.8185 12.7309C13.3313 12.4693 13.9721 12.4151 13.3791 12.3909C13.2846 12.3867 13.2049 12.3706 13.1332 12.3467C12.9082 12.3739 12.6113 12.4462 12.4757 12.6378C12.2429 12.9664 11.7465 13.0292 11.6413 13.2936C11.5354 13.5582 11.3979 14.4882 11.5143 15.5243C11.6304 16.561 12.1865 16.9425 12.6835 17.5986C13.1146 18.169 14.303 18.3689 14.608 18.4117C17.7833 16.9488 19.9889 13.7364 19.9889 10.0081C19.9889 4.90131 15.8513 0.761468 10.7501 0.761468ZM11.7465 12.3522C11.5802 12.3522 11.1071 12.9033 10.4985 10.9778C10.5043 10.9703 10.5112 10.963 10.5179 10.9552C10.6843 10.7509 10.8504 10.3742 11.2524 10.7134C11.6549 11.0542 11.2279 11.0734 11.9827 11.4937C12.2024 11.6163 12.3616 11.7412 12.4918 11.8568C12.2515 12.0514 11.861 12.3522 11.7465 12.3522Z" fill="#A01635"/>
    <path d="M62.744 10.6262H62.8969C63.0651 10.6262 63.2116 10.5738 63.2116 10.4264C63.2116 10.3072 63.1384 10.2257 62.9192 10.2257C62.8317 10.2257 62.7806 10.2331 62.744 10.241V10.6262ZM62.744 11.3233H62.5176V10.0849C62.6419 10.0628 62.773 10.0475 62.9408 10.0475C63.1456 10.0475 63.2477 10.0849 63.3282 10.1443C63.4011 10.1959 63.4523 10.2927 63.4523 10.404C63.4523 10.5595 63.3432 10.6555 63.2116 10.7003V10.7153C63.3209 10.7594 63.3793 10.8561 63.4154 11.0119C63.4523 11.2044 63.4741 11.2785 63.5034 11.3233H63.27C63.2329 11.2785 63.2038 11.1672 63.1747 10.9969C63.1456 10.8632 63.0651 10.8044 62.8899 10.8044H62.744V11.3233ZM62.9483 9.69921C62.4225 9.69921 62.0214 10.1369 62.0214 10.6708C62.0214 11.2197 62.4225 11.6495 62.9631 11.6495C63.4884 11.6566 63.8757 11.2197 63.8757 10.6779C63.8757 10.1369 63.4884 9.69921 62.9556 9.69921H62.9483ZM62.9631 9.49146C63.62 9.49146 64.1385 10.0109 64.1385 10.6708C64.1385 11.3449 63.62 11.8643 62.9556 11.8643C62.2911 11.8643 61.7656 11.3449 61.7656 10.6708C61.7656 10.0109 62.2911 9.49146 62.9556 9.49146H62.9631Z" fill="#A01635"/>
</svg>
