<svg width="95" height="20" viewBox="0 0 95 20" fill="none" xmlns="http://www.w3.org/2000/svg">
    <path fill-rule="evenodd" clip-rule="evenodd" d="M8.75402 20C8.75402 20 1.90849 16.4173 0.466754 8.74255C-0.161972 5.37127 0.0439897 0 0.0439897 0H17.3882C17.3882 0 17.5941 5.37127 16.96 8.74255C15.5399 16.4173 8.75402 20 8.75402 20Z" fill="#221E1F"/>
    <path fill-rule="evenodd" clip-rule="evenodd" d="M8.74473 19.7941C8.74473 19.7941 2.116 16.0706 0.723051 8.63966C0.116005 5.37679 0.311127 0.178955 0.311127 0.178955H17.1133C17.1133 0.178955 17.3138 5.37679 16.7014 8.63966C15.3138 16.0706 8.74473 19.7941 8.74473 19.7941Z" fill="white"/>
    <path fill-rule="evenodd" clip-rule="evenodd" d="M8.74865 19.7397C8.74865 19.7397 2.12534 16.0162 0.732391 8.58527C0.119925 5.32239 0.320467 0.119141 0.320467 0.119141H17.1226C17.1226 0.119141 17.3178 5.32239 16.7053 8.58527C15.3178 16.0162 8.74865 19.7397 8.74865 19.7397Z" fill="white"/>
    <path d="M8.74832 19.8699L8.68328 19.8374C8.61824 19.7995 1.99494 16 0.607402 8.60705C0.0111964 5.36585 0.206318 0.168022 0.206318 0.119241V0H17.2361V0.108401C17.2361 0.157182 17.4313 5.35501 16.8242 8.5962C15.4367 16 8.87298 19.7995 8.80252 19.8374L8.74832 19.8699ZM0.428541 0.233062C0.428541 0.99729 0.287619 5.60976 0.840465 8.56368C2.14128 15.4959 8.10876 19.2249 8.74832 19.6043C9.38789 19.2249 15.3012 15.4905 16.602 8.56368C17.144 5.60976 17.041 0.97561 17.0139 0.233062H0.428541Z" fill="#221E1F"/>
    <path fill-rule="evenodd" clip-rule="evenodd" d="M5.37109 17.1219L12.0757 17.1111L11.3277 17.8482L10.8399 18.2493L6.62313 18.2547L6.08112 17.7669L5.37109 17.1219Z" fill="#B9073E"/>
    <path fill-rule="evenodd" clip-rule="evenodd" d="M3.5625 14.9973H13.8985L13.4487 15.6315L13.0855 16.0271L4.40803 16.038L3.9961 15.5718L3.5625 14.9973Z" fill="#B9073E"/>
    <path fill-rule="evenodd" clip-rule="evenodd" d="M2.27344 12.8889H15.2003L14.6041 13.9187H2.86422L2.50108 13.3767L2.27344 12.8889Z" fill="#B9073E"/>
    <path fill-rule="evenodd" clip-rule="evenodd" d="M0.746094 8.60703L0.849075 9.17072L0.979156 9.63684L16.5185 9.63142L16.6214 9.11652L16.7244 8.59619L0.746094 8.60703Z" fill="#B9073E"/>
    <path fill-rule="evenodd" clip-rule="evenodd" d="M0.29209 0.205811H17.1322L17.0726 2.73156L17.0617 5.2302L0.373391 5.22478L0.31919 4.23291L0.28125 2.29795L0.29209 0.205811Z" fill="#B9073E"/>
    <path fill-rule="evenodd" clip-rule="evenodd" d="M1.3125 10.7156L1.6648 11.7887L15.7298 11.7833L16.1526 10.7156H1.3125Z" fill="#B9073E"/>
    <path fill-rule="evenodd" clip-rule="evenodd" d="M0.46875 6.39038H17.0053L16.9674 6.94865L16.8915 7.51775L0.587991 7.50691L0.48501 6.82399L0.46875 6.39038Z" fill="#B9073E"/>
    <path d="M8.74199 19.9243L8.68237 19.8917C8.61733 19.8592 1.99944 16.0598 0.611908 8.67223C0.0102815 5.4202 0.194563 0.227787 0.194563 0.173587V0.0651855H17.2244V0.173587C17.2244 0.227787 17.4141 5.42562 16.807 8.66139C15.4303 16.0598 8.86123 19.8538 8.79619 19.8917L8.74199 19.9243ZM0.416786 0.292828C0.395105 1.08416 0.281284 5.66952 0.83413 8.61803C2.13494 15.5503 8.097 19.2793 8.74199 19.6641C9.38156 19.2793 15.2948 15.5503 16.5902 8.61803C17.1322 5.66952 17.0293 1.05706 17.0076 0.292828H0.416786Z" fill="#221E1F"/>
    <path d="M10.8836 18.3199H6.54756V18.1573H10.8836V18.3199ZM12.0923 17.1871H5.36599V17.0191H12.0923V17.1871ZM13.1004 16.1031H4.37412V15.9351H13.1004V16.1031ZM13.8863 15.0679H3.53401V14.9052H13.8863V15.0679ZM14.6018 13.9838H2.84025V13.8212H14.6018V13.9838ZM15.2196 12.9486H2.21152V12.786H15.2196V12.9486ZM15.7617 11.8646H1.63699V11.702H15.7291L15.7617 11.8646ZM16.1844 10.7806H1.29011V10.618H16.1627L16.1844 10.7806ZM16.4825 9.69658H0.926967V9.53398H16.4608L16.4825 9.69658ZM16.7318 8.66677H0.672224V8.49875H16.7102L16.7318 8.66677ZM16.8999 7.58276H0.515043V7.41474H16.8782L16.8999 7.58276ZM16.9812 6.50417H0.450002V6.34156H16.9812V6.50417ZM17.0354 5.37137H0.363281V5.17625H17.0354V5.37137ZM4.85651 4.28736L4.57466 3.96216L4.69932 3.85376L4.98117 4.17896L4.85651 4.28736Z" fill="#221E1F"/>
    <path d="M1.7992 3.85195L1.51172 4.16479L1.63605 4.27905L1.92353 3.9662L1.7992 3.85195Z" fill="white"/>
    <path fill-rule="evenodd" clip-rule="evenodd" d="M1.19374 1.4471C1.19374 1.4471 1.19374 1.21404 1.28046 1.12732C1.38178 1.07961 1.49539 1.06447 1.60566 1.08396H2.93358C3.04198 1.08396 3.06908 1.1761 3.19374 1.1761C3.3184 1.1761 3.33466 1.08396 3.44848 1.08396H5.0474C5.0474 1.08396 5.24252 1.08396 5.29672 1.149C5.35603 1.23031 5.38307 1.33074 5.3726 1.43084V1.73978C5.3726 1.73978 5.86583 1.73978 5.87667 1.94574C5.88751 2.15171 5.3726 2.16797 5.3726 2.16797V3.43626C5.3726 3.43626 5.87667 3.37122 5.86041 3.65306C5.84415 3.9349 5.3726 3.87528 5.3726 3.87528V4.11919C5.37665 4.22247 5.35427 4.32508 5.30756 4.41729C5.19374 4.57447 4.81434 4.53111 4.81434 4.53111H1.63818C1.63818 4.53111 1.36718 4.57447 1.2642 4.46607C1.16122 4.35767 1.18832 4.15713 1.18832 4.15713V3.91322C1.18832 3.91322 0.646315 3.96742 0.646315 3.66932C0.646315 3.37122 1.18832 3.42 1.18832 3.42V2.16797C1.18832 2.16797 0.684255 2.23301 0.646315 1.9349C0.608374 1.6368 1.18832 1.691 1.18832 1.691L1.19374 1.4471Z" fill="white"/>
    <path d="M1.52503 4.64515C1.40575 4.654 1.28757 4.61719 1.19441 4.54217C1.11766 4.42732 1.08318 4.28938 1.09685 4.15193V4.02184C0.947431 4.0304 0.799746 3.98629 0.679502 3.89718C0.643455 3.87055 0.613634 3.8364 0.592107 3.79709C0.570581 3.75778 0.557864 3.71426 0.554841 3.66954C0.554262 3.62768 0.562672 3.58618 0.579502 3.54784C0.596333 3.50951 0.621192 3.47523 0.652402 3.44732C0.780879 3.35352 0.938069 3.30751 1.09685 3.31724V2.28201C0.950505 2.29287 0.804925 2.25264 0.684922 2.16819C0.648533 2.14268 0.618075 2.10962 0.595626 2.07127C0.573177 2.03292 0.559266 1.99018 0.554841 1.94596C0.553538 1.90499 0.560551 1.86417 0.575455 1.82598C0.59036 1.78778 0.612848 1.75301 0.641562 1.72374C0.77265 1.62641 0.933868 1.57843 1.09685 1.58824V1.45274C1.08476 1.30881 1.12734 1.16561 1.21609 1.05165C1.34007 0.968074 1.49133 0.935106 1.63885 0.959514H2.93424C2.99702 0.959902 3.05794 0.980843 3.10769 1.01913C3.13132 1.03639 3.15973 1.04586 3.18899 1.04623C3.21615 1.04371 3.24225 1.03439 3.26487 1.01913C3.31608 0.979705 3.3791 0.958699 3.44373 0.959514H5.04807C5.08059 0.959514 5.30281 0.959514 5.38411 1.07334C5.45701 1.17958 5.48968 1.30833 5.47625 1.43648V1.62618C5.62499 1.62298 5.77098 1.66659 5.89359 1.75084C5.94456 1.79699 5.97565 1.86111 5.98032 1.9297C5.98344 1.96749 5.97827 2.0055 5.96516 2.04108C5.95205 2.07666 5.93133 2.10894 5.90443 2.13567C5.78248 2.23169 5.63146 2.2833 5.47625 2.28201V3.32266C5.61924 3.31158 5.76148 3.35195 5.87733 3.43648C5.90784 3.46466 5.93188 3.49912 5.94779 3.53748C5.96369 3.57584 5.97109 3.6172 5.96948 3.6587C5.96723 3.69901 5.95697 3.73847 5.93929 3.77477C5.9216 3.81107 5.89686 3.84347 5.86649 3.87008C5.75143 3.94772 5.61501 3.98751 5.47625 3.9839V4.11941C5.48091 4.24436 5.45089 4.36818 5.38953 4.47713C5.24861 4.67767 4.84752 4.63973 4.80416 4.63431H1.63885L1.52503 4.64515ZM1.29739 3.7942V4.15193C1.28781 4.23459 1.3049 4.31815 1.34617 4.39041C1.436 4.4378 1.5399 4.45127 1.63885 4.42835H4.815C4.95592 4.42835 5.16731 4.42835 5.22151 4.35789C5.25564 4.28312 5.27232 4.20157 5.27029 4.11941V3.75626H5.38411C5.50256 3.77483 5.62385 3.75588 5.73099 3.70206C5.7389 3.6811 5.7389 3.65798 5.73099 3.63702C5.73804 3.61777 5.73804 3.59665 5.73099 3.5774C5.62239 3.52198 5.49827 3.50479 5.37869 3.52862H5.26487V2.0652H5.36785C5.50043 2.07913 5.63389 2.04863 5.74725 1.97848C5.75215 1.97129 5.75476 1.96279 5.75476 1.95409C5.75476 1.94539 5.75215 1.9369 5.74725 1.9297C5.75011 1.92476 5.75161 1.91915 5.75161 1.91344C5.75161 1.90773 5.75011 1.90213 5.74725 1.89718C5.63167 1.83875 5.50248 1.81254 5.37327 1.8213H5.26487V1.40938C5.26881 1.32841 5.24595 1.2484 5.19983 1.18174C5.15164 1.17099 5.10167 1.17099 5.05349 1.18174H3.42747C3.40158 1.18249 3.37673 1.19205 3.35701 1.20884C3.30485 1.25099 3.23979 1.27395 3.17273 1.27388C3.10402 1.27389 3.03727 1.25101 2.98303 1.20884C2.9505 1.20884 2.93966 1.18174 2.91798 1.18174H1.60633C1.51953 1.16896 1.4309 1.18216 1.35159 1.21968C1.31085 1.29423 1.29206 1.37879 1.29739 1.46358V1.8213H1.18357C1.05224 1.80533 0.919246 1.83192 0.804163 1.89718C0.79893 1.90625 0.796176 1.91653 0.796176 1.92699C0.796176 1.93746 0.79893 1.94774 0.804163 1.9568C0.803707 1.97106 0.806383 1.98524 0.812002 1.99835C0.81762 2.01146 0.826046 2.02318 0.836684 2.03268C0.948416 2.09035 1.07552 2.11122 1.19983 2.09231H1.31907V3.53404H1.18357C1.05393 3.51685 0.922269 3.54356 0.809583 3.60992C0.799755 3.61743 0.792076 3.62739 0.787319 3.63881C0.782562 3.65023 0.780894 3.6627 0.782483 3.67496C0.780966 3.68802 0.782639 3.70126 0.787359 3.71353C0.792079 3.7258 0.799705 3.73674 0.809583 3.74542C0.925449 3.8025 1.05694 3.81965 1.18357 3.7942H1.29739Z" fill="#221E1F"/>
    <path d="M3.28521 1.17065H3.11719V4.25466H3.28521V1.17065Z" fill="#221E1F"/>
    <path fill-rule="evenodd" clip-rule="evenodd" d="M3.265 4.26007C3.31583 4.259 3.36582 4.27316 3.40853 4.30073C3.45125 4.32831 3.48473 4.36803 3.50468 4.41479C3.52463 4.46156 3.53013 4.51322 3.52047 4.56313C3.51082 4.61305 3.48645 4.65893 3.4505 4.69488C3.41455 4.73083 3.36866 4.7552 3.31875 4.76486C3.26883 4.77451 3.21717 4.76901 3.17041 4.74906C3.12365 4.72912 3.08392 4.69563 3.05635 4.65292C3.02877 4.6102 3.01461 4.56022 3.01568 4.50939C3.01706 4.4437 3.04378 4.38108 3.09024 4.33462C3.1367 4.28816 3.19931 4.26145 3.265 4.26007Z" fill="white"/>
    <path d="M3.26397 4.87804C3.19322 4.87804 3.12406 4.85706 3.06523 4.81776C3.00641 4.77845 2.96056 4.72258 2.93348 4.65722C2.90641 4.59185 2.89932 4.51992 2.91312 4.45053C2.92693 4.38114 2.961 4.3174 3.01102 4.26737C3.06105 4.21734 3.12479 4.18327 3.19419 4.16947C3.26358 4.15567 3.3355 4.16275 3.40087 4.18983C3.46623 4.2169 3.5221 4.26275 3.56141 4.32158C3.60072 4.38041 3.6217 4.44957 3.6217 4.52032C3.62243 4.5675 3.61368 4.61435 3.59596 4.65808C3.57824 4.70181 3.55192 4.74154 3.51855 4.7749C3.48519 4.80826 3.44546 4.83459 3.40173 4.85231C3.358 4.87002 3.31115 4.87878 3.26397 4.87804ZM3.26397 4.37398C3.24476 4.37398 3.22573 4.37777 3.20797 4.38512C3.19022 4.39247 3.17408 4.40325 3.16049 4.41684C3.14691 4.43043 3.13613 4.44656 3.12877 4.46432C3.12142 4.48207 3.11763 4.5011 3.11763 4.52032C3.11763 4.53954 3.12142 4.55857 3.12877 4.57632C3.13613 4.59408 3.14691 4.61021 3.16049 4.6238C3.17408 4.63739 3.19022 4.64817 3.20797 4.65552C3.22573 4.66288 3.24476 4.66666 3.26397 4.66666C3.28319 4.66666 3.30222 4.66288 3.31998 4.65552C3.33773 4.64817 3.35386 4.63739 3.36745 4.6238C3.38104 4.61021 3.39182 4.59408 3.39918 4.57632C3.40653 4.55857 3.41032 4.53954 3.41032 4.52032C3.41032 4.5011 3.40653 4.48207 3.39918 4.46432C3.39182 4.44656 3.38104 4.43043 3.36745 4.41684C3.35386 4.40325 3.33773 4.39247 3.31998 4.38512C3.30222 4.37777 3.28319 4.37398 3.26397 4.37398Z" fill="#221E1F"/>
    <path d="M3.51723 4.55297L3.45761 4.39579C3.48813 4.37837 3.51714 4.35843 3.54433 4.33617C3.63563 4.27767 3.73981 4.24232 3.84785 4.23318C4.08703 4.20049 4.32954 4.20049 4.56872 4.23318C4.6759 4.25922 4.78876 4.24774 4.8885 4.20066C4.92595 4.12323 4.94097 4.03687 4.93187 3.95134V1.51774C4.90872 1.42242 4.85316 1.33811 4.77468 1.27925V3.58278C4.77468 3.58278 4.8343 3.89714 4.6988 4.02722C4.63659 4.06885 4.56597 4.09626 4.49197 4.10751C4.41796 4.11875 4.34239 4.11354 4.27062 4.09226C4.20016 4.09226 3.80991 4.13562 3.57143 4.17898C3.47385 4.21082 3.38485 4.26459 3.31127 4.33617L3.22455 4.22776L3.14867 4.33617C3.07973 4.26924 2.99626 4.21915 2.90476 4.18982C2.6717 4.14104 2.28688 4.10852 2.20558 4.09768C2.08235 4.14857 1.94398 4.14857 1.82075 4.09768L1.66899 4.26028C1.74227 4.27563 1.81794 4.27563 1.89121 4.26028C2.1324 4.23057 2.37632 4.23057 2.6175 4.26028C2.72101 4.26496 2.82246 4.29078 2.9156 4.33617L3.00233 4.37953L2.94271 4.53671C2.90085 4.52135 2.86086 4.50136 2.82346 4.47709C2.75237 4.43053 2.66991 4.40429 2.58498 4.40121C2.36194 4.3714 2.13593 4.3714 1.91289 4.40121C1.88037 4.40121 1.58769 4.43373 1.46845 4.2928C1.39951 4.18295 1.36901 4.05331 1.38173 3.92424V1.50148C1.38173 1.26299 1.70151 1.04077 1.73945 1.01909L1.78823 1.08413H1.86953V3.5611C1.85336 3.67808 1.86639 3.79726 1.90747 3.90798C1.90747 3.94592 2.07008 3.9405 2.17848 3.90798C2.17848 3.90798 2.63918 3.94592 2.91018 4.00012C3.04026 4.02445 3.16171 4.08237 3.26249 4.16814C3.34561 4.09962 3.44136 4.04806 3.54433 4.01638C3.81533 3.9676 4.25978 3.92966 4.27604 3.92424C4.36276 3.92424 4.51452 3.92424 4.55788 3.92424C4.60124 3.92424 4.60666 3.71286 4.5904 3.6153V1.08413H4.67712L4.72048 1.01367C4.75842 1.04077 5.07821 1.26299 5.07821 1.49606V3.94592C5.10166 4.08161 5.07259 4.22113 4.99691 4.33617C4.87224 4.47709 4.57956 4.44457 4.54704 4.43915C4.32382 4.41218 4.09817 4.41218 3.87495 4.43915C3.79112 4.44791 3.70996 4.47373 3.63647 4.51503C3.59832 4.53223 3.55831 4.54497 3.51723 4.55297ZM1.70151 1.25757C1.62293 1.3177 1.56897 1.40442 1.54975 1.50148V3.92424C1.54175 3.97996 1.54175 4.03654 1.54975 4.09226L1.72319 3.90798C1.70792 3.79104 1.70792 3.67262 1.72319 3.55568L1.70151 1.25757Z" fill="#221E1F"/>
    <path fill-rule="evenodd" clip-rule="evenodd" d="M6.59596 1.44705C6.59596 1.44705 6.59596 1.21398 6.6881 1.12726C6.78024 1.04054 7.00788 1.06222 7.00788 1.06222H8.34122C8.4442 1.06222 8.4713 1.15436 8.59596 1.15436C8.72062 1.15436 8.73688 1.0839 8.85612 1.0839H10.455C10.455 1.0839 10.6447 1.0839 10.6989 1.14894C10.7583 1.23026 10.7853 1.33069 10.7748 1.43079V1.73973C10.7748 1.73973 11.268 1.73973 11.2789 1.94569C11.2897 2.15165 10.7748 2.19501 10.7748 2.19501V3.43621C10.7748 3.43621 11.2789 3.37117 11.268 3.65301C11.2572 3.93485 10.7748 3.87523 10.7748 3.87523V4.11913C10.7789 4.22242 10.7565 4.32503 10.7098 4.41724C10.596 4.57442 10.222 4.53106 10.222 4.53106H7.05667C7.05667 4.53106 6.79108 4.57442 6.68268 4.46602C6.62706 4.37294 6.60062 4.26533 6.6068 4.15707V3.91317C6.6068 3.91317 6.0648 3.96737 6.0648 3.66927C6.0648 3.37117 6.6068 3.41995 6.6068 3.41995V2.16791C6.6068 2.16791 6.10816 2.23296 6.0648 1.93485C6.02143 1.63675 6.6068 1.69095 6.6068 1.69095L6.59596 1.44705Z" fill="white"/>
    <path d="M6.92659 4.64491C6.80888 4.6546 6.69207 4.61762 6.60139 4.54193C6.52165 4.42809 6.48338 4.29034 6.49299 4.15168V4.0216C6.34368 4.02925 6.1963 3.98523 6.07564 3.89694C6.04331 3.86848 6.0174 3.83346 5.99964 3.79421C5.98189 3.75496 5.97269 3.71238 5.97266 3.6693C5.97238 3.62798 5.98039 3.58702 5.99622 3.54885C6.01204 3.51068 6.03537 3.47607 6.0648 3.44708C6.19554 3.3537 6.35427 3.3078 6.51467 3.317V2.28176C6.37102 2.29045 6.22841 2.25243 6.10816 2.17336C6.07585 2.14455 6.04962 2.10957 6.03101 2.07048C6.01239 2.03139 6.00177 1.98897 5.99976 1.94572C5.99709 1.90459 6.00347 1.86338 6.01845 1.82498C6.03344 1.78659 6.05666 1.75195 6.08648 1.7235C6.20945 1.63057 6.36063 1.58273 6.51467 1.588V1.4525C6.50518 1.30798 6.54959 1.16508 6.63933 1.05141C6.75685 0.971743 6.89991 0.938879 7.04041 0.959272H8.36291C8.42568 0.95966 8.4866 0.980601 8.53635 1.01889C8.5594 1.03725 8.5882 1.04685 8.61765 1.04599C8.64141 1.04311 8.66392 1.03374 8.68269 1.01889C8.73557 0.978681 8.80056 0.957655 8.86697 0.959272H10.4659C10.4984 0.959272 10.7152 0.959272 10.7965 1.07309C10.8733 1.17756 10.9063 1.30781 10.8887 1.43624V1.62594C11.0375 1.622 11.1837 1.66567 11.306 1.7506C11.3322 1.77265 11.3535 1.79998 11.3684 1.8308C11.3833 1.86161 11.3916 1.89523 11.3927 1.92946C11.3958 1.96725 11.3907 2.00526 11.3776 2.04084C11.3645 2.07641 11.3437 2.1087 11.3168 2.13542C11.197 2.23144 11.0476 2.28314 10.8941 2.28176V3.32242C11.0367 3.31449 11.1779 3.35456 11.2952 3.43624C11.3254 3.46367 11.3496 3.49713 11.3661 3.53447C11.3827 3.57181 11.3912 3.6122 11.3912 3.65304C11.3912 3.69388 11.3827 3.73427 11.3661 3.7716C11.3496 3.80894 11.3254 3.84241 11.2952 3.86984C11.1818 3.94673 11.0473 3.9865 10.9103 3.98366V4.11916C10.915 4.24412 10.885 4.36793 10.8236 4.47689C10.6773 4.67743 10.2816 4.63949 10.2382 4.63407H7.05667L6.92659 4.64491ZM6.69895 3.79396V4.15168C6.69548 4.23397 6.71223 4.31585 6.74773 4.39017C6.83525 4.43272 6.93466 4.44419 7.02957 4.42269H10.222C10.3629 4.42269 10.5743 4.42269 10.6285 4.35223C10.6608 4.27702 10.6756 4.19549 10.6719 4.11374V3.75602H10.7857C10.9041 3.77496 11.0255 3.75599 11.1326 3.70182C11.1421 3.69375 11.1499 3.68382 11.1555 3.67264C11.1611 3.66146 11.1644 3.64926 11.1651 3.63678C11.169 3.62828 11.171 3.61903 11.171 3.60968C11.171 3.60032 11.169 3.59108 11.1651 3.58258C11.0571 3.52531 10.933 3.50621 10.8128 3.52838H10.6935V2.06496H10.8019C10.9345 2.07889 11.068 2.04839 11.1813 1.97824C11.1867 1.96242 11.1867 1.94528 11.1813 1.92946C11.1813 1.85358 10.9483 1.81564 10.7857 1.82106H10.6773V1.40914C10.6876 1.3284 10.6662 1.24679 10.6176 1.18149C10.5694 1.17109 10.5195 1.17109 10.4713 1.18149H8.84529C8.81932 1.18179 8.79431 1.19141 8.77483 1.20859C8.72059 1.25077 8.65384 1.27365 8.58513 1.27363C8.51681 1.27143 8.45073 1.24877 8.39543 1.20859C8.36291 1.20859 8.35207 1.18149 8.33581 1.18149H7.00789C6.92286 1.16882 6.83599 1.18204 6.75857 1.21943C6.71595 1.29343 6.69527 1.37803 6.69895 1.46334V1.82106H6.59055C6.45748 1.80505 6.32276 1.83162 6.20573 1.89694C6.2017 1.90636 6.19963 1.9165 6.19963 1.92675C6.19963 1.937 6.2017 1.94714 6.20573 1.95656C6.2063 1.97118 6.20998 1.98551 6.21652 1.99859C6.22306 2.01167 6.23232 2.02321 6.24367 2.03244C6.35516 2.09084 6.4825 2.11175 6.60681 2.09206H6.72063V3.5338H6.61223C6.48084 3.51621 6.34734 3.54291 6.23283 3.60968C6.22492 3.63064 6.22492 3.65376 6.23283 3.67472C6.2324 3.68818 6.23512 3.70156 6.24076 3.71379C6.24641 3.72602 6.25483 3.73677 6.26535 3.74518C6.37816 3.80563 6.50675 3.83022 6.63391 3.81564L6.69895 3.79396Z" fill="#221E1F"/>
    <path d="M8.68755 1.17065H8.51953V4.25466H8.68755V1.17065Z" fill="#221E1F"/>
    <path fill-rule="evenodd" clip-rule="evenodd" d="M8.64727 4.26003C8.70776 4.26893 8.76303 4.29928 8.803 4.34555C8.84296 4.39182 8.86495 4.45093 8.86495 4.51207C8.86495 4.57321 8.84296 4.63231 8.803 4.67858C8.76303 4.72485 8.70776 4.7552 8.64727 4.7641C8.61107 4.76942 8.57416 4.76688 8.53903 4.75666C8.5039 4.74644 8.47139 4.72877 8.4437 4.70485C8.41601 4.68094 8.3938 4.65134 8.37857 4.61808C8.36335 4.58481 8.35547 4.54865 8.35547 4.51207C8.35547 4.47548 8.36335 4.43933 8.37857 4.40606C8.3938 4.37279 8.41601 4.34319 8.4437 4.31928C8.47139 4.29536 8.5039 4.27769 8.53903 4.26747C8.57416 4.25725 8.61107 4.25471 8.64727 4.26003Z" fill="white"/>
    <path d="M8.64679 4.87804C8.57604 4.87804 8.50687 4.85706 8.44805 4.81776C8.38922 4.77845 8.34337 4.72258 8.31629 4.65722C8.28922 4.59185 8.28213 4.51992 8.29594 4.45053C8.30974 4.38114 8.34381 4.3174 8.39384 4.26737C8.44387 4.21734 8.50761 4.18327 8.577 4.16947C8.64639 4.15567 8.71832 4.16275 8.78368 4.18983C8.84905 4.2169 8.90492 4.26275 8.94422 4.32158C8.98353 4.38041 9.00451 4.44957 9.00451 4.52032C9.00451 4.6152 8.96682 4.70618 8.89974 4.77327C8.83265 4.84036 8.74166 4.87804 8.64679 4.87804ZM8.64679 4.37398C8.61784 4.37398 8.58955 4.38256 8.56548 4.39864C8.54142 4.41472 8.52266 4.43758 8.51158 4.46432C8.50051 4.49106 8.49761 4.52048 8.50326 4.54887C8.5089 4.57726 8.52284 4.60333 8.54331 4.6238C8.56377 4.64427 8.58985 4.6582 8.61824 4.66385C8.64662 4.6695 8.67605 4.6666 8.70279 4.65552C8.72953 4.64445 8.75238 4.62569 8.76847 4.60162C8.78455 4.57756 8.79313 4.54927 8.79313 4.52032C8.79462 4.50021 8.79194 4.48001 8.78526 4.46098C8.77858 4.44196 8.76804 4.42452 8.75429 4.40976C8.74055 4.395 8.72391 4.38324 8.70541 4.37522C8.68691 4.3672 8.66695 4.36308 8.64679 4.36314V4.37398Z" fill="#221E1F"/>
    <path d="M8.92585 4.55297L8.86623 4.39579C8.90959 4.39579 8.92585 4.36326 8.95295 4.35242C9.04162 4.29266 9.1444 4.25716 9.25105 4.24944C9.49205 4.21686 9.73634 4.21686 9.97734 4.24944C10.0695 4.24944 10.2267 4.24944 10.2754 4.20066C10.312 4.12298 10.3234 4.03581 10.308 3.95134V1.51774C10.2848 1.42242 10.2293 1.33811 10.1508 1.27925V3.58278C10.1508 3.58278 10.2158 3.89714 10.0749 4.02722C10.0137 4.06875 9.94397 4.09613 9.87085 4.10737C9.79772 4.11862 9.72302 4.11346 9.65214 4.09226C9.57626 4.09226 9.19143 4.13562 8.95295 4.17898C8.86177 4.20901 8.77844 4.259 8.70905 4.32532L8.62775 4.22776L8.55729 4.33616C8.48669 4.27143 8.40372 4.22165 8.31338 4.18982C8.0749 4.14104 7.69008 4.10852 7.6142 4.09768C7.49097 4.14857 7.3526 4.14857 7.22937 4.09768L7.07219 4.26028C7.14722 4.2764 7.22481 4.2764 7.29983 4.26028C7.5392 4.23052 7.78133 4.23052 8.0207 4.26028C8.12755 4.27481 8.2306 4.30978 8.32422 4.36327L8.41094 4.40663L8.35132 4.56381C8.30947 4.54845 8.26948 4.52846 8.23208 4.50419C8.15875 4.45815 8.07469 4.43199 7.98818 4.42831C7.76514 4.3985 7.53913 4.3985 7.31609 4.42831C7.28357 4.42831 6.99631 4.46083 6.87165 4.3199C6.80127 4.21076 6.77242 4.07997 6.79035 3.95134V1.50148C6.79035 1.26299 7.11555 1.04077 7.15349 1.01909L7.19685 1.08413H7.27815V3.5611C7.26638 3.67851 7.2812 3.79707 7.32151 3.90798C7.32151 3.94592 7.48412 3.9405 7.5871 3.90798H7.59794C7.59794 3.90798 8.05322 3.94592 8.32422 4.00012C8.4391 4.03078 8.545 4.08838 8.63317 4.16814C8.71476 4.09737 8.81101 4.04555 8.91501 4.01638C9.18601 3.9676 9.62504 3.92966 9.64672 3.92424C9.73886 3.92424 9.8852 3.92424 9.93398 3.92424C9.9803 3.82799 9.98993 3.71815 9.96108 3.6153V1.08413H10.0424L10.0912 1.01367C10.1237 1.04077 10.4489 1.26299 10.4489 1.49606V3.94592C10.4608 4.07322 10.4303 4.20089 10.3622 4.30906C10.2375 4.44999 9.95024 4.41747 9.91772 4.41205C9.6945 4.38519 9.46886 4.38519 9.24563 4.41205C9.16044 4.4225 9.07782 4.44821 9.00173 4.48793C8.97816 4.51154 8.95279 4.53328 8.92585 4.55297ZM7.11013 1.25757C7.03025 1.31746 6.97449 1.40399 6.95295 1.50148V3.92424C6.94502 3.97997 6.94502 4.03654 6.95295 4.09226L7.12639 3.90798C7.09916 3.79266 7.09002 3.67381 7.09929 3.55568L7.11013 1.25757Z" fill="#221E1F"/>
    <path fill-rule="evenodd" clip-rule="evenodd" d="M12.0065 1.44715C12.0065 1.44715 12.0065 1.21409 12.0932 1.12737C12.1921 1.07224 12.3059 1.0495 12.4184 1.06233H13.7463C13.8547 1.06233 13.8818 1.15447 14.0065 1.15447C14.1311 1.15447 14.1474 1.06233 14.2612 1.06233H15.8601C15.8601 1.06233 16.0553 1.06233 16.104 1.12737C16.1663 1.20743 16.1954 1.30832 16.1853 1.40921V1.71815C16.1853 1.71815 16.6732 1.71815 16.6894 1.92412C16.7057 2.13008 16.1853 2.17344 16.1853 2.17344V3.43631C16.1853 3.43631 16.6894 3.37127 16.6732 3.65311C16.6569 3.93496 16.1853 3.87534 16.1853 3.87534V4.11924C16.1894 4.22252 16.167 4.32513 16.1203 4.41734C16.0065 4.57452 15.6271 4.53116 15.6271 4.53116H12.478C12.478 4.53116 12.207 4.57452 12.104 4.46612C12.0011 4.35772 12.0282 4.15718 12.0282 4.15718V3.91328C12.0282 3.91328 11.4862 3.96748 11.4862 3.66937C11.4862 3.37127 12.0282 3.42005 12.0282 3.42005V2.16802C12.0282 2.16802 11.5241 2.23306 11.4862 1.93496C11.4482 1.63685 12.0282 1.69105 12.0282 1.69105L12.0065 1.44715Z" fill="white"/>
    <path d="M12.3324 4.64507C12.2148 4.65307 12.0986 4.61627 12.0072 4.54209C11.9301 4.42702 11.892 4.29019 11.8987 4.15185V4.02176C11.751 4.03044 11.605 3.98625 11.4868 3.8971C11.4567 3.86747 11.433 3.83198 11.4172 3.79283C11.4013 3.75368 11.3937 3.71169 11.3947 3.66946C11.3941 3.6276 11.4025 3.5861 11.4193 3.54776C11.4362 3.50942 11.461 3.47515 11.4922 3.44724C11.6132 3.35896 11.7599 3.31321 11.9096 3.31716V2.28193C11.7674 2.29317 11.6257 2.25487 11.5085 2.17353C11.4745 2.14584 11.4467 2.11122 11.4271 2.07197C11.4074 2.03272 11.3964 1.98974 11.3947 1.94588C11.3934 1.90491 11.4004 1.86409 11.4153 1.8259C11.4302 1.7877 11.4527 1.75293 11.4814 1.72366C11.6044 1.63073 11.7555 1.58289 11.9096 1.58816V1.45266C11.9026 1.30845 11.9467 1.1664 12.0343 1.05157C12.1539 0.972025 12.2985 0.93923 12.4408 0.959434H13.7578C13.8206 0.959822 13.8815 0.980763 13.9313 1.01905C13.9545 1.03701 13.9832 1.04656 14.0126 1.04615C14.0456 1.04921 14.0786 1.03951 14.1047 1.01905C14.1585 0.980609 14.2229 0.959779 14.289 0.959434H15.8879C15.9204 0.959434 16.1427 0.959434 16.224 1.07325C16.2969 1.1795 16.3295 1.30825 16.3161 1.4364V1.6261C16.4648 1.6229 16.6108 1.66651 16.7334 1.75076C16.7844 1.79691 16.8155 1.86102 16.8202 1.92962C16.8233 1.96741 16.8181 2.00542 16.805 2.041C16.7919 2.07658 16.7712 2.10886 16.7443 2.13559C16.6223 2.23161 16.4713 2.28322 16.3161 2.28193V3.32258C16.459 3.31198 16.6011 3.3523 16.7172 3.4364C16.7477 3.46458 16.7717 3.49904 16.7876 3.5374C16.8035 3.57576 16.8109 3.61712 16.8093 3.65862C16.8071 3.69893 16.7968 3.73839 16.7791 3.77469C16.7614 3.81099 16.7367 3.84339 16.7063 3.87C16.5913 3.94764 16.4549 3.98743 16.3161 3.98382V4.11933C16.3205 4.24361 16.2925 4.3669 16.2348 4.47705C16.0885 4.67759 15.6928 4.63965 15.644 4.63423H12.4787C12.4307 4.64504 12.3814 4.64869 12.3324 4.64507ZM12.1101 3.79412V4.15185C12.1013 4.23447 12.1183 4.31781 12.1589 4.39033C12.2464 4.43288 12.3458 4.44435 12.4408 4.42285H15.6277C15.7687 4.42285 15.9855 4.42285 16.0343 4.34697C16.0687 4.27422 16.0854 4.19436 16.083 4.11391V3.75618H16.1969C16.3153 3.77403 16.4364 3.75511 16.5437 3.70198C16.561 3.68475 16.5708 3.66135 16.5708 3.63694C16.5779 3.61769 16.5779 3.59657 16.5708 3.57732C16.4622 3.5219 16.3381 3.50471 16.2185 3.52854H16.1047V2.06512H16.2077C16.3403 2.07905 16.4737 2.04855 16.5871 1.9784C16.592 1.97121 16.5946 1.96271 16.5946 1.95401C16.5946 1.94531 16.592 1.93682 16.5871 1.92962C16.59 1.92468 16.5915 1.91907 16.5915 1.91336C16.5915 1.90765 16.59 1.90205 16.5871 1.8971C16.4717 1.83816 16.3424 1.81191 16.2131 1.82122H16.1047V1.4093C16.1087 1.32833 16.0858 1.24832 16.0397 1.18166C15.9914 1.17125 15.9416 1.17125 15.8933 1.18166H14.2673C14.2413 1.18195 14.2163 1.19157 14.1969 1.20876C14.1447 1.25091 14.0796 1.27387 14.0126 1.2738C13.9425 1.27234 13.8744 1.24966 13.8174 1.20876C13.7903 1.20876 13.7795 1.18166 13.7578 1.18166H12.4191C12.3323 1.16888 12.2436 1.18208 12.1643 1.2196C12.1236 1.29415 12.1048 1.37871 12.1101 1.4635V1.82122H11.9963C11.865 1.80525 11.732 1.83184 11.6169 1.8971C11.6117 1.90617 11.6089 1.91645 11.6089 1.92691C11.6089 1.93738 11.6117 1.94766 11.6169 1.95672C11.6165 1.97098 11.6191 1.98516 11.6247 1.99827C11.6304 2.01138 11.6388 2.0231 11.6494 2.0326C11.7614 2.08957 11.8883 2.1104 12.0126 2.09222H12.1318V3.53396H12.018C11.8883 3.51634 11.7565 3.54308 11.644 3.60984C11.6342 3.61735 11.6265 3.62731 11.6217 3.63873C11.617 3.65015 11.6153 3.66261 11.6169 3.67488C11.6154 3.68794 11.6171 3.70118 11.6218 3.71345C11.6265 3.72572 11.6341 3.73666 11.644 3.74534C11.7589 3.80559 11.8891 3.83013 12.018 3.8158L12.1101 3.79412Z" fill="#221E1F"/>
    <path d="M14.0977 1.17065H13.9297V4.25466H14.0977V1.17065Z" fill="#221E1F"/>
    <path fill-rule="evenodd" clip-rule="evenodd" d="M14.0502 4.26007C14.101 4.259 14.151 4.27316 14.1937 4.30073C14.2364 4.32831 14.2699 4.36803 14.2898 4.41479C14.3098 4.46156 14.3153 4.51322 14.3056 4.56313C14.296 4.61305 14.2716 4.65893 14.2357 4.69488C14.1997 4.73083 14.1538 4.7552 14.1039 4.76486C14.054 4.77451 14.0023 4.76901 13.9556 4.74906C13.9088 4.72912 13.8691 4.69563 13.8415 4.65292C13.8139 4.6102 13.7998 4.56022 13.8008 4.50939C13.8022 4.4437 13.8289 4.38108 13.8754 4.33462C13.9219 4.28816 13.9845 4.26145 14.0502 4.26007Z" fill="white"/>
    <path d="M14.0491 4.87804C13.9784 4.87804 13.9092 4.85706 13.8504 4.81776C13.7916 4.77845 13.7457 4.72258 13.7186 4.65722C13.6916 4.59185 13.6845 4.51992 13.6983 4.45053C13.7121 4.38114 13.7462 4.3174 13.7962 4.26737C13.8462 4.21734 13.9099 4.18327 13.9793 4.16947C14.0487 4.15567 14.1207 4.16275 14.186 4.18983C14.2514 4.2169 14.3073 4.26275 14.3466 4.32158C14.3859 4.38041 14.4069 4.44957 14.4069 4.52032C14.4076 4.5675 14.3988 4.61435 14.3811 4.65808C14.3634 4.70181 14.3371 4.74154 14.3037 4.7749C14.2703 4.80826 14.2306 4.83459 14.1869 4.85231C14.1432 4.87002 14.0963 4.87878 14.0491 4.87804ZM14.0491 4.37398C14.0103 4.37398 13.9731 4.3894 13.9457 4.41684C13.9182 4.44429 13.9028 4.48151 13.9028 4.52032C13.9028 4.55913 13.9182 4.59636 13.9457 4.6238C13.9731 4.65124 14.0103 4.66666 14.0491 4.66666C14.0683 4.66666 14.0874 4.66288 14.1051 4.65552C14.1229 4.64817 14.139 4.63739 14.1526 4.6238C14.1662 4.61021 14.177 4.59408 14.1843 4.57632C14.1917 4.55857 14.1955 4.53954 14.1955 4.52032C14.1955 4.5011 14.1917 4.48207 14.1843 4.46432C14.177 4.44656 14.1662 4.43043 14.1526 4.41684C14.139 4.40325 14.1229 4.39247 14.1051 4.38512C14.0874 4.37777 14.0683 4.37398 14.0491 4.37398Z" fill="#221E1F"/>
    <path d="M14.3336 4.55297L14.274 4.39579C14.3045 4.37837 14.3335 4.35843 14.3607 4.33616C14.4487 4.2858 14.5469 4.25615 14.648 4.24944C14.8872 4.21675 15.1297 4.21675 15.3689 4.24944C15.4727 4.26672 15.5792 4.24959 15.6724 4.20066C15.7155 4.12487 15.7361 4.03842 15.732 3.95134V1.51774C15.7089 1.42242 15.6533 1.33811 15.5748 1.27925V3.58278C15.5748 3.58278 15.6344 3.89714 15.4989 4.02722C15.4367 4.06885 15.3661 4.09626 15.2921 4.1075C15.2181 4.11875 15.1425 4.11354 15.0708 4.09226C15.0003 4.09226 14.6101 4.13562 14.3716 4.17898C14.2721 4.21007 14.1811 4.26388 14.106 4.33616L14.0193 4.23318L13.9651 4.33616C13.8961 4.26924 13.8127 4.21915 13.7212 4.18982C13.4881 4.14104 13.1033 4.10852 13.022 4.09768C12.8988 4.14857 12.7604 4.14857 12.6372 4.09768L12.4854 4.26028C12.5589 4.2736 12.6341 4.2736 12.7076 4.26028C12.947 4.23064 13.1891 4.23064 13.4285 4.26028C13.5358 4.27261 13.6393 4.30772 13.732 4.36327L13.8187 4.40663L13.7591 4.56381C13.7173 4.54845 13.6773 4.52846 13.6399 4.50419C13.5688 4.45763 13.4863 4.43139 13.4014 4.42831C13.1784 4.3985 12.9523 4.3985 12.7293 4.42831C12.6968 4.42831 12.4041 4.46083 12.2849 4.3199C12.2159 4.21005 12.1854 4.08041 12.1981 3.95134V1.50148C12.1981 1.26299 12.5179 1.04077 12.5559 1.01909L12.6046 1.08413H12.6859V3.5611C12.6698 3.67808 12.6828 3.79726 12.7239 3.90798C12.7239 3.94592 12.8865 3.9405 12.9949 3.90798H13.022C13.022 3.90798 13.4827 3.94592 13.7537 4.00012C13.8665 4.03194 13.9704 4.08945 14.0572 4.16814C14.1403 4.09962 14.2361 4.04805 14.3391 4.01638C14.6101 3.9676 15.0545 3.92966 15.0708 3.92424C15.1575 3.92424 15.3092 3.92424 15.358 3.92424C15.4068 3.92424 15.4014 3.71286 15.3851 3.6153V1.08413H15.4718L15.5152 1.01367C15.5531 1.04077 15.8729 1.26299 15.8729 1.49606V3.94592C15.8895 4.07277 15.8607 4.2014 15.7916 4.30906C15.667 4.44999 15.3743 4.41747 15.3418 4.41205C15.1185 4.38508 14.8929 4.38508 14.6697 4.41205C14.5858 4.42081 14.5047 4.44663 14.4312 4.48793C14.4011 4.51307 14.3684 4.53488 14.3336 4.55297ZM12.5179 1.25757C12.438 1.31746 12.3823 1.40399 12.3607 1.50148V3.92424C12.3555 3.98013 12.3555 4.03638 12.3607 4.09226L12.5342 3.90798C12.5099 3.79222 12.5008 3.67379 12.5071 3.55568L12.5179 1.25757Z" fill="#221E1F"/>
    <path fill-rule="evenodd" clip-rule="evenodd" d="M3.05525 1.85361V1.88613C2.97937 2.0108 2.94143 1.88613 2.78967 2.42814C2.6379 2.97014 2.62164 3.06771 2.56202 3.06771C2.5024 3.06771 2.45362 2.74792 2.3398 2.4173C2.14468 1.87529 2.07422 1.91323 2.07422 1.87529C2.07422 1.83735 2.07422 1.87529 2.07422 1.84277H2.5024C2.5024 1.87529 2.5024 1.88613 2.5024 1.88613C2.5024 1.88613 2.4482 1.97285 2.4482 2.07584C2.4482 2.07584 2.56202 2.47692 2.62164 2.47692C2.68126 2.47692 2.80051 2.0379 2.80051 2.02164C2.80051 2.00538 2.75715 1.94033 2.71921 1.88613V1.85361H3.04983" fill="#221E1F"/>
    <path fill-rule="evenodd" clip-rule="evenodd" d="M3.94021 1.8103H4.09197C4.09197 1.86992 4.13533 1.92954 4.13533 1.96206V2.07589C4.08113 2.07589 4.09197 2.07589 4.09197 2.07589C4.01067 2.07589 3.97273 1.95122 3.89685 1.95122H3.76134C3.7222 2.01051 3.7032 2.08083 3.70714 2.15177V2.24391C3.70609 2.25795 3.70826 2.27205 3.71351 2.28512C3.71875 2.29819 3.72692 2.30989 3.73739 2.31931C3.74785 2.32873 3.76034 2.33563 3.77389 2.33947C3.78744 2.34331 3.80169 2.34399 3.81554 2.34147C3.94563 2.34147 3.97273 2.21681 4.03777 2.21681C4.10281 2.21681 4.09197 2.33063 4.09197 2.40651C4.09197 2.48239 4.09197 2.56369 4.02693 2.56369C3.96189 2.56369 3.94021 2.43361 3.8047 2.43361C3.78233 2.43968 3.76221 2.45214 3.74681 2.46947C3.73141 2.4868 3.72139 2.50824 3.71798 2.53117V2.84011C3.71704 2.8591 3.72027 2.87807 3.72745 2.89568C3.73462 2.91328 3.74557 2.9291 3.75953 2.94202C3.77348 2.95494 3.79009 2.96464 3.8082 2.97045C3.8263 2.97625 3.84546 2.97801 3.86433 2.97561C3.9286 2.97606 3.99129 2.95571 4.04306 2.91762C4.09482 2.87953 4.13289 2.82573 4.15159 2.76423H4.20579C4.22155 2.80435 4.23246 2.84619 4.23831 2.88889V3.00813C4.19853 3.03961 4.15224 3.06183 4.10281 3.07318H3.43072C3.43072 3.07318 3.3982 3.03524 3.38736 3.00813C3.37652 2.98103 3.5066 2.90515 3.5066 2.81843V2.16803C3.5066 1.92954 3.3982 1.99458 3.3982 1.90244V1.85366C3.57706 1.85366 3.70714 1.85366 3.83722 1.85366C3.87402 1.84596 3.90898 1.83124 3.94021 1.8103Z" fill="#221E1F"/>
    <path fill-rule="evenodd" clip-rule="evenodd" d="M8.96094 1.82129H9.50294V1.90259C9.44874 1.90259 9.35118 1.98389 9.35118 2.07603V2.85652C9.35118 3.02996 9.50294 2.96492 9.50294 3.04622V3.14378H8.96094V3.0408C8.96094 2.97034 9.10728 3.0408 9.10728 2.85652V2.07603C9.10357 2.035 9.08765 1.99603 9.06156 1.96414C9.03547 1.93226 9.00042 1.90893 8.96094 1.89717V1.82129Z" fill="#221E1F"/>
    <path fill-rule="evenodd" clip-rule="evenodd" d="M15.1112 1.79956C15.1383 1.79956 15.1979 1.85918 15.1979 2.01636C15.1979 2.0543 15.16 2.04888 15.1979 2.1356H15.1274C15.0848 2.07457 15.0357 2.01825 14.9811 1.96758H14.8348C14.7806 2.05972 14.7914 2.0001 14.7914 2.08682C14.7914 2.29821 15.3063 2.37951 15.3063 2.76975C15.3063 2.93777 15.16 3.11663 15.0624 3.12205H14.7047C14.6804 2.99128 14.6804 2.85716 14.7047 2.72639C14.7047 2.68303 14.7047 2.65051 14.7426 2.65051C14.7806 2.65051 14.8077 3.01365 15.0299 3.01365C15.0698 3.01375 15.1082 2.99868 15.1374 2.97151C15.1665 2.94434 15.1843 2.90709 15.1871 2.86731C15.1871 2.56921 14.6451 2.56921 14.6451 2.12476C14.6412 2.06128 14.6589 1.99834 14.6953 1.94619C14.7317 1.89403 14.7847 1.85573 14.8456 1.8375H15.0136C15.057 1.8375 15.0678 1.79956 15.122 1.79956" fill="#221E1F"/>
    <path fill-rule="evenodd" clip-rule="evenodd" d="M8.56213 2.97576H8.51877C8.51877 2.97576 8.23692 2.68308 8.23692 2.57468C8.23692 2.46628 8.54045 2.42834 8.52419 2.11397C8.526 2.04007 8.50215 1.96781 8.45669 1.90951C8.41123 1.85121 8.34698 1.81046 8.27486 1.79419H7.52148C7.51367 1.82441 7.51367 1.85611 7.52148 1.88633C7.52148 1.88633 7.6895 2.00015 7.67324 2.11939V2.85652C7.67324 2.89988 7.554 2.99202 7.554 3.04622C7.55942 3.08215 7.55942 3.11869 7.554 3.15462H7.99844C8.00123 3.12216 8.00123 3.08952 7.99844 3.05706C7.99844 3.01912 7.92256 2.96492 7.9063 2.8782C7.89032 2.82149 7.89032 2.76147 7.9063 2.70476H7.96592C8.05585 2.88552 8.19245 3.03896 8.36159 3.1492H8.53503C8.53503 3.18172 8.53503 2.97576 8.53503 2.97576" fill="#221E1F"/>
    <path fill-rule="evenodd" clip-rule="evenodd" d="M14.4665 3.00282C14.5106 3.04088 14.5578 3.07531 14.6074 3.1058V3.14374H14.163C14.163 3.14374 14.1305 3.10038 14.1305 3.08412L14.2118 2.93778C14.159 2.88344 14.1101 2.82549 14.0654 2.76433C14.0114 2.75838 13.9568 2.75838 13.9028 2.76433C13.854 2.80769 13.8703 2.81853 13.8107 2.91068C13.751 3.00282 13.8107 2.95946 13.9082 3.05702C13.9017 3.08565 13.8907 3.11308 13.8757 3.13832H13.0193V3.09496C13.0193 3.00282 13.1603 3.03534 13.1603 2.83479V2.19523C13.1603 2.11935 13.1603 1.91881 13.0898 1.91881C12.9967 1.95607 12.9198 2.02523 12.873 2.11393H12.8242V2.02721C12.8242 2.02721 12.8242 1.7291 12.9435 1.7291C13.0217 1.76206 13.1036 1.78571 13.1874 1.79956H13.4963C13.4963 1.79956 13.583 1.75078 13.6535 1.75078C13.7239 1.75078 13.7239 1.78872 13.7239 1.84835C13.7239 1.90797 13.6697 2.13561 13.6155 2.13561C13.5613 2.13561 13.5722 2.03805 13.4746 1.91881H13.3879C13.3635 2.18745 13.3635 2.45775 13.3879 2.72639C13.3825 2.78227 13.3825 2.83854 13.3879 2.89442C13.3879 2.9432 13.4204 3.03534 13.4746 3.03534C13.6535 3.03534 13.7023 2.59631 13.789 2.39035C13.789 2.39035 13.9624 1.76162 14.0058 1.63696L14.4665 3.00282Z" fill="#221E1F"/>
    <path fill-rule="evenodd" clip-rule="evenodd" d="M7.96939 1.93506H8.14283C8.18541 1.96895 8.22008 2.01173 8.24442 2.06041C8.26876 2.10909 8.28218 2.1625 8.28375 2.2169C8.28627 2.23488 8.28627 2.25312 8.28375 2.2711C8.28375 2.36866 8.16993 2.4066 8.15367 2.43912H8.00191C8.00191 2.39576 7.95312 2.36866 7.95312 2.31988C7.95312 2.15186 7.95312 2.1627 7.95312 2.1085C7.95312 2.0543 7.95313 2.03804 7.98565 1.93506" fill="white"/>
    <path fill-rule="evenodd" clip-rule="evenodd" d="M13.9836 2.29272C14.0298 2.36484 14.0594 2.44629 14.0704 2.53121C14.0676 2.55099 14.0676 2.57105 14.0704 2.59083H13.9023C13.9023 2.50411 13.9023 2.52037 13.9023 2.52037C13.9047 2.44351 13.9156 2.36716 13.9349 2.29272H13.9836Z" fill="white"/>
    <path d="M25.27 7.22507V4.00953H23.1976V7.22507H21.7578V0.0217285H23.1976V2.81842H25.27V0.0217285H26.7403V7.22507H25.27Z" fill="#221E1F"/>
    <path d="M32.4347 7.22516L31.9243 5.51486H29.8169L29.3108 7.22516H27.7969L30.1616 0H31.7279L33.9967 7.22516H32.4347ZM31.1782 2.86214C31.104 2.53055 30.8859 1.58814 30.8859 1.58814C30.8859 1.58814 30.6808 2.43457 30.5456 2.97558C30.4103 3.51659 30.3187 3.84818 30.1616 4.31066H31.5621C31.5621 4.31066 31.3265 3.55586 31.1695 2.86214" fill="#221E1F"/>
    <path d="M38.563 7.22509C38.2838 6.74953 38.1703 6.54883 37.8911 6.04272C37.1756 4.73381 36.9574 4.39349 36.6956 4.29751C36.6242 4.26381 36.5474 4.24312 36.4688 4.23643V7.24255H35.0508V0.0217477H37.734C38.016 0.00460826 38.2984 0.047452 38.5626 0.147452C38.8268 0.247453 39.0668 0.402337 39.2668 0.601887C39.4667 0.801437 39.6221 1.04112 39.7227 1.30512C39.8232 1.56912 39.8666 1.85144 39.8501 2.13345C39.8501 3.21548 39.1345 4.10554 38.2401 4.12735C38.3559 4.20928 38.4576 4.30948 38.5412 4.42404C38.9775 4.94323 40.2864 7.22509 40.2864 7.22509H38.563ZM37.8082 1.28702C37.5424 1.20723 37.2653 1.17185 36.9879 1.18231H36.4688V3.13258H36.9574C37.577 3.13258 37.83 3.06714 38.0438 2.89262C38.1378 2.79767 38.2111 2.68432 38.2591 2.55968C38.3072 2.43504 38.3289 2.30181 38.323 2.16835C38.3443 1.98664 38.3054 1.80297 38.2125 1.6454C38.1195 1.48783 37.9775 1.36502 37.8082 1.29575" fill="#221E1F"/>
    <path d="M44.3468 7.27743H43.0379L40.5859 0.0217285H42.1697L43.3652 3.77393C43.4655 4.09243 43.5789 4.49819 43.6967 5.02611C43.8148 4.53832 43.9605 4.05761 44.133 3.58632L45.3547 0.0217285H46.8774L44.3468 7.27743Z" fill="#221E1F"/>
    <path d="M51.1544 7.22516L50.6439 5.51486H48.5322L48.0218 7.22516H46.5078L48.8725 0H50.4389L52.7076 7.22516H51.1544ZM49.8979 2.86214L49.6099 1.58814L49.2652 2.97558C49.13 3.49478 49.0383 3.84818 48.8813 4.31066H50.2905C50.2905 4.31066 50.0549 3.55586 49.8979 2.86214Z" fill="#221E1F"/>
    <path d="M57.2739 7.22509C56.9947 6.74953 56.8813 6.54883 56.602 6.04272C55.8865 4.73381 55.6683 4.39349 55.4066 4.29751C55.3352 4.26381 55.2583 4.24312 55.1797 4.23643V7.24255H53.7617V0.0217477H56.4275C56.7095 0.00460826 56.9919 0.047452 57.2561 0.147452C57.5203 0.247453 57.7603 0.402337 57.9603 0.601887C58.1602 0.801437 58.3156 1.04112 58.4161 1.30512C58.5167 1.56912 58.5601 1.85144 58.5436 2.13345C58.5436 3.21548 57.828 4.10554 56.9336 4.12735C57.0494 4.20928 57.151 4.30948 57.2347 4.42404C57.671 4.94323 58.9798 7.22509 58.9798 7.22509H57.2739ZM56.5191 1.28702C56.2533 1.20723 55.9762 1.17185 55.6989 1.18231H55.1797V3.13258H55.6683C56.2879 3.13258 56.5409 3.06714 56.7547 2.89262C56.8487 2.79767 56.922 2.68432 56.9701 2.55968C57.0181 2.43504 57.0399 2.30181 57.034 2.16835C57.0552 1.98664 57.0164 1.80297 56.9234 1.6454C56.8304 1.48783 56.6885 1.36502 56.5191 1.29575" fill="#221E1F"/>
    <path d="M64.7671 6.14741C64.5662 6.43371 64.3067 6.67398 64.0058 6.85226C63.7049 7.03055 63.3695 7.14276 63.0219 7.18145C62.7514 7.20326 62.411 7.22507 61.9835 7.22507H60.2383V0.0217285H61.665C62.0795 0.0217285 62.6292 0.0435437 62.9215 0.0609958C63.5157 0.101404 64.0752 0.355579 64.4966 0.776531C65.1597 1.43098 65.4826 2.35158 65.4826 3.6474C65.5165 4.5376 65.2608 5.4148 64.754 6.14741M63.4887 1.78439C63.377 1.58505 63.2101 1.4222 63.0081 1.31539C62.8061 1.20859 62.5776 1.16237 62.35 1.18229H61.6868V6.0427H62.4634C63.4189 6.0427 63.8552 5.30535 63.8552 3.78265C63.9106 3.08889 63.7843 2.39265 63.4887 1.76257" fill="#221E1F"/>
    <path d="M21.7578 9.96509H23.0667V17.6135H21.7578V9.96509ZM25.6365 17.6135L23.0623 13.534L25.5492 9.96509H27.1199L24.4672 13.5122L27.2944 17.6135H25.6365Z" fill="#221E1F"/>
    <path d="M28.8558 15.1482V15.2354C28.8558 16.0121 29.1437 16.8279 30.2345 16.8279C30.7529 16.8248 31.2511 16.627 31.6306 16.2738L32.1018 17.0156C31.5449 17.5009 30.8292 17.7648 30.0905 17.7573C28.5111 17.7573 27.5163 16.6185 27.5163 14.8253C27.4572 14.0351 27.7075 13.2529 28.2144 12.6438C28.4231 12.3962 28.6858 12.1998 28.9823 12.0697C29.2788 11.9396 29.6012 11.8793 29.9247 11.8934C30.4914 11.8771 31.0423 12.0821 31.4605 12.4649C31.9491 12.9012 32.1935 13.5949 32.1935 14.8995V15.1525L28.8558 15.1482ZM29.9247 12.7921C29.2397 12.7921 28.8645 13.3332 28.8645 14.2407H30.9325C30.9325 13.3332 30.5355 12.7921 29.9247 12.7921Z" fill="#221E1F"/>
    <path d="M36.5808 17.6134V13.9005C36.5808 13.137 36.4063 12.9275 35.9395 12.9275C35.4704 12.9886 35.037 13.2107 34.7135 13.5558V17.6134H33.5224V13.5034C33.5418 13.0571 33.4691 12.6115 33.3086 12.1945L34.4168 11.8848C34.5479 12.1288 34.6154 12.4019 34.6131 12.6788C35.0693 12.2179 35.6803 11.9427 36.3278 11.9066C37.2004 11.9066 37.785 12.4258 37.785 13.4511V17.6309L36.5808 17.6134Z" fill="#221E1F"/>
    <path d="M42.6151 17.6134V13.9005C42.6151 13.137 42.4406 12.9275 41.9737 12.9275C41.5046 12.9886 41.0713 13.2107 40.7477 13.5558V17.6134H39.561V13.5034C39.5796 13.0575 39.5084 12.6124 39.3516 12.1945L40.4554 11.8848C40.588 12.1284 40.657 12.4015 40.6561 12.6788C41.1092 12.2161 41.7196 11.9405 42.3664 11.9066C43.239 11.9066 43.828 12.4258 43.828 13.4511V17.6309L42.6151 17.6134Z" fill="#221E1F"/>
    <path d="M46.59 15.1483V15.2356C46.59 16.0122 46.878 16.8281 47.9731 16.8281C48.4891 16.8279 48.9861 16.6331 49.3649 16.2827L49.8405 17.0244C49.2831 17.509 48.5677 17.7728 47.8291 17.7661C46.2497 17.7661 45.255 16.6274 45.255 14.8342C45.1946 14.0446 45.4434 13.2624 45.9487 12.6527C46.1587 12.4055 46.4222 12.2094 46.7193 12.0794C47.0164 11.9493 47.3393 11.8888 47.6633 11.9022C48.2301 11.8859 48.7809 12.0909 49.1991 12.4738C49.6878 12.9101 49.9321 13.6038 49.9321 14.9084V15.1614L46.59 15.1483ZM47.6633 12.7923C46.9784 12.7923 46.6031 13.3333 46.6031 14.2408H48.6712C48.6712 13.3333 48.2698 12.7923 47.6633 12.7923Z" fill="#221E1F"/>
    <path d="M54.6867 17.6133C54.63 17.4742 54.5961 17.3269 54.5863 17.177C54.4088 17.3592 54.1953 17.5025 53.9595 17.5979C53.7237 17.6933 53.4706 17.7386 53.2163 17.7311C51.7897 17.7311 50.9258 16.6142 50.9258 14.8689C50.9258 13.1237 51.8987 11.9195 53.2513 11.9195C53.4767 11.9145 53.7006 11.9575 53.9082 12.0455C54.1158 12.1335 54.3023 12.2645 54.4554 12.43C54.4554 12.43 54.4205 11.9937 54.4205 11.5138V9.46753L55.6247 9.65514V15.6674C55.5795 16.3214 55.6399 16.9785 55.8036 17.6133H54.6867ZM54.4205 13.3463C54.2932 13.2037 54.1362 13.0908 53.9606 13.0154C53.785 12.9401 53.595 12.9041 53.404 12.91C52.6317 12.91 52.2783 13.5295 52.2783 14.8777C52.2783 16.1168 52.5183 16.7363 53.4389 16.7363C53.6339 16.7365 53.8259 16.6879 53.9973 16.5949C54.1688 16.502 54.3143 16.3676 54.4205 16.204V13.3463Z" fill="#221E1F"/>
    <path d="M59.8116 17.7354C59.3491 19.0836 58.939 19.7555 57.6301 19.9998L57.233 19.2145C57.9965 19.0051 58.4285 18.6866 58.747 17.6133H58.3587C58.206 16.985 57.9966 16.3742 57.8308 15.8681L56.5742 12.1071L57.8089 11.8977L58.8386 15.3009C58.9259 15.6325 59.1266 16.4745 59.1484 16.5618C59.1484 16.5181 59.3578 15.7241 59.5847 15.0478L60.5009 12.0199H61.8098L59.8116 17.7354Z" fill="#221E1F"/>
    <path d="M65.9032 17.7574C65.0205 17.7599 64.1535 17.5232 63.3945 17.0724L63.8788 16.0995C64.4967 16.4952 65.2132 16.7098 65.9469 16.719C66.8849 16.719 67.4521 16.2827 67.4521 15.5061C67.4521 14.9389 67.0943 14.5855 66.3134 14.3674L65.4931 14.1318C64.9062 14.0137 64.3812 13.6885 64.0141 13.2155C63.7941 12.8853 63.6814 12.4953 63.6912 12.0986C63.6912 10.7504 64.7514 9.83419 66.309 9.83419C67.17 9.82578 68.0132 10.0799 68.7261 10.5628L68.1371 11.4834C67.6065 11.1165 66.9801 10.9133 66.3352 10.8988C65.5804 10.8988 65.083 11.3089 65.083 11.9372C65.083 12.4127 65.3491 12.6571 66.0996 12.8796L67.0071 13.1414C68.1153 13.4642 68.8875 14.171 68.8875 15.3229C68.8875 16.5969 67.8579 17.7792 65.9032 17.7792" fill="#221E1F"/>
    <path d="M72.2563 17.7573C70.7336 17.7573 69.8828 16.684 69.8828 14.8821C69.8828 12.8489 71.1001 11.876 72.3479 11.876C72.6341 11.8635 72.9197 11.911 73.1864 12.0155C73.4532 12.1199 73.6951 12.279 73.8968 12.4824L73.2859 13.2896C73.0417 13.0279 72.7054 12.8714 72.3479 12.8533C72.1636 12.8524 71.9829 12.9052 71.828 13.0051C71.6731 13.105 71.5506 13.2478 71.4753 13.4161C71.2893 13.9132 71.2105 14.444 71.2441 14.9737C71.2441 15.7372 71.3662 16.2215 71.6193 16.5008C71.7136 16.603 71.8284 16.6841 71.9562 16.739C72.084 16.7939 72.2219 16.8212 72.361 16.8193C72.5728 16.8082 72.7802 16.755 72.9713 16.6629C73.1623 16.5707 73.333 16.4415 73.4736 16.2826L74.0495 17.0243C73.8216 17.2698 73.5434 17.4632 73.2339 17.5912C72.9244 17.7192 72.591 17.7788 72.2563 17.766" fill="#221E1F"/>
    <path d="M78.271 17.6133V13.8088C78.271 13.115 78.0267 12.9362 77.5642 12.9362C77.0447 12.9791 76.5604 13.2158 76.2073 13.5993V17.6133H74.9813V10.9597C74.9968 10.5507 74.969 10.1412 74.8984 9.73807L76.1244 9.47192C76.2105 9.9027 76.2485 10.3417 76.2379 10.7808V11.9719C76.2379 12.3297 76.2379 12.6046 76.2379 12.6046C76.6931 12.1509 77.3056 11.8899 77.9482 11.8759C78.2087 11.869 78.4666 11.9297 78.6967 12.052C78.9269 12.1744 79.1214 12.3542 79.2614 12.574C79.4202 12.9159 79.4849 13.2939 79.449 13.6691V17.5959L78.271 17.6133Z" fill="#221E1F"/>
    <path d="M83.2967 17.7574C81.7871 17.7574 80.8359 16.6187 80.8359 14.8255C80.8359 13.0323 81.7958 11.8892 83.2792 11.8892C84.8673 11.8892 85.7748 13.0715 85.7748 14.8386C85.7748 16.6056 84.815 17.7574 83.2967 17.7574ZM83.2967 12.8054C82.5244 12.8054 82.1928 13.39 82.1928 14.7513C82.1928 16.3743 82.5986 16.8499 83.3316 16.8499C84.0645 16.8499 84.4441 16.2653 84.4441 14.8604C84.4441 13.281 84.0078 12.8054 83.2967 12.8054Z" fill="#221E1F"/>
    <path d="M89.2346 17.7574C87.7207 17.7574 86.7695 16.6187 86.7695 14.8255C86.7695 13.0323 87.7294 11.8892 89.2128 11.8892C90.8053 11.8892 91.7084 13.0715 91.7084 14.8386C91.7084 16.6056 90.7486 17.7574 89.2346 17.7574ZM89.2346 12.8054C88.4624 12.8054 88.1308 13.39 88.1308 14.7513C88.1308 16.3743 88.5409 16.8499 89.2695 16.8499C89.9981 16.8499 90.3865 16.2653 90.3865 14.8604C90.3865 13.281 89.9501 12.8054 89.2346 12.8054Z" fill="#221E1F"/>
    <path d="M94.2691 17.7356C93.0431 17.7356 93.0431 16.6274 93.0431 16.1562V11.3918C93.0568 10.8383 93.0189 10.2847 92.9297 9.73822L94.1775 9.45898C94.2711 9.96667 94.3048 10.4836 94.2778 10.9991V15.7548C94.2778 16.5096 94.3128 16.6274 94.4 16.7627C94.448 16.818 94.5125 16.8564 94.5841 16.8721C94.6556 16.8878 94.7303 16.8801 94.797 16.8499L94.9977 17.6004C94.7664 17.694 94.5186 17.74 94.2691 17.7356Z" fill="#221E1F"/>
</svg>
