<svg width="60" height="36" viewBox="0 0 60 36" fill="none" xmlns="http://www.w3.org/2000/svg">
<path fill-rule="evenodd" clip-rule="evenodd" d="M7.57528 16.256C7.57528 16.256 2.06873 13.3741 0.908999 7.20048C0.403251 4.48863 0.568928 0.167969 0.568928 0.167969H14.5206C14.5206 0.167969 14.6863 4.48863 14.1762 7.20048C13.0339 13.3741 7.57528 16.256 7.57528 16.256Z" fill="#221E1F"/>
<path fill-rule="evenodd" clip-rule="evenodd" d="M7.5678 16.0905C7.5678 16.0905 2.23564 13.0952 1.11515 7.11781C0.626842 4.49315 0.783799 0.312012 0.783799 0.312012H14.2995C14.2995 0.312012 14.4608 4.49315 13.9681 7.11781C12.852 13.0952 7.5678 16.0905 7.5678 16.0905Z" fill="white"/>
<path fill-rule="evenodd" clip-rule="evenodd" d="M7.57053 16.0467C7.57053 16.0467 2.24273 13.0515 1.12224 7.07407C0.62957 4.44942 0.790886 0.263916 0.790886 0.263916H14.3066C14.3066 0.263916 14.4635 4.44942 13.9709 7.07407C12.8547 13.0515 7.57053 16.0467 7.57053 16.0467Z" fill="white"/>
<path d="M7.57154 16.1513L7.51922 16.1252C7.4669 16.0947 2.13911 13.0384 1.02298 7.09148C0.543389 4.48427 0.700345 0.303126 0.700345 0.263886V0.167969H14.3991V0.255167C14.3991 0.294406 14.5561 4.47555 14.0678 7.08276C12.9517 13.0384 7.67182 16.0947 7.61514 16.1252L7.57154 16.1513ZM0.879101 0.355444C0.879101 0.97019 0.765744 4.68046 1.21045 7.0566C2.25683 12.6329 7.05707 15.6325 7.57154 15.9377C8.08601 15.6325 12.8427 12.6286 13.889 7.0566C14.325 4.68046 14.2422 0.95275 14.2204 0.355444H0.879101Z" fill="#221E1F"/>
<path fill-rule="evenodd" clip-rule="evenodd" d="M4.85547 13.9408L10.2487 13.9321L9.64699 14.5251L9.2546 14.8477L5.8626 14.8521L5.42661 14.4597L4.85547 13.9408Z" fill="#B9073E"/>
<path fill-rule="evenodd" clip-rule="evenodd" d="M3.39844 12.2319H11.7128L11.3509 12.742L11.0588 13.0603L4.07858 13.069L3.74723 12.6941L3.39844 12.2319Z" fill="#B9073E"/>
<path fill-rule="evenodd" clip-rule="evenodd" d="M2.36133 10.5359H12.7597L12.2801 11.3643H2.83656L2.54444 10.9283L2.36133 10.5359Z" fill="#B9073E"/>
<path fill-rule="evenodd" clip-rule="evenodd" d="M1.13281 7.09148L1.21565 7.54491L1.32029 7.91986L13.8201 7.9155L13.9029 7.50131L13.9858 7.08276L1.13281 7.09148Z" fill="#B9073E"/>
<path fill-rule="evenodd" clip-rule="evenodd" d="M0.770439 0.333496H14.3166L14.2687 2.36521L14.26 4.37512L0.835837 4.37076L0.792238 3.5729L0.761719 2.01642L0.770439 0.333496Z" fill="#B9073E"/>
<path fill-rule="evenodd" clip-rule="evenodd" d="M1.58984 8.7876L1.87324 9.65086L13.1872 9.6465L13.5272 8.7876H1.58984Z" fill="#B9073E"/>
<path fill-rule="evenodd" clip-rule="evenodd" d="M0.908203 5.30835H14.2102L14.1797 5.75742L14.1187 6.21521L1.00412 6.20649L0.921283 5.65714L0.908203 5.30835Z" fill="#B9073E"/>
<path d="M7.56492 16.1951L7.51696 16.169C7.46464 16.1428 2.14121 13.0865 1.02507 7.14397C0.541125 4.52804 0.689362 0.351256 0.689362 0.307657V0.220459H14.3882V0.307657C14.3882 0.351256 14.5408 4.5324 14.0524 7.13525C12.945 13.0865 7.66084 16.1384 7.60852 16.169L7.56492 16.1951ZM0.868117 0.403575C0.850678 1.04012 0.75912 4.72859 1.20383 7.10038C2.2502 12.6767 7.04609 15.6763 7.56492 15.9858C8.07939 15.6763 12.836 12.6767 13.878 7.10038C14.314 4.72859 14.2312 1.01832 14.2138 0.403575H0.868117Z" fill="#221E1F"/>
<path d="M9.28873 14.9044H5.80081V14.7736H9.28873V14.9044ZM10.261 13.9932H4.85036V13.858H10.261V13.9932ZM11.0719 13.1212H4.0525V12.986H11.0719V13.1212ZM11.7041 12.2884H3.37671V12.1577H11.7041V12.2884ZM12.2796 11.4165H2.81864V11.2857H12.2796V11.4165ZM12.7766 10.5837H2.3129V10.4529H12.7766V10.5837ZM13.2126 9.71175H1.85075V9.58095H13.1865L13.2126 9.71175ZM13.5527 8.83977H1.57171V8.70897H13.5353L13.5527 8.83977ZM13.7925 7.96779H1.2796V7.83699H13.7751L13.7925 7.96779ZM13.9931 7.13941H1.07469V7.00425H13.9756L13.9931 7.13941ZM14.1282 6.26743H0.948249V6.13227H14.1108L14.1282 6.26743ZM14.1936 5.39981H0.89593V5.26901H14.1936V5.39981ZM14.2372 4.48859H0.826172V4.33164H14.2372V4.48859ZM4.44053 3.61661L4.21381 3.35502L4.31409 3.26782L4.5408 3.52942L4.44053 3.61661Z" fill="#221E1F"/>
<path d="M1.9832 3.26641L1.75195 3.51807L1.85197 3.60997L2.08322 3.35832L1.9832 3.26641Z" fill="white"/>
<path fill-rule="evenodd" clip-rule="evenodd" d="M1.49452 1.33197C1.49452 1.33197 1.49452 1.14449 1.56428 1.07474C1.64578 1.03636 1.73716 1.02418 1.82587 1.03986H2.89405C2.98124 1.03986 3.00304 1.11398 3.10332 1.11398C3.2036 1.11398 3.21668 1.03986 3.30824 1.03986H4.59441C4.59441 1.03986 4.75136 1.03986 4.79496 1.09218C4.84267 1.15758 4.86442 1.23837 4.856 1.31889V1.5674C4.856 1.5674 5.25275 1.5674 5.26147 1.73308C5.27019 1.89876 4.856 1.91184 4.856 1.91184V2.93205C4.856 2.93205 5.26147 2.87973 5.24839 3.10645C5.23531 3.33316 4.856 3.2852 4.856 3.2852V3.4814C4.85926 3.56448 4.84125 3.64702 4.80368 3.72119C4.71212 3.84763 4.40693 3.81275 4.40693 3.81275H1.85203C1.85203 3.81275 1.63404 3.84763 1.5512 3.76043C1.46836 3.67323 1.49016 3.51192 1.49016 3.51192V3.31572C1.49016 3.31572 1.05417 3.35932 1.05417 3.11953C1.05417 2.87973 1.49016 2.91897 1.49016 2.91897V1.91184C1.49016 1.91184 1.08469 1.96415 1.05417 1.72436C1.02365 1.48457 1.49016 1.52817 1.49016 1.52817L1.49452 1.33197Z" fill="white"/>
<path d="M1.76101 3.90464C1.66506 3.91176 1.57 3.88215 1.49506 3.8218C1.43333 3.72942 1.40559 3.61846 1.41658 3.50789V3.40325C1.29639 3.41014 1.17759 3.37465 1.08087 3.30298C1.05187 3.28155 1.02789 3.25408 1.01057 3.22246C0.993253 3.19084 0.983024 3.15583 0.980592 3.11986C0.980127 3.08618 0.986891 3.0528 1.00043 3.02196C1.01397 2.99113 1.03396 2.96355 1.05907 2.9411C1.16242 2.86565 1.28886 2.82864 1.41658 2.83647V2.00373C1.29886 2.01246 1.18176 1.98011 1.08523 1.91217C1.05596 1.89165 1.03146 1.86506 1.0134 1.83421C0.995342 1.80336 0.984151 1.76898 0.980592 1.73341C0.979544 1.70045 0.985185 1.66762 0.997174 1.63689C1.00916 1.60617 1.02725 1.5782 1.05035 1.55466C1.1558 1.47636 1.28548 1.43776 1.41658 1.44566V1.33666C1.40686 1.22088 1.44111 1.10569 1.5125 1.01403C1.61223 0.946797 1.73391 0.920278 1.85257 0.939911H2.89459C2.94508 0.940224 2.99409 0.957069 3.0341 0.98787C3.05311 1.00175 3.07597 1.00937 3.0995 1.00967C3.12135 1.00764 3.14235 1.00014 3.16054 0.98787C3.20174 0.956153 3.25243 0.939256 3.30442 0.939911H4.59495C4.62111 0.939911 4.79986 0.939911 4.86526 1.03147C4.9239 1.11693 4.95018 1.2205 4.93938 1.32358V1.47618C5.05902 1.47361 5.17646 1.50868 5.27509 1.57646C5.31609 1.61358 5.3411 1.66515 5.34485 1.72033C5.34736 1.75073 5.3432 1.7813 5.33266 1.80992C5.32211 1.83854 5.30544 1.86451 5.28381 1.88601C5.18571 1.96325 5.06423 2.00477 4.93938 2.00373V2.84083C5.0544 2.83192 5.16882 2.86439 5.26201 2.93238C5.28655 2.95505 5.30589 2.98277 5.31868 3.01363C5.33148 3.04449 5.33743 3.07776 5.33613 3.11114C5.33432 3.14357 5.32607 3.17531 5.31184 3.20451C5.29762 3.2337 5.27771 3.25977 5.25329 3.28118C5.16074 3.34363 5.051 3.37564 4.93938 3.37273V3.48173C4.94313 3.58225 4.91898 3.68184 4.86962 3.76948C4.75626 3.9308 4.43363 3.90028 4.39875 3.89592H1.85257L1.76101 3.90464ZM1.5779 3.22014V3.50789C1.57019 3.57438 1.58394 3.6416 1.61714 3.69973C1.6894 3.73785 1.77298 3.74868 1.85257 3.73025H4.40747C4.52083 3.73025 4.69086 3.73025 4.73446 3.67357C4.76192 3.61342 4.77534 3.54782 4.7737 3.48173V3.18962H4.86526C4.96054 3.20456 5.05811 3.18931 5.14429 3.14602C5.15065 3.12916 5.15065 3.11056 5.14429 3.0937C5.14996 3.07822 5.14996 3.06123 5.14429 3.04574C5.05693 3.00116 4.95709 2.98733 4.8609 3.0065H4.76934V1.82933H4.85218C4.95883 1.84053 5.06618 1.816 5.15737 1.75957C5.16131 1.75379 5.16341 1.74695 5.16341 1.73995C5.16341 1.73295 5.16131 1.72612 5.15737 1.72033C5.15967 1.71636 5.16088 1.71185 5.16088 1.70725C5.16088 1.70266 5.15967 1.69815 5.15737 1.69417C5.0644 1.64717 4.96048 1.62609 4.85654 1.63313H4.76934V1.30178C4.77252 1.23665 4.75413 1.17229 4.71702 1.11867C4.67826 1.11002 4.63807 1.11002 4.59931 1.11867H3.29134C3.27051 1.11927 3.25052 1.12696 3.23466 1.14047C3.1927 1.17437 3.14037 1.19284 3.08642 1.19279C3.03115 1.1928 2.97746 1.17439 2.93383 1.14047C2.90767 1.14047 2.89895 1.11867 2.88151 1.11867H1.82641C1.75659 1.10839 1.68529 1.11901 1.6215 1.14919C1.58873 1.20916 1.57361 1.27718 1.5779 1.34538V1.63313H1.48634C1.3807 1.62028 1.27372 1.64168 1.18115 1.69417C1.17694 1.70146 1.17472 1.70973 1.17472 1.71815C1.17472 1.72657 1.17694 1.73484 1.18115 1.74213C1.18078 1.7536 1.18293 1.76501 1.18745 1.77555C1.19197 1.7861 1.19875 1.79553 1.20731 1.80317C1.29718 1.84956 1.39943 1.86635 1.49942 1.85113H1.59534V3.01086H1.48634C1.38206 2.99703 1.27615 3.01852 1.18551 3.0719C1.1776 3.07794 1.17142 3.08596 1.1676 3.09514C1.16377 3.10432 1.16243 3.11435 1.16371 3.12422C1.16249 3.13473 1.16383 3.14537 1.16763 3.15524C1.17143 3.16511 1.17756 3.17392 1.18551 3.1809C1.27871 3.22681 1.38448 3.2406 1.48634 3.22014H1.5779Z" fill="#221E1F"/>
<path d="M3.17617 1.10962H3.04102V3.5904H3.17617V1.10962Z" fill="#221E1F"/>
<path fill-rule="evenodd" clip-rule="evenodd" d="M3.15763 3.59477C3.19852 3.59391 3.23873 3.6053 3.27309 3.62748C3.30744 3.64967 3.33438 3.68162 3.35043 3.71924C3.36647 3.75685 3.3709 3.79841 3.36313 3.83856C3.35536 3.87871 3.33576 3.91562 3.30684 3.94454C3.27793 3.97346 3.24102 3.99306 3.20086 4.00083C3.16071 4.00859 3.11916 4.00417 3.08154 3.98812C3.04392 3.97208 3.01197 3.94514 2.98979 3.91078C2.96761 3.87642 2.95622 3.83621 2.95708 3.79533C2.95819 3.74249 2.97968 3.69212 3.01705 3.65474C3.05442 3.61737 3.10479 3.59588 3.15763 3.59477Z" fill="white"/>
<path d="M3.15885 4.09186C3.10193 4.09186 3.0463 4.07499 2.99898 4.04337C2.95166 4.01175 2.91478 3.96681 2.893 3.91423C2.87122 3.86165 2.86552 3.80379 2.87662 3.74797C2.88773 3.69215 2.91513 3.64088 2.95537 3.60064C2.99562 3.5604 3.04689 3.53299 3.10271 3.52189C3.15853 3.51078 3.21639 3.51648 3.26897 3.53826C3.32155 3.56004 3.36649 3.59692 3.39811 3.64424C3.42972 3.69156 3.4466 3.7472 3.4466 3.80411C3.44719 3.84206 3.44015 3.87974 3.4259 3.91492C3.41164 3.9501 3.39047 3.98206 3.36363 4.00889C3.33679 4.03573 3.30484 4.05691 3.26966 4.07116C3.23448 4.08541 3.1968 4.09245 3.15885 4.09186ZM3.15885 3.68639C3.14339 3.68639 3.12808 3.68944 3.1138 3.69535C3.09952 3.70127 3.08654 3.70994 3.07561 3.72087C3.06468 3.7318 3.05601 3.74478 3.05009 3.75906C3.04417 3.77334 3.04113 3.78865 3.04113 3.80411C3.04113 3.81957 3.04417 3.83488 3.05009 3.84916C3.05601 3.86344 3.06468 3.87642 3.07561 3.88735C3.08654 3.89828 3.09952 3.90695 3.1138 3.91287C3.12808 3.91878 3.14339 3.92183 3.15885 3.92183C3.17431 3.92183 3.18961 3.91878 3.2039 3.91287C3.21818 3.90695 3.23115 3.89828 3.24209 3.88735C3.25302 3.87642 3.26169 3.86344 3.2676 3.84916C3.27352 3.83488 3.27656 3.81957 3.27656 3.80411C3.27656 3.78865 3.27352 3.77334 3.2676 3.75906C3.26169 3.74478 3.25302 3.7318 3.24209 3.72087C3.23115 3.70994 3.21818 3.70127 3.2039 3.69535C3.18961 3.68944 3.17431 3.68639 3.15885 3.68639Z" fill="#221E1F"/>
<path d="M3.36265 3.83041L3.31469 3.70397C3.33924 3.68997 3.36258 3.67392 3.38445 3.65601C3.45789 3.60896 3.54169 3.58052 3.6286 3.57318C3.821 3.54688 4.01607 3.54688 4.20847 3.57318C4.29468 3.59412 4.38547 3.58489 4.4657 3.54702C4.49582 3.48473 4.5079 3.41526 4.50058 3.34646V1.38887C4.48197 1.31219 4.43727 1.24437 4.37414 1.19703V3.04999C4.37414 3.04999 4.4221 3.30286 4.31311 3.4075C4.26306 3.44099 4.20626 3.46304 4.14673 3.47208C4.0872 3.48112 4.0264 3.47694 3.96867 3.45982C3.912 3.45982 3.59808 3.4947 3.40625 3.52958C3.32775 3.55519 3.25616 3.59844 3.19697 3.65601L3.12721 3.56882L3.06618 3.65601C3.01072 3.60218 2.94358 3.56189 2.86998 3.5383C2.6825 3.49906 2.37295 3.4729 2.30755 3.46418C2.20843 3.50512 2.09712 3.50512 1.998 3.46418L1.87592 3.59498C1.93487 3.60732 1.99573 3.60732 2.05468 3.59498C2.24869 3.57108 2.4449 3.57108 2.63891 3.59498C2.72217 3.59874 2.80377 3.61951 2.8787 3.65601L2.94846 3.69089L2.9005 3.81733C2.86683 3.80498 2.83466 3.78889 2.80458 3.76937C2.7474 3.73192 2.68106 3.71081 2.61275 3.70833C2.43333 3.68435 2.25153 3.68435 2.07212 3.70833C2.04596 3.70833 1.81053 3.73449 1.71461 3.62114C1.65915 3.53277 1.63462 3.42849 1.64485 3.32466V1.37579C1.64485 1.18395 1.90208 1.0052 1.9326 0.987758L1.97184 1.04008H2.03724V3.03255C2.02423 3.12665 2.03471 3.22252 2.06776 3.31158C2.06776 3.3421 2.19856 3.33774 2.28575 3.31158C2.28575 3.31158 2.65635 3.3421 2.87434 3.3857C2.97897 3.40527 3.07667 3.45187 3.15773 3.52086C3.2246 3.46573 3.30162 3.42426 3.38445 3.39878C3.60244 3.35954 3.95995 3.32902 3.97303 3.32466C4.04279 3.32466 4.16487 3.32466 4.19975 3.32466C4.23463 3.32466 4.23899 3.15463 4.22591 3.07615V1.04008H4.29567L4.33055 0.983398C4.36106 1.0052 4.6183 1.18395 4.6183 1.37143V3.3421C4.63717 3.45125 4.61378 3.56348 4.5529 3.65601C4.45262 3.76937 4.21719 3.74321 4.19103 3.73885C4.01147 3.71716 3.82996 3.71716 3.6504 3.73885C3.58296 3.7459 3.51768 3.76667 3.45857 3.79989C3.42788 3.81373 3.39569 3.82397 3.36265 3.83041ZM1.90208 1.17959C1.83887 1.22796 1.79546 1.29771 1.78001 1.37579V3.32466C1.77357 3.36948 1.77357 3.415 1.78001 3.45982L1.91952 3.31158C1.90724 3.21752 1.90724 3.12226 1.91952 3.02819L1.90208 1.17959Z" fill="#221E1F"/>
<path fill-rule="evenodd" clip-rule="evenodd" d="M5.83927 1.332C5.83927 1.332 5.83927 1.14452 5.91339 1.07476C5.98751 1.00501 6.17062 1.02245 6.17062 1.02245H7.24316C7.326 1.02245 7.3478 1.09656 7.44807 1.09656C7.54835 1.09656 7.56143 1.03989 7.65735 1.03989H8.94352C8.94352 1.03989 9.09611 1.03989 9.13971 1.0922C9.18742 1.15761 9.20917 1.2384 9.20075 1.31892V1.56743C9.20075 1.56743 9.5975 1.56743 9.60622 1.73311C9.61494 1.89878 9.20075 1.93366 9.20075 1.93366V2.93208C9.20075 2.93208 9.60622 2.87976 9.5975 3.10648C9.58878 3.33319 9.20075 3.28523 9.20075 3.28523V3.48143C9.20401 3.56451 9.186 3.64705 9.14843 3.72122C9.05688 3.84766 8.75604 3.81278 8.75604 3.81278H6.20986C6.20986 3.81278 5.99623 3.84766 5.90903 3.76046C5.86428 3.68559 5.84302 3.59903 5.84799 3.51195V3.31575C5.84799 3.31575 5.412 3.35935 5.412 3.11956C5.412 2.87976 5.84799 2.919 5.84799 2.919V1.91186C5.84799 1.91186 5.44688 1.96418 5.412 1.72439C5.37712 1.48459 5.84799 1.52819 5.84799 1.52819L5.83927 1.332Z" fill="white"/>
<path d="M6.10719 3.90429C6.0125 3.91209 5.91854 3.88234 5.8456 3.82145C5.78145 3.72988 5.75067 3.61908 5.7584 3.50754V3.4029C5.6383 3.40906 5.51974 3.37364 5.42269 3.30263C5.39668 3.27973 5.37584 3.25156 5.36155 3.21999C5.34727 3.18842 5.33987 3.15416 5.33985 3.11951C5.33962 3.08627 5.34606 3.05333 5.35879 3.02262C5.37153 2.99192 5.39029 2.96408 5.41397 2.94076C5.51913 2.86564 5.64681 2.82872 5.77584 2.83612V2.00338C5.66029 2.01037 5.54558 1.97978 5.44885 1.91618C5.42285 1.893 5.40175 1.86486 5.38678 1.83342C5.37181 1.80197 5.36326 1.76785 5.36165 1.73306C5.3595 1.69998 5.36463 1.66683 5.37668 1.63594C5.38874 1.60506 5.40742 1.57719 5.43141 1.55431C5.53032 1.47956 5.65193 1.44107 5.77584 1.44531V1.33631C5.7682 1.22007 5.80393 1.10512 5.87612 1.01368C5.97065 0.949595 6.08572 0.923159 6.19875 0.939562H7.26256C7.31306 0.939875 7.36206 0.95672 7.40208 0.987521C7.42062 1.00229 7.44379 1.01001 7.46748 1.00932C7.48659 1.00701 7.5047 0.999463 7.5198 0.987521C7.56234 0.955175 7.61461 0.938262 7.66803 0.939562H8.9542C8.98036 0.939562 9.15476 0.939562 9.22016 1.03112C9.28189 1.11516 9.30848 1.21993 9.29428 1.32323V1.47583C9.414 1.47266 9.53162 1.50779 9.62999 1.57611C9.65106 1.59385 9.66817 1.61583 9.68019 1.64062C9.69221 1.66541 9.69887 1.69245 9.69975 1.71998C9.70226 1.75038 9.6981 1.78096 9.68755 1.80957C9.67701 1.83819 9.66034 1.86416 9.63871 1.88566C9.54229 1.9629 9.42217 2.00448 9.29864 2.00338V2.84048C9.41339 2.8341 9.52697 2.86634 9.62127 2.93204C9.6456 2.9541 9.66505 2.98102 9.67836 3.01106C9.69166 3.04109 9.69854 3.07358 9.69854 3.10643C9.69854 3.13928 9.69166 3.17177 9.67836 3.20181C9.66505 3.23184 9.6456 3.25876 9.62127 3.28083C9.53006 3.34268 9.42189 3.37467 9.31172 3.37238V3.48138C9.31546 3.5819 9.29132 3.68149 9.24196 3.76914C9.12424 3.93045 8.80597 3.89993 8.77109 3.89557H6.21183L6.10719 3.90429ZM5.92408 3.21979V3.50754C5.92129 3.57373 5.93476 3.6396 5.96331 3.69938C6.03372 3.73361 6.11368 3.74283 6.19003 3.72554H8.75801C8.87137 3.72554 9.0414 3.72554 9.085 3.66886C9.11096 3.60837 9.12288 3.54278 9.11988 3.47702V3.18927H9.21144C9.30672 3.20451 9.40438 3.18925 9.49047 3.14567C9.49815 3.13918 9.50443 3.1312 9.50893 3.1222C9.51343 3.11321 9.51605 3.10339 9.51663 3.09335C9.51977 3.08651 9.52139 3.07908 9.52139 3.07155C9.52139 3.06403 9.51977 3.05659 9.51663 3.04975C9.42978 3.00368 9.32992 2.98832 9.23324 3.00615H9.13732V1.82898H9.22452C9.33117 1.84018 9.43852 1.81565 9.52971 1.75922C9.53403 1.7465 9.53403 1.73271 9.52971 1.71998C9.52971 1.65895 9.34223 1.62843 9.21144 1.63279H9.12424V1.30143C9.13256 1.23649 9.11537 1.17085 9.07628 1.11832C9.03749 1.10995 8.99736 1.10995 8.95856 1.11832H7.65059C7.6297 1.11856 7.60959 1.12629 7.59392 1.14012C7.55028 1.17404 7.49659 1.19245 7.44132 1.19244C7.38636 1.19066 7.33321 1.17244 7.28872 1.14012C7.26256 1.14012 7.25384 1.11832 7.24076 1.11832H6.17259C6.10419 1.10813 6.03431 1.11876 5.97203 1.14884C5.93775 1.20836 5.92112 1.27641 5.92408 1.34503V1.63279H5.83688C5.72984 1.61991 5.62147 1.64128 5.52733 1.69382C5.52409 1.7014 5.52242 1.70956 5.52242 1.7178C5.52242 1.72605 5.52409 1.7342 5.52733 1.74178C5.52779 1.75354 5.53075 1.76507 5.53601 1.77559C5.54127 1.78612 5.54871 1.7954 5.55784 1.80282C5.64753 1.8498 5.74996 1.86661 5.84996 1.85078H5.94152V3.01051H5.85432C5.74863 2.99637 5.64124 3.01784 5.54912 3.07155C5.54276 3.08841 5.54276 3.10701 5.54912 3.12387C5.54878 3.1347 5.55097 3.14546 5.55551 3.1553C5.56005 3.16514 5.56682 3.17378 5.57528 3.18055C5.66604 3.22918 5.76947 3.24895 5.87176 3.23723L5.92408 3.21979Z" fill="#221E1F"/>
<path d="M7.52383 1.10962H7.38867V3.5904H7.52383V1.10962Z" fill="#221E1F"/>
<path fill-rule="evenodd" clip-rule="evenodd" d="M7.48863 3.59471C7.53729 3.60186 7.58175 3.62628 7.6139 3.6635C7.64605 3.70072 7.66374 3.74826 7.66374 3.79744C7.66374 3.84663 7.64605 3.89417 7.6139 3.93139C7.58175 3.96861 7.53729 3.99302 7.48863 4.00018C7.45952 4.00446 7.42982 4.00242 7.40156 3.9942C7.3733 3.98597 7.34715 3.97176 7.32488 3.95252C7.30261 3.93329 7.28474 3.90948 7.27249 3.88272C7.26024 3.85596 7.25391 3.82687 7.25391 3.79744C7.25391 3.76801 7.26024 3.73893 7.27249 3.71217C7.28474 3.68541 7.30261 3.6616 7.32488 3.64237C7.34715 3.62313 7.3733 3.60892 7.40156 3.60069C7.42982 3.59247 7.45952 3.59043 7.48863 3.59471Z" fill="white"/>
<path d="M7.48697 4.09186C7.43006 4.09186 7.37443 4.07499 7.32711 4.04337C7.27978 4.01175 7.2429 3.96681 7.22112 3.91423C7.19934 3.86165 7.19364 3.80379 7.20475 3.74797C7.21585 3.69215 7.24326 3.64088 7.2835 3.60064C7.32374 3.5604 7.37502 3.53299 7.43083 3.52189C7.48665 3.51078 7.54451 3.51648 7.59709 3.53826C7.64967 3.56004 7.69461 3.59692 7.72623 3.64424C7.75785 3.69156 7.77473 3.7472 7.77473 3.80411C7.77473 3.88043 7.74441 3.95362 7.69044 4.00758C7.63648 4.06155 7.56329 4.09186 7.48697 4.09186ZM7.48697 3.68639C7.46369 3.68639 7.44093 3.6933 7.42157 3.70623C7.40221 3.71917 7.38713 3.73755 7.37822 3.75906C7.36931 3.78057 7.36697 3.80424 7.37152 3.82708C7.37606 3.84991 7.38727 3.87089 7.40373 3.88735C7.4202 3.90381 7.44117 3.91502 7.46401 3.91957C7.48684 3.92411 7.51051 3.92178 7.53202 3.91287C7.55353 3.90396 7.57192 3.88887 7.58485 3.86951C7.59779 3.85015 7.60469 3.82739 7.60469 3.80411C7.60589 3.78793 7.60374 3.77168 7.59836 3.75638C7.59299 3.74108 7.58451 3.72705 7.57345 3.71518C7.5624 3.7033 7.54901 3.69384 7.53413 3.68739C7.51925 3.68094 7.50319 3.67763 7.48697 3.67767V3.68639Z" fill="#221E1F"/>
<path d="M7.71416 3.83041L7.6662 3.70397C7.70108 3.70397 7.71416 3.67781 7.73596 3.66909C7.80729 3.62102 7.88996 3.59246 7.97576 3.58626C8.16962 3.56004 8.36612 3.56004 8.55998 3.58626C8.6341 3.58626 8.76054 3.58626 8.79978 3.54702C8.82919 3.48453 8.83833 3.41441 8.82594 3.34646V1.38887C8.80732 1.31219 8.76262 1.24437 8.6995 1.19703V3.04999C8.6995 3.04999 8.75182 3.30286 8.63846 3.4075C8.58921 3.4409 8.53314 3.46293 8.47432 3.47198C8.4155 3.48103 8.35541 3.47687 8.29839 3.45982C8.23735 3.45982 7.9278 3.4947 7.73596 3.52958C7.66262 3.55373 7.59559 3.59395 7.53977 3.6473L7.47437 3.56882L7.41769 3.65601C7.3609 3.60394 7.29416 3.5639 7.22149 3.5383C7.02966 3.49906 6.72011 3.4729 6.65907 3.46418C6.55994 3.50512 6.44864 3.50512 6.34952 3.46418L6.22308 3.59498C6.28343 3.60794 6.34584 3.60794 6.40619 3.59498C6.59874 3.57104 6.79351 3.57104 6.98606 3.59498C7.07201 3.60666 7.1549 3.63479 7.23021 3.67781L7.29997 3.71269L7.25201 3.83913C7.21835 3.82678 7.18618 3.81069 7.1561 3.79117C7.09711 3.75414 7.02949 3.7331 6.9599 3.73013C6.78049 3.70615 6.59869 3.70615 6.41927 3.73013C6.39311 3.73013 6.16204 3.75629 6.06176 3.64294C6.00515 3.55514 5.98194 3.44993 5.99636 3.34646V1.37579C5.99636 1.18395 6.25796 1.0052 6.28848 0.987758L6.32336 1.04008H6.38875V3.03255C6.37928 3.127 6.39121 3.22237 6.42363 3.31158C6.42363 3.3421 6.55443 3.33774 6.63727 3.31158H6.64599C6.64599 3.31158 7.01222 3.3421 7.23021 3.3857C7.32262 3.41036 7.40781 3.4567 7.47873 3.52086C7.54436 3.46393 7.62179 3.42224 7.70544 3.39878C7.92344 3.35954 8.27659 3.32902 8.29403 3.32466C8.36815 3.32466 8.48586 3.32466 8.5251 3.32466C8.56236 3.24724 8.57011 3.15888 8.5469 3.07615V1.04008H8.6123L8.65154 0.983398C8.6777 1.0052 8.93929 1.18395 8.93929 1.37143V3.3421C8.94888 3.4445 8.92435 3.5472 8.86954 3.63422C8.76926 3.74757 8.53818 3.72141 8.51202 3.71705C8.33246 3.69545 8.15096 3.69545 7.9714 3.71705C7.90287 3.72547 7.83641 3.74614 7.7752 3.77809C7.75624 3.79708 7.73583 3.81458 7.71416 3.83041ZM6.2536 1.17959C6.18934 1.22776 6.14448 1.29737 6.12716 1.37579V3.32466C6.12078 3.36949 6.12078 3.41499 6.12716 3.45982L6.26668 3.31158C6.24477 3.21882 6.23742 3.12321 6.24488 3.02819L6.2536 1.17959Z" fill="#221E1F"/>
<path fill-rule="evenodd" clip-rule="evenodd" d="M10.1915 1.33214C10.1915 1.33214 10.1915 1.14466 10.2612 1.0749C10.3408 1.03056 10.4323 1.01226 10.5228 1.02258H11.591C11.6782 1.02258 11.7 1.0967 11.8003 1.0967C11.9005 1.0967 11.9136 1.02258 12.0052 1.02258H13.2914C13.2914 1.02258 13.4483 1.02258 13.4876 1.0749C13.5376 1.1393 13.561 1.22046 13.5529 1.30162V1.55013C13.5529 1.55013 13.9453 1.55013 13.9584 1.71581C13.9715 1.88148 13.5529 1.91636 13.5529 1.91636V2.93222C13.5529 2.93222 13.9584 2.8799 13.9453 3.10661C13.9323 3.33333 13.5529 3.28537 13.5529 3.28537V3.48156C13.5562 3.56465 13.5382 3.64718 13.5006 3.72136C13.4091 3.8478 13.1039 3.81292 13.1039 3.81292H10.5708C10.5708 3.81292 10.3528 3.8478 10.2699 3.7606C10.1871 3.6734 10.2089 3.51208 10.2089 3.51208V3.31589C10.2089 3.31589 9.77292 3.35949 9.77292 3.11969C9.77292 2.8799 10.2089 2.91914 10.2089 2.91914V1.912C10.2089 1.912 9.80344 1.96432 9.77292 1.72453C9.7424 1.48473 10.2089 1.52833 10.2089 1.52833L10.1915 1.33214Z" fill="white"/>
<path d="M10.4536 3.90447C10.3591 3.9109 10.2656 3.88131 10.192 3.82163C10.13 3.72907 10.0994 3.61901 10.1048 3.50772V3.40308C9.98596 3.41006 9.8685 3.37451 9.77346 3.3028C9.74924 3.27897 9.73017 3.25042 9.71742 3.21893C9.70468 3.18743 9.69852 3.15366 9.69934 3.11969C9.69888 3.08601 9.70564 3.05263 9.71918 3.02179C9.73272 2.99096 9.75272 2.96338 9.77782 2.94093C9.87509 2.86992 9.99314 2.83312 10.1135 2.8363V2.00356C9.99915 2.0126 9.88515 1.98179 9.7909 1.91636C9.76351 1.89409 9.74118 1.86624 9.72539 1.83467C9.7096 1.80309 9.70072 1.76852 9.69934 1.73324C9.69829 1.70028 9.70394 1.66745 9.71592 1.63672C9.72791 1.606 9.746 1.57803 9.7691 1.55449C9.86802 1.47973 9.98962 1.44125 10.1135 1.44549V1.33649C10.1079 1.22049 10.1434 1.10622 10.2138 1.01386C10.31 0.949869 10.4264 0.923489 10.5408 0.93974H11.6003C11.6508 0.940053 11.6998 0.956898 11.7398 0.987699C11.7585 1.00214 11.7815 1.00983 11.8052 1.0095C11.8318 1.01195 11.8583 1.00415 11.8793 0.987699C11.9226 0.956774 11.9743 0.940019 12.0275 0.93974H13.3137C13.3399 0.93974 13.5186 0.93974 13.584 1.0313C13.6427 1.11676 13.6689 1.22033 13.6581 1.32341V1.47601C13.7778 1.47344 13.8952 1.50851 13.9938 1.57629C14.0348 1.61341 14.0598 1.66498 14.0636 1.72016C14.0661 1.75056 14.062 1.78113 14.0514 1.80975C14.0409 1.83837 14.0242 1.86434 14.0026 1.88584C13.9045 1.96308 13.783 2.0046 13.6581 2.00356V2.84066C13.7731 2.83213 13.8874 2.86456 13.9808 2.93221C14.0053 2.95488 14.0246 2.9826 14.0374 3.01346C14.0502 3.04432 14.0562 3.07759 14.0549 3.11097C14.0531 3.1434 14.0448 3.17514 14.0306 3.20433C14.0164 3.23353 13.9965 3.2596 13.972 3.281C13.8795 3.34346 13.7697 3.37547 13.6581 3.37256V3.48156C13.6617 3.58153 13.6392 3.68071 13.5927 3.76931C13.475 3.93063 13.1567 3.90011 13.1175 3.89575H10.5713C10.5327 3.90445 10.4931 3.90738 10.4536 3.90447ZM10.2748 3.21997V3.50772C10.2677 3.57419 10.2815 3.64122 10.3141 3.69956C10.3845 3.73379 10.4645 3.74301 10.5408 3.72571H13.1044C13.2178 3.72571 13.3922 3.72571 13.4314 3.66468C13.4591 3.60616 13.4726 3.54191 13.4707 3.4772V3.18945H13.5622C13.6575 3.20381 13.7549 3.18859 13.8412 3.14585C13.8552 3.13199 13.863 3.11317 13.863 3.09353C13.8687 3.07805 13.8687 3.06105 13.863 3.04557C13.7757 3.00099 13.6758 2.98716 13.5796 3.00633H13.4881V1.82916H13.5709C13.6776 1.84036 13.7849 1.81583 13.8761 1.7594C13.8801 1.75362 13.8822 1.74678 13.8822 1.73978C13.8822 1.73278 13.8801 1.72595 13.8761 1.72016C13.8784 1.71619 13.8796 1.71167 13.8796 1.70708C13.8796 1.70249 13.8784 1.69798 13.8761 1.694C13.7833 1.64659 13.6793 1.62548 13.5753 1.63296H13.4881V1.30161C13.4913 1.23648 13.4729 1.17212 13.4358 1.1185C13.397 1.11013 13.3568 1.11013 13.3181 1.1185H12.0101C11.9892 1.11874 11.9691 1.12647 11.9534 1.1403C11.9114 1.1742 11.8591 1.19267 11.8052 1.19261C11.7488 1.19144 11.694 1.1732 11.6482 1.1403C11.6264 1.1403 11.6177 1.1185 11.6003 1.1185H10.5234C10.4535 1.10822 10.3822 1.11884 10.3184 1.14902C10.2857 1.20899 10.2706 1.27701 10.2748 1.34521V1.63296H10.1833C10.0776 1.62011 9.97067 1.64151 9.8781 1.694C9.87389 1.70129 9.87167 1.70956 9.87167 1.71798C9.87167 1.7264 9.87389 1.73467 9.8781 1.74196C9.87773 1.75343 9.87988 1.76484 9.8844 1.77538C9.88892 1.78593 9.8957 1.79536 9.90426 1.803C9.99432 1.84883 10.0964 1.86558 10.1964 1.85096H10.2923V3.01069H10.2007C10.0964 2.99652 9.99042 3.01803 9.8999 3.07173C9.89199 3.07777 9.88581 3.08578 9.88199 3.09497C9.87816 3.10415 9.87682 3.11418 9.8781 3.12405C9.87688 3.13455 9.87822 3.1452 9.88202 3.15507C9.88582 3.16494 9.89195 3.17375 9.8999 3.18073C9.99228 3.22919 10.097 3.24893 10.2007 3.23741L10.2748 3.21997Z" fill="#221E1F"/>
<path d="M11.8734 1.10962H11.7383V3.5904H11.8734V1.10962Z" fill="#221E1F"/>
<path fill-rule="evenodd" clip-rule="evenodd" d="M11.8354 3.59477C11.8763 3.59391 11.9165 3.6053 11.9508 3.62748C11.9852 3.64967 12.0121 3.68162 12.0282 3.71924C12.0442 3.75685 12.0486 3.79841 12.0409 3.83856C12.0331 3.87871 12.0135 3.91562 11.9846 3.94454C11.9557 3.97346 11.9188 3.99306 11.8786 4.00083C11.8384 4.00859 11.7969 4.00417 11.7593 3.98812C11.7217 3.97208 11.6897 3.94514 11.6675 3.91078C11.6453 3.87642 11.634 3.83621 11.6348 3.79533C11.6359 3.74249 11.6574 3.69212 11.6948 3.65474C11.7322 3.61737 11.7825 3.59588 11.8354 3.59477Z" fill="white"/>
<path d="M11.8346 4.09186C11.7777 4.09186 11.7221 4.07499 11.6748 4.04337C11.6274 4.01175 11.5906 3.96681 11.5688 3.91423C11.547 3.86165 11.5413 3.80379 11.5524 3.74797C11.5635 3.69215 11.5909 3.64088 11.6312 3.60064C11.6714 3.5604 11.7227 3.53299 11.7785 3.52189C11.8343 3.51078 11.8922 3.51648 11.9447 3.53826C11.9973 3.56004 12.0423 3.59692 12.0739 3.64424C12.1055 3.69156 12.1224 3.7472 12.1224 3.80411C12.123 3.84206 12.1159 3.87974 12.1017 3.91492C12.0874 3.9501 12.0663 3.98206 12.0394 4.00889C12.0126 4.03573 11.9806 4.05691 11.9454 4.07116C11.9103 4.08541 11.8726 4.09245 11.8346 4.09186ZM11.8346 3.68639C11.8034 3.68639 11.7735 3.6988 11.7514 3.72087C11.7293 3.74295 11.7169 3.77289 11.7169 3.80411C11.7169 3.83533 11.7293 3.86527 11.7514 3.88735C11.7735 3.90943 11.8034 3.92183 11.8346 3.92183C11.8501 3.92183 11.8654 3.91878 11.8797 3.91287C11.894 3.90695 11.9069 3.89828 11.9179 3.88735C11.9288 3.87642 11.9375 3.86344 11.9434 3.84916C11.9493 3.83488 11.9523 3.81957 11.9523 3.80411C11.9523 3.78865 11.9493 3.77334 11.9434 3.75906C11.9375 3.74478 11.9288 3.7318 11.9179 3.72087C11.9069 3.70994 11.894 3.70127 11.8797 3.69535C11.8654 3.68944 11.8501 3.68639 11.8346 3.68639Z" fill="#221E1F"/>
<path d="M12.0619 3.83041L12.0139 3.70397C12.0385 3.68997 12.0618 3.67392 12.0837 3.65601C12.1544 3.6155 12.2334 3.59165 12.3147 3.58626C12.5071 3.55996 12.7022 3.55996 12.8946 3.58626C12.9781 3.60015 13.0638 3.58637 13.1388 3.54702C13.1734 3.48605 13.19 3.41651 13.1867 3.34646V1.38887C13.1681 1.31219 13.1234 1.24437 13.0603 1.19703V3.04999C13.0603 3.04999 13.1082 3.30286 12.9992 3.4075C12.9492 3.44099 12.8924 3.46304 12.8329 3.47208C12.7733 3.48112 12.7125 3.47694 12.6548 3.45982C12.5981 3.45982 12.2842 3.4947 12.0924 3.52958C12.0123 3.55458 11.9392 3.59787 11.8788 3.65601L11.809 3.57318L11.7654 3.65601C11.7099 3.60218 11.6428 3.56189 11.5692 3.5383C11.3817 3.49906 11.0722 3.4729 11.0068 3.46418C10.9076 3.50512 10.7963 3.50512 10.6972 3.46418L10.5751 3.59498C10.6342 3.60568 10.6948 3.60568 10.7539 3.59498C10.9465 3.57113 11.1412 3.57113 11.3338 3.59498C11.4201 3.60489 11.5034 3.63313 11.5779 3.67781L11.6477 3.71269L11.5997 3.83913C11.5661 3.82678 11.5339 3.81069 11.5038 3.79117C11.4466 3.75372 11.3803 3.73261 11.312 3.73013C11.1326 3.70615 10.9507 3.70615 10.7713 3.73013C10.7452 3.73013 10.5097 3.75629 10.4138 3.64294C10.3584 3.55457 10.3338 3.45029 10.3441 3.34646V1.37579C10.3441 1.18395 10.6013 1.0052 10.6318 0.987758L10.6711 1.04008H10.7365V3.03255C10.7234 3.12665 10.7339 3.22252 10.767 3.31158C10.767 3.3421 10.8978 3.33774 10.985 3.31158H11.0068C11.0068 3.31158 11.3774 3.3421 11.5954 3.3857C11.6861 3.4113 11.7697 3.45756 11.8395 3.52086C11.9064 3.46573 11.9834 3.42426 12.0662 3.39878C12.2842 3.35954 12.6417 3.32902 12.6548 3.32466C12.7246 3.32466 12.8466 3.32466 12.8859 3.32466C12.9251 3.32466 12.9208 3.15463 12.9077 3.07615V1.04008H12.9774L13.0123 0.983398C13.0428 1.0052 13.3001 1.18395 13.3001 1.37143V3.3421C13.3134 3.44414 13.2903 3.54761 13.2347 3.63422C13.1344 3.74757 12.899 3.72141 12.8728 3.71705C12.6933 3.69536 12.5117 3.69536 12.3322 3.71705C12.2647 3.7241 12.1995 3.74487 12.1403 3.77809C12.1162 3.79832 12.0898 3.81586 12.0619 3.83041ZM10.6013 1.17959C10.537 1.22776 10.4922 1.29737 10.4749 1.37579V3.32466C10.4707 3.36962 10.4707 3.41487 10.4749 3.45982L10.6144 3.31158C10.5948 3.21847 10.5875 3.1232 10.5926 3.02819L10.6013 1.17959Z" fill="#221E1F"/>
<path fill-rule="evenodd" clip-rule="evenodd" d="M2.99227 1.65911V1.68527C2.93123 1.78555 2.90071 1.68527 2.77863 2.12126C2.65655 2.55725 2.64347 2.63573 2.59552 2.63573C2.54756 2.63573 2.50832 2.37849 2.41676 2.11254C2.2598 1.67655 2.20312 1.70707 2.20312 1.67655C2.20312 1.64603 2.20312 1.67655 2.20312 1.65039H2.54756C2.54756 1.67655 2.54756 1.68527 2.54756 1.68527C2.54756 1.68527 2.50396 1.75503 2.50396 1.83787C2.50396 1.83787 2.59552 2.1605 2.64347 2.1605C2.69143 2.1605 2.78735 1.80735 2.78735 1.79427C2.78735 1.78119 2.75247 1.72887 2.72195 1.68527V1.65911H2.98791" fill="#221E1F"/>
<path fill-rule="evenodd" clip-rule="evenodd" d="M3.70499 1.62427H3.82707C3.82707 1.67223 3.86195 1.72019 3.86195 1.74634V1.8379C3.81835 1.8379 3.82707 1.8379 3.82707 1.8379C3.76167 1.8379 3.73115 1.73762 3.67011 1.73762H3.56111C3.52963 1.78532 3.51434 1.84188 3.51752 1.89894V1.97306C3.51667 1.98436 3.51842 1.9957 3.52263 2.00621C3.52685 2.01673 3.53342 2.02613 3.54184 2.03371C3.55026 2.04129 3.56031 2.04684 3.57121 2.04993C3.58211 2.05302 3.59357 2.05357 3.60471 2.05154C3.70935 2.05154 3.73115 1.95126 3.78347 1.95126C3.83579 1.95126 3.82707 2.04282 3.82707 2.10386C3.82707 2.16489 3.82707 2.23029 3.77475 2.23029C3.72243 2.23029 3.70499 2.12566 3.59599 2.12566C3.578 2.13054 3.56181 2.14056 3.54942 2.1545C3.53703 2.16844 3.52898 2.18569 3.52624 2.20413V2.45265C3.52548 2.46792 3.52807 2.48318 3.53385 2.49734C3.53962 2.51151 3.54843 2.52423 3.55965 2.53462C3.57088 2.54502 3.58424 2.55282 3.5988 2.55749C3.61337 2.56216 3.62878 2.56358 3.64395 2.56165C3.69565 2.562 3.74608 2.54564 3.78772 2.515C3.82937 2.48435 3.85999 2.44107 3.87503 2.39161H3.91863C3.9313 2.42388 3.94008 2.45754 3.94479 2.49189V2.5878C3.91279 2.61312 3.87556 2.631 3.83579 2.64012H3.29516C3.29516 2.64012 3.269 2.6096 3.26028 2.5878C3.25156 2.56601 3.3562 2.50497 3.3562 2.43521V1.91202C3.3562 1.72019 3.269 1.7725 3.269 1.69839V1.65915C3.41288 1.65915 3.51752 1.65915 3.62215 1.65915C3.65175 1.65295 3.67987 1.64111 3.70499 1.62427Z" fill="#221E1F"/>
<path fill-rule="evenodd" clip-rule="evenodd" d="M7.74219 1.63306H8.17818V1.69846C8.13458 1.69846 8.0561 1.76385 8.0561 1.83797V2.4658C8.0561 2.60531 8.17818 2.55299 8.17818 2.61839V2.69687H7.74219V2.61403C7.74219 2.55735 7.8599 2.61403 7.8599 2.4658V1.83797C7.85692 1.80497 7.84411 1.77362 7.82313 1.74797C7.80214 1.72232 7.77395 1.70355 7.74219 1.6941V1.63306Z" fill="#221E1F"/>
<path fill-rule="evenodd" clip-rule="evenodd" d="M12.6898 1.61548C12.7116 1.61548 12.7596 1.66344 12.7596 1.78987C12.7596 1.82039 12.7291 1.81603 12.7596 1.88579H12.7029C12.6686 1.8367 12.6291 1.79139 12.5852 1.75064H12.4675C12.4239 1.82475 12.4326 1.77679 12.4326 1.84655C12.4326 2.01659 12.8468 2.08199 12.8468 2.3959C12.8468 2.53106 12.7291 2.67493 12.6506 2.67929H12.3628C12.3433 2.5741 12.3433 2.46621 12.3628 2.36102C12.3628 2.32614 12.3628 2.29998 12.3934 2.29998C12.4239 2.29998 12.4457 2.5921 12.6244 2.5921C12.6565 2.59217 12.6874 2.58005 12.7109 2.5582C12.7344 2.53634 12.7487 2.50638 12.7509 2.47438C12.7509 2.23458 12.3149 2.23458 12.3149 1.87707C12.3117 1.826 12.326 1.77538 12.3553 1.73343C12.3846 1.69147 12.4272 1.66066 12.4762 1.646H12.6114C12.6462 1.646 12.6549 1.61548 12.6985 1.61548" fill="#221E1F"/>
<path fill-rule="evenodd" clip-rule="evenodd" d="M7.42189 2.56179H7.38701C7.38701 2.56179 7.16029 2.32635 7.16029 2.23915C7.16029 2.15196 7.40445 2.12144 7.39137 1.86856C7.39282 1.80911 7.37364 1.75099 7.33707 1.70409C7.30051 1.65719 7.24882 1.62441 7.19081 1.61133H6.58479C6.57851 1.63564 6.57851 1.66114 6.58479 1.68545C6.58479 1.68545 6.71994 1.777 6.70686 1.87292V2.46587C6.70686 2.50075 6.61094 2.57487 6.61094 2.61846C6.61531 2.64737 6.61531 2.67676 6.61094 2.70566H6.96846C6.9707 2.67955 6.9707 2.6533 6.96846 2.62718C6.96846 2.59666 6.90742 2.55307 6.89434 2.48331C6.88149 2.43769 6.88149 2.38941 6.89434 2.34379H6.9423C7.01463 2.48919 7.12452 2.61262 7.26057 2.7013H7.40009C7.40009 2.72746 7.40009 2.56179 7.40009 2.56179" fill="#221E1F"/>
<path fill-rule="evenodd" clip-rule="evenodd" d="M12.1707 2.58356C12.2062 2.61417 12.2441 2.64187 12.284 2.6664V2.69691H11.9265C11.9265 2.69691 11.9003 2.66204 11.9003 2.64896L11.9657 2.53124C11.9233 2.48753 11.884 2.44091 11.848 2.39172C11.8046 2.38693 11.7607 2.38693 11.7172 2.39172C11.678 2.4266 11.6911 2.43532 11.6431 2.50944C11.5952 2.58356 11.6431 2.54868 11.7216 2.62716C11.7163 2.65019 11.7075 2.67225 11.6954 2.69255H11.0066V2.65768C11.0066 2.58356 11.1199 2.60972 11.1199 2.4484V1.93393C11.1199 1.87289 11.1199 1.71158 11.0632 1.71158C10.9883 1.74155 10.9265 1.79718 10.8888 1.86853H10.8496V1.79878C10.8496 1.79878 10.8496 1.55898 10.9455 1.55898C11.0085 1.58549 11.0743 1.60452 11.1417 1.61566H11.3902C11.3902 1.61566 11.46 1.57642 11.5167 1.57642C11.5734 1.57642 11.5734 1.60694 11.5734 1.6549C11.5734 1.70286 11.5298 1.88597 11.4862 1.88597C11.4426 1.88597 11.4513 1.8075 11.3728 1.71158H11.303C11.2834 1.92768 11.2834 2.1451 11.303 2.3612C11.2987 2.40615 11.2987 2.45141 11.303 2.49636C11.303 2.5356 11.3292 2.60972 11.3728 2.60972C11.5167 2.60972 11.5559 2.25656 11.6257 2.09089C11.6257 2.09089 11.7652 1.58514 11.8001 1.48486L12.1707 2.58356Z" fill="#221E1F"/>
<path fill-rule="evenodd" clip-rule="evenodd" d="M6.94277 1.72461H7.08228C7.11654 1.75187 7.14443 1.78629 7.16401 1.82544C7.18359 1.8646 7.19438 1.90756 7.19564 1.95132C7.19767 1.96579 7.19767 1.98046 7.19564 1.99492C7.19564 2.0734 7.10408 2.10392 7.091 2.13008H6.96893C6.96893 2.0952 6.92969 2.0734 6.92969 2.03416C6.92969 1.89901 6.92969 1.90773 6.92969 1.86413C6.92969 1.82053 6.92969 1.80745 6.95585 1.72461" fill="white"/>
<path fill-rule="evenodd" clip-rule="evenodd" d="M11.7822 2.01221C11.8193 2.07022 11.8431 2.13573 11.852 2.20404C11.8497 2.21995 11.8497 2.23609 11.852 2.252H11.7168C11.7168 2.18224 11.7168 2.19532 11.7168 2.19532C11.7187 2.1335 11.7275 2.07208 11.743 2.01221H11.7822Z" fill="white"/>
<path d="M3.36819 25.5559V22.9693H1.70113V25.5559H0.542969V19.7615H1.70113V22.0111H3.36819V19.7615H4.55092V25.5559H3.36819Z" fill="#221E1F"/>
<path d="M9.13108 25.5558L8.72046 24.1801H7.02533L6.61822 25.5558H5.40039L7.30259 19.7439H8.56253L10.3875 25.5558H9.13108ZM8.12032 22.0462C8.06066 21.7795 7.88518 21.0214 7.88518 21.0214C7.88518 21.0214 7.72023 21.7023 7.61143 22.1375C7.50263 22.5726 7.42893 22.8394 7.30259 23.2114H8.42917C8.42917 23.2114 8.23965 22.6042 8.1133 22.0462" fill="#221E1F"/>
<path d="M14.0635 25.5559C13.8389 25.1733 13.7476 25.0119 13.523 24.6048C12.9475 23.5519 12.772 23.2781 12.5614 23.2009C12.504 23.1738 12.4422 23.1572 12.3789 23.1518V25.5699H11.2383V19.7615H13.3967C13.6235 19.7477 13.8507 19.7822 14.0632 19.8626C14.2757 19.9431 14.4688 20.0677 14.6296 20.2282C14.7905 20.3887 14.9155 20.5815 14.9963 20.7939C15.0772 21.0062 15.1121 21.2333 15.0988 21.4602C15.0988 22.3305 14.5233 23.0465 13.8038 23.0641C13.8969 23.13 13.9787 23.2106 14.046 23.3027C14.3969 23.7204 15.4498 25.5559 15.4498 25.5559H14.0635ZM13.4563 20.7793C13.2425 20.7151 13.0196 20.6866 12.7965 20.6951H12.3789V22.2639H12.772C13.2703 22.2639 13.4739 22.2112 13.6459 22.0708C13.7214 21.9945 13.7804 21.9033 13.8191 21.803C13.8577 21.7028 13.8752 21.5956 13.8705 21.4882C13.8876 21.3421 13.8563 21.1943 13.7816 21.0676C13.7068 20.9408 13.5925 20.842 13.4563 20.7863" fill="#221E1F"/>
<path d="M18.7128 25.598H17.6599L15.6875 19.7615H16.9615L17.9231 22.7797C18.0038 23.0359 18.0951 23.3623 18.1898 23.787C18.2848 23.3946 18.402 23.0079 18.5408 22.6288L19.5235 19.7615H20.7483L18.7128 25.598Z" fill="#221E1F"/>
<path d="M24.1889 25.5558L23.7783 24.1801H22.0796L21.669 25.5558H20.4512L22.3534 19.7439H23.6133L25.4383 25.5558H24.1889ZM23.1781 22.0462L22.9465 21.0214L22.6692 22.1375C22.5604 22.5551 22.4867 22.8394 22.3604 23.2114H23.494C23.494 23.2114 23.3045 22.6042 23.1781 22.0462Z" fill="#221E1F"/>
<path d="M29.1143 25.5559C28.8897 25.1733 28.7984 25.0119 28.5738 24.6048C27.9982 23.5519 27.8228 23.2781 27.6122 23.2009C27.5548 23.1738 27.493 23.1572 27.4297 23.1518V25.5699H26.2891V19.7615H28.4334C28.6602 19.7477 28.8874 19.7822 29.0999 19.8626C29.3125 19.9431 29.5055 20.0677 29.6664 20.2282C29.8272 20.3887 29.9522 20.5815 30.0331 20.7939C30.114 21.0062 30.1489 21.2333 30.1356 21.4602C30.1356 22.3305 29.56 23.0465 28.8405 23.0641C28.9337 23.13 29.0154 23.2106 29.0827 23.3027C29.4337 23.7204 30.4865 25.5559 30.4865 25.5559H29.1143ZM28.5071 20.7793C28.2933 20.7151 28.0704 20.6866 27.8473 20.6951H27.4297V22.2639H27.8228C28.3211 22.2639 28.5247 22.2112 28.6966 22.0708C28.7722 21.9945 28.8312 21.9033 28.8699 21.803C28.9085 21.7028 28.926 21.5956 28.9213 21.4882C28.9383 21.3421 28.9071 21.1943 28.8323 21.0676C28.7575 20.9408 28.6433 20.842 28.5071 20.7863" fill="#221E1F"/>
<path d="M35.139 24.689C34.9775 24.9193 34.7687 25.1126 34.5267 25.256C34.2846 25.3994 34.0148 25.4896 33.7352 25.5208C33.5176 25.5383 33.2439 25.5559 32.8999 25.5559H31.4961V19.7615H32.6437C32.9771 19.7615 33.4194 19.779 33.6545 19.7931C34.1325 19.8256 34.5825 20.03 34.9215 20.3686C35.4549 20.8951 35.7146 21.6356 35.7146 22.678C35.7419 23.394 35.5362 24.0997 35.1285 24.689M34.1107 21.1794C34.0209 21.019 33.8867 20.888 33.7242 20.8021C33.5617 20.7162 33.3778 20.679 33.1947 20.695H32.6613V24.6047H33.286C34.0546 24.6047 34.4055 24.0116 34.4055 22.7868C34.4501 22.2287 34.3485 21.6686 34.1107 21.1618" fill="#221E1F"/>
<path d="M0.542969 27.76H1.59585V33.9124H0.542969V27.76ZM3.66299 33.9124L1.59234 30.6309L3.5928 27.76H4.85626L2.72243 30.6133L4.99664 33.9124H3.66299Z" fill="#221E1F"/>
<path d="M6.25227 31.9291V31.9993C6.25227 32.624 6.4839 33.2803 7.3613 33.2803C7.77829 33.2778 8.1791 33.1187 8.48437 32.8346L8.8634 33.4312C8.4154 33.8216 7.83967 34.0339 7.24548 34.0279C5.97501 34.0279 5.17482 33.1119 5.17482 31.6694C5.12727 31.0338 5.32862 30.4045 5.73636 29.9146C5.9042 29.7154 6.11552 29.5574 6.35403 29.4528C6.59255 29.3481 6.8519 29.2996 7.11212 29.3109C7.56801 29.2978 8.01109 29.4627 8.34749 29.7707C8.74057 30.1217 8.9371 30.6797 8.9371 31.7291V31.9326L6.25227 31.9291ZM7.11212 30.0339C6.56111 30.0339 6.25929 30.4691 6.25929 31.1991H7.92283C7.92283 30.4691 7.60346 30.0339 7.11212 30.0339Z" fill="#221E1F"/>
<path d="M12.4642 33.9123V30.9256C12.4642 30.3115 12.3238 30.143 11.9483 30.143C11.571 30.1921 11.2224 30.3708 10.9621 30.6484V33.9123H10.004V30.6063C10.0196 30.2472 9.96111 29.8888 9.83203 29.5534L10.7235 29.3042C10.8289 29.5005 10.8832 29.7201 10.8814 29.9429C11.2483 29.5722 11.7398 29.3508 12.2607 29.3217C12.9626 29.3217 13.4329 29.7394 13.4329 30.5642V33.9264L12.4642 33.9123Z" fill="#221E1F"/>
<path d="M17.3185 33.9123V30.9256C17.3185 30.3115 17.1781 30.143 16.8026 30.143C16.4253 30.1921 16.0767 30.3708 15.8164 30.6484V33.9123H14.8618V30.6063C14.8768 30.2476 14.8195 29.8895 14.6934 29.5534L15.5813 29.3042C15.688 29.5002 15.7435 29.7198 15.7427 29.9429C16.1072 29.5707 16.5982 29.349 17.1185 29.3217C17.8204 29.3217 18.2942 29.7394 18.2942 30.5642V33.9264L17.3185 33.9123Z" fill="#221E1F"/>
<path d="M20.5186 31.9293V31.9995C20.5186 32.6242 20.7502 33.2805 21.6311 33.2805C22.0462 33.2803 22.446 33.1237 22.7507 32.8418L23.1332 33.4384C22.6849 33.8282 22.1094 34.0405 21.5153 34.0351C20.2448 34.0351 19.4446 33.119 19.4446 31.6766C19.3961 31.0414 19.5962 30.4123 20.0027 29.9218C20.1716 29.7229 20.3836 29.5652 20.6226 29.4606C20.8616 29.356 21.1213 29.3073 21.3819 29.3181C21.8378 29.305 22.2809 29.4699 22.6173 29.7779C23.0104 30.1289 23.2069 30.6869 23.2069 31.7363V31.9398L20.5186 31.9293ZM21.3819 30.0341C20.8309 30.0341 20.5291 30.4693 20.5291 31.1993H22.1927C22.1927 30.4693 21.8698 30.0341 21.3819 30.0341Z" fill="#221E1F"/>
<path d="M27.0292 33.9121C26.9836 33.8002 26.9563 33.6817 26.9485 33.5611C26.8056 33.7077 26.6339 33.823 26.4442 33.8997C26.2545 33.9764 26.051 34.0129 25.8464 34.0068C24.6988 34.0068 24.0039 33.1084 24.0039 31.7045C24.0039 30.3007 24.7865 29.332 25.8745 29.332C26.0558 29.328 26.236 29.3625 26.4029 29.4333C26.5699 29.5041 26.72 29.6095 26.8432 29.7426C26.8432 29.7426 26.8151 29.3917 26.8151 29.0056V27.3596L27.7837 27.5105V32.3468C27.7474 32.8729 27.796 33.4014 27.9276 33.9121H27.0292ZM26.8151 30.4797C26.7127 30.365 26.5864 30.2742 26.4451 30.2136C26.3038 30.1529 26.151 30.124 25.9974 30.1287C25.3762 30.1287 25.0919 30.6271 25.0919 31.7115C25.0919 32.7083 25.2849 33.2066 26.0254 33.2066C26.1823 33.2068 26.3368 33.1677 26.4747 33.0929C26.6126 33.0181 26.7296 32.91 26.8151 32.7785V30.4797Z" fill="#221E1F"/>
<path d="M31.1549 34.0103C30.7829 35.0948 30.453 35.6353 29.4001 35.8318L29.0807 35.2001C29.6949 35.0316 30.0424 34.7754 30.2986 33.9121H29.9862C29.8634 33.4067 29.6949 32.9153 29.5615 32.5082L28.5508 29.4829L29.544 29.3145L30.3723 32.052C30.4425 32.3187 30.6039 32.996 30.6214 33.0662C30.6214 33.0311 30.7899 32.3924 30.9724 31.8484L31.7094 29.4127H32.7623L31.1549 34.0103Z" fill="#221E1F"/>
<path d="M36.0532 34.0282C35.3431 34.0302 34.6457 33.8397 34.0352 33.4772L34.4247 32.6945C34.9218 33.0128 35.4981 33.1855 36.0883 33.1929C36.8428 33.1929 37.2991 32.8419 37.2991 32.2172C37.2991 31.761 37.0113 31.4767 36.3831 31.3012L35.7233 31.1117C35.2511 31.0167 34.8289 30.7551 34.5335 30.3747C34.3566 30.109 34.2659 29.7953 34.2738 29.4762C34.2738 28.3917 35.1266 27.6547 36.3796 27.6547C37.0722 27.6479 37.7504 27.8524 38.3239 28.2408L37.8501 28.9813C37.4233 28.6862 36.9194 28.5227 36.4006 28.5111C35.7935 28.5111 35.3934 28.841 35.3934 29.3463C35.3934 29.7289 35.6075 29.9254 36.2111 30.1044L36.9411 30.315C37.8325 30.5747 38.4537 31.1433 38.4537 32.0698C38.4537 33.0946 37.6255 34.0457 36.0532 34.0457" fill="#221E1F"/>
<path d="M41.1631 34.0279C39.9383 34.0279 39.2539 33.1646 39.2539 31.7151C39.2539 30.0796 40.2331 29.297 41.2368 29.297C41.467 29.287 41.6968 29.3252 41.9113 29.4092C42.1259 29.4932 42.3205 29.6211 42.4827 29.7848L41.9914 30.4341C41.795 30.2236 41.5244 30.0977 41.2368 30.0831C41.0885 30.0825 40.9432 30.1249 40.8186 30.2053C40.694 30.2856 40.5954 30.4005 40.5349 30.5359C40.3853 30.9357 40.3219 31.3627 40.3489 31.7888C40.3489 32.403 40.4472 32.7926 40.6507 33.0172C40.7266 33.0994 40.819 33.1647 40.9218 33.2088C41.0246 33.253 41.1355 33.2749 41.2474 33.2734C41.4177 33.2644 41.5846 33.2217 41.7383 33.1476C41.8919 33.0734 42.0293 32.9695 42.1423 32.8417L42.6056 33.4383C42.4223 33.6358 42.1985 33.7913 41.9495 33.8943C41.7006 33.9973 41.4323 34.0452 41.1631 34.035" fill="#221E1F"/>
<path d="M46.0039 33.9122V30.8518C46.0039 30.2938 45.8074 30.1499 45.4354 30.1499C45.0175 30.1845 44.6279 30.3749 44.3439 30.6834V33.9122H43.3577V28.5601C43.3701 28.2311 43.3478 27.9017 43.291 27.5774L44.2772 27.3633C44.3464 27.7098 44.377 28.0629 44.3685 28.4162V29.3743C44.3685 29.6621 44.3685 29.8832 44.3685 29.8832C44.7347 29.5182 45.2273 29.3083 45.7442 29.2971C45.9538 29.2915 46.1612 29.3403 46.3464 29.4387C46.5315 29.5371 46.688 29.6818 46.8006 29.8586C46.9283 30.1336 46.9804 30.4377 46.9515 30.7395V33.8982L46.0039 33.9122Z" fill="#221E1F"/>
<path d="M50.0458 34.0281C48.8315 34.0281 48.0664 33.112 48.0664 31.6696C48.0664 30.2271 48.8385 29.3076 50.0318 29.3076C51.3093 29.3076 52.0393 30.2587 52.0393 31.6801C52.0393 33.1015 51.2672 34.0281 50.0458 34.0281ZM50.0458 30.0446C49.4246 30.0446 49.1579 30.5149 49.1579 31.6099C49.1579 32.9155 49.4843 33.2981 50.0739 33.2981C50.6635 33.2981 50.9688 32.8278 50.9688 31.6977C50.9688 30.4272 50.6179 30.0446 50.0458 30.0446Z" fill="#221E1F"/>
<path d="M54.8228 34.0281C53.6049 34.0281 52.8398 33.112 52.8398 31.6696C52.8398 30.2271 53.612 29.3076 54.8052 29.3076C56.0862 29.3076 56.8127 30.2587 56.8127 31.6801C56.8127 33.1015 56.0406 34.0281 54.8228 34.0281ZM54.8228 30.0446C54.2016 30.0446 53.9348 30.5149 53.9348 31.6099C53.9348 32.9155 54.2647 33.2981 54.8508 33.2981C55.4369 33.2981 55.7493 32.8278 55.7493 31.6977C55.7493 30.4272 55.3983 30.0446 54.8228 30.0446Z" fill="#221E1F"/>
<path d="M58.8704 34.0105C57.8842 34.0105 57.8842 33.1191 57.8842 32.74V28.9075C57.8953 28.4623 57.8647 28.017 57.793 27.5774L58.7967 27.3528C58.872 27.7612 58.8991 28.177 58.8774 28.5917V32.4172C58.8774 33.0243 58.9055 33.1191 58.9757 33.2279C59.0143 33.2724 59.0662 33.3033 59.1237 33.3159C59.1813 33.3286 59.2414 33.3223 59.2951 33.2981L59.4565 33.9017C59.2705 33.9771 59.0711 34.0141 58.8704 34.0105Z" fill="#221E1F"/>
</svg>
