<svg width="42" height="24" viewBox="0 0 42 24" fill="none" xmlns="http://www.w3.org/2000/svg">
<g clip-path="url(#clip0_1414_11098)">
<path d="M5.46931 13.6426C5.46931 14.7485 4.72667 15.4934 3.08272 15.4934H0V8.6391H2.99133C4.41863 8.6391 5.18423 9.2991 5.18423 10.4241C5.18423 11.2268 4.72725 11.7857 4.00831 11.9715C4.95508 12.18 5.47475 12.825 5.47475 13.6426H5.46931ZM1.8491 11.4897H2.56894C3.04843 11.4897 3.34499 11.3039 3.34499 10.8381C3.34499 10.3723 3.04843 10.1865 2.56894 10.1865H1.8491V11.4897ZM1.8491 13.9226H2.81987C3.28833 13.9226 3.55059 13.713 3.55059 13.317C3.55059 12.921 3.28818 12.7121 2.81987 12.7121H1.8491V13.9226ZM9.52751 14.4918C9.37901 15.2016 8.84197 15.6324 7.94067 15.6324C6.98094 15.6324 6.30762 15.0275 6.30762 13.7586V10.1166H8.15672V13.3637C8.15672 13.9037 8.3039 14.2187 8.7307 14.2245C9.21005 14.2245 9.5072 13.782 9.5072 12.9095V10.1165H11.3572V15.4932H9.70147L9.52751 14.4918ZM13.6546 13.6426C13.7583 14.0927 14.0961 14.3176 14.4935 14.3176C14.8248 14.3176 15.0524 14.2013 15.0524 13.9688C15.0524 13.7363 14.8591 13.632 14.4821 13.5504L13.7738 13.3986C12.8158 13.1894 12.3131 12.6888 12.3131 11.8046C12.3131 10.5009 13.4091 9.98895 14.585 9.98895C15.8523 9.98895 16.616 10.529 16.8074 11.5247L15.1287 11.7796C15.0707 11.4773 14.8888 11.3031 14.5345 11.3031C14.2717 11.3031 14.0889 11.4308 14.0889 11.6408C14.0889 11.8508 14.2361 11.9558 14.5157 12.0014L15.2232 12.1363C16.3885 12.3314 16.8862 12.9764 16.8862 13.8827C16.8862 15.1502 15.8008 15.6392 14.4992 15.6392C13.3003 15.6392 12.5015 15.1968 12.2045 14.2427L13.6546 13.6426ZM18.564 7.7895C19.1124 7.7895 19.5795 8.1795 19.5795 8.7783C19.5795 9.3834 19.112 9.76815 18.5636 9.76815C18.0161 9.76815 17.5476 9.38355 17.5476 8.7783C17.5481 8.175 18.014 7.785 18.5586 7.7895H18.564ZM19.4895 10.1166V15.4934H17.6508V10.1166H19.4895ZM22.3723 11.1521C22.6455 10.3499 23.2626 9.98895 24.05 9.98895C24.8612 9.98895 25.5953 10.484 25.5953 11.7107V15.4935H23.7567V12.4321C23.7567 11.8857 23.5967 11.5479 23.1282 11.5479C22.7292 11.5479 22.3865 11.7929 22.3865 12.6189V15.4934H20.548V10.1166H22.2037L22.3723 11.1521ZM29.8023 13.5504L31.3332 14.0387C31.0353 15.1902 30.0992 15.6326 29.0489 15.6326C27.4844 15.6326 26.3428 14.6199 26.3428 12.863C26.3428 11.0473 27.3473 9.98895 29.0031 9.98895C30.5676 9.98895 31.3727 11.009 31.3727 12.5029C31.3727 12.698 31.3727 12.9328 31.3498 13.1778H28.1305C28.1648 13.8378 28.4838 14.1978 29.0283 14.2013C29.4146 14.205 29.6703 14.025 29.8027 13.5504H29.8023ZM29.6204 12.225C29.6204 11.7593 29.4604 11.3526 28.9463 11.3526C28.5016 11.3526 28.2159 11.7243 28.1703 12.225H29.6204ZM33.4768 13.6426C33.5797 14.0927 33.9183 14.3176 34.3157 14.3176C34.6471 14.3176 34.8756 14.2013 34.8756 13.9688C34.8756 13.7363 34.6814 13.632 34.3044 13.5504L33.5968 13.3986C32.637 13.1894 32.1352 12.6888 32.1352 11.8046C32.1352 10.5009 33.231 9.98895 34.4071 9.98895C35.6744 9.98895 36.4381 10.529 36.6294 11.5247L34.9508 11.7796C34.8937 11.4773 34.7109 11.3031 34.3568 11.3031C34.0939 11.3031 33.912 11.4308 33.912 11.6408C33.912 11.8508 34.0592 11.9558 34.3388 12.0014L35.047 12.1363C36.2116 12.3314 36.6954 12.9764 36.6954 13.8827C36.6954 15.1502 35.6108 15.6392 34.3092 15.6392C33.1103 15.6392 32.3115 15.1968 32.0145 14.2427L33.4768 13.6426ZM38.7826 13.6426C38.8855 14.0927 39.2241 14.3176 39.6215 14.3176C39.9521 14.3176 40.1805 14.2013 40.1805 13.9688C40.1805 13.7363 39.9864 13.632 39.6093 13.5504L38.9017 13.3986C37.9428 13.1894 37.4401 12.6888 37.4401 11.8046C37.4401 10.5009 38.5359 9.98895 39.712 9.98895C40.9793 9.98895 41.743 10.529 41.9344 11.5247L40.2557 11.7796C40.1986 11.4773 40.0158 11.3031 39.6626 11.3031C39.3997 11.3031 39.2171 11.4308 39.2171 11.6408C39.2171 11.8508 39.3642 11.9558 39.6439 12.0014L40.3513 12.1363C41.5159 12.3314 42.0144 12.9764 42.0144 13.8827C42.0144 15.1502 40.9299 15.6392 39.6274 15.6392C38.4285 15.6392 37.6296 15.1968 37.3326 14.2427L38.7826 13.6426ZM3.76782 23.7942C3.55074 23.6079 3.47068 23.3517 3.39076 23.0261L3.18516 22.176C3.07139 21.6879 2.87712 21.5947 2.4434 21.5947H1.86073V23.7942H0V16.9395H2.87697C4.38419 16.9395 5.4231 17.5395 5.4231 19.0925C5.4231 20.175 4.73756 20.7107 3.9958 20.8374C4.61187 20.9724 4.923 21.2424 5.08489 21.8424L5.40485 23.0181C5.48447 23.3181 5.58146 23.5581 5.81694 23.7978H3.76782V23.7942ZM1.86058 20.058H2.58042C3.23122 20.058 3.51645 19.7907 3.51645 19.3025C3.51645 18.8134 3.23122 18.5451 2.58042 18.5451H1.86058V20.058ZM9.38681 21.8504L10.9168 22.3395C10.6197 23.4911 9.68381 23.9336 8.63313 23.9336C7.06866 23.9336 5.92702 22.9218 5.92702 21.1638C5.92702 19.3482 6.93208 18.2898 8.58735 18.2898C10.1526 18.2898 10.9569 19.3098 10.9569 20.8038C10.9569 20.9988 10.9569 21.2337 10.9341 21.4788H7.70857C7.74286 22.1388 8.06179 22.4988 8.60634 22.5021C8.99841 22.5 9.25715 22.335 9.3896 21.8504H9.38681ZM9.20446 20.52C9.20446 20.0543 9.04404 19.6476 8.5304 19.6476C8.08564 19.6476 7.80012 20.0195 7.75434 20.52H9.20446ZM11.214 18.4174H13.1554L13.7608 20.5821C13.977 21.3621 14.0993 21.9021 14.0993 21.8979H14.1222C14.1222 21.8979 14.2364 21.3614 14.4763 20.5821L15.1618 18.4174H16.9538L15.0352 23.7942H13.0526L11.214 18.4174ZM18.455 16.0895C19.0042 16.0895 19.4705 16.4795 19.4705 17.0793C19.4705 17.6792 19.0038 18.0692 18.4545 18.0692C17.907 18.0692 17.4395 17.6846 17.4395 17.0793C17.4395 16.4741 17.9075 16.095 18.4556 16.0895H18.455ZM19.3814 18.4174V23.7942H17.5419V18.4174H19.3814ZM23.6711 21.8504L25.2022 22.3395C24.9043 23.4911 23.969 23.9336 22.9172 23.9336C21.3536 23.9336 20.212 22.9218 20.212 21.1638C20.212 19.3482 21.2164 18.2898 22.8723 18.2898C24.4359 18.2898 25.2418 19.3098 25.2418 20.8038C25.2418 20.9988 25.2418 21.2337 25.219 21.4788H21.9979C22.0321 22.1388 22.3511 22.4988 22.8957 22.5021C23.2828 22.5 23.5478 22.335 23.6656 21.8504H23.6711ZM23.4894 20.52C23.4894 20.0543 23.3294 19.6476 22.8162 19.6476C22.3697 19.6476 22.0849 20.0195 22.0393 20.52H23.4894ZM30.5722 18.4174L30.9492 20.2913C31.1425 21.2512 31.2436 21.9863 31.2436 21.9794H31.2664C31.2664 21.9794 31.3806 21.2696 31.5978 20.3145L32.0196 18.4174H33.8125L32.3854 23.7942H30.319L29.9991 22.2229C29.8392 21.4322 29.7136 20.5005 29.7136 20.5005H29.6916C29.6916 20.5005 29.5659 21.4321 29.4061 22.2255L29.0861 23.7968H27.0329L25.6058 18.42H27.4663L27.8881 20.3171C28.1054 21.2771 28.2266 21.9821 28.2266 21.9819H28.2495C28.2495 21.9819 28.3523 21.2595 28.5457 20.2938L28.9246 18.42H30.5722V18.4174ZM11.6587 5.42325C11.6587 5.67825 11.7323 5.81325 11.9237 5.81925C12.0371 5.81925 12.1522 5.7726 12.2549 5.7144V7.041C12.0036 7.2273 11.7637 7.29675 11.341 7.296C10.6334 7.296 10.2445 6.97095 10.0389 6.44685C9.74326 7.00485 9.27481 7.31925 8.52112 7.31925C7.55036 7.31925 6.94532 6.73755 6.94532 5.8185C6.94532 4.66605 7.75611 4.0848 9.34295 4.0848H9.87984V3.7245C9.87984 3.3756 9.76519 3.13065 9.43479 3.13065C9.11483 3.13065 8.96677 3.3285 8.94352 3.77115L7.18537 3.49125C7.2878 2.38635 8.13288 1.6881 9.49204 1.6881C10.9984 1.6881 11.6555 2.3631 11.6555 3.53865V5.42325H11.6587ZM9.87764 5.03955H9.63774C8.97545 5.03955 8.74748 5.24865 8.74748 5.59845C8.74748 5.85345 8.92409 6.04845 9.23316 6.0516C9.54119 6.0516 9.87248 5.8887 9.87248 5.3892V5.03955H9.87764ZM16.5603 3.93375C16.3441 3.8523 16.2175 3.7944 15.9212 3.7944C15.4871 3.7944 14.9615 3.9687 14.9615 4.92345V7.19235H13.123V1.8156H14.6997L14.8816 3.1422C15.0301 2.2464 15.7729 1.8156 16.6745 1.8156L16.5603 3.93375ZM17.1983 1.8156H19.1405L19.7444 3.98025C19.9623 4.76025 20.0829 5.30025 20.0829 5.29515H20.1057C20.1057 5.29515 20.22 4.7604 20.4599 3.98025L21.1446 1.8156H22.9375L21.0198 7.19235H19.0369L17.1983 1.8156ZM27.7957 5.42325C27.7957 5.67825 27.8693 5.81325 28.0606 5.81925C28.1748 5.81925 28.2892 5.7726 28.3921 5.7144V7.041C28.1407 7.2273 27.9008 7.29675 27.4789 7.29675C26.7707 7.29675 26.3821 6.9717 26.1764 6.4476C25.8801 7.0056 25.4118 7.32 24.6585 7.3176C23.6873 7.3176 23.0827 6.7359 23.0827 5.81685C23.0827 4.6644 23.8931 4.08315 25.4804 4.08315H26.0165V3.7245C26.0165 3.3756 25.9031 3.13065 25.5719 3.13065C25.252 3.13065 25.1035 3.3285 25.0806 3.77115L23.3221 3.49125C23.4257 2.38635 24.2694 1.6881 25.629 1.6881C27.1362 1.6881 27.7925 2.3631 27.7925 3.53865V5.42325H27.7957ZM26.0143 5.03955H25.7753C25.1126 5.03955 24.884 5.24865 24.884 5.59845C24.884 5.85345 25.0606 6.04845 25.3697 6.0516C25.6774 6.0516 26.0087 5.8887 26.0087 5.3892V5.03955H26.0143ZM32.7 3.93375C32.4828 3.8523 32.3573 3.7944 32.0601 3.7944C31.6268 3.7944 31.1011 3.9687 31.1011 4.92345V7.19235H29.2635V1.8156H30.8384L31.0212 3.1422C31.1697 2.2464 31.9115 1.8156 32.8142 1.8156L32.7 3.93375ZM37.1303 0H38.9794V7.19235H37.3131L37.1418 6.2616C36.9475 6.9822 36.3191 7.33155 35.52 7.33155C34.287 7.33155 33.4081 6.3543 33.4081 4.60845C33.4081 2.8044 34.2527 1.6878 35.7371 1.6878C36.4112 1.6878 36.944 2.0028 37.1353 2.5137V0H37.1303ZM37.1418 4.11945C37.1418 3.4329 36.8103 3.0612 36.2742 3.0612C35.7373 3.0612 35.2801 3.46875 35.2801 4.5387C35.2801 5.4237 35.6481 5.8887 36.2515 5.8887C36.7191 5.8887 37.1419 5.52855 37.1419 4.79535V4.11945H37.1418ZM0 7.19235V0.3381H1.8725V2.88555H4.17859V0.3381H6.05109V7.19235H4.17859V4.5387H1.8725V7.19235H0Z" fill="black"/>
</g>
<defs>
<clipPath id="clip0_1414_11098">
<rect width="42" height="24" fill="white"/>
</clipPath>
</defs>
</svg>
