<svg width="78" height="14" viewBox="0 0 78 14" fill="none" xmlns="http://www.w3.org/2000/svg">
<g clip-path="url(#clip0_1414_11100)">
<path d="M3.66668 0.428589V14H0V0.428589H3.66668Z" fill="#1A1A1B"/>
<path d="M15.9201 0.428589H19.1728V14H14.7767L10.4004 6.11187H9.84837V14H6.5957V0.428589H10.9918L15.3682 8.31673H15.9201V0.428589Z" fill="#1A1A1B"/>
<path d="M32.8733 0.428589V3.5458H28.6546V14H24.988V3.5458H20.7891V0.428589H32.8733Z" fill="#1A1A1B"/>
<path d="M43.59 8.60187H38.1491V10.8828H45.4627V14H34.4824V0.428589H45.2853V3.5458H38.1491V5.56066H43.59V8.60187Z" fill="#1A1A1B"/>
<path d="M56.7349 0.428589H62.2152V14H58.8442V4.81937H58.2922L56.6955 9.7043H53.1076L51.5108 4.81937H50.9589V14H47.5879V0.428589H53.0682L54.6255 5.35159H55.1775L56.7349 0.428589Z" fill="#1A1A1B"/>
<path d="M73.639 0.428589L77.8576 14H74.2104L73.1854 10.4836H68.4543L67.4489 14H63.8809L68.0995 0.428589H73.639ZM70.3862 3.77395L69.2429 7.70852H72.3776L71.2536 3.77395H70.3862Z" fill="#1A1A1B"/>
</g>
<defs>
<clipPath id="clip0_1414_11100">
<rect width="78" height="14" fill="white"/>
</clipPath>
</defs>
</svg>
