<svg width="88" height="30" viewBox="0 0 88 30" fill="none" xmlns="http://www.w3.org/2000/svg">
<path d="M0.0234375 0.0856934H29.8165V29.9755H0.0234375V0.0856934Z" fill="#E73736"/>
<path d="M5.625 5.81621H7.59005V22.1999H10.4949V24.2325H5.625V5.81621ZM19.3071 5.81621H24.2624V7.82437H21.26V13.7387H24.0672V15.8815H21.26V22.1999H24.2624V24.2325H19.3071V5.81621ZM12.2036 24.2325V22.2121H12.8139C13.6195 22.2121 14.9864 21.6489 15.1939 20.3754C15.3892 19.1387 15.2428 18.2448 13.6561 15.5264L13.6439 15.4897C12.5454 13.6897 11.4957 12.1101 11.8863 9.63662C12.0112 8.56004 12.5347 7.56984 13.3531 6.86224C14.1714 6.15465 15.2248 5.78131 16.3046 5.81621H16.9149V7.82437H16.3046C15.4991 7.82437 14.0955 8.38764 13.888 9.66111C13.6927 10.8856 13.8269 11.6938 15.3648 14.3754L15.4136 14.4366C16.5609 16.2856 17.5862 17.9264 17.1956 20.3876C17.0851 21.4666 16.5721 22.4638 15.7595 23.1791C14.9468 23.8945 13.8946 24.2752 12.8139 24.2448H12.2036" fill="white"/>
<path d="M35.4922 20.6448H36.432C37.1643 20.6448 37.7746 20.8897 37.7746 21.7101C37.7746 22.506 37.1521 22.7999 36.5052 22.7999H36.0048V24.2325H35.4922V20.6448ZM36.0048 22.3468H36.5052C36.8226 22.3468 37.2375 22.1876 37.2375 21.7101C37.2375 21.257 36.7493 21.0978 36.432 21.0978H36.0048V22.3468ZM39.9105 20.5713C40.9968 20.5713 41.6192 21.3672 41.6192 22.4325C41.6192 23.5346 41.009 24.2937 39.9105 24.2937C38.812 24.2937 38.1896 23.5223 38.1896 22.4325C38.1896 21.3672 38.8242 20.5835 39.8983 20.5835L39.9105 20.5713ZM39.9105 23.8407C40.7282 23.8407 41.0822 23.155 41.0822 22.4325C41.0822 21.6978 40.6916 21.0243 39.9105 21.0243C39.1172 21.0243 38.7266 21.7101 38.7266 22.4325C38.7266 23.155 39.0927 23.8407 39.9105 23.8407ZM42.2539 20.6448H42.7665V23.7795H44.2556V24.2325H42.2539V20.6448ZM44.817 20.6448H45.3296V24.2325H44.817V20.6448ZM46.9529 21.0978H45.8423V20.6448H48.5762V21.0978H47.4656V24.2325H46.9529V21.0978ZM49.0889 20.6448H49.6015V24.2325H49.0889V20.6448ZM52.9945 21.2325C52.7626 21.0978 52.5063 21.0243 52.2622 21.0243C51.4201 21.0243 50.883 21.6366 50.883 22.4325C50.883 23.2774 51.4933 23.8407 52.2256 23.8407C52.4819 23.8407 52.8359 23.7672 53.0068 23.6692L53.0312 24.159C52.7626 24.2815 52.4209 24.2815 52.2256 24.2815C51.0905 24.2815 50.3338 23.559 50.3338 22.4203C50.3338 21.3182 51.1393 20.5835 52.2256 20.5835C52.5063 20.5835 52.7749 20.6203 53.0312 20.7305L52.9945 21.2203V21.2325ZM54.7887 20.6448H55.3258L56.8392 24.2325H56.2656L55.8994 23.3264H54.1418L53.7757 24.2325H53.2387L54.7765 20.6448H54.7887ZM55.0328 21.1223L54.3249 22.8978H55.7529L55.0328 21.1223ZM57.3518 20.6448H57.8645V23.7795H59.3535V24.2325H57.3518V20.6448ZM63.0639 21.1835C62.8545 21.0817 62.6253 21.0274 62.3926 21.0243C62.1119 21.0243 61.7701 21.1346 61.7701 21.5141C61.7701 22.1999 63.308 22.0407 63.308 23.2284C63.308 23.9876 62.7221 24.2937 62.002 24.2937C61.7579 24.2937 61.5138 24.2203 61.2697 24.1468L61.3185 23.657C61.4894 23.7305 61.8068 23.8407 62.0631 23.8407C62.356 23.8407 62.771 23.6692 62.771 23.2529C62.771 22.4448 61.2331 22.6652 61.2331 21.5509C61.2331 20.9141 61.7213 20.5713 62.3804 20.5713C62.6123 20.5713 62.893 20.6203 63.1371 20.706L63.0639 21.1835ZM66.4814 21.2325C66.2495 21.0978 65.9932 21.0243 65.7491 21.0243C64.9069 21.0243 64.3699 21.6366 64.3699 22.4325C64.3699 23.2774 64.9801 23.8407 65.7124 23.8407C65.9688 23.8407 66.3227 23.7672 66.4936 23.6692L66.518 24.159C66.2495 24.2815 65.9077 24.2815 65.7124 24.2815C64.5774 24.2815 63.8206 23.559 63.8206 22.4203C63.8206 21.3182 64.6262 20.5835 65.7124 20.5835C65.9932 20.5835 66.2617 20.6203 66.518 20.7305L66.4814 21.2203V21.2325ZM67.1405 20.6448H67.6531V24.2325H67.1405V20.6448ZM68.5929 20.6448H70.5945V21.0978H69.1055V22.1386H70.4603V22.5917H69.1055V23.7795H70.5945V24.2325H68.5929V20.6448ZM71.4123 20.6448H72.108L73.6825 23.5346H73.6947V20.6448H74.2073V24.2325H73.5482L71.9249 21.2815V24.2325H71.4123V20.6448ZM77.5882 21.2325C77.3563 21.0978 77.1 21.0243 76.8559 21.0243C76.0259 21.0243 75.4767 21.6366 75.4767 22.4325C75.4767 23.2774 76.0869 23.8407 76.8192 23.8407C77.0755 23.8407 77.4295 23.7672 77.6004 23.6692L77.637 24.159C77.3563 24.2815 77.0267 24.2815 76.8192 24.2815C75.6841 24.2815 74.9274 23.559 74.9274 22.4203C74.9274 21.3182 75.733 20.5835 76.8192 20.5835C77.1 20.5835 77.3685 20.6203 77.6248 20.7305L77.5882 21.2203V21.2325ZM78.2717 20.6448H80.2733V21.0978H78.7843V22.1386H80.1391V22.5917H78.7843V23.7795H80.2733V24.2325H78.2717V20.6448Z" fill="black"/>
<path d="M83.9844 20.4734H87.9389V24.4407H83.9844V20.4734Z" fill="#E73736"/>
<path d="M36.3578 7.01635H35.5156V6.67349H37.6027V7.01635H36.7484V9.40411H36.3578V7.01635ZM38.0299 6.67349H38.4205V7.81227H39.7264V6.67349H40.117V9.40411H39.7264V8.16737H38.4205V9.40411H38.0299V6.67349ZM40.8859 6.67349H42.4116V7.01635H41.2765V7.81227H42.3018V8.16737H41.2765V9.06125H42.4116V9.40411H40.8859V6.67349ZM44.8282 5.81635H45.3409V8.95105H46.8421V9.40411H44.8282V5.81635ZM48.978 5.75513C50.0643 5.75513 50.6868 6.55105 50.6868 7.61635C50.6868 8.70615 50.0765 9.46533 48.978 9.46533C47.8796 9.46533 47.2327 8.70615 47.2327 7.61635C47.2327 6.55105 47.8796 5.75513 48.9658 5.75513H48.978ZM48.978 9.01227C49.7958 9.01227 50.1497 8.32656 50.1497 7.61635C50.1497 6.88166 49.7592 6.20819 48.978 6.20819C48.1847 6.20819 47.7941 6.88166 47.7941 7.61635C47.7941 8.32656 48.1481 9.01227 48.978 9.01227ZM51.4557 5.81635H52.1514L53.7259 8.70615H53.7381V5.81635H54.2507V9.40411H53.5916L51.9805 6.45309H51.9683V9.40411H51.4557V5.81635ZM55.1661 5.81635H56.2158C57.2776 5.81635 58.132 6.47758 58.132 7.57962C58.132 8.79186 57.3997 9.41635 56.2158 9.41635H55.1661V5.80411V5.81635ZM55.6787 8.95105H56.2158C57.0945 8.95105 57.5828 8.53472 57.5828 7.60411C57.5828 6.75921 57.0213 6.26941 56.2768 6.26941H55.6665V8.96329L55.6787 8.95105ZM60.4754 5.75513C61.5617 5.75513 62.1841 6.55105 62.1841 7.61635C62.1841 8.70615 61.5739 9.46533 60.4754 9.46533C59.3769 9.46533 58.7545 8.70615 58.7545 7.61635C58.7545 6.55105 59.3891 5.75513 60.4632 5.75513H60.4754ZM60.4754 9.01227C61.2932 9.01227 61.6471 8.32656 61.6471 7.61635C61.6471 6.88166 61.2565 6.20819 60.4754 6.20819C59.6821 6.20819 59.2915 6.88166 59.2915 7.61635C59.2915 8.32656 59.6454 9.01227 60.4754 9.01227ZM62.9531 5.81635H63.6488L65.2233 8.70615H65.2355V5.81635H65.7481V9.40411H65.089L63.4779 6.45309H63.4657V9.40411H62.9531V5.81635ZM69.9833 6.36737C69.7739 6.26557 69.5447 6.21122 69.312 6.20819C69.0313 6.20819 68.6895 6.30615 68.6895 6.69798C68.6895 7.37145 70.2274 7.21227 70.2274 8.40002C70.2274 9.17145 69.6416 9.46533 68.9215 9.46533C68.6773 9.46533 68.4332 9.40411 68.1891 9.31839L68.238 8.84084C68.4088 8.91431 68.7262 9.01227 68.9703 9.01227C69.2754 9.01227 69.6782 8.85309 69.6782 8.43676C69.6782 7.6286 68.1403 7.849 68.1403 6.72247C68.1403 6.09798 68.6529 5.75513 69.2876 5.75513C69.5317 5.75513 69.8124 5.79186 70.0565 5.87758L69.9833 6.36737ZM73.4252 6.40411C73.2055 6.28166 72.9492 6.20819 72.6929 6.20819C71.8629 6.20819 71.3137 6.80819 71.3137 7.61635C71.3137 8.46125 71.9239 9.01227 72.6563 9.01227C72.9248 9.01227 73.2665 8.95105 73.4496 8.84084L73.474 9.33064C73.2055 9.45309 72.8638 9.46533 72.6563 9.46533C71.5334 9.46533 70.7767 8.73064 70.7767 7.60411C70.7767 6.50207 71.57 5.76737 72.6685 5.76737C72.9492 5.76737 73.2177 5.79186 73.474 5.91431L73.4252 6.40411ZM74.1575 5.81635H74.6701V7.32247H76.3789V5.81635H76.8915V9.40411H76.3789V7.77554H74.6701V9.40411H74.1575V5.81635ZM79.4058 5.75513C80.492 5.75513 81.1145 6.55105 81.1145 7.61635C81.1145 8.70615 80.5042 9.46533 79.4058 9.46533C78.3073 9.46533 77.6848 8.70615 77.6848 7.61635C77.6848 6.55105 78.3195 5.75513 79.3936 5.75513H79.4058ZM79.4058 9.01227C80.2235 9.01227 80.5775 8.32656 80.5775 7.61635C80.5775 6.88166 80.1869 6.20819 79.4058 6.20819C78.6124 6.20819 78.2219 6.88166 78.2219 7.61635C78.2219 8.32656 78.588 9.01227 79.4058 9.01227ZM83.4213 5.75513C84.5198 5.75513 85.1545 6.55105 85.1545 7.61635C85.1545 8.70615 84.5198 9.46533 83.4213 9.46533C82.3228 9.46533 81.7126 8.70615 81.7126 7.61635C81.7126 6.55105 82.335 5.75513 83.4213 5.75513ZM83.4213 9.01227C84.2513 9.01227 84.6052 8.32656 84.6052 7.61635C84.6052 6.88166 84.2147 6.20819 83.4213 6.20819C82.6402 6.20819 82.2496 6.88166 82.2496 7.61635C82.2496 8.32656 82.6036 9.01227 83.4213 9.01227ZM85.9112 5.81635H86.4238V8.95105H87.9128V9.40411H85.9112V5.81635Z" fill="black"/>
<path d="M36.8104 14.0816C37.6281 14.0816 38.1163 14.6816 38.1163 15.4897C38.1163 16.3224 37.6281 16.9102 36.8104 16.9102C35.9682 16.9102 35.4922 16.3224 35.4922 15.4897C35.4922 14.6816 35.9804 14.0693 36.8104 14.0693V14.0816ZM36.8104 16.5551C37.4328 16.5551 37.7013 16.0285 37.7013 15.4897C37.7013 14.9387 37.4084 14.4122 36.8104 14.4244C36.2001 14.4244 35.9072 14.9387 35.9072 15.4897C35.9072 16.0285 36.1757 16.5551 36.8104 16.5551ZM39.0073 14.1183H40.4597V14.4612H39.3979V15.2693H40.4109V15.6122H39.3979V16.8612H39.0073V14.1183ZM43.6941 13.2612H45.6958V13.7142H44.2068V14.7673H45.5615V15.2204H44.2068V16.4081H45.6958V16.8612H43.6941V13.2612ZM49.4672 13.8612C49.2475 13.7265 48.9912 13.653 48.7349 13.653C47.9049 13.653 47.3557 14.2653 47.3557 15.0612C47.3557 15.9061 47.966 16.4693 48.6983 16.4693C48.9668 16.4693 49.3086 16.3959 49.4794 16.2857L49.516 16.7877C49.2475 16.9102 48.9058 16.9102 48.6983 16.9102C47.5632 16.9102 46.8187 16.1877 46.8187 15.0489C46.8187 13.9469 47.612 13.2122 48.7105 13.2122C48.979 13.2122 49.2475 13.2489 49.5038 13.3591L49.4672 13.8489V13.8612ZM52.1402 13.2C53.2387 13.2 53.8611 13.9959 53.8611 15.0612C53.8611 16.1632 53.2387 16.9224 52.1524 16.9224C51.0539 16.9224 50.4192 16.151 50.4192 15.0612C50.4192 13.9959 51.0539 13.2 52.1402 13.2ZM52.1402 16.4693C52.9701 16.4693 53.3241 15.7714 53.3241 15.0612C53.3241 14.3265 52.9335 13.653 52.1402 13.653C51.359 13.653 50.9685 14.3265 50.9685 15.0612C50.9685 15.7714 51.3224 16.4693 52.1402 16.4693ZM54.9596 13.2612H55.6553L57.242 16.1632H57.2542V13.2612H57.7668V16.8612H57.1077L55.4844 13.9102H55.4722V16.8612H54.9596V13.2612ZM60.6839 13.2C61.7823 13.2 62.4048 13.9959 62.4048 15.0612C62.4048 16.1632 61.7823 16.9224 60.6961 16.9224C59.5976 16.9224 58.9629 16.151 58.9629 15.0612C58.9629 13.9959 59.5976 13.2 60.6839 13.2ZM60.6839 16.4693C61.5138 16.4693 61.8678 15.7714 61.8678 15.0612C61.8678 14.3265 61.4772 13.653 60.6839 13.653C59.8905 13.653 59.5 14.3265 59.5 15.0612C59.5 15.7714 59.8661 16.4693 60.6839 16.4693ZM63.5155 13.2612H64.3577L65.4805 16.2489L66.579 13.2612H67.4334V16.8612H66.9208V13.751H66.9086L65.7246 16.8612H65.2242L64.0403 13.751H64.0281V16.8612H63.5155V13.2612ZM68.8248 13.2612H69.3374V16.8612H68.8248V13.2612ZM73.0966 13.8612C72.8647 13.7265 72.6084 13.653 72.3643 13.653C71.5344 13.653 70.9851 14.2653 70.9851 15.0612C70.9851 15.9061 71.5954 16.4693 72.3277 16.4693C72.584 16.4693 72.938 16.3959 73.1088 16.2857L73.1454 16.7877C72.8647 16.9102 72.5352 16.9102 72.3277 16.9102C71.1926 16.9102 70.4359 16.1877 70.4359 15.0489C70.4359 13.9469 71.2414 13.2122 72.3277 13.2122C72.6084 13.2122 72.8769 13.2489 73.1332 13.3591L73.0966 13.8489V13.8612ZM75.855 13.8122C75.6456 13.7104 75.4164 13.656 75.1837 13.653C74.903 13.653 74.5613 13.7632 74.5613 14.1428C74.5613 14.8285 76.0991 14.6693 76.0991 15.8571C76.0991 16.6163 75.5133 16.9224 74.7932 16.9224C74.5491 16.9224 74.3049 16.8489 74.0608 16.7755L74.1097 16.2857C74.2805 16.3591 74.5979 16.4693 74.842 16.4693C75.1471 16.4693 75.5499 16.2979 75.5499 15.8816C75.5499 15.0734 74.012 15.2938 74.012 14.1795C74.012 13.5428 74.5246 13.2 75.1715 13.2C75.4034 13.2 75.6841 13.2489 75.9282 13.3224L75.855 13.8122ZM80.0292 14.1183H80.4442L81.5915 16.8612H81.1643L80.8958 16.1632H79.5532L79.2725 16.8612H78.8697L80.0292 14.1183ZM80.2245 14.4857L79.6753 15.8448H80.7737L80.2245 14.4979V14.4857ZM82.275 14.1183H82.7998L84.0081 16.3224V14.1183H84.3987V16.8612H83.8983L82.6656 14.6081V16.8612H82.275V14.1183ZM85.3507 14.1183H86.1563C86.9618 14.1183 87.6209 14.6204 87.6209 15.4653C87.6209 16.3836 87.0595 16.8612 86.1563 16.8612H85.3507V14.1183ZM85.7413 16.5183H86.1563C86.8276 16.5183 87.1937 16.1877 87.1937 15.4775C87.1937 14.8408 86.7665 14.4612 86.2051 14.4612H85.7413V16.5306V16.5183Z" fill="black"/>
</svg>
