<svg width="60" height="20" viewBox="0 0 60 20" fill="none" xmlns="http://www.w3.org/2000/svg">
    <g clip-path="url(#clip0_781_5500)">
        <path d="M25.9688 4.22168H28.2644L33.5948 11.1782V4.22168H36.0209V15.5565H33.8905L28.4122 8.29559V15.5565H25.9688V4.22168Z" fill="#660288"/>
        <path d="M41.676 11.113L37.3281 4.22168H40.2151L42.9542 8.81298L45.6933 4.22168H48.502L44.1542 11.0391V15.5565H41.589V11.113H41.676Z" fill="#660288"/>
        <path d="M49.582 10.739V4.21729H52.1081V10.6651C52.1081 12.5173 52.9777 13.4825 54.5472 13.4825C56.1168 13.4825 56.9907 12.5912 56.9907 10.739V4.21729H59.4994V10.6651C59.4994 14.0738 57.5733 15.7782 54.5386 15.7782C51.4299 15.7782 49.582 14.0738 49.582 10.739Z" fill="#660288"/>
        <path d="M20.8047 20H0.804688V0H20.8047V20ZM10.1308 17.6304C10.1308 17.7783 10.4264 17.8522 10.5003 17.6304L11.1656 12.0739H9.46556L10.1308 17.6304ZM11.7612 11.7043V10.8696H8.87425V11.687L11.7612 11.7043ZM10.9438 10.4348C14.5699 10.5826 14.8569 7.25217 14.8569 5.9913C14.7829 6.28696 14.2612 7.17826 12.9308 7.76957C12.3878 7.99 11.9155 8.35495 11.5652 8.82479C11.215 9.29464 11 9.85144 10.9438 10.4348ZM10.5743 10.213C11.1656 7.47391 13.3873 7.4 13.6177 6.87826C13.9134 6.06522 13.3221 4.58261 13.1829 4.43478H13.109C12.8309 5.06446 12.4218 5.62768 11.909 6.08696C11.4743 6.45652 9.53947 7.93913 10.5743 10.2348V10.213ZM10.1395 10.3609C8.88295 7.75217 11.396 6.06522 11.7699 5.69565C11.8438 5.62174 11.8438 5.62174 11.8438 5.54783C11.787 4.73076 11.5823 3.93081 11.2395 3.18696H11.1656C10.9438 4 9.83512 5.18696 9.61338 5.48261C7.6873 7.70435 8.13077 9.11304 10.1308 10.3696L10.1395 10.3609ZM9.61338 10.4348C7.53947 9.17826 7.76121 7.47391 8.65251 6.21304V6.08696C8.56998 5.63442 8.39213 5.20462 8.13077 4.82609C8.13077 4.75217 8.05686 4.75217 8.05686 4.82609C8.05686 5.2 7.62208 6.08696 7.02208 7.05217C6.43077 8.08696 6.43077 10.3826 9.63077 10.4565L9.61338 10.4348Z" fill="#660288"/>
    </g>
    <defs>
        <clipPath id="clip0_781_5500">
            <rect width="58.6956" height="20" fill="white" transform="translate(0.804688)"/>
        </clipPath>
    </defs>
</svg>
