<svg width="21" height="30" viewBox="0 0 21 30" fill="none" xmlns="http://www.w3.org/2000/svg">
<path d="M0.667969 23.0547H2.03733L5.21696 27.2043V23.0547H6.66413V29.8159H5.39331L2.12551 25.4848V29.8159H0.667969V23.0547Z" fill="#660288"/>
<path d="M10.0349 27.1654L7.44141 23.0547H9.16349L10.7974 25.7934L12.4313 23.0547H14.1067L11.5132 27.1213V29.8159H9.98303V27.1654H10.0349Z" fill="#660288"/>
<path d="M14.752 26.9422V23.052H16.2588V26.8982C16.2588 28.003 16.7775 28.5787 17.7137 28.5787C18.65 28.5787 19.1713 28.0471 19.1713 26.9422V23.052H20.6677V26.8982C20.6677 28.9315 19.5188 29.9481 17.7085 29.9481C15.8542 29.9481 14.752 28.9315 14.752 26.9422Z" fill="#660288"/>
<path d="M20.668 20.052H0.667969V0.052002H20.668V20.052ZM9.99405 17.6824C9.99405 17.8303 10.2897 17.9042 10.3636 17.6824L11.0288 12.1259H9.32884L9.99405 17.6824ZM11.6245 11.7563V10.9216H8.73753V11.739L11.6245 11.7563ZM10.8071 10.4868C14.4332 10.6346 14.7201 7.30418 14.7201 6.04331C14.6462 6.33896 14.1245 7.23026 12.7941 7.82157C12.251 8.04201 11.7788 8.40695 11.4285 8.87679C11.0782 9.34664 10.8633 9.90344 10.8071 10.4868ZM10.4375 10.265C11.0288 7.52591 13.2506 7.452 13.481 6.93026C13.7767 6.11722 13.1854 4.63461 13.0462 4.48678H12.9723C12.6942 5.11646 12.2851 5.67968 11.7723 6.13896C11.3375 6.50852 9.40275 7.99113 10.4375 10.2868V10.265ZM10.0028 10.4129C8.74623 7.80418 11.2593 6.11722 11.6332 5.74765C11.7071 5.67374 11.7071 5.67374 11.7071 5.59983C11.6503 4.78276 11.4455 3.98281 11.1028 3.23896H11.0288C10.8071 4.052 9.6984 5.23896 9.47666 5.53461C7.55058 7.75635 7.99406 9.16504 9.99405 10.4216L10.0028 10.4129ZM9.47666 10.4868C7.40275 9.23026 7.62449 7.52591 8.51579 6.26505V6.13896C8.43326 5.68643 8.25541 5.25663 7.99406 4.87809C7.99406 4.80418 7.92014 4.80418 7.92014 4.87809C7.92014 5.252 7.48536 6.13896 6.88536 7.10418C6.29405 8.13896 6.29405 10.4346 9.49405 10.5085L9.47666 10.4868Z" fill="#660288"/>
</svg>
