<svg width="58" height="20" viewBox="0 0 58 20" fill="none" xmlns="http://www.w3.org/2000/svg">
    <g clip-path="url(#clip0_753_4039)">
        <path d="M8.28156 4.5752C4.00589 4.5752 0.523438 8.01149 0.523438 12.2972C0.523438 16.5636 4.00589 19.9999 8.28156 19.9999C12.5766 19.9999 16.059 16.5636 16.059 12.2972C16.059 8.01149 12.5766 4.5752 8.28156 4.5752ZM8.28156 16.776C5.90189 16.776 3.94785 14.6717 3.94785 12.2972C3.94785 9.90338 5.90189 7.79913 8.28156 7.79913C10.6806 7.79913 12.6346 9.90338 12.6346 12.2972C12.6346 14.6717 10.6806 16.776 8.28156 16.776Z" fill="black"/>
        <path d="M3.83125 3.41699C4.75991 3.41699 5.53378 2.64479 5.53378 1.69884C5.53378 0.772201 4.75991 0 3.83125 0C2.88325 0 2.10938 0.772201 2.10938 1.69884C2.10938 2.64479 2.88325 3.41699 3.83125 3.41699Z" fill="black"/>
        <path d="M12.7297 3.41699C13.6583 3.41699 14.4322 2.64479 14.4322 1.69884C14.4322 0.772201 13.6583 0 12.7297 0C11.7817 0 11.0078 0.772201 11.0078 1.69884C11.0078 2.64479 11.7817 3.41699 12.7297 3.41699Z" fill="black"/>
        <path d="M8.28047 3.41699C9.20913 3.41699 9.983 2.64479 9.983 1.69884C9.983 0.772201 9.20913 0 8.28047 0C7.33247 0 6.55859 0.772201 6.55859 1.69884C6.55859 2.64479 7.33247 3.41699 8.28047 3.41699Z" fill="black"/>
        <path d="M42.5646 4.84557H38.792L34.3228 11.0425V0.250977H30.8984V19.7297H34.3228V13.5328L39.1402 19.7297H43.1837L37.2442 12.2008L42.5646 4.84557Z" fill="black"/>
        <path d="M29.2912 4.84557H25.5186L21.0494 11.0425V0.250977H17.625V19.7297H21.0494V13.5328L25.8668 19.7297H29.9103L23.9708 12.2008L29.2912 4.84557Z" fill="black"/>
        <path d="M49.2777 4.5752C45.002 4.5752 41.5195 8.01149 41.5195 12.2972C41.5195 16.5636 45.002 19.9999 49.2777 19.9999C53.5727 19.9999 57.0551 16.5636 57.0551 12.2972C57.0551 8.01149 53.5727 4.5752 49.2777 4.5752ZM49.2583 16.776C46.8786 16.776 44.9246 14.6717 44.9246 12.2972C44.9246 9.90338 46.8786 7.79913 49.2583 7.79913C51.6573 7.79913 53.6114 9.90338 53.6114 12.2972C53.6114 14.6717 51.6573 16.776 49.2583 16.776Z" fill="black"/>
    </g>
    <defs>
        <clipPath id="clip0_753_4039">
            <rect width="56.5318" height="20" fill="white" transform="translate(0.523438)"/>
        </clipPath>
    </defs>
</svg>
