<svg width="213" height="20" viewBox="0 0 213 20" fill="none" xmlns="http://www.w3.org/2000/svg">
    <path d="M24.5415 18.6629L17.0391 14.3323L24.5415 10.0007V18.6629Z" fill="#98D5E9"/>
    <path d="M9.53763 18.6629L2.03516 14.3323L9.53763 10.0007V18.6629Z" fill="#0065A0"/>
    <path d="M17.0395 14.3326L24.542 10.0011V1.33691L9.53906 10.0011L17.0395 14.3326Z" fill="#00A7CE"/>
    <path d="M32.0395 14.3326L24.5391 10.001L32.0395 5.66943V14.3326Z" fill="#0065A0"/>
    <path d="M24.5391 18.6629L32.0395 14.3323L24.5391 10.0007V18.6629Z" fill="#00A7CE"/>
    <path d="M9.53763 1.33789L2.03516 5.66946V14.3326L9.53763 10V1.33789Z" fill="#00A7CE"/>
    <path d="M9.53906 10.0008L17.0395 5.66922L9.53906 1.33765V10.0008Z" fill="#002D73"/>
    <path d="M9.53906 18.6629L17.0395 14.3323L9.53906 10.0007V18.6629Z" fill="#98D5E9"/>
    <path d="M24.5391 10.0008L32.0395 5.66922L24.5391 1.33765V10.0008Z" fill="#002D73"/>
    <path d="M88.0894 2.46785L83.4981 14.1992H83.4357L78.7145 2.46785H75.896L82.421 17.5322H84.2752L90.6986 2.46785H88.0894ZM92.8295 2.46624V17.5336H102.533V15.5626H95.2716V10.6029H101.494V8.63089H95.2716V4.43925H102.393V2.46624H92.8295ZM48.5236 15.7704C45.394 15.7704 42.8281 13.3475 42.8281 9.98931C42.8281 6.64425 45.394 4.23134 48.5236 4.23134C51.6422 4.23134 54.2001 6.64425 54.2001 9.98931C54.2001 13.3475 51.6422 15.7704 48.5236 15.7704ZM48.5236 2.19189C43.7089 2.19189 40.2148 5.47051 40.2148 9.98931C40.2148 14.5212 43.7089 17.8109 48.5236 17.8109C53.3283 17.8109 56.8123 14.5212 56.8123 9.98931C56.8123 5.47051 53.3283 2.19189 48.5236 2.19189ZM59.5632 2.46792V17.5343H68.5918V15.5582H62.0013V2.46792H59.5632ZM71.2812 2.46792V17.5343H73.7666V4.80834V2.46792H71.2812ZM112.321 11.1575C114.858 10.8616 116.678 9.16538 116.678 6.63268C116.678 5.09554 115.544 2.4662 111.631 2.4662H105.473V17.5336H107.915V4.39492H111.038C113.21 4.39492 114.211 5.45089 114.211 6.90145C114.211 8.35303 113.102 9.40193 110.721 9.40193H108.108L114.594 17.5336H117.598L112.321 11.1575ZM139.054 17.5326H137.122L133.827 8.32987L130.531 17.5326H128.646L123.286 2.46822H125.986L129.706 13.9882H129.759L132.759 5.30795L131.736 2.46822H134.21L138.132 13.9207H138.19L141.67 2.46822H144.166L139.054 17.5326ZM169.641 14.23L164.886 2.46943H161.45V17.5338H163.774V5.76415H163.825L168.546 17.5338H170.616L175.557 5.67254H175.608V17.5338H177.971V2.46943H174.583L169.715 14.23H169.641ZM156.635 2.46792L152.402 9.58083L148.472 2.46792H145.525L151.08 11.5911V17.5323H153.523V11.5911L159.389 2.46792H156.635ZM208.514 13.97L200.913 2.4661H197.66V17.5345H200.1V5.3763H200.154L208.192 17.5345H211.011V2.4661H208.57V13.97H208.514ZM187.861 5.20617L190.224 11.3628H185.397L187.78 5.20617H187.861ZM186.543 2.46811L180.496 17.5345H182.996L184.614 13.3328H190.951L192.57 17.5345H195.155L189.207 2.46811H186.543Z" fill="#00A7CE"/>
</svg>
