<svg width="32" height="32" viewBox="0 0 32 32" fill="none" xmlns="http://www.w3.org/2000/svg">
<g clip-path="url(#clip0_1414_10741)">
<path fill-rule="evenodd" clip-rule="evenodd" d="M16 0C7.13143 0 0 7.13143 0 16C0 24.7771 7.13143 32 16 32C24.7771 32 32 24.8686 32 16C31.9086 7.13143 24.7771 0 16 0Z" fill="#0F2954"/>
<path fill-rule="evenodd" clip-rule="evenodd" d="M18.7435 14.537C19.7492 14.0799 20.3892 13.4399 20.8464 12.9827C21.6692 12.0685 21.9435 10.9713 21.9435 9.87414C21.9435 9.05126 21.6692 7.31415 20.2064 6.12558C19.2006 5.30272 18.2864 4.93701 16.092 4.93701H14.9949H14.9035H10.332V26.3313H23.2235V22.217C23.2235 18.377 22.0349 15.7256 18.7435 14.537ZM20.2977 25.2341H17.9206V18.1027H15.2692V25.2341H13.1664V6.03415H15.2692C16.092 6.03415 17.2806 6.21701 18.1035 7.22272C18.5606 7.77129 18.8349 8.5027 18.9264 9.1427H15.1777V10.2399H18.9264C18.9264 10.8799 18.7435 11.7027 18.1035 12.5256C17.5549 13.257 16.5492 13.897 15.1777 13.897V14.9941C18.8349 14.9941 20.2064 17.3713 20.2064 21.8513V25.2341H20.2977Z" fill="white"/>
</g>
<defs>
<clipPath id="clip0_1414_10741">
<rect width="32" height="32" fill="white"/>
</clipPath>
</defs>
</svg>
