<svg width="87" height="20" viewBox="0 0 87 20" fill="none" xmlns="http://www.w3.org/2000/svg">
    <g clip-path="url(#clip0_753_4131)">
        <path fill-rule="evenodd" clip-rule="evenodd" d="M65.2237 12.5024H32.8047V11.8577H65.2237V12.5024Z" fill="#525F7B"/>
        <path fill-rule="evenodd" clip-rule="evenodd" d="M82.5967 13.9442H82.6251C82.8365 13.7183 83.7394 12.8294 83.9228 12.625C84.0999 12.4274 84.234 12.287 84.234 12.1809C84.234 12.1172 84.2056 12.0752 84.1496 12.061C84.0929 12.047 84.0645 12.0324 84.0645 11.9974C84.0645 11.9553 84.0999 11.9412 84.1636 11.9412C84.2973 11.9412 84.6365 11.9553 84.8053 11.9553C84.9964 11.9553 85.3412 11.9412 85.5324 11.9412C85.5957 11.9412 85.6381 11.9553 85.6381 11.9974C85.6381 12.0396 85.6031 12.061 85.5467 12.061C85.4553 12.061 85.2999 12.0896 85.1875 12.1318C84.9887 12.2021 84.7919 12.3292 84.5308 12.5763C84.3327 12.7594 83.4082 13.6341 83.2174 13.8527C83.4365 14.1346 84.6575 15.4038 84.8973 15.6298C85.1731 15.8767 85.413 16.1378 85.7445 16.2714C85.9286 16.3496 86.0553 16.3496 86.1247 16.3496C86.1747 16.3496 86.2101 16.3775 86.2101 16.4131C86.2101 16.4549 86.1747 16.4761 86.0626 16.4761H85.5187C85.3352 16.4761 85.2218 16.4761 85.0884 16.4621C84.7562 16.4339 84.5518 16.3069 84.283 16.0738C84.0148 15.8413 82.8222 14.4592 82.6878 14.2754L82.6251 14.1909H82.5967V14.7338C82.5967 15.2843 82.5967 15.7569 82.6107 16.0176C82.6251 16.187 82.6804 16.2998 82.8365 16.3278C82.9202 16.3422 83.0623 16.3496 83.1397 16.3496C83.1894 16.3496 83.2241 16.3845 83.2241 16.4131C83.2241 16.4549 83.175 16.4761 83.1047 16.4761C82.7585 16.4761 82.3136 16.4549 82.1591 16.4549C82.0171 16.4549 81.6218 16.4761 81.375 16.4761C81.298 16.4761 81.2546 16.4549 81.2546 16.4131C81.2546 16.3845 81.2763 16.3496 81.3537 16.3496C81.4454 16.3496 81.5164 16.3422 81.5728 16.3278C81.6999 16.2998 81.7349 16.187 81.7562 16.0107C81.7839 15.7569 81.7839 15.2843 81.7839 14.7338V13.6761C81.7839 12.7666 81.7839 12.597 81.7779 12.4063C81.7636 12.2021 81.7072 12.1385 81.5091 12.0824C81.4601 12.0683 81.3537 12.061 81.262 12.061C81.1983 12.061 81.1562 12.0396 81.1562 11.9974C81.1562 11.9553 81.2059 11.9412 81.298 11.9412C81.6218 11.9412 82.0171 11.9553 82.1658 11.9553C82.3136 11.9553 82.7585 11.9412 82.9629 11.9412C83.0553 11.9412 83.0973 11.9553 83.0973 11.9974C83.0973 12.0396 83.0623 12.061 83.0126 12.061C82.9496 12.061 82.9146 12.0683 82.8365 12.0824C82.6674 12.1108 82.6167 12.1951 82.6031 12.4063C82.5967 12.597 82.5967 12.7666 82.5967 13.6761V13.9442Z" fill="#525F7B"/>
        <path fill-rule="evenodd" clip-rule="evenodd" d="M67.5249 13.5106C67.5246 12.7469 67.5239 12.5885 67.5116 12.4093C67.4972 12.2057 67.4305 12.1041 67.2831 12.074C67.2087 12.0563 67.1217 12.0502 67.041 12.0502C66.9736 12.0502 66.9336 12.038 66.9336 11.9905C66.9336 11.9545 66.9873 11.9423 67.095 11.9423C67.3498 11.9423 67.7734 11.9604 67.9682 11.9604C68.7396 11.9604 69.0067 11.959 69.0621 11.9642H69.2946C69.5727 11.9642 69.7635 11.9468 69.8939 11.9353C70.0236 11.9181 70.0933 11.9067 70.1284 11.9067C70.1891 11.9067 70.1974 11.9411 70.1974 12.0273C70.1974 12.148 70.1711 12.5441 70.1711 12.6935C70.1631 12.7507 70.1457 12.7852 70.0933 12.7852C70.0236 12.7852 70.0063 12.7564 69.998 12.6703L69.9886 12.6073C69.9716 12.458 69.7371 12.2972 68.9654 12.2855L68.4201 12.277C68.3927 12.3026 68.3754 12.3432 68.3711 12.4094C68.3571 12.6011 68.3571 12.7688 68.3571 13.679V13.8112L68.3661 13.815V13.8284H68.4391C68.4935 13.8347 68.5658 13.8378 68.6602 13.8378C68.7309 13.8378 68.7983 13.8354 68.8607 13.8284C69.6691 13.8284 70.5733 14.2102 70.5733 15.1639C70.5733 15.7885 70.0917 16.4333 69.0114 16.4672C69.0001 16.4681 68.9881 16.4686 68.9754 16.4686L68.9214 16.4685H68.918H68.9144H68.9134H68.9107L68.9064 16.4683H68.902C68.4858 16.4665 68.0986 16.4507 67.9278 16.4507C67.7731 16.4507 67.3498 16.4686 67.0817 16.4686C66.994 16.4686 66.9469 16.4507 66.9469 16.4088C66.9469 16.3789 66.9736 16.3608 67.0543 16.3608C67.155 16.3608 67.2354 16.3489 67.2958 16.337C67.4302 16.3129 67.4706 16.2113 67.4909 16.0375V16.0361C67.4919 16.0217 67.4932 16.006 67.4952 15.9886C67.5233 15.7348 67.5233 15.2622 67.5233 14.7118V13.6541V13.5105L67.5249 13.5106ZM68.3571 14.113V14.7324C68.3571 15.2588 68.357 15.6964 68.3774 15.9654C68.4094 16.0336 68.4621 16.0752 68.5475 16.1088C68.7096 16.1725 68.8507 16.1791 68.9917 16.1791C69.3239 16.1791 69.7538 15.9956 69.7538 15.3325C69.7538 15.0581 69.6344 14.585 69.1685 14.268C69.0418 14.1763 68.872 14.1127 68.6319 14.1127H68.3641L68.3571 14.113Z" fill="#525F7B"/>
        <path fill-rule="evenodd" clip-rule="evenodd" d="M76.7457 13.6898C76.7457 12.7805 76.7457 12.613 76.7337 12.4214C76.7214 12.2181 76.6617 12.1165 76.5303 12.0866C76.4639 12.0687 76.3865 12.0626 76.3141 12.0626C76.2544 12.0626 76.2188 12.0506 76.2188 12.0031C76.2188 11.9671 76.2664 11.9548 76.3625 11.9548C76.5896 11.9548 76.9672 11.973 77.1406 11.973C77.29 11.973 77.6435 11.9548 77.8713 11.9548C77.9487 11.9548 77.9964 11.9671 77.9964 12.0031C77.9964 12.0506 77.9607 12.0626 77.9007 12.0626C77.841 12.0626 77.7933 12.0687 77.7216 12.0804C77.5598 12.1105 77.5118 12.212 77.5001 12.4214C77.4875 12.613 77.4875 12.7805 77.4875 13.6898V14.0556H79.4155V13.6898C79.4155 12.7805 79.4155 12.613 79.4035 12.4214C79.3912 12.2181 79.3315 12.1165 79.1997 12.0866C79.1337 12.0687 79.0563 12.0626 78.984 12.0626C78.9243 12.0626 78.8886 12.0506 78.8886 12.0031C78.8886 11.9671 78.9363 11.9548 79.0323 11.9548C79.2594 11.9548 79.637 11.973 79.8104 11.973C79.9598 11.973 80.313 11.9548 80.5412 11.9548C80.6185 11.9548 80.6662 11.9671 80.6662 12.0031C80.6662 12.0506 80.6305 12.0626 80.5705 12.0626C80.5108 12.0626 80.4628 12.0687 80.3914 12.0804C80.2296 12.1105 80.1816 12.212 80.1696 12.4214C80.1573 12.613 80.1573 12.7805 80.1573 13.6898V14.7424C80.1573 15.3227 80.1573 15.7952 80.1816 16.0523C80.1993 16.2138 80.2413 16.3214 80.4208 16.3454C80.5045 16.3573 80.6365 16.3693 80.7263 16.3693C80.792 16.3693 80.822 16.3873 80.822 16.4171C80.822 16.4591 80.7743 16.4768 80.7082 16.4768C80.313 16.4768 79.9358 16.4591 79.7747 16.4591C79.637 16.4591 79.2594 16.4768 79.0203 16.4768C78.9423 16.4768 78.9002 16.4591 78.9002 16.4171C78.9002 16.3873 78.9243 16.3693 78.9963 16.3693C79.086 16.3693 79.1577 16.3573 79.2117 16.3454C79.3315 16.3214 79.3672 16.2199 79.3852 16.0462C79.4155 15.7952 79.4155 15.3227 79.4155 14.7424V14.3761H77.4875V14.7424C77.4875 15.3227 77.4875 15.7952 77.5118 16.0523C77.5295 16.2138 77.5715 16.3214 77.7509 16.3454C77.835 16.3573 77.9667 16.3693 78.0564 16.3693C78.1225 16.3693 78.1522 16.3873 78.1522 16.4171C78.1522 16.4591 78.1045 16.4768 78.0388 16.4768C77.6435 16.4768 77.266 16.4591 77.1049 16.4591C76.9672 16.4591 76.5896 16.4768 76.3508 16.4768C76.2724 16.4768 76.2308 16.4591 76.2308 16.4171C76.2308 16.3873 76.2544 16.3693 76.3265 16.3693C76.4162 16.3693 76.4879 16.3573 76.5419 16.3454C76.6617 16.3214 76.6973 16.2199 76.7154 16.0462C76.7457 15.7952 76.7457 15.3227 76.7457 14.7424V13.6898Z" fill="#525F7B"/>
        <path fill-rule="evenodd" clip-rule="evenodd" d="M43.3753 7.14579C43.3753 7.97949 43.3753 8.65865 43.3323 9.01972C43.3066 9.26899 43.2549 9.41515 43.0828 9.44945C43.0054 9.46675 42.9024 9.48389 42.7733 9.48389C42.6699 9.48389 42.6355 9.50969 42.6355 9.55265C42.6355 9.61282 42.6959 9.63865 42.8076 9.63865C43.1518 9.63865 43.6938 9.61282 43.8916 9.61282C44.124 9.61282 44.666 9.63865 45.2337 9.63865C45.3284 9.63865 45.3971 9.61282 45.3971 9.55265C45.3971 9.50969 45.3544 9.48389 45.2597 9.48389C45.1306 9.48389 44.9412 9.46675 44.8208 9.44945C44.5626 9.41515 44.5026 9.26042 44.4766 9.02832C44.4422 8.65865 44.4422 7.97949 44.4422 7.14579V5.63275C44.4422 4.32615 44.4422 4.08542 44.4596 3.81042C44.4766 3.50945 44.5456 3.36335 44.7777 3.32039C44.8811 3.30316 44.9498 3.29461 45.0359 3.29461C45.1219 3.29461 45.1736 3.27734 45.1736 3.20862C45.1736 3.15703 45.1046 3.13989 44.9929 3.13989C44.666 3.13989 44.1584 3.21646 43.9433 3.21646C43.6938 3.21646 43.1518 3.19064 42.8247 3.19064C42.2443 3.19064 41.658 3.19064 41.0817 3.19064C40.7548 3.19064 40.2472 3.21646 40.0321 3.21646C39.7826 3.21646 39.2407 3.13989 38.9135 3.13989C38.7761 3.13989 38.707 3.15703 38.707 3.20862C38.707 3.27734 38.7587 3.29461 38.8448 3.29461C38.9478 3.29461 39.0599 3.30316 39.1546 3.32893C39.3437 3.37199 39.4298 3.51809 39.4471 3.81042C39.4641 4.08542 39.4641 4.32615 39.4641 5.63275V7.14579C39.4641 7.97949 39.4641 8.65865 39.4211 9.01972C39.3954 9.26899 39.3437 9.41515 39.1716 9.44945C39.0942 9.46675 38.9912 9.48389 38.8621 9.48389C38.7587 9.48389 38.7244 9.50969 38.7244 9.55265C38.7244 9.61282 38.7847 9.63865 38.8965 9.63865C39.2407 9.63865 39.7826 9.61282 39.9804 9.61282C40.2125 9.61282 40.7548 9.63865 41.3225 9.63865C41.4172 9.63865 41.4859 9.61282 41.4859 9.55265C41.4859 9.50969 41.4429 9.48389 41.3485 9.48389C41.2194 9.48389 41.03 9.46675 40.9096 9.44945C40.6514 9.41515 40.5914 9.26042 40.5654 9.02832C40.531 8.65865 40.531 7.97949 40.531 7.14579V5.63275C40.531 4.90225 40.531 3.93812 40.5344 3.68165L41.4496 3.68112H42.9637L43.3726 3.68135C43.376 3.93782 43.376 4.90295 43.376 5.63275L43.3753 7.14579Z" fill="#FFD400"/>
        <path fill-rule="evenodd" clip-rule="evenodd" d="M46.4633 5.66864C46.4633 4.35007 46.4633 4.10711 46.446 3.82931C46.428 3.53457 46.3416 3.38727 46.1508 3.34381C46.0548 3.31793 45.9424 3.3091 45.838 3.3091C45.7509 3.3091 45.6992 3.29164 45.6992 3.22268C45.6992 3.17048 45.7686 3.15283 45.9077 3.15283C46.2375 3.15283 46.7848 3.17912 47.0363 3.17912C47.2527 3.17912 47.765 3.15283 48.0955 3.15283C48.2079 3.15283 48.2773 3.17048 48.2773 3.22268C48.2773 3.29164 48.2253 3.3091 48.1382 3.3091C48.0519 3.3091 47.9822 3.31793 47.8784 3.33487C47.644 3.37844 47.5743 3.52574 47.5573 3.82931C47.5392 4.10711 47.5392 4.35007 47.5392 5.66864V7.19487V7.63437L50.6696 4.48481C50.6676 4.13724 50.6636 3.98904 50.6536 3.82931C50.6356 3.53457 50.5492 3.38727 50.3585 3.34381C50.2624 3.31793 50.15 3.3091 50.0453 3.3091C49.9586 3.3091 49.9069 3.29164 49.9069 3.22268C49.9069 3.17048 49.9763 3.15283 50.1153 3.15283C50.4449 3.15283 50.9922 3.17912 51.244 3.17912C51.4601 3.17912 51.9727 3.15283 52.3032 3.15283C52.4156 3.15283 52.485 3.17048 52.485 3.22268C52.485 3.29164 52.433 3.3091 52.3459 3.3091C52.2595 3.3091 52.1898 3.31793 52.0861 3.33487C51.8516 3.37844 51.7819 3.52574 51.7649 3.82931C51.7469 4.10711 51.7469 4.35007 51.7469 5.66864V7.19487C51.7469 8.03644 51.7469 8.72144 51.7819 9.09431C51.8076 9.32847 51.8686 9.48447 52.1288 9.51931C52.2505 9.53654 52.442 9.55391 52.5717 9.55391C52.6671 9.55391 52.7108 9.58007 52.7108 9.62324C52.7108 9.68417 52.6414 9.70984 52.546 9.70984C51.9727 9.70984 51.4257 9.68417 51.1923 9.68417C50.9922 9.68417 50.4449 9.70984 50.0983 9.70984C49.9849 9.70984 49.9242 9.68417 49.9242 9.62324C49.9242 9.58007 49.9586 9.55391 50.063 9.55391C50.193 9.55391 50.2974 9.53654 50.3755 9.51931C50.5492 9.48447 50.6013 9.33734 50.6273 9.08541C50.671 8.72144 50.671 8.03644 50.671 7.19487V5.66864V5.14314L47.5432 8.29014C47.5472 8.62694 47.5562 8.90207 47.5743 9.09431C47.5999 9.32847 47.661 9.48447 47.9211 9.51931C48.0429 9.53654 48.2343 9.55391 48.364 9.55391C48.4594 9.55391 48.5031 9.58007 48.5031 9.62324C48.5031 9.68417 48.4337 9.70984 48.3383 9.70984C47.765 9.70984 47.2181 9.68417 46.9846 9.68417C46.7848 9.68417 46.2375 9.70984 45.8907 9.70984C45.7776 9.70984 45.7166 9.68417 45.7166 9.62324C45.7166 9.58007 45.7509 9.55391 45.8553 9.55391C45.9857 9.55391 46.0898 9.53654 46.1678 9.51931C46.3416 9.48447 46.3936 9.33734 46.4196 9.08541C46.4633 8.72144 46.4633 8.03644 46.4633 7.19487V5.66864Z" fill="#FFD400"/>
        <path fill-rule="evenodd" clip-rule="evenodd" d="M55.2731 3.56832L53.9797 3.60288C53.4761 3.62045 53.268 3.66392 53.1376 3.85472C53.0505 3.98485 53.0078 4.08855 52.9905 4.15782C52.9735 4.22785 52.9468 4.26218 52.8948 4.26218C52.8337 4.26218 52.8164 4.21918 52.8164 4.12345C52.8164 3.98485 52.9815 3.19557 52.9988 3.12624C53.0252 3.01321 53.0505 2.96143 53.1032 2.96143C53.1723 2.96143 53.2597 3.04794 53.4761 3.06512C53.7279 3.09127 54.0578 3.10878 54.3446 3.10878H57.7818C58.06 3.10878 58.2508 3.08249 58.3812 3.06512C58.5109 3.03912 58.5806 3.02194 58.6156 3.02194C58.676 3.02194 58.6847 3.07395 58.6847 3.20407C58.6847 3.38645 58.6587 3.98485 58.6587 4.21038C58.6503 4.29695 58.633 4.34912 58.5806 4.34912C58.5109 4.34912 58.4932 4.30552 58.4852 4.17542L58.4759 4.08018C58.4589 3.85472 58.2244 3.61175 57.4526 3.59418L56.3587 3.56832V7.12452C56.3587 7.92232 56.3587 8.60738 56.4014 8.98035C56.4281 9.22342 56.4798 9.41408 56.7399 9.44892C56.8613 9.46615 57.0528 9.48355 57.1828 9.48355C57.2782 9.48355 57.3219 9.50968 57.3219 9.55288C57.3219 9.61378 57.2525 9.63955 57.1572 9.63955C56.5838 9.63955 56.0375 9.61378 55.7937 9.61378C55.5943 9.61378 55.0476 9.63955 54.7001 9.63955C54.5874 9.63955 54.5267 9.61378 54.5267 9.55288C54.5267 9.50968 54.5617 9.48355 54.6654 9.48355C54.7958 9.48355 54.9002 9.46615 54.9779 9.44892C55.1517 9.41408 55.2037 9.22341 55.2301 8.97188C55.2731 8.60738 55.2731 7.92232 55.2731 7.12452V3.56832Z" fill="#FFD400"/>
        <path fill-rule="evenodd" clip-rule="evenodd" d="M60.1118 7.37567C60.0684 7.37567 60.0507 7.39284 60.0337 7.44487L59.5648 8.68531C59.4784 8.90217 59.4341 9.11007 59.4341 9.21451C59.4341 9.37057 59.5128 9.48324 59.7819 9.48324H59.9117C60.0167 9.48324 60.0421 9.50081 60.0421 9.55257C60.0421 9.62191 59.9897 9.63924 59.8947 9.63924C59.6172 9.63924 59.2436 9.61347 58.9745 9.61347C58.8788 9.61347 58.4018 9.63924 57.9503 9.63924C57.8372 9.63924 57.7852 9.62191 57.7852 9.55257C57.7852 9.50081 57.8198 9.48324 57.8892 9.48324C57.9676 9.48324 58.089 9.47451 58.1587 9.46584C58.5579 9.41377 58.723 9.11874 58.8961 8.68531L61.075 3.23845C61.179 2.98699 61.2314 2.8916 61.3181 2.8916C61.3968 2.8916 61.4485 2.96947 61.5356 3.16912C61.743 3.64601 63.1328 7.18487 63.6881 8.50317C64.0176 9.28394 64.2694 9.40494 64.4519 9.44861C64.5823 9.47451 64.712 9.48324 64.8164 9.48324C64.8861 9.48324 64.9291 9.49207 64.9291 9.55257C64.9291 9.62191 64.8511 9.63924 64.5302 9.63924C64.2174 9.63924 63.5834 9.63924 62.8893 9.62191C62.7329 9.61347 62.6292 9.61347 62.6292 9.55257C62.6292 9.50081 62.6635 9.48324 62.7502 9.47451C62.8116 9.45721 62.872 9.37931 62.8293 9.27524L62.1342 7.43631C62.1166 7.39284 62.0905 7.37567 62.0469 7.37567H60.1118ZM61.8818 6.94197C61.9258 6.94197 61.9341 6.91571 61.9258 6.88984L61.1447 4.74747C61.136 4.71287 61.1273 4.66954 61.101 4.66954C61.075 4.66954 61.0573 4.71287 61.0493 4.74747L60.2499 6.88124C60.2415 6.91571 60.2499 6.94197 60.2855 6.94197H61.8818Z" fill="#FFD400"/>
        <path fill-rule="evenodd" clip-rule="evenodd" d="M66.9508 3.11734C66.9762 2.96948 67.0282 2.8916 67.0976 2.8916C67.1676 2.8916 67.2193 2.93484 67.3317 3.16029L69.702 8.05221L72.0627 3.09978C72.1314 2.96112 72.1761 2.8916 72.2538 2.8916C72.3315 2.8916 72.3835 2.9783 72.4105 3.16029L73.1996 8.52047C73.2787 9.06697 73.3651 9.31844 73.6252 9.39644C73.877 9.47451 74.0501 9.48324 74.1632 9.48324C74.2422 9.48324 74.3022 9.49207 74.3022 9.54414C74.3022 9.61347 74.1979 9.63924 74.0765 9.63924C73.8593 9.63924 72.6617 9.61347 72.3141 9.58721C72.1147 9.57014 72.0627 9.54414 72.0627 9.49207C72.0627 9.44861 72.097 9.42237 72.1584 9.39644C72.2101 9.37931 72.2364 9.26661 72.2014 9.02364L71.6811 5.20737H71.6464L69.7541 9.14514C69.5539 9.55257 69.5116 9.63077 69.4325 9.63077C69.3545 9.63077 69.2678 9.45721 69.1287 9.19691C68.9209 8.7979 68.2349 7.47107 68.1308 7.22804C68.0521 7.04597 67.5315 5.95317 67.2277 5.30247H67.193L66.7417 8.75464C66.7244 8.91074 66.716 9.02364 66.716 9.16217C66.716 9.32717 66.8281 9.40494 66.9762 9.43991C67.1319 9.47451 67.2543 9.48324 67.3407 9.48324C67.4101 9.48324 67.4715 9.50081 67.4715 9.54414C67.4715 9.62191 67.3927 9.63924 67.263 9.63924C66.8981 9.63924 66.5073 9.61347 66.3508 9.61347C66.1861 9.61347 65.7705 9.63924 65.4914 9.63924C65.4053 9.63924 65.3359 9.62191 65.3359 9.54414C65.3359 9.50081 65.388 9.48324 65.4747 9.48324C65.5441 9.48324 65.6044 9.48324 65.7348 9.45721C65.978 9.40494 66.047 9.06697 66.091 8.77181L66.9508 3.11734Z" fill="#FFD400"/>
        <path fill-rule="evenodd" clip-rule="evenodd" d="M75.4833 5.59805C75.4833 4.27945 75.4833 4.03649 75.4656 3.75875C75.4479 3.46395 75.3779 3.32529 75.0917 3.26426C75.022 3.24732 74.875 3.23849 74.7536 3.23849C74.6582 3.23849 74.6055 3.22094 74.6055 3.16033C74.6055 3.09983 74.6668 3.08223 74.7972 3.08223C75.032 3.08223 75.2835 3.091 75.5006 3.091C75.7254 3.09983 75.9255 3.10851 76.0469 3.10851C76.3248 3.10851 78.0517 3.10851 78.2175 3.09983C78.3819 3.08222 78.5206 3.06486 78.5903 3.04768C78.6337 3.03885 78.6857 3.01294 78.7291 3.01294C78.7728 3.01294 78.7821 3.04768 78.7821 3.091C78.7821 3.15203 78.7378 3.25591 78.7114 3.65519C78.7031 3.74169 78.6857 4.12319 78.6687 4.22759C78.6594 4.27079 78.6417 4.32255 78.582 4.32255C78.5206 4.32255 78.5036 4.27945 78.5036 4.20109C78.5036 4.14042 78.4946 3.99325 78.4513 3.88869C78.3909 3.73299 78.3039 3.62862 77.87 3.57662C77.7229 3.55929 76.8104 3.54215 76.6369 3.54215C76.5939 3.54215 76.5772 3.56805 76.5772 3.62862V5.82299C76.5772 5.88402 76.5852 5.91889 76.6369 5.91889C76.828 5.91889 77.8269 5.91889 78.0264 5.90129C78.2345 5.88402 78.3649 5.85782 78.4426 5.77132C78.5036 5.70169 78.538 5.65829 78.582 5.65829C78.6164 5.65829 78.6417 5.67582 78.6417 5.72762C78.6417 5.77979 78.6077 5.91889 78.5733 6.36079C78.5643 6.53429 78.538 6.88129 78.538 6.94202C78.538 7.01162 78.538 7.10692 78.4599 7.10692C78.3996 7.10692 78.3819 7.07209 78.3819 7.02879C78.3732 6.94202 78.3732 6.82909 78.3479 6.71679C78.3039 6.54312 78.1825 6.41259 77.8613 6.37832C77.6965 6.36079 76.837 6.35192 76.6289 6.35192C76.5852 6.35192 76.5772 6.38689 76.5772 6.43919V7.12425C76.5772 7.41929 76.5679 8.21729 76.5772 8.46862C76.5939 9.06702 76.7327 9.19695 77.6181 9.19695C77.8446 9.19695 78.2081 9.19695 78.4346 9.09302C78.6594 8.98882 78.7634 8.80682 78.8245 8.45142C78.8418 8.35585 78.8595 8.32089 78.9202 8.32089C78.9896 8.32089 78.9896 8.39055 78.9896 8.47702C78.9896 8.67689 78.9202 9.26665 78.8765 9.43995C78.8165 9.66542 78.7378 9.66542 78.4076 9.66542C77.7572 9.66542 77.2793 9.64802 76.9061 9.63929C76.5335 9.62195 76.2641 9.61349 76.0032 9.61349C75.9082 9.61349 75.7171 9.61349 75.5086 9.62195C75.3092 9.62195 75.0834 9.63929 74.9103 9.63929C74.7972 9.63929 74.7359 9.61349 74.7359 9.55262C74.7359 9.50942 74.7709 9.48329 74.875 9.48329C75.005 9.48329 75.1094 9.46589 75.1875 9.44865C75.3609 9.41382 75.4049 9.22312 75.4393 8.97162C75.4833 8.60712 75.4833 7.92205 75.4833 7.12425V5.59805Z" fill="#FFD400"/>
        <path fill-rule="evenodd" clip-rule="evenodd" d="M80.1821 5.59833C80.1821 4.27976 80.1821 4.0368 80.1647 3.759C80.1467 3.46426 80.06 3.31694 79.8696 3.27348C79.7735 3.24761 79.6611 3.23874 79.5564 3.23874C79.4697 3.23874 79.418 3.22128 79.418 3.15237C79.418 3.10017 79.487 3.08252 79.6264 3.08252C79.9559 3.08252 80.5032 3.10881 80.7547 3.10881C80.9712 3.10881 81.4838 3.08252 81.8143 3.08252C81.9264 3.08252 81.9957 3.10017 81.9957 3.15237C81.9957 3.22128 81.9437 3.23874 81.8567 3.23874C81.7703 3.23874 81.7009 3.24761 81.5968 3.26456C81.3624 3.30812 81.2927 3.45543 81.2757 3.759C81.2577 4.0368 81.2577 4.27976 81.2577 5.59833V6.1286H84.0532V5.59833C84.0532 4.27976 84.0532 4.0368 84.0359 3.759C84.0179 3.46426 83.9315 3.31694 83.7407 3.27348C83.6446 3.24761 83.5323 3.23874 83.4275 3.23874C83.3408 3.23874 83.2891 3.22128 83.2891 3.15237C83.2891 3.10017 83.3582 3.08252 83.4976 3.08252C83.8271 3.08252 84.3744 3.10881 84.6262 3.10881C84.8423 3.10881 85.3549 3.08252 85.6854 3.08252C85.7978 3.08252 85.8669 3.10017 85.8669 3.15237C85.8669 3.22128 85.8149 3.23874 85.7281 3.23874C85.6418 3.23874 85.572 3.24761 85.4683 3.26456C85.2339 3.30812 85.1642 3.45543 85.1468 3.759C85.1288 4.0368 85.1288 4.27976 85.1288 5.59833V7.1245C85.1288 7.9661 85.1288 8.65113 85.1642 9.02393C85.1898 9.25816 85.2509 9.4141 85.5107 9.44893C85.6324 9.46623 85.8239 9.4836 85.9539 9.4836C86.0493 9.4836 86.093 9.50976 86.093 9.5529C86.093 9.61383 86.0236 9.63953 85.9279 9.63953C85.3549 9.63953 84.808 9.61383 84.5745 9.61383C84.3744 9.61383 83.8271 9.63953 83.4806 9.63953C83.3672 9.63953 83.3065 9.61383 83.3065 9.5529C83.3065 9.50976 83.3408 9.4836 83.4452 9.4836C83.5753 9.4836 83.6797 9.46623 83.7577 9.44893C83.9315 9.4141 83.9835 9.267 84.0095 9.0151C84.0532 8.65113 84.0532 7.9661 84.0532 7.1245V6.5934H81.2577V7.1245C81.2577 7.9661 81.2577 8.65113 81.2927 9.02393C81.3184 9.25816 81.3797 9.4141 81.6395 9.44893C81.7613 9.46623 81.9527 9.4836 82.0824 9.4836C82.1782 9.4836 82.2215 9.50976 82.2215 9.5529C82.2215 9.61383 82.1525 9.63953 82.0568 9.63953C81.4838 9.63953 80.9365 9.61383 80.703 9.61383C80.5032 9.61383 79.9559 9.63953 79.6091 9.63953C79.496 9.63953 79.435 9.61383 79.435 9.5529C79.435 9.50976 79.4697 9.4836 79.5741 9.4836C79.7041 9.4836 79.8082 9.46623 79.8866 9.44893C80.06 9.4141 80.112 9.267 80.1384 9.0151C80.1821 8.65113 80.1821 7.9661 80.1821 7.1245V5.59833Z" fill="#FFD400"/>
        <path fill-rule="evenodd" clip-rule="evenodd" d="M36.3996 9.76989C36.9382 9.76989 37.5779 9.71099 37.9144 9.57649C38.0575 9.51759 38.0915 9.47559 38.1335 9.33259C38.2176 9.04666 38.3186 8.31496 38.3186 8.21402C38.3186 8.14686 38.3016 8.08796 38.2429 8.08796C38.1755 8.08796 38.1585 8.12156 38.1335 8.25609C38.0998 8.40749 37.9904 8.65132 37.847 8.81116C37.5105 9.19806 37.0559 9.28212 36.3068 9.28212C35.1789 9.28212 33.6555 8.28979 33.6555 6.28822C33.6555 5.47242 33.8155 4.67349 34.4298 4.10999C34.8003 3.77362 35.2799 3.58862 36.0124 3.58862C36.7868 3.58862 37.4431 3.81566 37.721 4.10999C37.9314 4.32869 38.0408 4.62302 38.0491 4.88376C38.0491 5.00142 38.0662 5.06872 38.1335 5.06872C38.2092 5.06872 38.2259 5.00142 38.2346 4.87532C38.2513 4.70709 38.2429 4.24462 38.2596 3.96706C38.2766 3.67269 38.3016 3.57176 38.3016 3.50446C38.3016 3.45399 38.2679 3.41199 38.1756 3.40352C37.9231 3.37836 37.6536 3.3026 37.3337 3.26059C36.9465 3.21012 36.6354 3.17651 36.1134 3.17651C34.859 3.17651 34.0596 3.51289 33.4535 4.06799C32.6454 4.80802 32.4688 5.80036 32.4688 6.37229C32.4688 7.18809 32.6876 8.12999 33.5125 8.85319C34.2784 9.51759 35.2463 9.76989 36.3996 9.76989Z" fill="#FFD400"/>
        <path fill-rule="evenodd" clip-rule="evenodd" d="M35.8392 16.477V16.3855C35.7675 16.2056 35.7081 16.0518 35.6624 15.9241C35.583 15.7016 35.5257 15.5529 35.492 15.4773C35.4576 15.4016 35.4123 15.3438 35.3566 15.3038C35.3005 15.2644 35.2248 15.2441 35.1295 15.2441H34.9537V16.0137C34.9537 16.1713 34.969 16.2673 34.9994 16.3023C35.0301 16.3366 35.0874 16.3645 35.1718 16.3855V16.477H34.3984V16.3855C34.4854 16.3645 34.5435 16.3359 34.5721 16.3004C34.6008 16.2641 34.6148 16.1688 34.6148 16.0137V15.2441H34.4417C34.3484 15.2441 34.2736 15.2637 34.2179 15.3031C34.1619 15.3419 34.1152 15.401 34.0779 15.4798C34.0408 15.5586 33.9838 15.7068 33.9068 15.9241C33.8145 16.1758 33.756 16.3302 33.7299 16.3855V16.477H33.0977V16.3855C33.2032 16.3696 33.2827 16.3302 33.3355 16.2686C33.3883 16.2063 33.4417 16.1115 33.4964 15.9838L33.6606 15.6094C33.7725 15.3546 33.9221 15.1989 34.1096 15.1417V15.1272C34.0352 15.0814 33.9791 15.0268 33.9411 14.9644C33.9034 14.9015 33.8557 14.7884 33.7986 14.6244C33.7375 14.4541 33.6873 14.3397 33.6478 14.2799C33.6077 14.2202 33.5601 14.1903 33.5041 14.1903C33.4169 14.1903 33.3635 14.2431 33.3438 14.3486H33.1632V13.9469C33.2541 13.9196 33.3311 13.9056 33.3941 13.9056C33.5753 13.9056 33.7045 13.952 33.7808 14.0441C33.8571 14.1369 33.9335 14.299 34.0092 14.531C34.0949 14.7909 34.1669 14.9479 34.2243 15.0026C34.282 15.0573 34.3584 15.0845 34.4524 15.0845H34.6148V14.4026C34.6148 14.2551 34.6018 14.1611 34.5765 14.1204C34.5511 14.0804 34.4918 14.0492 34.3984 14.027V13.9355H35.1718V14.027C35.0778 14.053 35.0181 14.0861 34.992 14.1261C34.9664 14.1668 34.9537 14.2589 34.9537 14.4026V15.0845H35.1178C35.2138 15.0845 35.2902 15.056 35.3476 14.9993C35.4039 14.9428 35.4753 14.7871 35.56 14.531C35.6407 14.2913 35.7191 14.1274 35.7955 14.039C35.8715 13.95 36.0003 13.9056 36.1804 13.9056C36.2424 13.9056 36.3188 13.9196 36.4098 13.9469V14.3486H36.2247C36.205 14.2431 36.1517 14.1903 36.0643 14.1903C36.0026 14.1903 35.9512 14.2253 35.9112 14.2945C35.8705 14.3645 35.8252 14.4744 35.7738 14.6244C35.7144 14.7954 35.6644 14.9117 35.6231 14.9727C35.5824 15.0331 35.528 15.0852 35.4606 15.1272V15.1417C35.6534 15.2002 35.8025 15.3559 35.9079 15.6094L36.072 15.9838C36.137 16.13 36.1947 16.2298 36.2464 16.2825C36.2978 16.3353 36.3728 16.3696 36.4709 16.3855V16.477H35.8392ZM38.1831 16.477V16.3855C38.2782 16.3607 38.3379 16.3283 38.3626 16.2883C38.3876 16.2476 38.3996 16.156 38.3996 16.0137V15.2129C38.3996 14.9511 38.4019 14.7827 38.4073 14.7083H38.3996L37.3393 16.0137C37.3393 16.1625 37.3527 16.2559 37.3794 16.2946C37.406 16.3328 37.4651 16.3633 37.5555 16.3855V16.477H36.7764V16.3855C36.8724 16.3607 36.9328 16.3283 36.9581 16.2883C36.9835 16.2476 36.9965 16.156 36.9965 16.0137V14.4026C36.9965 14.2386 36.9805 14.1401 36.9478 14.1064C36.9154 14.0734 36.8584 14.0467 36.7764 14.027V13.9355H37.5555V14.027C37.4721 14.048 37.4154 14.0753 37.385 14.1096C37.3544 14.1439 37.3393 14.2412 37.3393 14.4026V15.2219C37.3393 15.4055 37.3353 15.5605 37.3283 15.6858H37.3393L38.3996 14.3803C38.3996 14.2488 38.3869 14.1629 38.3612 14.1236C38.3359 14.0835 38.2769 14.0517 38.1831 14.027V13.9355H38.9586V14.027C38.8755 14.048 38.8188 14.0753 38.7881 14.1096C38.7578 14.1439 38.7425 14.2412 38.7425 14.4026V16.0137C38.7425 16.1625 38.7558 16.2559 38.7825 16.2946C38.8092 16.3328 38.8685 16.3633 38.9586 16.3855V16.477H38.1831ZM39.4168 16.477V16.3855C39.4942 16.3658 39.5459 16.3442 39.5719 16.3194C39.5979 16.2953 39.6153 16.2609 39.6229 16.2165C39.631 16.172 39.635 16.1033 39.635 16.0118V14.4007C39.635 14.3155 39.6316 14.2526 39.6259 14.2138C39.6196 14.1744 39.6093 14.1445 39.5949 14.1223C39.5809 14.1007 39.5619 14.0835 39.5382 14.0702C39.5146 14.0575 39.4739 14.0429 39.4168 14.027V13.9355H40.4364C40.6342 13.9355 40.7926 13.9565 40.913 13.999C41.0324 14.041 41.1214 14.1032 41.1801 14.1859C41.2385 14.2685 41.2679 14.3747 41.2679 14.5049C41.2679 14.613 41.2468 14.707 41.2055 14.7865C41.1635 14.8659 41.1094 14.9314 41.0421 14.9835C40.975 15.0356 40.8887 15.0845 40.7829 15.129V15.1456C40.9524 15.1964 41.0801 15.2751 41.1671 15.3813C41.2539 15.4875 41.2975 15.6139 41.2975 15.7601C41.2975 15.9291 41.2602 16.0671 41.1845 16.1732C41.1094 16.28 41.0044 16.3576 40.869 16.4052C40.7336 16.4528 40.5695 16.477 40.3767 16.477H39.4168ZM40.3097 15.075C40.4988 15.075 40.6432 15.0293 40.7429 14.9384C40.843 14.8469 40.893 14.7146 40.893 14.5405C40.893 14.4547 40.879 14.3842 40.851 14.3276C40.8229 14.271 40.7843 14.2259 40.7352 14.1922C40.6865 14.1585 40.6285 14.135 40.5611 14.1204C40.4944 14.1064 40.4217 14.0994 40.3433 14.0994C40.2957 14.0994 40.234 14.1008 40.1572 14.1032C40.0795 14.1055 40.0222 14.1074 39.9835 14.1102V15.075L40.3097 15.075ZM39.9835 16.3004C40.0745 16.3086 40.1756 16.313 40.2876 16.313C40.4504 16.313 40.5765 16.2927 40.6665 16.2514C40.7562 16.2107 40.8219 16.1504 40.862 16.0703C40.9027 15.9901 40.923 15.8897 40.923 15.7697C40.923 15.6488 40.9007 15.5497 40.857 15.4715C40.8123 15.3934 40.7442 15.3349 40.6525 15.2968C40.5605 15.258 40.4337 15.2389 40.2723 15.2389H39.9835V16.3004ZM43.1569 16.477V16.3855C43.2516 16.3607 43.3117 16.3283 43.3363 16.2883C43.3614 16.2476 43.3734 16.156 43.3734 16.0137V15.2129C43.3734 14.9511 43.3757 14.7827 43.381 14.7083H43.3734L42.3128 16.0137C42.3128 16.1625 42.3261 16.2559 42.3528 16.2946C42.3795 16.3328 42.4388 16.3633 42.5292 16.3855V16.477H41.7498V16.3855C41.8458 16.3607 41.9065 16.3283 41.9319 16.2883C41.9572 16.2476 41.9699 16.156 41.9699 16.0137V14.4026C41.9699 14.2386 41.9542 14.1401 41.9216 14.1064C41.8892 14.0734 41.8322 14.0467 41.7498 14.027V13.9355H42.5292V14.027C42.4458 14.048 42.3891 14.0753 42.3588 14.1096C42.3281 14.1439 42.3128 14.2412 42.3128 14.4026V15.2219C42.3128 15.4055 42.3091 15.5605 42.3021 15.6858H42.3128L43.3734 14.3803C43.3734 14.2488 43.3607 14.1629 43.335 14.1236C43.3097 14.0835 43.2506 14.0517 43.1569 14.027V13.9355H43.9323V14.027C43.849 14.048 43.7926 14.0753 43.7619 14.1096C43.7312 14.1439 43.7162 14.2412 43.7162 14.4026V16.0137C43.7162 16.1625 43.7296 16.2559 43.7562 16.2946C43.7829 16.3328 43.842 16.3633 43.9323 16.3855V16.477H43.1569ZM47.1638 17.1456C47.1538 17.0166 47.1295 16.8915 47.0921 16.7713C47.0537 16.6506 47.0107 16.5717 46.9624 16.5336C46.914 16.4961 46.8483 16.477 46.7669 16.477H45.6523C45.5252 16.477 45.4335 16.5336 45.3765 16.6474C45.3191 16.7611 45.2824 16.927 45.2644 17.1456H45.0743V16.3054H45.2574C45.4572 16.0588 45.6199 15.736 45.7453 15.3375C45.8708 14.939 45.9335 14.5843 45.9335 14.2742C45.9335 14.1897 45.9214 14.1299 45.8961 14.0937C45.8714 14.0575 45.8217 14.0352 45.7473 14.027V13.9355H47.2732V14.027C47.1882 14.048 47.1295 14.0753 47.0998 14.1084C47.0691 14.142 47.0537 14.2398 47.0537 14.4026V16.3054H47.3536V17.1456H47.1638ZM46.7052 14.0994H46.1816C46.1059 15.0528 45.8904 15.7881 45.5349 16.3054H46.7052V14.0994ZM48.7237 16.5069C48.5746 16.5069 48.4385 16.4821 48.3164 16.4332C48.1937 16.3843 48.0886 16.3079 48.0016 16.2044C47.9139 16.1008 47.8465 15.9679 47.7982 15.8065C47.7505 15.6451 47.7268 15.4525 47.7268 15.2275C47.7268 14.9511 47.7688 14.7134 47.8535 14.5144C47.9379 14.3162 48.059 14.1649 48.2161 14.0613C48.3731 13.9577 48.5549 13.9056 48.763 13.9056C48.9838 13.9056 49.1703 13.9545 49.321 14.0517C49.4718 14.149 49.5855 14.2926 49.6619 14.4821C49.7382 14.6715 49.7763 14.9015 49.7763 15.1735C49.7763 15.464 49.7329 15.7093 49.6458 15.9088C49.5595 16.109 49.4367 16.2584 49.2783 16.3576C49.1199 16.4573 48.9348 16.5069 48.7237 16.5069ZM48.1103 15.1754C48.1103 15.5567 48.1664 15.8465 48.2771 16.0448C48.3885 16.2438 48.5512 16.3429 48.7644 16.3429C48.8998 16.3429 49.0148 16.2997 49.1089 16.2133C49.2039 16.1275 49.2743 16.001 49.3213 15.8345C49.3694 15.6686 49.3927 15.4741 49.3927 15.2516C49.3927 14.9809 49.3647 14.7566 49.3093 14.5786C49.254 14.4007 49.1789 14.271 49.0829 14.1903C48.9875 14.1096 48.8764 14.0695 48.7497 14.0695C48.6376 14.0695 48.5416 14.0956 48.4615 14.1477C48.3815 14.1999 48.3151 14.2742 48.2624 14.3702C48.2097 14.4662 48.1707 14.5825 48.1467 14.7191C48.1223 14.8558 48.1103 15.0077 48.1103 15.1754ZM51.9405 13.9895V14.5049H51.756C51.726 14.3969 51.688 14.311 51.642 14.2475C51.5963 14.1833 51.5429 14.1376 51.4819 14.1102C51.4208 14.0829 51.3475 14.0695 51.2617 14.0695C51.1337 14.0695 51.0199 14.1121 50.9202 14.1973C50.8202 14.2818 50.7415 14.4102 50.6841 14.5806C50.6267 14.7515 50.598 14.9574 50.598 15.1996C50.598 15.443 50.6224 15.6508 50.6694 15.8224C50.7164 15.9946 50.7858 16.1243 50.8782 16.212C50.9696 16.2991 51.083 16.3429 51.2171 16.3429C51.3188 16.3429 51.4022 16.3283 51.4672 16.2991C51.5312 16.2699 51.5859 16.224 51.6299 16.1605C51.674 16.097 51.716 16.0041 51.756 15.8809H51.9405V16.4135C51.8234 16.4446 51.7037 16.4681 51.5816 16.4834C51.4589 16.4992 51.3248 16.5069 51.1777 16.5069C50.8622 16.5069 50.6237 16.4001 50.4626 16.1865C50.3012 15.9731 50.2205 15.6546 50.2205 15.2313C50.2205 14.9657 50.2622 14.7331 50.3456 14.5329C50.4296 14.3333 50.553 14.1789 50.7158 14.0695C50.8789 13.9602 51.0726 13.9056 51.2991 13.9056C51.4125 13.9056 51.5169 13.9113 51.6123 13.9234C51.7083 13.9348 51.8171 13.957 51.9405 13.9895ZM52.268 13.9355H54.2844V14.5837H54.102C54.0746 14.4769 54.0476 14.3924 54.0209 14.3302C53.9943 14.2678 53.9659 14.2208 53.9359 14.1884C53.9065 14.1566 53.8742 14.1331 53.8405 14.1198C53.8062 14.1064 53.7545 14.0994 53.6864 14.0994H53.45V16.0061C53.45 16.0791 53.4536 16.1376 53.462 16.1809C53.4703 16.2247 53.4823 16.259 53.4987 16.2844C53.516 16.3099 53.5383 16.3296 53.567 16.3442C53.5957 16.3582 53.6407 16.3722 53.7011 16.3855V16.477H52.8493V16.3855C52.887 16.3773 52.92 16.3677 52.9487 16.3576C52.9774 16.348 53 16.3359 53.0187 16.3214C53.0364 16.3074 53.0511 16.2889 53.0631 16.2667C53.0744 16.2444 53.0841 16.2139 53.0911 16.1751C53.0981 16.137 53.1011 16.0805 53.1011 16.0061V14.0994H52.8666C52.8079 14.0994 52.7596 14.1051 52.7222 14.1159C52.6839 14.1274 52.6492 14.1503 52.6165 14.1859C52.5841 14.2214 52.5548 14.2717 52.5281 14.3365C52.5014 14.402 52.4768 14.4839 52.4524 14.5837H52.268V13.9355ZM55.5725 16.5069C55.4237 16.5069 55.2876 16.4821 55.1652 16.4332C55.0425 16.3843 54.9378 16.3079 54.8504 16.2044C54.7627 16.1008 54.6953 15.9679 54.647 15.8065C54.5993 15.6451 54.5756 15.4525 54.5756 15.2275C54.5756 14.9511 54.6176 14.7134 54.7023 14.5144C54.787 14.3162 54.9078 14.1649 55.0649 14.0613C55.2219 13.9577 55.404 13.9056 55.6118 13.9056C55.8326 13.9056 56.0191 13.9545 56.1698 14.0517C56.3206 14.149 56.4343 14.2926 56.5107 14.4821C56.587 14.6715 56.6254 14.9015 56.6254 15.1735C56.6254 15.464 56.582 15.7093 56.495 15.9088C56.4083 16.109 56.2855 16.2584 56.1271 16.3576C55.9687 16.4573 55.7836 16.5069 55.5725 16.5069ZM54.9595 15.1754C54.9595 15.5567 55.0152 15.8465 55.1259 16.0448C55.2373 16.2438 55.4 16.3429 55.6132 16.3429C55.7486 16.3429 55.864 16.2997 55.958 16.2133C56.0527 16.1275 56.1234 16.001 56.1705 15.8345C56.2182 15.6686 56.2418 15.4741 56.2418 15.2516C56.2418 14.9809 56.2138 14.7566 56.1585 14.5786C56.1031 14.4007 56.0281 14.271 55.932 14.1903C55.8366 14.1096 55.7252 14.0695 55.5985 14.0695C55.4868 14.0695 55.3907 14.0956 55.3103 14.1477C55.2303 14.1999 55.1642 14.2742 55.1112 14.3702C55.0585 14.4662 55.0198 14.5825 54.9955 14.7191C54.9715 14.8558 54.9595 15.0077 54.9595 15.1754ZM58.4794 16.477V16.3855C58.5745 16.3607 58.6342 16.3283 58.6589 16.2883C58.6839 16.2476 58.6959 16.156 58.6959 16.0137V15.2129C58.6959 14.9511 58.6982 14.7827 58.7035 14.7083H58.6959L57.6353 16.0137C57.6353 16.1625 57.6486 16.2559 57.6756 16.2946C57.7023 16.3328 57.7614 16.3633 57.8517 16.3855V16.477H57.0723V16.3855C57.1687 16.3607 57.2291 16.3283 57.2544 16.2883C57.2798 16.2476 57.2924 16.156 57.2924 16.0137V14.4026C57.2924 14.2386 57.2768 14.1401 57.2441 14.1064C57.2117 14.0734 57.1547 14.0467 57.0723 14.027V13.9355H57.8517V14.027C57.7684 14.048 57.7117 14.0753 57.6813 14.1096C57.6506 14.1439 57.6353 14.2412 57.6353 14.4026V15.2219C57.6353 15.4055 57.6316 15.5605 57.6246 15.6858H57.6353L58.6959 14.3803C58.6959 14.2488 58.6832 14.1629 58.6575 14.1236C58.6322 14.0835 58.5731 14.0517 58.4794 14.027V13.9355H59.2549V14.027C59.1715 14.048 59.1151 14.0753 59.0844 14.1096C59.0537 14.1439 59.0387 14.2412 59.0387 14.4026V16.0137C59.0387 16.1625 59.0521 16.2559 59.0788 16.2946C59.1054 16.3328 59.1645 16.3633 59.2549 16.3855V16.477H58.4794ZM58.7773 13.2503C58.7773 13.3882 58.7176 13.4963 58.5978 13.5744C58.4778 13.6526 58.3293 13.6914 58.1532 13.6914C57.9605 13.6914 57.8117 13.6539 57.706 13.5776C57.6006 13.502 57.5476 13.3927 57.5476 13.2503V13.1741H57.8624V13.2503C57.8624 13.3545 57.8841 13.4308 57.9288 13.4791C57.9725 13.5274 58.0488 13.5516 58.1569 13.5516C58.2683 13.5516 58.3477 13.5287 58.3937 13.4823C58.4394 13.4353 58.4624 13.3584 58.4624 13.2503V13.1741H58.7773V13.2503ZM61.6645 16.0118C61.6645 16.0836 61.6662 16.1376 61.6702 16.1732C61.6739 16.2095 61.6799 16.238 61.6885 16.2603C61.6975 16.2819 61.7079 16.2997 61.7206 16.313C61.7326 16.327 61.7502 16.3391 61.7733 16.3506C61.7963 16.3614 61.8323 16.3734 61.8806 16.3855V16.477H61.0995V16.3855C61.1682 16.3684 61.2159 16.3493 61.2433 16.3283C61.2706 16.3067 61.2896 16.2749 61.3 16.231C61.3107 16.1879 61.3157 16.1148 61.3157 16.0118V15.2313H60.2798V16.0118C60.2798 16.0944 60.2828 16.1555 60.2881 16.1942C60.2938 16.2324 60.3031 16.2629 60.3158 16.2851C60.3291 16.3074 60.3485 16.3264 60.3738 16.341C60.3992 16.3563 60.4405 16.3709 60.4979 16.3855V16.477H59.7131V16.3855C59.7905 16.3658 59.8422 16.3442 59.8682 16.3194C59.8942 16.2953 59.9112 16.2609 59.9189 16.2165C59.9272 16.172 59.9309 16.1033 59.9309 16.0118V14.4007C59.9309 14.3155 59.9279 14.2526 59.9222 14.2138C59.9159 14.1744 59.9056 14.1445 59.8909 14.1223C59.8772 14.1007 59.8579 14.0835 59.8345 14.0702C59.8108 14.0575 59.7701 14.0429 59.7131 14.027V13.9355H60.4979V14.027C60.4432 14.0403 60.4035 14.0543 60.3795 14.0677C60.3555 14.0809 60.3361 14.0982 60.3218 14.1191C60.3078 14.1394 60.2968 14.1699 60.2898 14.2113C60.2828 14.2519 60.2798 14.3155 60.2798 14.4007V15.0604H61.3157V14.4007C61.3157 14.2926 61.3107 14.2189 61.3 14.1795C61.2896 14.1394 61.272 14.1089 61.2473 14.0879C61.2223 14.067 61.1726 14.0467 61.0995 14.027V13.9355H61.8806V14.027C61.8109 14.0441 61.7622 14.0639 61.7349 14.0855C61.7079 14.107 61.6892 14.1394 61.6792 14.1833C61.6695 14.2265 61.6645 14.299 61.6645 14.4007V16.0118ZM63.3264 16.5069C63.1777 16.5069 63.0416 16.4821 62.9196 16.4332C62.7968 16.3843 62.6918 16.3079 62.6047 16.2044C62.517 16.1008 62.4493 15.9679 62.4013 15.8065C62.3532 15.6451 62.3299 15.4525 62.3299 15.2275C62.3299 14.9511 62.3719 14.7134 62.4563 14.5144C62.541 14.3162 62.6617 14.1649 62.8192 14.0613C62.9763 13.9577 63.158 13.9056 63.3661 13.9056C63.5869 13.9056 63.773 13.9545 63.9238 14.0517C64.0745 14.149 64.1886 14.2926 64.265 14.4821C64.3413 14.6715 64.3794 14.9015 64.3794 15.1735C64.3794 15.464 64.336 15.7093 64.249 15.9088C64.1626 16.109 64.0398 16.2584 63.8814 16.3576C63.723 16.4573 63.5379 16.5069 63.3264 16.5069ZM62.7134 15.1754C62.7134 15.5567 62.7695 15.8465 62.8802 16.0448C62.9913 16.2438 63.1544 16.3429 63.3671 16.3429C63.5029 16.3429 63.6179 16.2997 63.712 16.2133C63.8067 16.1275 63.8774 16.001 63.9244 15.8345C63.9721 15.6686 63.9958 15.4741 63.9958 15.2516C63.9958 14.9809 63.9678 14.7566 63.9124 14.5786C63.8571 14.4007 63.782 14.271 63.686 14.1903C63.5906 14.1096 63.4792 14.0695 63.3528 14.0695C63.2407 14.0695 63.1447 14.0956 63.0646 14.1477C62.9843 14.1999 62.9182 14.2742 62.8655 14.3702C62.8128 14.4662 62.7738 14.5825 62.7498 14.7191C62.7254 14.8558 62.7134 15.0077 62.7134 15.1754ZM65.3526 13.9355L65.2312 15.7023H65.0504L64.9597 13.9355H65.3526ZM65.3336 16.0448V16.477H64.9607V16.0448H65.3336Z" fill="#525F7B"/>
        <path fill-rule="evenodd" clip-rule="evenodd" d="M73.946 14.9561H72.3141L72.005 15.6671C71.9283 15.8416 71.8906 15.972 71.8906 16.0593C71.8906 16.1274 71.9236 16.1875 71.9893 16.2396C72.0557 16.2918 72.1981 16.3257 72.4185 16.3417V16.4641H72.2841H70.9821H70.8477V16.3417C71.0384 16.3077 71.1612 16.2647 71.2175 16.2113C71.3323 16.1059 71.4587 15.8894 71.5977 15.5638L73.2033 11.8577H73.32L73.3287 11.8781L73.3377 11.8577H73.4544L75.0427 15.6037C75.1701 15.9052 75.2858 16.1004 75.3905 16.1897C75.4949 16.2792 75.6406 16.3303 75.8268 16.3417V16.4641H75.6923H74.0261H73.8917V16.3417C74.0734 16.3326 74.1962 16.302 74.2602 16.2509C74.3249 16.2012 74.3569 16.1388 74.3569 16.065C74.3569 15.9677 74.3112 15.8145 74.2215 15.6037L73.946 14.9561ZM73.1443 13.0465L72.4185 14.7101H73.8513L73.1443 13.0465Z" fill="#525F7B"/>
        <path fill-rule="evenodd" clip-rule="evenodd" d="M12.0045 10.2907C12.8174 9.7815 13.6424 9.28317 14.4695 8.78657L9.32908 10.5775C8.57913 7.30427 9.9076 3.78253 12.902 1.90666C16.0048 -0.0373686 19.9171 0.398623 22.5458 2.70846C21.3109 3.69743 18.1818 6.297 17.1176 7.23383C18.9549 6.1786 20.8179 5.15767 22.7016 4.17377C23.0408 3.9922 23.3325 3.83923 23.5326 3.73703C23.5332 3.7375 23.5338 3.7384 23.5338 3.73917C23.8183 3.59257 24.1008 3.44323 24.3865 3.29875C21.2445 -0.218328 15.9582 -1.08627 11.8474 1.48926C7.90259 3.9612 6.33892 8.7883 7.81033 13.0251C7.83095 13.0112 7.85209 12.9977 7.8735 12.9835C9.24453 12.0621 10.6211 11.1573 12.0045 10.2907Z" fill="#525F7B"/>
        <path fill-rule="evenodd" clip-rule="evenodd" d="M32.3131 0.265869C30.0219 1.70462 27.6959 3.07155 25.347 4.3823C16.5225 8.8331 8.34055 13.9814 0.496094 20C8.26561 15.1204 16.3858 10.9722 24.7482 7.57097C26.1234 11.1285 24.847 15.2644 21.5095 17.3556C17.866 19.6383 13.097 18.6509 10.611 15.188C10.3223 15.3417 10.0362 15.5004 9.7483 15.656C12.8499 19.4354 18.3323 20.4237 22.5633 17.7725C26.9436 15.0285 28.3881 9.38123 26.0007 4.86207C28.1314 3.38747 30.2353 1.86009 32.3131 0.265869Z" fill="#FFD400"/>
    </g>
    <defs>
        <clipPath id="clip0_753_4131">
            <rect width="85.7143" height="20" fill="white" transform="translate(0.496094)"/>
        </clipPath>
    </defs>
</svg>
