<svg width="67" height="20" viewBox="0 0 67 20" fill="none" xmlns="http://www.w3.org/2000/svg">
    <path d="M5.90122 8.81641L-0.0078125 20.0001L11.2805 14.1633L10.1802 9.83681L5.90122 8.81641Z" fill="#011D29"/>
    <path fill-rule="evenodd" clip-rule="evenodd" d="M6.33203 8.30425L20.0428 0L11.7709 13.66L10.6689 9.33622L6.33203 8.30425Z" fill="#59BD79"/>
    <path fill-rule="evenodd" clip-rule="evenodd" d="M38.4638 6.28579C38.4638 6.84934 37.9529 7.3062 37.3227 7.3062C36.6925 7.3062 36.1817 6.84934 36.1817 6.28579C36.1817 5.72223 36.6925 5.26538 37.3227 5.26538C37.9529 5.26538 38.4638 5.72223 38.4638 6.28579ZM32.7585 13.6721C32.1537 14.2782 31.318 14.6531 30.3949 14.6531C28.5494 14.6531 27.0532 13.1547 27.0532 11.3062C27.0532 9.45775 28.5494 7.95926 30.3949 7.95926C31.318 7.95926 32.1537 8.33418 32.7585 8.94029V7.95926H34.6331V14.6531H32.7585V13.6721ZM32.84 11.3062C32.84 12.3882 31.9642 13.2654 30.8839 13.2654C29.8036 13.2654 28.9278 12.3882 28.9278 11.3062C28.9278 10.2242 29.8036 9.34702 30.8839 9.34702C31.9642 9.34702 32.84 10.2242 32.84 11.3062ZM55.5796 13.6721C56.1844 14.2782 57.0201 14.6531 57.9432 14.6531C59.7887 14.6531 61.2849 13.1547 61.2849 11.3062C61.2849 9.45775 59.7887 7.95926 57.9432 7.95926C57.0201 7.95926 56.1844 8.33418 55.5796 8.94029V7.95926H53.705V17.7552H55.5796V13.6721ZM55.4981 11.3062C55.4981 12.3882 56.3739 13.2654 57.4542 13.2654C58.5345 13.2654 59.4103 12.3882 59.4103 11.3062C59.4103 10.2242 58.5345 9.34702 57.4542 9.34702C56.3739 9.34702 55.4981 10.2242 55.4981 11.3062ZM22.815 6.3266V7.95926H22V9.42865H22.815V12.6939V12.7785C22.815 13.8138 23.6543 14.6531 24.6896 14.6531H25.3824H26.3197V13.1837H25.8209C25.1961 13.1837 24.6896 12.6772 24.6896 12.0524V9.42865H26.3197V7.95926H24.6896V6.3266H22.815ZM38.3008 7.95926V15.796V15.8806C38.3008 16.9159 37.4615 17.7552 36.4262 17.7552H36.0187H35.0814V16.2858H35.2134C35.8382 16.2858 36.3447 15.7793 36.3447 15.1545V7.95926H38.3008ZM62.7519 6.3266V7.95926H61.9369V9.42865H62.7519V12.6939V12.7785C62.7519 13.8138 63.5912 14.6531 64.6265 14.6531H65.3193H66.2566V13.1837H65.7578C65.133 13.1837 64.6265 12.6772 64.6265 12.0524V9.42865H66.2566V7.95926H64.6265V6.3266H62.7519ZM45.1471 7.95926H46.9402V11.717C46.9402 12.6172 47.67 13.347 48.5703 13.347C49.4705 13.347 50.2003 12.6172 50.2003 11.717V7.95926H51.9934V14.6531H50.2003V13.796C49.9395 14.1618 49.5952 14.4104 49.1033 14.5421C46.8423 14.058 45.1471 12.0485 45.1471 9.64304V7.95926ZM39.9308 7.95926H41.8054V8.90846C42.1108 8.4023 42.7959 7.95927 43.4355 7.95927H44.0875V9.75519H42.9872C42.3345 9.75519 41.8054 10.2851 41.8054 10.9389V11.2246V14.6531H39.9308V7.95926Z" fill="#011D29"/>
</svg>
