<svg width="65" height="20" viewBox="0 0 65 20" fill="none" xmlns="http://www.w3.org/2000/svg">
    <g clip-path="url(#clip0_755_4451)">
        <path d="M31.8609 1.37767H33.5149V6.63291C33.5149 7.55864 33.2349 8.26982 32.6537 8.74326C32.0184 9.21524 31.2481 9.4701 30.4567 9.4701C29.6653 9.4701 28.8949 9.21524 28.2597 8.74326C27.6785 8.26982 27.3984 7.55864 27.3984 6.63291V1.37767H29.0565V6.63291C29.0565 7.17082 29.1864 7.5395 29.4443 7.77421C29.7399 8.00432 30.1038 8.12926 30.4783 8.12926C30.8529 8.12926 31.2168 8.00432 31.5124 7.77421C31.7702 7.53749 31.878 7.14967 31.878 6.63291L31.8609 1.37767ZM37.1595 4.58702C36.9559 4.57643 36.7535 4.62334 36.5754 4.72239C36.3972 4.82143 36.2505 4.96861 36.1521 5.1471V9.34665H34.5525V3.42356H36.0393L36.0826 4.09142C36.2853 3.83611 36.5444 3.63129 36.8397 3.49303C37.1349 3.35478 37.4581 3.28686 37.784 3.29462C38.0318 3.28254 38.2795 3.32016 38.5125 3.40528C38.7456 3.49039 38.9592 3.62128 39.1409 3.79022C39.4854 4.13473 39.6576 4.71596 39.6576 5.55607V9.3255H38.064V5.57723C38.064 5.1894 37.9774 4.93153 37.8263 4.80158C37.7353 4.72279 37.6293 4.66318 37.5148 4.62631C37.4002 4.58944 37.2793 4.57608 37.1595 4.58702ZM40.7345 1.89443C40.7341 1.67713 40.8191 1.46838 40.9712 1.3132C41.1546 1.16648 41.3825 1.08655 41.6174 1.08655C41.8523 1.08655 42.0802 1.16648 42.2636 1.3132C42.3428 1.38713 42.405 1.4774 42.4459 1.57777C42.4868 1.67813 42.5054 1.78618 42.5003 1.89443C42.5007 2.11173 42.4157 2.32048 42.2636 2.47566C42.0802 2.62238 41.8523 2.70231 41.6174 2.70231C41.3825 2.70231 41.1546 2.62238 40.9712 2.47566C40.8191 2.32048 40.7341 2.11173 40.7345 1.89443ZM42.4358 3.42356V9.34665H40.8423V3.42356H42.4358ZM46.5498 9.3255C46.2446 9.42889 45.9241 9.47964 45.6019 9.47559C45.15 9.49293 44.7069 9.34784 44.3528 9.06661C44.0513 8.80739 43.9005 8.3551 43.9005 7.70974V4.58702H43.0171V3.42356H43.9005V1.9589H45.4941V3.42356H46.5095V4.58702H45.4941V7.55864C45.4805 7.64729 45.4871 7.73786 45.5132 7.82365C45.5394 7.90943 45.5845 7.98824 45.6452 8.05425C45.7806 8.13936 45.9375 8.18409 46.0975 8.18319C46.184 8.18666 46.2706 8.17956 46.3554 8.16203C46.442 8.16203 46.5065 8.14088 46.5498 8.14088V9.3255ZM52.2785 8.39876C52.0494 8.70384 51.7551 8.95402 51.4172 9.13108C50.971 9.36111 50.4757 9.47934 49.9737 9.47559C49.048 9.47559 48.3156 9.19555 47.7989 8.63548C47.2834 8.08925 47.0047 7.36153 47.0232 6.61075V6.39618C46.9847 5.59435 47.2547 4.8082 47.7777 4.1992C48.0275 3.91145 48.3396 3.68436 48.6902 3.53513C49.0409 3.38591 49.4209 3.31847 49.8014 3.33793C50.6637 3.33793 51.3124 3.59581 51.7405 4.13473C52.1687 4.67365 52.4074 5.38382 52.4074 6.24508V6.91294H48.639C48.6766 7.26498 48.8367 7.59262 49.0913 7.83868C49.2253 7.95872 49.3819 8.05098 49.5519 8.11012C49.7218 8.16925 49.9018 8.19409 50.0815 8.18319C50.3552 8.19882 50.6286 8.14594 50.8768 8.02932C51.1249 7.91271 51.3401 7.73605 51.5028 7.51533L52.2785 8.39876ZM49.7803 4.58702C49.6327 4.5768 49.4849 4.60286 49.3497 4.66291C49.2145 4.72296 49.096 4.81518 49.0046 4.93153C48.8093 5.18957 48.6834 5.49338 48.639 5.81395H50.841V5.68501C50.8411 5.39872 50.7505 5.11976 50.5821 4.88821C50.4801 4.78041 50.3549 4.69726 50.216 4.64507C50.077 4.59289 49.928 4.57303 49.7803 4.58702ZM56.8235 9.36781L56.7369 8.74326C56.5628 8.96713 56.3426 9.15092 56.0912 9.28218C55.6528 9.48554 55.1572 9.53012 54.6895 9.40828C54.2218 9.28644 53.811 9.00576 53.5275 8.61432C53.0977 7.98107 52.8855 7.22512 52.9232 6.46065V6.35287C52.9232 5.44627 53.1166 4.71596 53.5275 4.15588C53.7212 3.8824 53.9806 3.66208 54.2818 3.51526C54.583 3.36843 54.9164 3.29983 55.2511 3.31577C55.5223 3.30317 55.7926 3.35524 56.0398 3.46769C56.2869 3.58013 56.5037 3.74972 56.6724 3.96248V0.946533H58.266V9.36781H56.8235ZM54.4966 6.46065C54.4738 6.87944 54.5632 7.29672 54.7555 7.66945C54.8367 7.8306 54.9641 7.96385 55.1215 8.05214C55.2789 8.14043 55.4591 8.17975 55.6389 8.16505C55.8512 8.17501 56.0618 8.12322 56.2452 8.01595C56.4286 7.90868 56.577 7.75053 56.6724 7.56066V5.21358C56.5828 5.01776 56.4362 4.85347 56.2519 4.74208C56.0676 4.63069 55.854 4.57737 55.6389 4.58904C55.457 4.57797 55.276 4.62117 55.1187 4.71318C54.9614 4.80518 54.835 4.94183 54.7555 5.1058C54.5634 5.49304 54.4743 5.9232 54.4966 6.35488V6.46065ZM33.9471 10.9191V18.9092H32.3132L29.1038 13.6328V18.9092H27.4458V10.9191H29.1038L32.3132 16.1955V10.9191H33.9471ZM38.5808 18.9092C38.4978 18.7407 38.4465 18.5584 38.4297 18.3713C38.2629 18.5636 38.0568 18.7178 37.8253 18.8236C37.4471 18.9912 37.0302 19.0516 36.62 18.9983C36.2098 18.945 35.8222 18.78 35.4994 18.5214C35.3132 18.3664 35.1643 18.1715 35.0639 17.951C34.9634 17.7306 34.914 17.4903 34.9192 17.2481C34.9078 16.9696 34.9647 16.6926 35.0848 16.441C35.2048 16.1894 35.3845 15.971 35.6082 15.8046C36.0605 15.4601 36.7495 15.2879 37.6541 15.2879H38.3652V14.9434C38.3801 14.7015 38.3031 14.463 38.1497 14.2755C38.0626 14.1893 37.9576 14.1234 37.8422 14.0825C37.7267 14.0416 37.6037 14.0267 37.4818 14.0388C36.9217 14.0388 36.6417 14.2758 36.6417 14.75H35.0481C35.0527 14.4902 35.1173 14.235 35.2368 14.0044C35.3563 13.7737 35.5275 13.5738 35.7371 13.4203C36.269 13.0366 36.9129 12.8397 37.5684 12.8602C38.1776 12.8356 38.7772 13.0178 39.2698 13.377C39.7221 13.7215 39.9377 14.2382 39.9377 14.9494V17.4496C39.9376 17.7239 39.9592 17.9977 40.0021 18.2686C40.0366 18.4544 40.0945 18.6352 40.1744 18.8065V18.9143L38.5808 18.9092ZM37.2713 17.8112C37.5115 17.8079 37.7477 17.749 37.9613 17.639C38.1268 17.5444 38.267 17.4114 38.3703 17.2512V16.2166H37.7236C37.3943 16.1925 37.0669 16.2841 36.7978 16.4755C36.7047 16.556 36.6297 16.6551 36.5776 16.7666C36.5256 16.878 36.4976 16.9992 36.4956 17.1222C36.4931 17.2134 36.509 17.3042 36.5422 17.3891C36.5754 17.4741 36.6254 17.5515 36.689 17.6168C36.8572 17.7417 37.0608 17.8097 37.2703 17.8112H37.2713ZM44.0133 18.8659C43.8724 18.9122 43.7283 18.9482 43.5822 18.9737C43.411 18.9991 43.2384 19.0136 43.0654 19.017C42.6136 19.0339 42.1707 18.8889 41.8163 18.608C41.5148 18.3488 41.364 17.8965 41.364 17.2512V14.1254H40.4756V12.965H41.359V11.5003H42.9526V12.965H43.9599V14.1254H42.9526V17.097C42.939 17.1857 42.9456 17.2763 42.9717 17.362C42.9979 17.4478 43.043 17.5266 43.1037 17.5926C43.2393 17.6773 43.3961 17.722 43.556 17.7216C43.6425 17.7251 43.7291 17.718 43.8139 17.7004C43.9005 17.7004 43.965 17.6783 44.0083 17.6783L44.0133 18.8659ZM44.6812 11.4359C44.6808 11.2186 44.7658 11.0098 44.9179 10.8546C45.1013 10.7079 45.3292 10.628 45.5641 10.628C45.799 10.628 46.0269 10.7079 46.2103 10.8546C46.3653 11.0128 46.4522 11.2254 46.4522 11.4469C46.4522 11.6684 46.3653 11.8811 46.2103 12.0392C46.0267 12.1854 45.7988 12.265 45.5641 12.265C45.3294 12.265 45.1016 12.1854 44.9179 12.0392C44.8348 11.9633 44.77 11.8696 44.7281 11.7652C44.6862 11.6607 44.6685 11.5481 44.6761 11.4359H44.6812ZM46.3604 12.965V18.9082H44.7618V12.965H46.3604ZM47.267 16.0021V15.8943C47.2457 15.1119 47.5055 14.3478 47.9993 13.7406C48.4949 13.1584 49.1839 12.8783 50.0674 12.8783C50.974 12.8783 51.661 13.1584 52.1566 13.7406C52.6508 14.3476 52.9107 15.1118 52.8889 15.8943V16.0021C52.9084 16.7849 52.6464 17.5487 52.1505 18.1547C51.6549 18.736 50.9659 19.016 50.0825 19.016C49.1759 19.016 48.4889 18.736 47.9933 18.1547C47.4998 17.5474 47.24 16.7834 47.261 16.0011L47.267 16.0021ZM48.8616 15.8721V15.9799C48.8432 16.4069 48.9399 16.831 49.1416 17.2078C49.2449 17.3647 49.3856 17.4935 49.5509 17.5827C49.7163 17.6718 49.9012 17.7184 50.089 17.7184C50.2769 17.7184 50.4618 17.6718 50.6271 17.5827C50.7925 17.4935 50.9331 17.3647 51.0364 17.2078C51.2256 16.8264 51.3215 16.4056 51.3165 15.9799V15.8721C51.3317 15.4457 51.2352 15.0228 51.0364 14.6452C50.9467 14.4755 50.8089 14.3359 50.6403 14.244C50.4717 14.1521 50.2798 14.1119 50.0885 14.1284C49.898 14.1166 49.7081 14.1588 49.5405 14.2502C49.373 14.3416 49.2347 14.4786 49.1416 14.6452C48.9446 15.0234 48.8482 15.4459 48.8616 15.8721ZM56.2806 14.1496C56.0746 14.139 55.87 14.1882 55.6913 14.2911C55.5126 14.394 55.3675 14.5464 55.2733 14.7298V18.9082H53.6786V12.965H55.1645L55.2289 13.654C55.4306 13.3972 55.6896 13.1914 55.9853 13.053C56.281 12.9146 56.605 12.8475 56.9313 12.8572C57.1825 12.8437 57.4338 12.8806 57.6704 12.9657C57.9071 13.0508 58.1243 13.1824 58.3093 13.3528C58.6538 13.6973 58.8261 14.2785 58.8261 15.1186V18.9092H57.2325V15.1186C57.2325 14.7308 57.1459 14.4729 56.9958 14.343C56.7883 14.1981 56.5369 14.1297 56.2846 14.1496H56.2806ZM63.0911 17.2481C63.0923 17.1618 63.071 17.0767 63.0293 17.0011C62.9876 16.9255 62.927 16.8621 62.8534 16.817C62.5538 16.6488 62.2249 16.5391 61.8843 16.4937C61.3459 16.3932 60.8325 16.1879 60.3734 15.8893C60.1796 15.7601 60.0223 15.5833 59.9165 15.3759C59.8106 15.1684 59.7598 14.9373 59.769 14.7046C59.7724 14.4567 59.8301 14.2125 59.938 13.9892C60.0459 13.7659 60.2014 13.569 60.3935 13.4122C60.8246 13.0456 61.3837 12.8522 62.1382 12.8522C62.8927 12.8522 63.5162 13.0244 63.9685 13.3911C64.1808 13.5532 64.3521 13.7627 64.469 14.0028C64.5858 14.243 64.6449 14.5071 64.6414 14.7741H63.0478C63.0517 14.6711 63.0346 14.5683 62.9975 14.472C62.9605 14.3757 62.9042 14.288 62.8322 14.2141C62.6384 14.0572 62.392 13.9801 62.1432 13.9985C61.9214 13.9816 61.7005 14.0425 61.5187 14.1708C61.4525 14.2263 61.399 14.2955 61.3618 14.3735C61.3246 14.4515 61.3046 14.5366 61.3031 14.623C61.3018 14.7093 61.3229 14.7944 61.3644 14.87C61.4059 14.9456 61.4663 15.0091 61.5398 15.0542C61.8064 15.2016 62.0988 15.2967 62.4011 15.3342C62.9606 15.4403 63.4992 15.6366 63.9957 15.9154C64.4258 16.1743 64.6414 16.6045 64.6414 17.1867C64.6392 17.4394 64.5776 17.688 64.4616 17.9125C64.3456 18.137 64.1784 18.3311 63.9735 18.4791C63.5213 18.8236 62.9189 18.9959 62.1432 18.9959C61.3243 18.9959 60.6786 18.7803 60.2474 18.3492C60.0483 18.1815 59.8861 17.9744 59.7711 17.7408C59.6562 17.5072 59.5909 17.2524 59.5796 16.9923H61.0906C61.0911 17.1229 61.1226 17.2516 61.1825 17.3677C61.2424 17.4838 61.3289 17.584 61.4351 17.6601C61.6603 17.8017 61.9241 17.8693 62.1896 17.8535C62.7708 17.8969 63.0962 17.6813 63.0962 17.2491L63.0911 17.2481Z" fill="black"/>
        <path d="M18.9816 18.0692C18.3599 18.3732 17.6534 18.4567 16.978 18.306C16.5187 18.2012 16.0714 18.0493 15.6433 17.8527L14.6954 17.4659C13.8709 17.2075 12.9906 17.1848 12.1539 17.4004H12.0673C11.2332 17.1632 10.3466 17.186 9.52577 17.4659C9.20343 17.5736 8.90123 17.7237 8.57889 17.8527C8.14947 18.0523 7.70227 18.2111 7.24317 18.3271C6.56803 18.476 5.86241 18.3926 5.2406 18.0904L5.15397 18.0471C5.13281 18.0471 5.13281 18.0471 5.13281 18.0682C5.54646 18.495 6.06898 18.8005 6.64381 18.9517C7.02967 19.0551 7.4317 19.0842 7.82843 19.0373C8.43114 18.9558 9.00649 18.7347 9.50865 18.3916L10.4152 17.7872C10.7529 17.5699 11.1623 17.4936 11.5555 17.5746C11.7711 17.5958 11.5989 17.7036 11.5777 17.7247C11.0348 17.986 10.5209 18.3037 10.0446 18.6726C9.7212 18.9094 9.13795 19.4694 9.13795 19.4694L9.56808 19.8361L10.0425 19.3183C10.6247 18.7145 11.2923 18.1993 12.024 17.7892C12.052 17.7686 12.0859 17.7575 12.1207 17.7575C12.1554 17.7575 12.1893 17.7686 12.2174 17.7892C12.949 18.1993 13.6166 18.7145 14.1988 19.3183L14.6732 19.8361L15.1034 19.4694L14.1968 18.6726C13.7217 18.304 13.2092 17.9862 12.6676 17.7247C12.6243 17.7036 12.4742 17.5958 12.6898 17.5746C13.0837 17.4941 13.4934 17.5711 13.8311 17.7892L14.7377 18.3936C15.2395 18.7367 15.8145 18.9578 16.4169 19.0393C16.8136 19.0862 17.2157 19.0572 17.6015 18.9537C18.1691 18.7854 18.6875 18.4823 19.1125 18.0703C19.1008 18.0586 19.0856 18.0512 19.0692 18.0491L18.9836 18.0703M21.0939 16.1966C20.8208 16.405 20.5142 16.5654 20.1873 16.6711C19.7255 16.8069 19.2473 16.879 18.766 16.8856C18.1463 16.9039 17.528 16.9544 16.9135 17.0367C16.8702 17.0367 16.8491 17.0367 16.8702 17.0156C17.4066 16.7959 17.839 16.3797 18.079 15.8521L18.6834 14.6242V14.5819C18.6411 14.603 18.0377 15.1198 17.7577 15.3787L16.7503 16.3689C16.2954 16.7581 15.7576 17.0382 15.1779 17.1878H15.1567L15.1356 17.209L16.29 17.488C16.7884 17.6351 17.3009 17.729 17.8191 17.7681C18.4603 17.831 19.1065 17.7203 19.6902 17.4476C20.2738 17.1748 20.7733 16.75 21.1363 16.2178C21.1363 16.1956 21.1151 16.1956 21.0929 16.1956M22.9887 13.3096C22.6821 13.6804 22.3186 14.0004 21.9119 14.2575C21.565 14.4925 21.1971 14.6948 20.8129 14.8619C20.3238 15.0596 19.8665 15.3284 19.456 15.6597L19.3704 15.7242C19.3482 15.7242 19.3482 15.7242 19.3482 15.702C19.3482 15.6799 19.9949 15.0352 20.1884 13.6783C20.2166 13.1916 20.2887 12.7085 20.4039 12.2348V12.1915C19.9568 12.7458 19.6073 13.3723 19.3704 14.044L18.9826 15.1419C18.8272 15.6367 18.5538 16.0861 18.1858 16.4515L18.1425 16.4938V16.5159C18.1858 16.5159 18.2281 16.4938 18.2714 16.4938L19.5205 16.2359C20.2069 16.1253 20.857 15.8521 21.4163 15.4391C21.99 15.0245 22.4554 14.4779 22.7732 13.8455C22.854 13.6768 22.9259 13.504 22.9887 13.3277C23.031 13.2854 23.0099 13.2854 22.9887 13.3066M23.8067 10.0761C23.6078 10.6658 23.2678 11.1979 22.8165 11.6264C22.3031 12.1274 21.828 12.6661 21.3951 13.2381C21.3951 13.2593 21.3518 13.2381 21.373 13.2169C21.5458 12.6226 21.5897 11.9983 21.5019 11.3856C21.4163 10.8689 21.1997 10.3088 21.1363 9.68424L21.1151 9.66309C21.1151 9.68424 21.0929 9.70539 21.0929 9.72756C20.9635 10.1337 20.877 10.5524 20.8351 10.9766C20.8129 11.4934 20.8995 12.1613 20.8562 12.678C20.8129 13.2824 20.7696 13.906 20.4906 14.4439V14.4872L21.7819 13.6904C22.3139 13.3544 22.7751 12.9178 23.1398 12.405C23.6062 11.7438 23.8529 10.9527 23.845 10.1436V10.057C23.8285 10.0595 23.8133 10.0673 23.8016 10.0791" fill="#009EDB"/>
        <path d="M22.4273 10.4236C22.431 10.2511 22.4236 10.0785 22.4052 9.90687C22.3629 9.30247 21.9962 8.80787 21.6728 8.29514C21.4543 7.96522 21.26 7.61979 21.0916 7.26162C21.0799 7.24997 21.0647 7.24253 21.0483 7.24047C21.0465 7.35571 21.054 7.47091 21.0705 7.58497C21.179 8.45572 21.3959 9.30949 21.7162 10.1265C21.9044 10.6339 21.9777 11.1768 21.9307 11.716C21.9307 11.7593 21.9307 11.7593 21.9519 11.7805C22.1463 11.5005 22.5341 11.1126 22.7708 10.8115C23.0076 10.5103 24.3 9.0456 23.6774 7.02087C23.6511 6.9309 23.6149 6.84409 23.5696 6.76199L23.5485 6.78415C23.5485 8.2478 22.8373 8.87335 22.5573 9.86355C22.503 10.0475 22.4599 10.2345 22.4283 10.4236M22.4495 7.40869L22.3206 7.06318L22.2329 6.87279C22.0169 6.48064 21.7153 6.14219 21.3505 5.88259C21.0532 5.63251 20.7922 5.3423 20.5749 5.02032H20.5104C20.5315 5.08478 20.726 5.73149 20.8549 6.03268C21.0677 6.44911 21.328 6.83953 21.6305 7.19615L21.695 7.28177C22.0579 7.77161 22.3414 8.31551 22.5351 8.8935C22.5351 8.89911 22.5373 8.90449 22.5413 8.90845C22.5453 8.91242 22.5507 8.91465 22.5563 8.91465L22.9229 7.7945C23.0534 7.39806 23.161 6.99446 23.2453 6.5857C23.3752 5.61665 23.073 4.38872 22.513 3.69971C22.5013 3.7114 22.4939 3.72664 22.4918 3.74302L22.513 3.82864L22.5563 3.95859C22.671 4.48289 22.6782 5.02502 22.5774 5.55218C22.4985 5.97084 22.4628 6.39648 22.4707 6.82243C22.4707 6.8869 22.513 7.42682 22.513 7.44697C22.513 7.46712 22.4918 7.44697 22.4707 7.44697M20.7219 2.00236C20.9012 2.17113 21.0409 2.37754 21.1309 2.60675C21.282 2.97241 21.3243 3.51335 21.4331 3.91628L21.6275 4.62645C21.6275 4.64861 21.6054 4.66976 21.5842 4.64861C21.2573 4.25915 20.8629 3.9319 20.4197 3.68258C20.1305 3.50696 19.8753 3.28073 19.6662 3.01472L19.5585 2.86362C19.5556 2.86073 19.5523 2.85843 19.5486 2.85686C19.5448 2.85529 19.5408 2.85448 19.5368 2.85448C19.5328 2.85448 19.5288 2.85529 19.5251 2.85686C19.5213 2.85843 19.518 2.86073 19.5152 2.86362V2.92809C19.6181 3.41088 19.8488 3.8572 20.183 4.2205C20.463 4.47938 20.7642 4.7161 21.0443 4.95282C21.4155 5.26985 21.7614 5.61541 22.0788 5.98634C22.0788 5.98634 22.1 6.00851 22.1 5.98634V5.64184L22.1211 4.60832V4.26381C22.1225 3.91046 22.0579 3.55996 21.9307 3.23029C21.7157 2.7005 21.3184 2.265 20.8106 2.00236C20.7894 1.9812 20.7461 1.9812 20.7028 1.95904C20.7043 1.97579 20.7123 1.9913 20.725 2.00236M18.5088 0.995028C18.8087 1.28079 19.0762 1.59867 19.3066 1.94292C19.5148 2.28414 19.7683 2.59555 20.0601 2.86866C20.2535 3.06307 20.8358 3.51537 20.9858 3.6443C20.9647 3.47205 20.6836 2.24412 19.9312 1.64073C19.4945 1.29179 18.9872 1.04191 18.4444 0.908398V0.951713L18.5088 0.995028ZM6.44606 17.7681C6.94902 17.7288 7.44621 17.6349 7.92885 17.488L9.09231 17.208H9.11347C9.11347 17.2052 9.11292 17.2025 9.11186 17.1999C9.1108 17.1973 9.10924 17.195 9.10727 17.193C9.10531 17.1911 9.10298 17.1895 9.10041 17.1884C9.09784 17.1874 9.09509 17.1868 9.09231 17.1868H9.07015C8.48594 17.0324 7.94222 16.753 7.47656 16.3679L6.46923 15.3988L5.54349 14.602V14.6453C5.62912 14.7743 5.95247 15.4855 6.14789 15.8723C6.38114 16.4047 6.81577 16.823 7.35669 17.0357C7.37784 17.0569 7.35669 17.0569 7.31337 17.0569C6.69898 16.974 6.08061 16.9239 5.46089 16.9068C4.97952 16.8999 4.50134 16.8273 4.03955 16.6912C3.71274 16.5854 3.40621 16.425 3.13295 16.2168H3.08964C3.5179 16.8208 4.11506 17.2847 4.80613 17.5505C5.33481 17.7182 5.88896 17.7912 6.44304 17.7661M5.94743 16.4948C5.99075 16.4948 6.0119 16.517 6.07637 16.517V16.4948L6.03406 16.4525C5.67294 16.0818 5.40051 15.6341 5.23727 15.143L4.84944 14.045C4.61221 13.3733 4.26237 12.7468 3.81492 12.1925V12.2358C3.93794 12.7087 4.01752 13.1919 4.05265 13.6793C4.24605 15.014 4.89276 15.6607 4.89276 15.6819C4.89276 15.703 4.89276 15.7252 4.8706 15.703L4.78497 15.6386C4.37412 15.308 3.91695 15.0395 3.4281 14.8418C3.04371 14.6751 2.67577 14.4727 2.32911 14.2374C1.9222 13.9809 1.5587 13.6613 1.25227 13.2905H1.23112C1.29348 13.4665 1.36544 13.6391 1.44669 13.8072C1.77203 14.441 2.24458 14.9874 2.82471 15.4008C3.37347 15.8315 4.0279 16.1067 4.7195 16.1976C5.12948 16.3054 5.53846 16.4132 5.94743 16.4998M2.48021 13.7005L3.77261 14.4973C3.78426 14.4856 3.7917 14.4703 3.79376 14.454C3.51373 13.8939 3.47041 13.2915 3.4281 12.6881C3.38479 12.1492 3.47041 11.5035 3.44926 10.9867C3.40837 10.5543 3.32296 10.1273 3.1944 9.71245C3.1944 9.6913 3.17325 9.67015 3.17325 9.64798L3.15209 9.67015C3.10878 10.2947 2.87206 10.8548 2.78543 11.3715C2.69967 11.9839 2.7436 12.6075 2.91436 13.2018C2.93653 13.224 2.89321 13.2452 2.89321 13.224C2.46572 12.6477 1.99024 12.1085 1.47187 11.6123C1.02138 11.1913 0.681028 10.6663 0.480657 10.0832C0.469461 10.0712 0.45455 10.0634 0.43835 10.061C0.416188 10.061 0.43835 10.1043 0.43835 10.1476C0.43547 10.9567 0.683588 11.7469 1.14852 12.4091C1.50468 12.9233 1.95854 13.3625 2.48424 13.7015M2.24751 11.8057C2.26867 11.7845 2.26867 11.7845 2.26867 11.7412C2.21666 11.1987 2.29792 10.6516 2.50539 10.1476C2.80908 9.32535 3.02583 8.47354 3.15209 7.60613C3.15209 7.49834 3.17325 7.30393 3.17325 7.26162C3.15209 7.26162 3.15209 7.26162 3.15209 7.28278C2.98399 7.64161 2.78937 7.98741 2.56986 8.3173C2.22535 8.79075 1.88084 9.30751 1.83753 9.9109C1.81641 10.0825 1.81641 10.2561 1.83753 10.4277C1.83753 10.4333 1.8353 10.4386 1.83133 10.4426C1.82737 10.4466 1.82199 10.4488 1.81638 10.4488V10.4277L1.66528 9.9109C1.36308 8.91969 0.675072 8.29917 0.675072 6.83048L0.652911 6.80933C0.610603 6.89495 0.588442 6.98158 0.546134 7.06721C-0.0794176 9.09194 1.19183 10.5566 1.45273 10.8588C1.71363 11.161 2.05713 11.5256 2.24953 11.8057M1.34293 7.77637L1.70859 8.89652C1.71137 8.89652 1.71412 8.89597 1.71669 8.89491C1.71925 8.89384 1.72159 8.89229 1.72355 8.89032C1.72551 8.88836 1.72707 8.88603 1.72814 8.88346C1.7292 8.88089 1.72975 8.87814 1.72975 8.87536C1.9319 8.30099 2.21478 7.7583 2.56986 7.26364L2.63433 7.17701C2.93216 6.81722 3.19208 6.42768 3.40997 6.01455C3.53891 5.71235 3.73332 5.06665 3.75448 5.00218H3.69001C3.47292 5.32407 3.21184 5.61397 2.91436 5.86345C2.53721 6.12543 2.22671 6.47215 2.00777 6.87581C1.98661 6.94028 1.9433 7.00475 1.92215 7.06922L1.79321 7.43589C1.79321 7.43589 1.77105 7.47921 1.77105 7.43589C1.77105 7.39258 1.81436 6.89697 1.81436 6.81135C1.81471 6.38221 1.77083 5.95419 1.68341 5.53405C1.58247 5.0069 1.58967 4.46474 1.70456 3.94046C1.70901 3.89475 1.72383 3.85065 1.74788 3.81152C1.74788 3.79037 1.76903 3.74705 1.76903 3.72489C1.76903 3.70273 1.76903 3.70374 1.74788 3.68258C1.1878 4.3716 0.86445 5.62068 0.994395 6.56858C1.10117 6.97756 1.20896 7.38653 1.3389 7.77738M2.11354 4.63249L2.1357 5.66702V5.98937H2.15685C2.46069 5.60702 2.79962 5.25392 3.16922 4.93469L4.03049 4.20236C4.36734 3.83874 4.60042 3.39137 4.7054 2.90694V2.84348H4.68424L4.57646 2.99357C4.37542 3.25926 4.12717 3.48565 3.84413 3.66143C3.32737 3.98478 2.98286 4.2215 2.68066 4.63048C2.65951 4.65264 2.63735 4.65264 2.65951 4.60932L2.85292 3.89815C2.9607 3.48917 3.00402 2.95126 3.15512 2.58862C3.25016 2.36211 3.38916 2.15668 3.56409 1.98423V1.93688C3.52078 1.93688 3.49962 1.95803 3.45631 1.9802C2.9402 2.24858 2.53585 2.69111 2.315 3.22928C2.17402 3.55501 2.1076 3.90812 2.12059 4.2628V4.62846M3.2629 3.6161L4.20173 2.84348C4.48758 2.5642 4.74071 2.25328 4.95622 1.91673C5.17913 1.56752 5.44703 1.24916 5.75302 0.969845L5.81749 0.904368V0.862061C5.27138 0.985545 4.76224 1.23649 4.33168 1.59439C3.53387 2.21893 3.276 3.44586 3.25484 3.61811M11.9169 10.2977C11.9813 10.2111 11.8302 10.1466 11.7869 10.2977C11.7436 10.4488 11.8524 10.4055 11.9169 10.2977ZM13.5538 6.50713C13.4893 6.48497 13.2516 6.76501 13.2949 6.80933C13.408 6.73512 13.4978 6.63033 13.5538 6.50713ZM13.5971 6.46382C13.6394 6.48497 13.7905 6.39935 13.7693 6.37719C13.7482 6.35503 13.5538 6.2694 13.5538 6.31272C13.5505 6.33952 13.5526 6.36671 13.5601 6.39267C13.5675 6.41862 13.5801 6.44282 13.5971 6.46382ZM16.5042 9.13425C16.5909 9.11309 16.5687 8.98315 16.5042 8.98315C16.4398 8.98315 16.3531 9.09093 16.3753 9.09093C16.3975 9.09093 16.4609 9.1554 16.5042 9.13425ZM15.4486 6.2684C15.3841 6.2684 15.3629 6.33387 15.4274 6.37618C15.4526 6.38413 15.4792 6.38635 15.5053 6.38269C15.5315 6.37903 15.5565 6.36958 15.5785 6.35503C15.6035 6.34381 15.6248 6.32575 15.64 6.30293C15.6551 6.28011 15.6635 6.25347 15.6641 6.22609C15.6641 6.16061 15.5785 6.07499 15.6208 6.03167C15.6631 5.98836 15.7286 6.05383 15.7719 6.03167C15.7917 6.02161 15.8083 6.00616 15.8197 5.98708C15.8311 5.96801 15.8369 5.94611 15.8364 5.92389C15.8364 5.88158 15.8152 5.75164 15.7286 5.75164C15.642 5.75164 15.5563 5.92389 15.5563 5.92389C15.5459 5.94769 15.5404 5.97342 15.5404 5.99944C15.5404 6.02545 15.5459 6.05118 15.5563 6.07499C15.5785 6.16061 15.5563 6.2684 15.4486 6.2684Z" fill="#009EDB"/>
        <path d="M16.8687 6.28856C16.9053 6.41997 16.9487 6.54942 16.9986 6.67638C17.0198 6.74085 17.0419 6.97858 17.0842 6.95642C17.1266 6.93426 17.1276 6.80532 17.1064 6.74085C17.0831 6.58736 17.047 6.43608 16.9986 6.28856C16.9765 6.20193 16.8264 5.87958 16.7831 5.90074C16.7397 5.92189 16.8475 6.11631 16.8687 6.20294C16.8898 6.28957 16.8475 6.24625 16.8687 6.28957M16.1152 2.62792C16.1797 2.64908 16.1797 2.52014 16.0719 2.43452C15.9641 2.34889 15.7918 2.3912 15.8352 2.43452C15.9197 2.51082 16.0139 2.57583 16.1152 2.62792ZM12.8847 1.70219C12.7336 1.61556 12.8635 1.48662 12.7557 1.39999C12.6981 1.3771 12.6351 1.37101 12.5742 1.38242C12.5132 1.39383 12.4567 1.42227 12.4112 1.46446C12.3035 1.5944 12.5402 1.55109 12.6047 1.5944C12.6691 1.63772 12.8847 1.78781 12.9068 1.76666C12.9109 1.76134 12.9135 1.75512 12.9146 1.74855C12.9157 1.74197 12.9152 1.73523 12.9131 1.72889C12.9111 1.72256 12.9075 1.71682 12.9027 1.71217C12.8979 1.70752 12.8921 1.70409 12.8857 1.70219M13.747 1.27105C13.5536 1.18442 12.8404 1.18442 12.8645 1.37884C12.8887 1.57325 13.2735 1.37884 13.3813 1.37884C13.4891 1.37884 13.9192 1.35668 13.747 1.27105ZM11.7857 9.58353C11.7434 9.56238 11.6789 9.60469 11.6568 9.56238C11.6346 9.52007 11.5923 9.54022 11.5923 9.56238C11.5861 9.58063 11.5849 9.60018 11.5886 9.61908C11.5923 9.63798 11.6008 9.65559 11.6134 9.67016C11.6375 9.6906 11.668 9.70183 11.6996 9.70183C11.7311 9.70183 11.7616 9.6906 11.7857 9.67016C11.7965 9.6583 11.8024 9.64286 11.8024 9.62685C11.8024 9.61084 11.7965 9.59539 11.7857 9.58353ZM11.3767 8.14104C11.4412 8.14104 11.4412 8.09772 11.4633 8.09772C11.4855 8.09772 11.4633 8.14104 11.5278 8.14104C11.5923 8.14104 11.6568 7.98994 11.4633 7.98994C11.3122 7.98994 11.3334 8.14104 11.3767 8.14104ZM11.6356 8.31329C11.5278 8.29113 11.549 8.3556 11.4633 8.3556C11.3334 8.37776 11.4412 8.26998 11.3989 8.22666C11.3767 8.20551 11.3122 8.31329 11.2911 8.37776C11.2911 8.42107 11.2911 8.5067 11.3334 8.52785L11.7434 8.57117C11.829 8.57117 11.7434 8.33444 11.6356 8.31329ZM10.2999 9.71247C10.3432 9.71247 10.3644 9.58353 10.3432 9.51906C10.322 9.45459 10.1921 9.49791 10.1921 9.54022C10.2097 9.60724 10.2473 9.66732 10.2999 9.71247ZM8.57735 9.71247C8.57735 9.67016 8.57735 9.49791 8.53403 9.45459C8.49072 9.41128 8.49072 9.47575 8.46956 9.47575C8.44841 9.47575 8.4474 9.39013 8.42625 9.39013C8.40509 9.39013 8.42625 9.51906 8.46956 9.60469C8.51288 9.69031 8.57735 9.82026 8.57735 9.71247ZM8.53403 9.32566C8.57638 9.20073 8.59816 9.06975 8.5985 8.93783C8.60094 8.90093 8.59443 8.86398 8.57952 8.83013C8.56461 8.79628 8.54175 8.76654 8.51288 8.74342C8.49072 8.74342 8.51288 8.80789 8.53403 8.91567C8.52276 9.02525 8.50118 9.13351 8.46956 9.23903C8.46956 9.26018 8.51288 9.36796 8.53403 9.32566Z" fill="#009EDB"/>
        <path d="M6.33894 14.1496C7.48466 15.2959 8.94461 16.0768 10.5341 16.3933C12.1237 16.7098 13.7714 16.5478 15.2688 15.9278C16.7663 15.3078 18.0462 14.2576 18.9467 12.91C19.8473 11.5625 20.3279 9.97818 20.3279 8.35744C20.3279 6.7367 19.8473 5.15237 18.9467 3.80483C18.0462 2.4573 16.7663 1.40711 15.2688 0.787086C13.7714 0.167065 12.1237 0.00507164 10.5341 0.321595C8.94461 0.638118 7.48466 1.41894 6.33894 2.56529C5.57654 3.32494 4.9716 4.22762 4.55884 5.22157C4.14607 6.21552 3.93359 7.28119 3.93359 8.35744C3.93359 9.43369 4.14607 10.4994 4.55884 11.4933C4.9716 12.4873 5.57654 13.3899 6.33894 14.1496ZM4.29306 8.52768H5.54214C5.56202 9.16326 5.67086 9.79291 5.8655 10.3983C5.79706 10.3784 5.73165 10.3492 5.67108 10.3117C5.58546 10.2683 5.52099 10.3328 5.49883 10.3328C5.41321 10.3328 5.30542 10.2683 5.30542 10.3328C5.30542 10.3973 5.39105 10.355 5.39105 10.3983C5.39105 10.4416 5.17548 10.4406 5.15432 10.355C5.13317 10.2693 5.08985 10.1827 5.0687 10.2905C5.04755 10.3983 4.96092 10.3761 4.9176 10.3983C4.89082 10.4275 4.87544 10.4654 4.87429 10.5051C4.87429 10.5484 4.7665 10.5272 4.7665 10.5917C4.7665 10.6562 4.83097 10.6783 4.85313 10.7428C4.87529 10.8073 4.93875 10.8506 4.89645 10.8717C4.85414 10.8929 4.87429 10.8506 4.83097 10.8717C4.78766 10.8929 5.02538 11.5396 5.0687 11.5174C5.11202 11.4953 5.00322 11.3029 5.00322 11.2152C4.99952 11.1841 5.00595 11.1526 5.02155 11.1254C5.03716 11.0981 5.0611 11.0767 5.08985 11.0641C5.15432 11.0218 5.32658 11.323 5.39205 11.2797C5.45753 11.2364 5.3709 11.1941 5.43537 11.1719C5.49984 11.1498 5.69425 11.452 5.75872 11.3663C5.80204 11.3019 5.84434 11.4086 5.84434 11.4308C5.90881 11.5386 6.0166 11.5386 6.08107 11.6675C6.14553 11.7965 6.29663 12.0342 6.40442 12.0342C6.5122 12.0342 6.44773 11.9264 6.49105 11.9264C6.53436 11.9264 6.57667 12.0765 6.64114 12.1631C6.68693 12.2295 6.75657 12.2757 6.83556 12.2921C6.98565 12.4865 7.15891 12.6799 7.33116 12.8733L6.44773 13.7567C5.07859 12.3555 4.30653 10.4777 4.29406 8.51861M11.4229 6.73161L11.3363 6.77492C11.218 6.82866 11.1092 6.90111 11.014 6.98948L10.1305 6.10706C10.6366 5.65649 11.282 5.39334 11.9588 5.36164V6.61073C11.8039 6.62636 11.6518 6.66261 11.5065 6.71851C11.5415 6.65551 11.5849 6.59756 11.6355 6.54626C11.5508 6.59522 11.4773 6.66146 11.4199 6.74067M10.75 8.78656V8.82987C10.75 8.78656 10.7289 8.76541 10.7067 8.72209C10.6856 8.69993 10.6644 8.67878 10.6423 8.67878H10.5385L10.4962 8.69993H10.194C10.1517 8.69993 10.1295 8.69993 10.1295 8.67878C10.1084 8.59315 10.2373 8.65762 10.3239 8.39874C10.3451 8.37758 10.3451 8.33427 10.3662 8.31311L10.3884 8.2698L10.4096 8.24764L10.4307 8.22648C10.4478 8.21005 10.4683 8.19763 10.4908 8.19013C10.5133 8.18264 10.5371 8.18026 10.5607 8.18317H10.604L10.6463 8.22648L10.7108 8.35542C10.7329 8.37758 10.7541 8.37758 10.7541 8.39874C10.7866 8.41485 10.8159 8.43669 10.8407 8.46321L10.8619 8.48537V8.50652C10.883 8.52768 10.883 8.52768 10.9052 8.52768H10.9908C11.0341 8.50652 11.0341 8.52768 11.0563 8.52768V8.54984C11.0563 8.57099 11.0563 8.57099 11.0341 8.59315C11.0341 8.61431 11.0129 8.61431 11.0129 8.63546C10.9908 8.65762 10.9696 8.67878 10.9485 8.67878C10.9122 8.67387 10.8762 8.66681 10.8407 8.65762C10.8185 8.65762 10.7974 8.65762 10.7974 8.67878V8.78656M8.43318 10.8546C8.37215 10.7347 8.34268 10.6012 8.34756 10.4668C8.34326 10.335 8.30322 10.2069 8.23171 10.0961C8.20655 10.0123 8.192 9.92564 8.1884 9.83821C8.1884 9.68711 8.05946 9.73043 8.05946 9.68711C8.05946 9.6438 8.16624 9.68711 8.16624 9.6438C8.11898 9.53466 8.03531 9.4453 7.92951 9.39096C7.82173 9.34764 7.86505 9.28317 7.86505 9.2187C7.86968 9.18855 7.86824 9.15778 7.8608 9.1282C7.85336 9.09862 7.84008 9.07082 7.82173 9.04645C7.80058 8.95982 7.82173 8.80872 7.92951 8.80872C7.97283 8.80872 8.0373 8.85204 8.10177 8.80872C8.16624 8.76541 8.12393 8.63647 8.12393 8.52868H8.72833C8.72833 8.61531 8.75049 8.7231 8.75049 8.80872C8.70717 8.83088 8.68602 8.8742 8.70717 8.89535C8.72833 8.9165 8.75049 8.93867 8.77164 8.91651C8.87837 9.54446 9.16294 10.1286 9.59161 10.5998L8.70818 11.4832C8.63859 11.4082 8.57399 11.3288 8.51477 11.2455V11.181C8.51477 11.0309 8.40699 10.9443 8.36367 10.8153M7.58803 9.35066C7.53 9.08105 7.49395 8.80716 7.48025 8.5317H7.99701C7.9547 8.59718 7.84691 8.66165 7.82475 8.72612C7.80259 8.79059 7.67466 9.00616 7.76028 9.09178C7.9547 9.30735 7.71697 9.39398 7.58803 9.35066ZM7.69581 12.5379L7.58803 12.6456L7.43693 12.4955C7.47939 12.476 7.52671 12.4696 7.57283 12.4772C7.61896 12.4847 7.66178 12.5058 7.69581 12.5379ZM9.03153 6.99754C9.00937 6.99754 9.00937 7.0197 8.98822 7.0197C8.92375 7.08417 8.7515 7.06201 8.77265 7.12749C8.7938 7.19296 9.2471 6.97639 9.2471 7.0197C9.2471 7.06302 9.05269 7.12749 8.92375 7.19196C8.79481 7.25643 8.7515 7.36421 8.53593 7.36421C8.42814 7.36421 8.38483 7.44983 8.34252 7.5143C8.28422 7.59572 8.23364 7.68238 8.19142 7.77319C8.19366 7.9075 8.16397 8.04042 8.10479 8.16101H7.48025C7.52389 7.05582 7.95913 6.00217 8.70818 5.18838L9.59161 6.07181C9.37668 6.3624 9.18919 6.6723 9.03153 6.99754ZM9.84948 6.35184L10.6251 7.12749H10.5385C10.4529 7.12749 10.4529 7.06201 10.3884 7.06201C10.2585 7.08417 10.2373 7.12749 10.2162 7.10533C10.1202 7.01713 10.0111 6.94441 9.8928 6.88976C9.75136 6.84304 9.59756 6.85095 9.46166 6.91192C9.44051 6.91192 9.44051 6.93307 9.41935 6.93307C9.56945 6.73967 9.72155 6.54525 9.84948 6.35184ZM8.77265 7.92429C8.77265 8.00991 8.7515 8.09654 8.7515 8.18216H8.2992C8.29051 8.1488 8.28991 8.11385 8.29744 8.08021C8.30497 8.04657 8.32043 8.01522 8.34252 7.98875C8.36791 7.94516 8.40683 7.91105 8.45338 7.8916C8.49992 7.87214 8.55154 7.86841 8.6004 7.88097C8.65955 7.88733 8.71753 7.90191 8.77265 7.92429ZM9.16047 8.93665L9.20379 9.00112C9.2471 9.04444 9.28941 9.08674 9.33272 9.06559C9.38965 9.05492 9.44806 9.05492 9.50498 9.06559C9.5634 9.08861 9.61529 9.12563 9.65608 9.17337C9.69939 9.23784 9.78502 9.19453 9.84948 9.23784C9.91395 9.28116 9.97842 9.32447 9.8928 9.36678C9.80718 9.40909 9.97842 9.49673 10.0006 9.49673C10.0227 9.49673 10.0439 9.45341 10.0439 9.38894C10.0439 9.36678 10.0862 9.28116 10.1517 9.30231C10.2172 9.32347 10.4096 9.5612 10.474 9.47457C10.5385 9.38794 10.4962 9.28116 10.5173 9.23784C10.5181 9.22659 10.5228 9.21598 10.5308 9.20801C10.5388 9.20003 10.5494 9.19524 10.5607 9.19453C10.6125 9.29599 10.6775 9.39015 10.7541 9.47457L9.87165 10.358C9.4979 9.96591 9.25019 9.47085 9.16047 8.93665ZM9.84948 5.85624L8.98822 4.97382C9.80169 4.22607 10.8547 3.79222 11.9588 3.74991V4.999C11.1735 5.02426 10.4231 5.32977 9.84344 5.86027M8.72329 4.71896L7.84087 3.83554C8.95788 2.78135 10.4235 2.17473 11.9588 2.13114V3.38022C10.7553 3.4187 9.60679 3.89343 8.72732 4.71594M8.46944 4.95266C7.65154 5.83411 7.17813 6.98045 7.13574 8.18216H5.88665C5.93012 6.64862 6.53562 5.18451 7.58803 4.06823L8.46944 4.95266ZM7.13372 8.52768C7.1342 8.75916 7.15578 8.99013 7.19819 9.2177C7.17704 9.2177 7.17704 9.15222 7.11257 9.17438C7.0481 9.19654 6.81037 9.60451 6.7036 9.77878C6.61697 9.92887 6.7459 10.2522 6.61697 10.36C6.49208 10.4025 6.36107 10.4243 6.22914 10.4245H6.20799C5.99799 9.82853 5.88177 9.2036 5.86348 8.572L7.13372 8.52768ZM11.9367 16.1955C9.97882 16.1572 8.10777 15.3803 6.69856 14.0206L7.58098 13.1372C8.7586 14.2565 10.3077 14.9021 11.9316 14.9504L11.9367 16.1955ZM11.9367 14.6019C10.4053 14.5565 8.94378 13.9511 7.82878 12.9005L7.97988 12.7494C8.01244 12.7761 8.04876 12.7978 8.08767 12.8139C8.18085 12.8613 8.28711 12.8765 8.38986 12.8572C8.47649 12.836 8.64875 12.6849 8.75653 12.6849C8.86432 12.6849 9.03657 12.7282 9.14435 12.6638C9.25214 12.5993 9.07888 12.3837 9.01441 12.2759C8.99325 12.2538 8.99325 12.2326 8.9721 12.2115C9.81748 12.9247 10.8813 13.3274 11.987 13.3528L11.9367 14.6019ZM11.9367 12.9901C10.8318 12.9473 9.7783 12.5124 8.96505 11.7632L9.84747 10.8798C10.2626 11.2575 10.7664 11.5243 11.3121 11.6554C11.1187 11.7411 11.0321 11.87 11.0543 11.9778C11.0764 12.0856 10.9243 12.15 10.9243 12.28C10.9243 12.4099 11.0966 12.4955 11.1187 12.6245C11.1399 12.689 11.291 12.7967 11.4209 12.8824C11.5818 12.9283 11.7501 12.943 11.9165 12.9257L11.9367 12.9901ZM11.8934 11.2676C11.8289 11.2243 11.7856 11.3109 11.6999 11.3532C11.1093 11.2676 10.556 11.0133 10.1064 10.6209L10.9888 9.73849C11.2592 9.95903 11.5892 10.094 11.9367 10.1263C11.9367 10.1686 11.98 10.2119 11.98 10.2986C11.98 10.3852 11.9155 10.4275 11.9367 10.4708C11.9578 10.5141 12.1522 10.4708 12.1734 10.4063C12.1945 10.3419 12.1089 10.2986 12.0878 10.2341C12.0656 10.1908 12.0656 10.1686 12.0445 10.1263H12.1089C12.1745 10.1299 12.2402 10.1224 12.3033 10.1041C12.3145 10.1034 12.325 10.0986 12.3328 10.0906C12.3406 10.0826 12.3452 10.072 12.3456 10.0608C12.3456 10.0397 12.3678 10.0185 12.3678 9.99636C12.3678 9.9742 12.389 9.97521 12.389 9.95405L12.4111 9.97521C12.4323 10.0185 12.4756 10.1475 12.5179 10.1263C12.5602 10.1052 12.5834 9.91074 12.5612 9.86742C12.5401 9.83959 12.5287 9.80563 12.5287 9.77072C12.5287 9.73581 12.5401 9.70185 12.5612 9.67402C12.5612 9.65186 12.5834 9.52292 12.6257 9.54407C12.668 9.56522 12.6257 9.67402 12.6257 9.71632C12.6257 9.7818 12.669 9.86742 12.7335 9.82411C12.7768 9.80295 12.8201 9.73849 12.8634 9.75964C12.9067 9.78079 12.7556 9.82411 12.7335 9.86742C12.7113 9.91074 12.7979 9.93189 12.7768 9.95405C12.7556 9.97622 12.7335 9.95405 12.7123 9.97521C12.6912 9.99636 12.7556 10.1263 12.7123 10.1475C12.669 10.1686 12.5179 10.2119 12.4756 10.2341C12.4333 10.2563 12.389 10.2119 12.4111 10.1908C12.4333 10.1696 12.4111 10.083 12.3678 10.083C12.3245 10.083 12.3245 10.1041 12.3245 10.1475C12.3245 10.1908 12.3678 10.2552 12.3678 10.2764C12.3678 10.2976 12.3033 10.3197 12.26 10.3409C12.2142 10.4088 12.1557 10.4673 12.0878 10.5131C12.0233 10.5564 11.8934 10.5564 11.8934 10.5998C11.8934 10.6431 11.9588 10.6431 11.98 10.6642C12.0233 10.7287 12.0445 10.8153 11.9588 10.8586C11.8732 10.902 11.7644 10.7932 11.7211 10.8153C11.6778 10.8375 11.6566 10.9443 11.6355 11.0732C11.6143 11.2021 11.8722 11.2454 12.0011 11.181C12.0878 11.1387 12.0656 11.0087 12.1522 10.9654C12.2389 10.9221 12.2167 10.8365 12.3033 10.8586C12.39 10.8808 12.3678 10.7932 12.4534 10.7932C12.5391 10.7932 12.5401 10.8586 12.6478 10.8798C12.8201 10.9231 12.8201 11.052 12.8413 10.9876C12.8624 10.9231 12.8846 10.8798 12.7556 10.8365C12.6267 10.7932 12.5612 10.6431 12.669 10.6864C12.7979 10.7509 12.9057 10.7509 12.9279 10.8153C12.95 10.8798 13.078 10.8586 13.1001 10.9231C13.1213 11.0309 13.2079 10.9231 13.1435 10.8586C13.079 10.7942 13.1001 10.772 13.1435 10.7287C13.1868 10.6854 13.2079 10.7509 13.2724 10.6642C13.3369 10.5776 13.2502 10.5998 13.2291 10.5564C13.2079 10.5131 13.2291 10.2764 13.3157 10.3197C13.4023 10.363 13.488 10.2986 13.4446 10.2764C13.4013 10.2542 13.4658 10.1263 13.488 10.1263C13.5101 10.1263 13.488 10.2119 13.5091 10.2341C13.5303 10.2563 13.7458 10.1686 13.768 10.2764C13.7902 10.3842 13.6169 10.4487 13.5736 10.4487C13.488 10.4487 13.4225 10.5353 13.358 10.6209C13.2935 10.7065 13.2291 10.7287 13.2724 10.8153C13.3157 10.902 13.4013 10.8798 13.488 10.8365C13.5746 10.7932 13.6381 10.7287 13.6814 10.7075C13.768 10.6642 13.8325 10.9231 13.7891 10.9654C13.7458 11.0077 13.6602 11.0309 13.6169 11.0732C13.4929 11.1486 13.3527 11.1932 13.2079 11.2031C13.1213 11.2243 13.1213 11.2454 13.1001 11.3321C13.079 11.4187 12.6912 11.3532 12.6045 11.3532C12.5179 11.3532 12.669 11.1598 12.5401 11.181L12.1522 11.2455C12.1311 11.2455 12.0011 11.3532 11.8934 11.2676ZM13.0357 13.2702C13.1456 13.3174 13.242 13.3915 13.3157 13.4858C13.3802 13.5935 13.4013 13.6368 13.358 13.7446C13.2502 13.938 13.2935 14.067 13.5091 14.1325C13.6381 14.1748 13.6814 14.3047 13.768 14.3903C13.2893 14.5162 12.798 14.5885 12.3033 14.6059V13.3568C12.5401 13.3347 12.7979 13.3135 13.0357 13.2702ZM12.3033 13.0123V12.8612C12.5834 12.8179 12.5179 12.9901 12.7123 12.9257C12.7422 12.9161 12.7742 12.9151 12.8046 12.9227C12.8351 12.9304 12.8628 12.9464 12.8846 12.969C12.6902 12.9724 12.4961 12.9869 12.3033 13.0123ZM12.3033 16.2206V14.9464C12.955 14.9279 13.6001 14.8118 14.2173 14.6019C14.2257 14.61 14.2359 14.6161 14.2471 14.6198C14.2583 14.6234 14.2701 14.6245 14.2817 14.623C14.3672 14.6176 14.4493 14.5879 14.5185 14.5374C14.7255 14.4554 14.9209 14.3467 15.0997 14.214C15.6674 13.9254 16.19 13.5556 16.651 13.1161L17.5334 13.9985C16.1296 15.3687 14.2612 16.1599 12.3003 16.2146M15.7887 4.95065L16.0909 4.64845C16.1698 4.73775 16.2761 4.79834 16.3931 4.8207C16.4378 4.82355 16.48 4.84262 16.5117 4.87432C16.5434 4.90603 16.5625 4.94821 16.5653 4.99296C16.5875 5.10074 16.6943 5.14406 16.8021 5.16521C16.9099 5.18636 16.9743 5.31631 17.061 5.31631C17.1476 5.31631 17.4266 5.70312 17.5344 5.83307C17.5989 5.89754 17.6855 6.00532 17.75 5.91869C17.8144 5.83206 17.8144 5.85422 17.8578 5.83307C18.1892 6.57377 18.3752 7.37126 18.4057 8.18216H17.1506C17.1468 7.89899 17.111 7.61716 17.0438 7.34205C17.0875 7.25524 17.1096 7.15918 17.1083 7.06201C17.1105 7.04365 17.1066 7.02508 17.0973 7.00908C17.0881 6.99308 17.0739 6.98052 17.0569 6.97326C17.0399 6.966 17.021 6.96445 17.003 6.96882C16.985 6.9732 16.969 6.98328 16.9572 6.99754C16.9126 6.83535 16.855 6.67702 16.7849 6.5241C16.7638 6.43747 16.7416 6.33069 16.7205 6.24406C16.7205 6.22291 16.6772 6.20075 16.6338 6.15743C16.6026 6.08364 16.5666 6.01197 16.5261 5.94287C16.5915 5.89955 16.6127 5.79177 16.5261 5.81292C16.3971 5.83508 16.4838 5.74845 16.4404 5.70514C16.3971 5.66182 16.3971 5.70514 16.376 5.7273C16.2086 5.46902 16.0213 5.22417 15.8159 4.99497V4.97382C15.7726 4.97382 15.7726 4.95166 15.7937 4.95166M16.5482 12.2528C16.5049 12.1672 16.4838 12.0594 16.4404 11.9727C16.4183 11.8871 16.246 11.8871 16.246 11.9304C16.2495 12.0169 16.2424 12.1035 16.2249 12.1883V12.2115L15.7726 11.7592C16.5917 10.8775 17.0658 9.73036 17.1083 8.52768H18.3574C18.3173 10.0557 17.7109 11.5143 16.656 12.6205L16.5915 12.556C16.6077 12.4532 16.5926 12.3479 16.5482 12.2538M15.5137 13.1181C15.5792 13.0103 15.7081 12.8159 15.7726 12.7081C15.837 12.6003 15.6003 12.4502 15.4704 12.4059C15.3404 12.3616 15.3404 12.2981 15.3404 12.1903C15.4106 12.1392 15.4757 12.0815 15.5349 12.0181L16.4173 12.9015C16.1261 13.1757 15.809 13.4209 15.4704 13.6338C15.4482 13.5905 15.5993 13.4394 15.6426 13.3749C15.686 13.3105 15.4704 13.2249 15.5127 13.1171M16.0516 7.96861C15.9438 7.81852 16.0949 7.79635 16.245 7.73189C16.3316 7.68958 16.4394 7.75405 16.4394 7.71073C16.4428 7.68108 16.4521 7.65241 16.4668 7.62644C16.4815 7.60048 16.5013 7.57776 16.5251 7.55963C16.5773 7.53614 16.6223 7.49889 16.655 7.45185C16.655 7.49516 16.6762 7.53848 16.6762 7.58179C16.6347 7.65386 16.6125 7.73538 16.6117 7.81852C16.6117 7.88299 16.6117 7.96861 16.6762 7.81852C16.6762 7.79635 16.6973 7.79635 16.6973 7.7752C16.732 7.90862 16.7466 8.04646 16.7406 8.18418H15.8149V8.16302C15.8794 8.05524 16.1171 8.07639 16.0516 7.96861ZM16.2239 6.20276C16.224 6.20562 16.2236 6.20848 16.2226 6.21116C16.2216 6.21385 16.22 6.2163 16.218 6.21837C16.2161 6.22045 16.2137 6.22209 16.211 6.22322C16.2084 6.22435 16.2056 6.22492 16.2027 6.22492C16.1805 6.24608 16.0728 6.07382 16.0728 6.20276C16.0728 6.3317 16.1161 6.37501 16.2027 6.39717C16.2893 6.41934 16.245 6.46164 16.3105 6.4828C16.3427 6.48845 16.3725 6.50352 16.3961 6.52611C16.4977 6.7623 16.577 7.00748 16.6328 7.25844C16.6007 7.27466 16.5717 7.29649 16.5472 7.32291C16.5039 7.36623 16.5251 7.45185 16.4827 7.51632C16.4173 7.6241 16.3961 7.68958 16.2239 7.64626C16.1161 7.60295 16.2027 7.47401 16.2239 7.36623C16.245 7.25844 16.2883 7.27959 16.2883 7.21513C16.2883 7.15066 16.0728 6.91293 15.965 6.99956C15.8572 7.08619 15.8794 7.17181 15.7927 7.25844C15.7504 7.30176 15.7071 7.30176 15.6426 7.25844C15.5782 7.21513 15.556 7.17181 15.5782 7.1295C15.6003 7.08719 15.4271 6.89177 15.3626 6.80615C15.3215 6.75375 15.2693 6.71111 15.2097 6.68133C15.1501 6.65154 15.0847 6.63534 15.0181 6.6339C14.9012 6.43352 14.7638 6.24582 14.6081 6.07382L15.4915 5.19039C15.7796 5.4919 16.0259 5.8307 16.2239 6.19772M14.7381 6.80212L14.6947 6.86659C14.6736 6.9099 14.5658 6.82327 14.5436 6.84544C14.5215 6.8676 14.6947 7.08216 14.5225 7.01769C14.3502 6.95322 14.458 6.95322 14.458 6.88774C14.458 6.82227 14.3069 6.78097 14.3935 6.73765C14.4802 6.69434 14.3935 6.62987 14.4792 6.60771C14.5648 6.58555 14.5436 6.50093 14.4359 6.47877C14.3281 6.45661 14.3502 6.71549 14.2858 6.67318C14.2227 6.6549 14.1569 6.64741 14.0913 6.65102L14.3935 6.34882C14.4267 6.36603 14.4641 6.37338 14.5013 6.36998C14.5534 6.52687 14.6336 6.67297 14.7381 6.80111M14.3935 11.1729C14.5318 11.1916 14.6685 11.2206 14.8025 11.2596C14.8881 11.3029 14.9536 11.3885 15.0181 11.2807C15.1475 11.0855 15.2353 10.8657 15.276 10.635C15.3193 10.3117 15.2548 10.2039 15.2115 10.2039C15.1682 10.2039 15.0826 10.2905 14.9959 10.2905C14.9536 10.2905 14.9536 10.3761 14.9536 10.4406C14.9536 10.5051 14.867 10.5705 14.8458 10.5272C14.8247 10.4839 14.7804 10.5051 14.8025 10.5484C14.8247 10.5917 14.6303 10.5705 14.5436 10.5272C14.4147 10.4628 14.6947 10.4628 14.8237 10.355C14.9367 10.26 15.0446 10.1591 15.147 10.0528C15.2115 9.946 15.2115 9.81605 15.3193 9.73043C15.4271 9.6448 15.5993 9.66596 15.6215 9.53601C15.6436 9.40607 15.6648 9.42823 15.7293 9.45039C15.7937 9.47255 16.3971 9.42823 16.3971 9.23482C16.3971 9.14819 16.2682 9.04141 16.1392 9.01925C16.0526 9.01925 16.0315 8.847 15.9881 8.76138C15.9458 8.67066 15.8952 8.584 15.837 8.50249H16.7436C16.7003 9.60773 16.265 10.6615 15.5157 11.4751L15.4946 11.453V11.3673C15.5157 11.1951 15.3868 10.915 15.3435 10.9574C15.3001 10.9997 15.3435 11.0007 15.2145 11.1951C15.1712 11.2596 15.1067 11.3673 15.0211 11.3673C14.9355 11.3673 14.9345 11.324 14.8055 11.3452C14.6918 11.3673 14.5748 11.3673 14.461 11.3452C14.2551 11.2789 14.0592 11.1847 13.8788 11.0651C13.901 11.044 13.9654 11.0873 13.9654 11.0228C13.9654 10.9584 14.3099 11.1518 14.3966 11.1729M17.7772 13.7789L16.8947 12.9005C18.014 11.7229 18.6596 10.1738 18.7079 8.54984H19.9782C19.9378 10.5116 19.1523 12.3844 17.7812 13.7879M19.9721 8.18216H18.7019C18.6818 7.25574 18.4612 6.34469 18.0552 5.51173L18.0774 5.49058C18.163 5.40395 17.6684 4.75825 17.5817 4.69378C17.482 4.60602 17.3872 4.51287 17.2977 4.41475C17.1224 4.24357 16.9638 4.05603 16.8242 3.85468L17.75 2.92793C19.134 4.33149 19.9272 6.21236 19.9661 8.18317M12.3054 0.516387C14.2672 0.55964 16.1419 1.33545 17.5606 2.69121L16.6983 3.54845C16.656 3.52729 16.6127 3.50614 16.6338 3.46283C16.6772 3.39836 16.5694 3.39836 16.5482 3.2261C16.4987 3.05216 16.3825 2.90481 16.2249 2.81612C16.1171 2.75165 16.0526 2.66603 15.9448 2.62271C15.837 2.5794 15.6215 2.45046 15.5137 2.49377C15.4445 2.51799 15.3723 2.53224 15.2991 2.53608C14.3833 2.0468 13.3646 1.78135 12.3265 1.76145L12.3054 0.516387ZM12.3054 2.12811C13.2264 2.1561 14.1304 2.38398 14.9546 2.79597C14.9799 2.93725 15.039 3.07031 15.1269 3.18379C15.1754 3.28935 15.233 3.39046 15.2991 3.48599C15.3636 3.55046 15.3203 3.68041 15.3414 3.78819C15.3414 3.8305 15.3848 3.87382 15.4069 3.91713V4.08938C15.4069 4.11054 15.4925 4.11054 15.557 4.06722C15.6215 4.02391 15.6648 3.93828 15.7514 3.96045C15.8381 3.98261 15.9448 4.15385 16.0093 4.26264L15.6003 4.67162C15.557 4.586 15.5137 4.47821 15.5359 4.47821C15.558 4.47821 15.6003 4.49937 15.6215 4.49937C15.7081 4.49937 15.557 4.4349 15.557 4.41374C15.4925 4.34827 15.4925 4.26264 15.4069 4.19817C15.3213 4.13371 15.1914 4.17601 15.148 4.09039C15.0634 3.93716 14.9457 3.80468 14.8035 3.70257C14.7814 3.70257 14.9758 3.93929 14.9113 3.98261C14.8468 4.02592 14.6091 3.83151 14.588 3.87482C14.5668 3.91814 14.8468 4.02592 14.9325 4.11155C14.9758 4.15486 15.0614 4.2838 15.148 4.39158C14.3269 3.77032 13.3344 3.41686 12.3054 3.37922V2.12811ZM12.3054 3.72171C13.4102 3.76532 14.4636 4.20058 15.277 4.94964L14.3946 5.83307C13.8156 5.31789 13.0791 5.01427 12.3054 4.9718V3.72171ZM12.3054 5.33343C12.9836 5.3683 13.6295 5.63419 14.1357 6.08692L14.0924 6.13023L14.05 6.10908C13.9423 6.06576 13.7267 6.28133 13.77 6.30249C13.8133 6.32364 13.8989 6.21686 13.9423 6.23802H13.9634L13.5978 6.62584C13.49 6.66915 13.3822 6.75478 13.3822 6.81925V6.84141L13.2522 6.97337L13.1878 6.9089C13.0857 6.82368 12.969 6.75779 12.8433 6.71448C12.8731 6.69099 12.8981 6.66179 12.9166 6.62859C12.9351 6.59539 12.9468 6.55884 12.9511 6.52108C12.9511 6.39214 12.9077 6.43445 12.8433 6.49992C12.7788 6.5654 12.7143 6.58555 12.671 6.65001C12.5611 6.60776 12.4443 6.58592 12.3265 6.58555V5.33646L12.3054 5.33343ZM12.1543 6.92703C12.1615 6.94512 12.1634 6.96493 12.1597 6.98406C12.1559 7.00319 12.1467 7.02082 12.1331 7.03481C12.0898 7.07813 11.9608 6.92703 11.9387 7.05597C11.8954 7.18591 12.0253 7.12144 12.0253 7.1426C12.0887 7.22416 12.181 7.27825 12.2832 7.2937C12.3698 7.2937 12.4988 7.2937 12.4988 7.37932C12.4988 7.42264 12.6065 7.42264 12.6277 7.46595C12.6277 7.53042 12.6932 7.6382 12.7355 7.61604C12.7778 7.59388 12.8433 7.6382 12.8654 7.68152C12.8876 7.72483 12.8654 7.74599 12.8433 7.7883C12.7788 7.85377 12.9077 7.83161 12.9299 7.96055C12.9521 8.08949 12.8221 8.00386 12.8 8.09049C12.7576 8.15496 12.7143 8.19828 12.671 8.26275C12.6499 8.2839 12.6932 8.32722 12.7143 8.30606C12.7355 8.28491 12.7788 8.21943 12.8433 8.21943C12.9077 8.21943 12.9722 8.45615 13.0377 8.47832C13.1032 8.50048 13.08 8.5861 13.1021 8.60725C13.1243 8.62841 12.9944 8.60725 13.0155 8.65057C13.0367 8.69389 13.1666 8.71504 13.1666 8.77951C13.1595 8.81479 13.1407 8.84665 13.1133 8.87002C13.0859 8.89339 13.0515 8.90692 13.0155 8.90845C12.9511 8.90845 12.8433 8.75836 12.8433 8.80066C12.8433 8.84297 12.8866 8.97292 12.9511 8.97292C13.0155 8.97292 13.1666 8.90845 13.1021 8.99508C13.0377 9.08171 13.0588 9.21064 13.0155 9.21064C12.9722 9.21064 12.9511 9.21064 12.9944 9.27511C13.0028 9.30849 13.0033 9.34339 12.9958 9.37698C12.9882 9.41058 12.9729 9.44194 12.9511 9.46852C12.9272 9.48272 12.8993 9.48836 12.8718 9.48451C12.8443 9.48066 12.819 9.46756 12.8 9.44737C12.8 9.42521 12.9299 9.42521 12.9299 9.36074C12.9299 9.29627 12.8654 9.27511 12.7355 9.31843C12.671 9.33958 12.6499 9.29627 12.6065 9.29627C12.5632 9.29627 12.4343 9.44737 12.4343 9.46852V9.57631C12.4363 9.65319 12.4137 9.7287 12.3698 9.79187C12.2922 9.80928 12.2126 9.81639 12.1331 9.81303C11.7846 9.80306 11.4501 9.67401 11.1852 9.44737C11.2387 9.4203 11.2975 9.4055 11.3575 9.40405C11.4219 9.42521 11.4431 9.3829 11.4864 9.36074C11.5297 9.33858 11.6375 9.40405 11.702 9.36074C11.7664 9.31742 11.9175 9.03839 11.8954 8.97292C11.8732 8.90744 12.0465 8.80066 12.0253 8.77951C12.0042 8.75835 11.982 8.80066 11.982 8.77951C11.982 8.75835 12.0253 8.75835 11.982 8.67172C11.9387 8.58509 11.8742 8.62841 11.8309 8.62841C11.7664 8.5861 11.6586 8.56394 11.6375 8.5861C11.6163 8.60826 11.5509 8.54279 11.5297 8.56394C11.513 8.56511 11.4973 8.57228 11.4854 8.58413C11.4736 8.59597 11.4664 8.6117 11.4652 8.62841C11.4431 8.67172 11.4864 8.71504 11.4864 8.75835C11.4652 8.84398 11.3353 8.90845 11.3353 8.97292C11.3353 9.03738 11.2708 8.99508 11.2497 9.01623C11.2285 9.03738 11.2497 9.0807 11.2064 9.0807C11.163 9.0807 11.0986 9.18848 11.0563 9.27511C10.9908 9.18848 10.9263 9.0807 10.8619 8.99508C10.9052 8.97292 10.9485 8.95176 10.9696 8.97292C11.0341 9.01623 11.293 8.56394 11.2497 8.435C11.2064 8.30606 11.1419 8.39169 11.0774 8.41284C11.0129 8.43399 11.013 8.37053 11.0341 8.34837C11.0553 8.32621 11.3363 8.32722 11.1852 8.24059C11.1207 8.19828 10.9485 8.19828 10.9696 8.13381C10.9908 8.06934 11.0774 8.13381 11.0986 8.13381C11.2064 8.17612 11.2708 7.96055 11.3353 7.96055C11.4431 7.96055 11.4008 7.74599 11.293 7.81046C11.1852 7.87493 11.1419 7.85377 11.0986 7.91824C11.0553 7.98271 10.9485 8.06833 10.9485 7.98271C10.9485 7.9394 11.1852 7.81046 11.2285 7.74599C11.2761 7.69691 11.3125 7.63816 11.3353 7.57374C11.3575 7.50826 11.6586 7.46595 11.7231 7.42264C11.7725 7.37808 11.8034 7.31662 11.8097 7.25038C11.8097 7.18591 11.7231 7.20707 11.702 7.16375C11.6808 7.12044 11.8097 7.16375 11.8097 7.09928C11.8097 7.03481 11.702 7.09928 11.6586 7.05597C11.6586 7.03481 11.6586 7.03481 11.6808 7.01366C11.8324 6.95737 11.9926 6.92806 12.1543 6.92703H12.1976H12.1543ZM11.9588 0.516387V1.76548C10.3347 1.81313 8.78543 2.45882 7.60818 3.57867L6.72475 2.69524C8.13396 1.33554 10.005 0.558702 11.9629 0.520417M6.44874 2.95412L7.33217 3.83654C6.21248 5.0139 5.56682 6.56314 5.51898 8.1872H4.2709C4.3309 6.23526 5.10512 4.3732 6.44673 2.95412" fill="#009EDB"/>
    </g>
    <defs>
        <clipPath id="clip0_755_4451">
            <rect width="64.5945" height="20" fill="white" transform="translate(0.210938)"/>
        </clipPath>
    </defs>
</svg>
