<svg width="81" height="20" viewBox="0 0 81 20" fill="none" xmlns="http://www.w3.org/2000/svg">
    <g clip-path="url(#clip0_744_4060)">
        <path d="M80.2489 14.7287H18.9609V14.4895H80.2489V14.7287Z" fill="#011F5B"/>
        <path d="M19.7691 17.6634C19.7691 18.2798 19.9347 18.749 20.5879 18.749C21.1859 18.749 21.5078 18.3442 21.5078 17.645V16.4215C21.5078 16.3295 21.4894 16.2559 21.4802 16.1823C21.4619 16.0259 21.3055 15.9615 21.1031 15.9431V15.8235H22.1426V15.9339C21.931 15.9523 21.7838 16.0167 21.7654 16.1731C21.7562 16.2467 21.7378 16.3203 21.7378 16.4123V17.6634C21.7378 18.611 21.1399 18.9606 20.5695 18.9606C19.6311 18.9606 19.3459 18.4822 19.3459 17.691V16.3755C19.3459 15.9707 19.3643 15.9891 18.9688 15.9431V15.8235H20.1555V15.9339C19.7599 15.9799 19.7783 15.9615 19.7783 16.3663V17.6634H19.7691Z" fill="#011F5B"/>
        <path d="M24.627 18.9053C24.0842 18.2706 23.5231 17.599 22.9711 16.9458V18.4454C22.9711 18.5189 22.9803 18.5741 22.9895 18.6293C23.0079 18.7489 23.1183 18.8041 23.3483 18.8133V18.9053H22.5203V18.8133C22.6859 18.7949 22.7963 18.7489 22.8147 18.6293C22.8239 18.5741 22.8331 18.5189 22.8331 18.4454V16.8446C22.7411 16.725 22.6307 16.6146 22.4375 16.6146V16.5226H23.0539C23.5599 17.139 24.0842 17.7646 24.5902 18.3718H24.5994V16.9734C24.5994 16.8998 24.5902 16.8446 24.581 16.7894C24.5626 16.6698 24.4522 16.6238 24.2222 16.6054V16.5134H25.0502V16.6054C24.8938 16.6238 24.7742 16.6698 24.7558 16.7894C24.7466 16.8446 24.7374 16.8998 24.7374 16.9734V18.8869H24.627V18.9053Z" fill="#011F5B"/>
        <path d="M26.3742 18.482C26.3742 18.7948 26.365 18.7764 26.6686 18.8224V18.9144H25.7578V18.8224C26.0614 18.7856 26.0522 18.804 26.0522 18.482V16.9548C26.0522 16.6421 26.0614 16.6605 25.7578 16.6145V16.5225H26.6686V16.6145C26.365 16.6513 26.3742 16.6329 26.3742 16.9548V18.482Z" fill="#011F5B"/>
        <path d="M28.1153 16.6145C27.9313 16.6145 27.7933 16.6697 27.9037 16.9917C28.0325 17.3965 28.2349 17.9761 28.4097 18.4913C28.6305 17.9761 28.8328 17.4517 29.0444 16.9273C29.1272 16.7157 29.0444 16.6053 28.8144 16.6053V16.5134H29.5504V16.6053C29.4492 16.6053 29.3388 16.6421 29.2652 16.8077C28.98 17.5069 28.6949 18.1969 28.4097 18.8869H28.2349C28.0325 18.2981 27.7933 17.6449 27.5909 17.0653C27.4621 16.7065 27.3609 16.5961 27.1953 16.5961V16.5042H28.1153V16.6145Z" fill="#011F5B"/>
        <path d="M30.0664 18.8133C30.37 18.7765 30.3608 18.7949 30.3608 18.4729V16.9458C30.3608 16.633 30.37 16.6514 30.0664 16.6054V16.5134H31.5843V17.0562H31.4923C31.4556 16.8078 31.3912 16.6146 31.1428 16.6146H30.6828V17.5806H30.968C31.1796 17.5806 31.2716 17.4978 31.2808 17.2862H31.3728V18.013H31.2808C31.2716 17.8106 31.198 17.691 30.968 17.691H30.6828V18.4546C30.6828 18.7397 30.8116 18.7673 31.1244 18.7673C31.6119 18.7673 31.5935 18.6293 31.7499 18.2614H31.8419L31.7407 18.8685H30.0756V18.8133H30.0664Z" fill="#011F5B"/>
        <path d="M32.3555 16.5317H33.3398C33.6802 16.5317 34.0298 16.7157 34.0298 17.1113C34.0298 17.4609 33.8182 17.7001 33.5514 17.8013L33.8826 18.3073C34.0482 18.5557 34.2414 18.7948 34.361 18.8592V18.9052H34.0114C33.809 18.9052 33.6986 18.5373 33.2938 17.8565H32.9718V18.4821C32.9718 18.7948 32.9626 18.7764 33.2662 18.8224V18.9144H32.3555V18.8224C32.6591 18.7856 32.6499 18.804 32.6499 18.4821V16.9549C32.6499 16.6421 32.6591 16.6605 32.3555 16.6145V16.5317ZM32.9718 17.7461H33.257C33.5514 17.7461 33.6894 17.5253 33.6894 17.1389C33.6894 16.7709 33.487 16.6421 33.2386 16.6421H32.9718V17.7461Z" fill="#011F5B"/>
        <path d="M36.0434 17.0377C36.0158 16.7985 35.887 16.6145 35.6202 16.6145C35.427 16.6145 35.243 16.7157 35.243 16.9641C35.243 17.2032 35.4822 17.3412 35.8226 17.5988C36.1813 17.8656 36.3009 18.0404 36.3009 18.3256C36.3009 18.7304 35.887 18.9512 35.4822 18.9512C35.2614 18.9512 35.0774 18.9144 34.9026 18.8408C34.8934 18.8316 34.875 18.8224 34.875 18.7948V18.3072H34.967C35.0038 18.6844 35.2522 18.8316 35.5098 18.8316C35.749 18.8316 35.9514 18.6476 35.9514 18.3992C35.9514 18.1784 35.8318 17.9944 35.3258 17.6632C35.1418 17.5436 34.9118 17.4056 34.9118 17.0377C34.9118 16.7341 35.2522 16.4949 35.6386 16.4949C35.7858 16.4949 35.979 16.5133 36.117 16.5593C36.1353 16.5685 36.1445 16.5777 36.1445 16.5961V17.0377H36.0434Z" fill="#011F5B"/>
        <path d="M37.5265 18.482C37.5265 18.7948 37.5081 18.7764 37.8209 18.8224V18.9144H36.9102V18.8224C37.2137 18.7856 37.2045 18.804 37.2045 18.482V16.9548C37.2045 16.6421 37.2137 16.6605 36.9102 16.6145V16.5225H37.8209V16.6145C37.5173 16.6513 37.5265 16.6329 37.5265 16.9548V18.482Z" fill="#011F5B"/>
        <path d="M39.4928 18.4821C39.4928 18.7949 39.4836 18.7765 39.7872 18.8225V18.9145H38.8765V18.8225C39.18 18.7857 39.1708 18.8041 39.1708 18.4821V16.6422H38.8581C38.5637 16.6422 38.4993 16.8262 38.3797 17.0562H38.2969L38.3889 16.541H40.2656L40.3576 17.0562H40.2748C40.1644 16.8354 40.0908 16.6422 39.7964 16.6422H39.4928V18.4821Z" fill="#011F5B"/>
        <path d="M41.3427 18.8132C41.6463 18.7764 41.6371 18.7948 41.6371 18.4728V17.9484L41.1127 16.918C41.0023 16.6973 40.9103 16.6145 40.7539 16.6145V16.5225H41.6187V16.6145C41.3611 16.6145 41.3887 16.7433 41.4715 16.918L41.8855 17.7736L42.3546 16.918C42.4742 16.7157 42.3638 16.6145 42.1614 16.6145V16.5225H42.8606V16.6145C42.7686 16.6145 42.6766 16.6605 42.5846 16.8168L42.0143 17.8472C41.9775 17.9116 41.9775 18.0128 41.9775 18.0956V18.4728C41.9775 18.7856 41.9683 18.7672 42.2718 18.8132V18.9052H41.3427V18.8132Z" fill="#011F5B"/>
        <path d="M44.3984 18.0958C44.3984 17.5162 44.8952 16.6606 45.6312 16.6606C46.22 16.6606 46.3396 17.0562 46.3396 17.4518C46.3396 17.9394 45.9532 18.9606 45.116 18.9606C44.5456 18.9606 44.3984 18.5006 44.3984 18.0958ZM45.9348 17.231C45.9348 16.771 45.6588 16.7526 45.5852 16.7526C45.1068 16.7526 44.794 17.6082 44.794 18.1786C44.794 18.4086 44.8308 18.8226 45.162 18.8226C45.668 18.8226 45.9348 17.9946 45.9348 17.231Z" fill="#011F5B"/>
        <path d="M48.5457 16.7986L48.4445 16.8906H47.8649C47.6533 17.9394 47.2945 19.3285 47.0461 20.0001H46.8438L47.4693 16.8906H47.0553L47.0921 16.7066H47.5061C47.7361 15.7683 48.5089 15.6763 48.7021 15.6763C48.8033 15.6763 49.0149 15.6947 49.0793 15.7591L49.0241 16.0535L48.9137 16.1087C48.8493 15.9891 48.7113 15.8511 48.5273 15.8511C48.2605 15.8511 48.0673 16.0351 47.9569 16.5042L47.9109 16.7158H48.5549L48.5457 16.7986Z" fill="#011F5B"/>
        <path d="M51.2353 18.3534C51.2353 18.7582 51.2169 18.7398 51.6125 18.7858V18.8962H50.4258V18.7858C50.8214 18.7398 50.803 18.7582 50.803 18.3534V16.3755C50.803 15.9707 50.8214 15.9891 50.4258 15.9431V15.8235H51.5757C52.3025 15.8235 52.6705 16.1179 52.6705 16.6423C52.6705 17.277 52.1001 17.6174 51.4285 17.5806V17.4886C51.9805 17.4978 52.2289 17.1666 52.2289 16.6883C52.2289 16.1915 51.9897 15.9707 51.5021 15.9707H51.2353V18.3534Z" fill="#011F5B"/>
        <path d="M53.2773 18.8133C53.5809 18.7765 53.5717 18.7949 53.5717 18.4729V16.9458C53.5717 16.633 53.5809 16.6514 53.2773 16.6054V16.5134H54.7953V17.0562H54.7033C54.6665 16.8078 54.6021 16.6146 54.3537 16.6146H53.8937V17.5806H54.1789C54.3905 17.5806 54.4825 17.4978 54.4917 17.2862H54.5837V18.013H54.4917C54.4825 17.8106 54.4089 17.691 54.1789 17.691H53.8937V18.4546C53.8937 18.7397 54.0225 18.7673 54.3353 18.7673C54.8229 18.7673 54.8045 18.6293 54.9609 18.2614H55.0529L54.9517 18.8685H53.2865V18.8133H53.2773Z" fill="#011F5B"/>
        <path d="M57.7481 18.9053C57.2053 18.2706 56.6441 17.599 56.0922 16.9458V18.4454C56.0922 18.5189 56.1014 18.5741 56.1106 18.6293C56.129 18.7489 56.2394 18.8041 56.4694 18.8133V18.9053H55.6414V18.8133C55.807 18.7949 55.9174 18.7489 55.9358 18.6293C55.945 18.5741 55.9542 18.5189 55.9542 18.4454V16.8446C55.8622 16.725 55.7518 16.6146 55.5586 16.6146V16.5226H56.175C56.6809 17.139 57.2053 17.7646 57.7113 18.3718H57.7205V16.9734C57.7205 16.8998 57.7113 16.8446 57.7021 16.7894C57.6837 16.6698 57.5733 16.6238 57.3433 16.6054V16.5134H58.1713V16.6054C58.0149 16.6238 57.8953 16.6698 57.8769 16.7894C57.8677 16.8446 57.8585 16.8998 57.8585 16.9734V18.8869H57.7481V18.9053Z" fill="#011F5B"/>
        <path d="M60.7833 18.9053C60.2405 18.2706 59.6885 17.599 59.1273 16.9458V18.4454C59.1273 18.5189 59.1365 18.5741 59.1457 18.6293C59.1641 18.7489 59.2745 18.8041 59.5045 18.8133V18.9053H58.6765V18.8133C58.8421 18.7949 58.9525 18.7489 58.9709 18.6293C58.9801 18.5741 58.9893 18.5189 58.9893 18.4454V16.8446C58.8973 16.725 58.7869 16.6146 58.5938 16.6146V16.5226H59.2101C59.7161 17.139 60.2405 17.7646 60.7465 18.3718H60.7557V16.9734C60.7557 16.8998 60.7465 16.8446 60.7373 16.7894C60.7189 16.6698 60.6085 16.6238 60.3785 16.6054V16.5134H61.2064V16.6054C61.0501 16.6238 60.9305 16.6698 60.9121 16.7894C60.9029 16.8446 60.8937 16.8998 60.8937 16.9734V18.8869H60.7833V18.9053Z" fill="#011F5B"/>
        <path d="M62.9887 17.0377C62.9611 16.7985 62.8323 16.6145 62.5655 16.6145C62.3723 16.6145 62.1883 16.7157 62.1883 16.9641C62.1883 17.2032 62.4275 17.3412 62.7679 17.5988C63.1267 17.8656 63.2463 18.0404 63.2463 18.3256C63.2463 18.7304 62.8323 18.9512 62.4275 18.9512C62.2067 18.9512 62.0227 18.9144 61.8479 18.8408C61.8387 18.8316 61.8203 18.8224 61.8203 18.7948V18.3072H61.9123C61.9491 18.6844 62.1975 18.8316 62.4551 18.8316C62.6943 18.8316 62.8967 18.6476 62.8967 18.3992C62.8967 18.1784 62.7771 17.9944 62.2711 17.6632C62.0871 17.5436 61.8571 17.4056 61.8571 17.0377C61.8571 16.7341 62.1975 16.4949 62.5839 16.4949C62.7311 16.4949 62.9243 16.5133 63.0623 16.5593C63.0807 16.5685 63.0899 16.5777 63.0899 16.5961V17.0377H62.9887Z" fill="#011F5B"/>
        <path d="M64.3622 18.8132C64.6658 18.7764 64.6566 18.7948 64.6566 18.4728V17.9484L64.1322 16.918C64.0218 16.6973 63.9298 16.6145 63.7734 16.6145V16.5225H64.6382V16.6145C64.3806 16.6145 64.399 16.7433 64.491 16.918L64.905 17.7736L65.3742 16.918C65.4938 16.7157 65.3834 16.6145 65.181 16.6145V16.5225H65.8802V16.6145C65.7882 16.6145 65.6962 16.6605 65.6042 16.8168L65.0338 17.8472C64.997 17.9116 64.997 18.0128 64.997 18.0956V18.4728C64.997 18.7856 64.9878 18.7672 65.2914 18.8132V18.9052H64.3806V18.8132H64.3622Z" fill="#011F5B"/>
        <path d="M66.4233 18.8133C66.7268 18.7765 66.7176 18.7949 66.7176 18.4729V16.9458C66.7176 16.633 66.7268 16.6514 66.4233 16.6054V16.5134H67.334V16.6054C67.0304 16.6422 67.0396 16.6238 67.0396 16.9458V18.5281C67.0396 18.7673 67.1684 18.7857 67.472 18.7857C67.9596 18.7857 67.9412 18.6477 68.0976 18.2798H68.1804L68.0792 18.8869H66.4141V18.8133H66.4233Z" fill="#011F5B"/>
        <path d="M69.377 16.6145C69.193 16.6145 69.055 16.6697 69.1654 16.9917C69.2942 17.3965 69.4966 17.9761 69.6714 18.4913C69.8922 17.9761 70.0946 17.4517 70.3062 16.9273C70.389 16.7157 70.3062 16.6053 70.0762 16.6053V16.5134H70.8121V16.6053C70.7109 16.6053 70.6005 16.6421 70.5269 16.8077C70.2418 17.5069 69.9566 18.1969 69.6714 18.8869H69.4966C69.285 18.2981 69.055 17.6449 68.8526 17.0653C68.7238 16.7065 68.6226 16.5961 68.457 16.5961V16.5042H69.377V16.6145Z" fill="#011F5B"/>
        <path d="M71.3611 18.1142L71.2047 18.565C71.1587 18.6938 71.2231 18.8133 71.3703 18.8133V18.9053H70.7539V18.8133C70.8459 18.8133 70.9471 18.7581 71.0023 18.6478C71.1495 18.3534 71.5451 17.2402 71.8303 16.4858H72.0235C72.2534 17.1666 72.603 18.2154 72.7134 18.519C72.787 18.7122 72.8422 18.8133 72.9894 18.8133V18.9053H72.1982V18.8133C72.4098 18.8133 72.4282 18.703 72.3822 18.5558L72.235 18.1142H71.3611ZM72.189 17.9854L71.8303 16.8814H71.8211L71.4163 17.9854H72.189Z" fill="#011F5B"/>
        <path d="M75.6036 18.9053C75.0608 18.2706 74.4996 17.599 73.9476 16.9458V18.4454C73.9476 18.5189 73.9568 18.5741 73.966 18.6293C73.9844 18.7489 74.0948 18.8041 74.3248 18.8133V18.9053H73.4969V18.8133C73.6625 18.7949 73.7729 18.7489 73.7913 18.6293C73.8005 18.5741 73.8097 18.5189 73.8097 18.4454V16.8446C73.7177 16.725 73.6073 16.6146 73.4141 16.6146V16.5226H74.0304C74.5364 17.139 75.0608 17.7646 75.5668 18.3718H75.576V16.9734C75.576 16.8998 75.5668 16.8446 75.5576 16.7894C75.5392 16.6698 75.4288 16.6238 75.1988 16.6054V16.5134H76.0268V16.6054C75.8704 16.6238 75.7508 16.6698 75.7324 16.7894C75.7232 16.8446 75.714 16.8998 75.714 16.9734V18.8869H75.6036V18.9053Z" fill="#011F5B"/>
        <path d="M77.2023 18.482C77.2023 18.7948 77.1931 18.7764 77.4967 18.8224V18.9144H76.5859V18.8224C76.8895 18.7856 76.8803 18.804 76.8803 18.482V16.9548C76.8803 16.6421 76.8895 16.6605 76.5859 16.6145V16.5225H77.4967V16.6145C77.1931 16.6513 77.2023 16.6329 77.2023 16.9548V18.482Z" fill="#011F5B"/>
        <path d="M78.6189 18.1142L78.4625 18.565C78.4165 18.6938 78.4809 18.8133 78.6281 18.8133V18.9053H78.0117V18.8133C78.1037 18.8133 78.2049 18.7581 78.2601 18.6478C78.4073 18.3534 78.8029 17.2402 79.0881 16.4858H79.2813C79.5113 17.1666 79.8608 18.2154 79.9712 18.519C80.0448 18.7122 80.1 18.8133 80.2472 18.8133V18.9053H79.4561V18.8133C79.6677 18.8133 79.6861 18.703 79.6309 18.5558L79.4837 18.1142H78.6189ZM79.4469 17.9854L79.0881 16.8814H79.0789L78.6741 17.9854H79.4469Z" fill="#011F5B"/>
        <path d="M17.2316 0.450684H0.773469C0.773469 0.450684 0.773469 8.61076 0.773469 8.65676C0.76427 12.2262 2.74219 14.8113 4.40732 16.3568C6.23805 18.0496 8.25277 19.0247 8.92434 19.1719L9.00714 19.1903L9.08994 19.1719C9.76151 19.0247 11.7762 18.0496 13.607 16.3568C15.2721 14.8205 17.25 12.2262 17.2408 8.65676C17.2316 8.55556 17.2316 0.450684 17.2316 0.450684Z" fill="white"/>
        <path d="M16.2197 3.89134C16.2473 3.90974 16.2657 3.92814 16.2841 3.95573C16.3025 3.98333 16.3117 4.02013 16.3117 4.04773C16.3117 4.08453 16.3025 4.11213 16.2841 4.13973C16.2657 4.16733 16.2381 4.18572 16.2197 4.20412C16.1829 4.23172 16.1461 4.25932 16.1461 4.30532V4.59971H14.4166H12.687V4.30532C12.687 4.25932 12.6502 4.23172 12.6134 4.20412C12.5858 4.18572 12.5674 4.16733 12.549 4.13973C12.5306 4.11213 12.5214 4.07533 12.5214 4.04773C12.5214 4.01093 12.5306 3.98333 12.549 3.95573C12.5674 3.92814 12.595 3.90974 12.6134 3.89134C12.6502 3.86374 12.687 3.83614 12.687 3.79014V2.82418C12.687 2.77818 12.6502 2.75058 12.6134 2.72298C12.5858 2.70458 12.5674 2.68618 12.549 2.65859C12.5306 2.63099 12.5214 2.59419 12.5214 2.56659C12.5214 2.52979 12.5306 2.50219 12.549 2.47459C12.5674 2.44699 12.595 2.42859 12.6134 2.4102C12.6502 2.3826 12.687 2.355 12.687 2.309V2.00541H12.733C12.9354 2.00541 13.1102 2.00541 13.239 1.95021C13.285 1.93181 13.3402 1.89502 13.3862 1.86742C13.4874 1.80302 13.6162 1.72942 13.791 1.72942C13.9382 1.72942 14.067 1.78462 14.1866 1.83062C14.2694 1.86742 14.3522 1.89502 14.4074 1.89502H14.435C14.4902 1.89502 14.573 1.86742 14.6558 1.83062C14.7754 1.78462 14.9042 1.72942 15.0513 1.72942C15.2261 1.72942 15.3549 1.80302 15.4561 1.86742C15.5021 1.89502 15.5481 1.93181 15.6033 1.95021C15.7229 2.00541 15.9069 2.00541 16.1093 2.00541H16.1553V2.2998C16.1553 2.3458 16.1921 2.3734 16.2289 2.401C16.2473 2.4194 16.2749 2.43779 16.2933 2.46539C16.3117 2.49299 16.3209 2.52979 16.3209 2.55739C16.3209 2.59419 16.3117 2.62179 16.2933 2.64939C16.2749 2.67698 16.2473 2.69538 16.2289 2.71378C16.1921 2.74138 16.1553 2.76898 16.1553 2.81498V3.77174C16.1461 3.82694 16.1829 3.85454 16.2197 3.89134ZM11.9879 4.38812C11.7211 4.8113 11.2059 4.9217 11.1875 4.9217C11.0863 4.94009 10.9851 4.94929 10.8747 4.94929C10.3411 4.94929 9.84435 4.7193 9.33837 4.45251C9.28318 4.42492 9.21878 4.38812 9.15438 4.35132C8.83239 4.17652 8.38161 3.92813 8.00443 3.92813C7.89403 3.92813 7.79284 3.94653 7.69164 4.00173L7.67324 4.01093V4.02933C7.67324 4.07533 7.66404 4.13053 7.64564 4.16733C7.58124 4.33292 7.38805 4.49851 7.28686 4.57211C7.06607 4.7285 6.79008 4.8941 6.45889 4.8941C6.40369 4.8941 6.35769 4.8849 6.32089 4.8757C6.2565 4.8573 6.2105 4.8205 6.1737 4.7653C6.1553 4.7377 6.1369 4.7101 6.1277 4.68251C6.1185 4.65491 6.1093 4.63651 6.1093 4.60891V4.59051L6.0909 4.58131C5.96211 4.54451 5.87931 4.45251 5.87931 4.35132C5.87931 4.26852 5.93451 4.20412 5.98971 4.13973C6.0817 4.03853 6.1553 3.94653 6.02651 3.82694C6.01731 3.81774 5.99891 3.80854 5.98971 3.79934C5.97131 3.79014 5.95291 3.77174 5.94371 3.75334C5.83331 3.63375 5.89771 3.39456 5.93451 3.24736V3.22896C5.98051 3.07257 6.03571 2.90698 6.1277 2.73218C6.2473 2.49299 6.39449 2.217 6.59688 2.05141C6.59688 2.05141 6.60608 2.04221 6.61528 2.05141C6.62448 2.05141 6.62448 2.05141 6.62448 2.06061C6.62448 2.06981 6.65208 2.09741 6.67968 2.15261L6.71648 2.2078L6.73488 2.14341C6.79008 1.96861 6.88207 1.85822 7.01087 1.81222C7.14886 1.76622 7.27766 1.83062 7.34205 1.87662L7.36965 1.89502L7.38805 1.86742C7.42485 1.80302 7.50765 1.72022 7.63644 1.71102C7.77444 1.70182 7.89403 1.80302 7.94923 1.85822L7.96763 1.87662L7.98603 1.85822C8.05043 1.80302 8.20682 1.68342 8.37241 1.71102C8.52881 1.72942 8.584 1.86742 8.6024 1.92262L8.6116 1.95941L8.6484 1.94101C8.722 1.90422 8.85999 1.85822 8.99799 1.94101C9.08078 1.99621 9.08998 2.08821 9.08998 2.15261V2.1894L9.12678 2.1802C9.22798 2.16181 9.41197 2.15261 9.52237 2.263C9.60516 2.355 9.61436 2.46539 9.60516 2.54819L9.59596 2.58499L9.63276 2.57579C9.72476 2.56659 9.83515 2.57579 9.89955 2.67699C9.94555 2.74138 9.92715 2.84258 9.90875 2.88858V2.94377L9.93635 2.95297C9.99155 2.96217 10.0743 2.99897 10.1019 3.07257C10.1203 3.12777 10.1111 3.21976 10.0835 3.32096L10.0743 3.34856L10.1019 3.35776C10.1479 3.37616 10.2307 3.42216 10.2675 3.50495C10.3135 3.58775 10.3043 3.69814 10.2583 3.81774L10.2491 3.83614L10.2675 3.85454C10.3779 3.95573 10.4975 4.04773 10.6079 4.13053C10.8379 4.29612 11.1967 4.38812 11.4359 4.18572C11.5279 4.11213 11.5647 3.97413 11.5371 3.84534C11.5095 3.73494 11.4359 3.65215 11.3255 3.62455C11.1415 3.58775 10.9943 3.76254 10.8747 3.93733C10.8747 3.94653 10.8655 3.94653 10.8563 3.94653C10.8471 3.94653 10.8471 3.93733 10.8379 3.93733C10.7275 3.67974 10.7275 3.45895 10.8195 3.29336C10.9023 3.15537 11.0679 3.05417 11.2611 3.02657H11.2887V2.99897C11.2887 2.68618 11.3623 2.46539 11.5095 2.3274C11.6015 2.2446 11.7671 2.15261 12.0431 2.1894C12.0523 2.1894 12.0523 2.1894 12.0523 2.1986C12.0523 2.2078 12.0523 2.2078 12.0523 2.217C11.8499 2.71378 11.8959 2.89778 12.0063 3.30256C12.0155 3.33936 12.0247 3.37616 12.0339 3.41296C12.1811 3.79014 12.1535 4.12133 11.9879 4.38812ZM5.38253 3.89134C5.41013 3.90974 5.42853 3.92814 5.44693 3.95573C5.46533 3.98333 5.47453 4.02013 5.47453 4.04773C5.47453 4.08453 5.46533 4.11213 5.44693 4.13973C5.42853 4.16733 5.40093 4.18572 5.38253 4.20412C5.34573 4.23172 5.30894 4.25932 5.30894 4.30532V4.59971H3.5794H1.84987V4.30532C1.84987 4.25932 1.81307 4.23172 1.77628 4.20412C1.74868 4.18572 1.73028 4.16733 1.71188 4.13973C1.69348 4.11213 1.68428 4.07533 1.68428 4.04773C1.68428 4.01093 1.69348 3.98333 1.71188 3.95573C1.73028 3.92814 1.75788 3.90974 1.77628 3.89134C1.81307 3.86374 1.84987 3.83614 1.84987 3.79014V2.82418C1.84987 2.77818 1.81307 2.75058 1.77628 2.72298C1.74868 2.70458 1.73028 2.68618 1.71188 2.65859C1.69348 2.63099 1.68428 2.59419 1.68428 2.56659C1.68428 2.52979 1.69348 2.50219 1.71188 2.47459C1.73028 2.44699 1.75788 2.42859 1.77628 2.4102C1.81307 2.3826 1.84987 2.355 1.84987 2.309V2.00541H1.89587C2.09826 2.00541 2.27306 2.00541 2.40185 1.95021C2.44785 1.93181 2.50305 1.89502 2.54905 1.86742C2.65024 1.80302 2.77904 1.72942 2.95383 1.72942C3.10102 1.72942 3.22982 1.78462 3.34941 1.83062C3.43221 1.86742 3.51501 1.89502 3.5702 1.89502H3.5978C3.653 1.89502 3.7358 1.86742 3.81859 1.83062C3.93819 1.78462 4.06698 1.72942 4.21418 1.72942C4.38897 1.72942 4.51777 1.80302 4.61896 1.86742C4.66496 1.89502 4.71096 1.93181 4.76616 1.95021C4.88575 2.00541 5.06974 2.00541 5.27214 2.00541H5.31813V2.2998C5.31813 2.3458 5.35493 2.3734 5.39173 2.401C5.41013 2.4194 5.43773 2.43779 5.45613 2.46539C5.47453 2.49299 5.48373 2.52979 5.48373 2.55739C5.48373 2.59419 5.47453 2.62179 5.45613 2.64939C5.43773 2.67698 5.41013 2.69538 5.39173 2.71378C5.35493 2.74138 5.31813 2.76898 5.31813 2.81498V3.77174C5.30894 3.82694 5.34573 3.85454 5.38253 3.89134ZM1.1875 0.883057C1.1875 0.883057 1.2059 5.64847 1.1875 5.63007H16.8177C16.8177 3.39456 16.8177 0.883057 16.8177 0.883057H1.1875Z" fill="#990000"/>
        <path d="M6.57075 3.67993C6.62595 3.67993 6.68114 3.69833 6.72714 3.73513C6.74554 3.75353 6.76394 3.76273 6.77314 3.77193C6.80994 3.80873 6.80994 3.86392 6.76394 3.89152C6.72714 3.91912 6.68114 3.95592 6.65354 3.97432C6.58915 4.02032 6.47875 4.09392 6.40515 4.03872C6.36836 4.01112 6.44195 3.95592 6.40515 3.82713C6.39595 3.72593 6.49715 3.67993 6.57075 3.67993Z" fill="#011F5B"/>
        <path d="M6.5956 2.14352C6.42081 2.30911 6.29201 2.5483 6.18162 2.7691C6.09882 2.94389 6.03442 3.10028 5.98843 3.25668V3.27508C5.96083 3.38547 5.89643 3.62466 5.97923 3.71666C5.98842 3.72586 6.00682 3.73506 6.01602 3.75346C6.03442 3.76266 6.04362 3.77186 6.06202 3.79026C6.23682 3.95585 6.11722 4.09384 6.02522 4.19504C5.97923 4.25944 5.92403 4.31463 5.92403 4.36063C5.92403 4.48023 6.07122 4.52623 6.11722 4.53543C6.13562 4.54462 6.15402 4.55382 6.15402 4.58142C6.15402 4.61822 6.16322 4.64582 6.17242 4.67342C6.18162 4.70102 6.19082 4.71942 6.20922 4.73782C6.23681 4.77462 6.28281 4.80221 6.32881 4.82061C6.36561 4.82981 6.40241 4.83901 6.44841 4.83901C6.77039 4.83901 7.02798 4.68262 7.23958 4.52623C7.36837 4.43423 7.52476 4.27784 7.57076 4.15824C7.57996 4.12144 7.58916 4.09384 7.58916 4.05704L7.36837 4.02025C7.36837 4.02025 7.36837 4.02025 7.35917 4.02025C7.33157 4.01105 7.32237 3.99265 7.31317 3.97425C7.30397 3.92825 7.34997 3.90065 7.42357 3.84545C7.45117 3.82705 7.46957 3.80865 7.49716 3.79945C7.61676 3.71666 7.70876 3.64306 7.76395 3.60626C7.69956 3.53267 7.65356 3.45907 7.60756 3.39467C7.57076 3.33947 7.54316 3.30267 7.51556 3.27508C7.40517 3.15548 7.21198 3.08188 7.04638 3.18308C6.98198 3.21988 6.92679 3.27508 6.86239 3.32107C6.81639 3.36707 6.76119 3.40387 6.706 3.44987C6.6876 3.46827 6.66 3.45907 6.6416 3.44067C6.6232 3.42227 6.6232 3.39467 6.6416 3.37627C6.6508 3.36707 6.66 3.35787 6.6692 3.34867C6.74279 3.28428 6.90839 3.11868 6.90839 3.00829C6.93599 2.7139 6.6876 2.29072 6.5956 2.14352ZM7.99394 3.86385C8.38033 3.86385 8.83111 4.10304 9.1715 4.29623C9.2359 4.33303 9.30029 4.36983 9.35549 4.39743C9.94427 4.70102 10.533 4.96781 11.1586 4.85741C11.1586 4.85741 11.6646 4.75622 11.913 4.35143C12.0694 4.10304 12.097 3.79026 11.9958 3.43147C11.9866 3.39467 11.9774 3.35787 11.9682 3.32107C11.867 2.94389 11.8026 2.7231 11.9866 2.25392C11.775 2.24472 11.6462 2.30911 11.5726 2.37351C11.4346 2.50231 11.3702 2.7231 11.3794 3.03589C11.3794 3.06348 11.361 3.08188 11.3334 3.09108C11.1402 3.10948 10.9746 3.20148 10.901 3.33027C10.8274 3.45907 10.8182 3.62466 10.8918 3.82705C10.9838 3.69826 11.1494 3.52347 11.361 3.56946C11.4898 3.59706 11.591 3.69826 11.6186 3.83625C11.6554 3.99265 11.6094 4.15824 11.4898 4.25024C11.2138 4.47103 10.8274 4.37903 10.579 4.19504C10.2847 3.98345 9.99026 3.70746 9.68668 3.35787C9.63148 3.29348 9.57628 3.23828 9.53028 3.17388C9.33709 2.95309 9.1347 2.7139 8.89551 2.52991C8.51832 2.24472 8.07674 2.19872 7.77315 2.20792C7.56156 2.21712 7.14758 2.27232 6.87159 2.44711C6.95439 2.6219 7.03718 2.83349 7.03718 2.98989C7.03718 3.01749 7.02798 3.04509 7.01878 3.07268C7.22118 2.95309 7.46037 3.03589 7.59836 3.18308C7.62596 3.21988 7.66276 3.26588 7.69956 3.32107C7.75475 3.40387 7.80995 3.49587 7.88355 3.56026C7.89275 3.56946 7.90195 3.58786 7.90195 3.59706C7.90195 3.61546 7.89275 3.62466 7.88355 3.63386C7.88355 3.63386 7.75475 3.72586 7.57076 3.86385C7.54316 3.88225 7.52476 3.90065 7.49716 3.91905L7.48796 3.92825L7.64436 3.95585C7.75475 3.88225 7.87435 3.86385 7.99394 3.86385ZM10.8734 4.97701C10.3307 4.97701 9.83387 4.74702 9.31869 4.48023C9.26349 4.45263 9.1991 4.41583 9.1347 4.37903C8.72072 4.15824 8.10434 3.81785 7.69956 4.02945C7.69956 4.08464 7.69036 4.13064 7.67196 4.17664C7.60756 4.34223 7.40517 4.52623 7.30397 4.59062C7.08318 4.75622 6.79799 4.92181 6.45761 4.92181C6.40241 4.92181 6.35641 4.91261 6.31041 4.89421C6.24601 4.87581 6.19082 4.82981 6.14482 4.77462C6.12642 4.74702 6.10802 4.71942 6.08962 4.68262C6.08042 4.65502 6.07122 4.62742 6.07122 4.59982C5.92403 4.57222 5.83203 4.47103 5.83203 4.35143C5.83203 4.25944 5.89643 4.18584 5.95163 4.12144C6.05282 4.00185 6.08962 3.94665 5.99762 3.85465C5.98842 3.84545 5.97923 3.83625 5.96083 3.82705C5.94243 3.81785 5.92403 3.79945 5.90563 3.78106C5.78603 3.65226 5.85043 3.40387 5.89643 3.24748V3.22908C5.94243 3.07268 6.00682 2.90709 6.08962 2.7231C6.20922 2.47471 6.35641 2.20792 6.568 2.03313C6.5772 2.02393 6.5956 2.02393 6.6048 2.02393C6.6232 2.02393 6.6324 2.03313 6.6416 2.04233C6.6508 2.05152 6.73359 2.18032 6.81639 2.35511C7.18438 2.13432 7.69956 2.11592 7.76395 2.10672C8.08594 2.09752 8.55512 2.14352 8.95071 2.45631C9.1991 2.6495 9.40149 2.87949 9.59468 3.10948C9.64988 3.16468 9.69588 3.22908 9.75107 3.29347C10.0547 3.63386 10.3399 3.90065 10.6342 4.11224C10.855 4.26864 11.1954 4.36063 11.4254 4.16744C11.5082 4.10304 11.545 3.97425 11.5174 3.85465C11.4898 3.75346 11.4254 3.67986 11.3334 3.66146C11.1678 3.62466 11.0298 3.79026 10.9194 3.95585C10.9102 3.97425 10.8918 3.98345 10.8734 3.97425C10.855 3.97425 10.8366 3.96505 10.8366 3.94665C10.7262 3.67986 10.717 3.44987 10.8182 3.27508C10.9102 3.12788 11.0758 3.01749 11.2782 2.98989C11.2782 2.6679 11.3518 2.43791 11.5082 2.29991C11.6002 2.21712 11.775 2.11592 12.0694 2.16192C12.0878 2.16192 12.097 2.17112 12.1062 2.18952C12.1154 2.19872 12.1154 2.21712 12.1062 2.23552C11.9038 2.7231 11.959 2.89789 12.0602 3.30267C12.0694 3.33947 12.0786 3.37627 12.0878 3.41307C12.189 3.80865 12.1614 4.13984 11.9866 4.41583C11.7106 4.85741 11.1862 4.95861 11.1586 4.96781C11.0758 4.96781 10.9746 4.97701 10.8734 4.97701Z" fill="#011F5B"/>
        <path d="M6.26741 4.63652C6.22141 4.63652 6.17541 4.63652 6.12022 4.62732C6.09262 4.62732 6.07422 4.59972 6.07422 4.57213C6.07422 4.54453 6.10182 4.52613 6.12942 4.52613C6.35941 4.55373 6.68139 4.52613 6.97578 4.22254C6.99418 4.20414 7.02178 4.20414 7.04938 4.22254C7.06778 4.24094 7.06778 4.26854 7.04938 4.29614C6.82859 4.51693 6.5618 4.63652 6.26741 4.63652Z" fill="#011F5B"/>
        <path d="M10.2491 3.89142C10.2399 3.89142 10.2399 3.89142 10.2307 3.89142C10.2031 3.88222 10.1939 3.85462 10.2031 3.82702C10.2583 3.70742 10.2583 3.60623 10.2215 3.53263C10.1663 3.43143 10.0468 3.40383 10.0468 3.40383C10.0376 3.40383 10.0192 3.39464 10.0192 3.37624C10.01 3.36704 10.01 3.34864 10.0192 3.33944C10.0376 3.29344 10.0744 3.15544 10.0468 3.09105C10.0284 3.03585 9.91796 3.00825 9.88116 3.00825C9.86276 3.00825 9.85356 2.99905 9.84436 2.98985C9.83516 2.98065 9.83516 2.96225 9.84436 2.94385C9.86276 2.90705 9.89036 2.79666 9.85356 2.74146C9.77996 2.63107 9.58677 2.68626 9.58677 2.68626C9.56837 2.69546 9.54997 2.68626 9.54077 2.67706C9.53157 2.66786 9.52237 2.64946 9.53157 2.63107C9.53157 2.63107 9.58677 2.45627 9.47638 2.34588C9.34758 2.21708 9.08079 2.29068 9.07159 2.29068C9.05319 2.29988 9.03479 2.29068 9.02559 2.28148C9.01639 2.27228 9.00719 2.25388 9.01639 2.23548C9.01639 2.22628 9.06239 2.08829 8.9704 2.02389C8.814 1.92269 8.63921 2.05149 8.63921 2.05149C8.63001 2.06069 8.61161 2.06069 8.59321 2.06069C8.57481 2.05149 8.56561 2.04229 8.56561 2.02389C8.56561 2.01469 8.53801 1.8307 8.37242 1.8031C8.18843 1.7755 8.00443 1.95949 8.00443 1.96869C7.99524 1.97789 7.98604 1.98709 7.96764 1.97789C7.95844 1.97789 7.94004 1.96869 7.93084 1.95949C7.93084 1.95949 7.80204 1.7939 7.64565 1.8031C7.48926 1.8123 7.43406 1.96869 7.43406 1.96869C7.42486 1.98709 7.41566 1.99629 7.39726 1.99629C7.37886 1.99629 7.36966 1.99629 7.35126 1.98709C7.35126 1.98709 7.19487 1.8399 7.03847 1.89509C6.84528 1.96869 6.79008 2.20788 6.77168 2.29068C6.76248 2.31828 6.74409 2.32748 6.71649 2.32748C6.68889 2.31828 6.67969 2.29988 6.67969 2.27228C6.69809 2.18028 6.76248 1.90429 7.01087 1.8123C7.15807 1.7571 7.29606 1.8307 7.36966 1.8859C7.40646 1.8215 7.48926 1.7203 7.63645 1.7203C7.79284 1.7111 7.91244 1.8215 7.96764 1.8767C8.04123 1.8123 8.20683 1.7019 8.38162 1.7203C8.52881 1.7387 8.61161 1.8583 8.63921 1.95029C8.72201 1.91349 8.8692 1.8583 9.01639 1.95029C9.11759 2.01469 9.12679 2.12509 9.11759 2.19868C9.21879 2.18028 9.42118 2.17108 9.54077 2.29068C9.64197 2.39187 9.64197 2.52067 9.63277 2.59427C9.71557 2.58507 9.85356 2.58507 9.93636 2.70466C9.98236 2.77826 9.97316 2.87946 9.95476 2.94385C10.0192 2.96225 10.1112 2.99905 10.1479 3.08185C10.1755 3.16464 10.1479 3.28424 10.1295 3.34864C10.1847 3.36704 10.2675 3.42223 10.3135 3.51423C10.3687 3.61543 10.3595 3.74422 10.2951 3.89142C10.2767 3.88222 10.2675 3.89142 10.2491 3.89142Z" fill="#011F5B"/>
        <path d="M10.0099 4.53554C9.98232 4.53554 9.96392 4.50794 9.96392 4.48034C9.98232 4.30555 9.88113 4.26875 9.78913 4.24115C9.76153 4.23195 9.74313 4.22275 9.72473 4.21355C9.67873 4.18595 9.66953 4.12155 9.66953 4.06636C9.66953 4.00196 9.66953 3.92836 9.61434 3.87316C9.53154 3.78117 9.35675 3.83636 9.35675 3.83636C9.33835 3.84556 9.31995 3.83636 9.31075 3.82716C9.30155 3.81797 9.29235 3.79957 9.29235 3.78117C9.29235 3.78117 9.31995 3.58797 9.20955 3.49598C9.11756 3.42238 8.94276 3.44078 8.88757 3.44998C8.86917 3.44998 8.85997 3.44998 8.85077 3.44078C8.84157 3.43158 8.83237 3.41318 8.83237 3.40398C8.84157 3.28439 8.79557 3.19239 8.70357 3.12799C8.62998 3.08199 8.53798 3.07279 8.46438 3.10959C8.27119 3.21079 8.19759 3.21999 7.986 3.0728C7.92161 3.0268 7.85721 3.0084 7.79281 3.0268C7.71921 3.0452 7.64562 3.11879 7.59042 3.21999C7.58122 3.23839 7.55362 3.25679 7.52602 3.23839C7.50762 3.22919 7.48922 3.20159 7.50762 3.17399C7.57202 3.0452 7.66402 2.9532 7.77441 2.9256C7.86641 2.9072 7.9584 2.9256 8.0412 2.9808C8.21599 3.10039 8.25279 3.10039 8.41838 3.0084C8.51958 2.9532 8.64838 2.9624 8.74957 3.0268C8.85077 3.09119 8.91517 3.20159 8.91517 3.33038C8.99796 3.32119 9.15436 3.31199 9.26475 3.40398C9.36595 3.48678 9.38435 3.62477 9.38435 3.69837C9.45794 3.67997 9.59594 3.67997 9.67873 3.77197C9.75233 3.85476 9.75233 3.95596 9.76153 4.02956C9.76153 4.05716 9.76153 4.09395 9.77073 4.10315C9.77993 4.10315 9.79833 4.11235 9.81673 4.12155C9.90873 4.14915 10.0835 4.20435 10.0559 4.46194C10.0559 4.51714 10.0375 4.53554 10.0099 4.53554Z" fill="#011F5B"/>
        <path d="M5.40831 4.04782C5.40831 4.06622 5.39911 4.08462 5.38991 4.10302C5.38071 4.12142 5.36231 4.13982 5.33472 4.14902C5.28872 4.18582 5.23352 4.22261 5.23352 4.30541V4.517H3.57759H1.92165V4.30541C1.92165 4.22261 1.86645 4.18582 1.82046 4.14902C1.80206 4.13062 1.78366 4.12142 1.76526 4.10302C1.75606 4.08462 1.74686 4.06622 1.74686 4.04782C1.74686 4.02942 1.75606 4.01102 1.76526 3.99262C1.77446 3.97422 1.79286 3.95583 1.82046 3.94663C1.86645 3.90983 1.92165 3.87303 1.92165 3.79023V2.82427C1.92165 2.74147 1.86645 2.70468 1.82046 2.66788C1.80206 2.64948 1.78366 2.64028 1.76526 2.62188C1.75606 2.60348 1.74686 2.58508 1.74686 2.56668C1.74686 2.54828 1.75606 2.52988 1.76526 2.51148C1.77446 2.49308 1.79286 2.47468 1.82046 2.46548C1.86645 2.42869 1.92165 2.39189 1.92165 2.30909V2.0883C1.92165 2.0883 1.92165 2.0883 1.93085 2.0883C2.01365 2.0883 2.10564 2.0883 2.17924 2.0791V4.26861H3.38439C3.40279 4.35141 3.48559 4.41581 3.57759 4.41581C3.66958 4.41581 3.75238 4.35141 3.77078 4.26861H4.97593V2.0699C5.05873 2.0791 5.14152 2.0791 5.22432 2.0791H5.23352V2.29989C5.23352 2.38269 5.28872 2.41949 5.33472 2.45629C5.35312 2.47468 5.37151 2.48388 5.38991 2.50228C5.39911 2.52068 5.40831 2.53908 5.40831 2.55748C5.40831 2.57588 5.39911 2.59428 5.38991 2.61268C5.38071 2.63108 5.36231 2.64948 5.33472 2.65868C5.28872 2.69548 5.23352 2.73227 5.23352 2.81507V3.77183C5.23352 3.85463 5.28872 3.89143 5.33472 3.92823C5.35312 3.94663 5.37151 3.95583 5.38991 3.97422C5.40831 4.00182 5.40831 4.02022 5.40831 4.04782ZM2.43683 2.0147C2.49203 1.9871 2.54723 1.9595 2.59323 1.92271C2.70362 1.85831 2.79562 1.79391 2.95201 1.79391C3.08081 1.79391 3.2096 1.84911 3.32 1.88591C3.39359 1.91351 3.46719 1.94111 3.53159 1.95031V3.86383H3.52239C3.43039 3.87303 3.3016 3.90983 3.1452 3.96502C3.09921 3.98342 3.04401 3.99262 2.99801 4.01102C2.85082 4.05702 2.70362 4.05702 2.55643 4.05702C2.46443 4.05702 2.37243 4.05702 2.28964 4.06622V2.0423C2.34484 2.0515 2.39083 2.0331 2.43683 2.0147ZM3.84438 1.89511C3.95477 1.84911 4.08357 1.80311 4.21236 1.80311C4.36875 1.80311 4.46995 1.86751 4.57115 1.93191C4.61714 1.9595 4.67234 1.9963 4.72754 2.0239C4.77354 2.0423 4.81954 2.0607 4.87473 2.0699V4.09382C4.79194 4.08462 4.69994 4.08462 4.60794 4.08462C4.46075 4.08462 4.31356 4.08462 4.16636 4.03862C4.12036 4.02022 4.06517 4.01102 4.01917 3.99262C3.87197 3.94663 3.73398 3.90063 3.64198 3.89143C3.64198 3.89143 3.64198 3.89143 3.63278 3.89143V1.9595C3.70638 1.95031 3.77078 1.92271 3.84438 1.89511ZM5.39911 3.86383C5.36231 3.83623 5.33472 3.81783 5.33472 3.78103V2.82427C5.33472 2.79667 5.35312 2.77827 5.39911 2.74147C5.42671 2.72307 5.45431 2.70468 5.47271 2.66788C5.49111 2.63108 5.50951 2.59428 5.50951 2.55748C5.50951 2.52068 5.50031 2.47468 5.47271 2.44709C5.45431 2.41949 5.42671 2.39189 5.39911 2.37349C5.36231 2.34589 5.33472 2.32749 5.33472 2.29069V1.9595H5.26112C5.08633 1.9595 4.89313 1.9595 4.77354 1.90431C4.72754 1.88591 4.68154 1.85831 4.63554 1.82151C4.52515 1.75711 4.40555 1.67432 4.21236 1.67432C4.06517 1.67432 3.92717 1.72951 3.80758 1.77551C3.72478 1.81231 3.65118 1.83991 3.59599 1.83991H3.58679H3.57759C3.52239 1.83991 3.44879 1.81231 3.36599 1.77551C3.2464 1.72951 3.1084 1.67432 2.96121 1.67432C2.77722 1.67432 2.64842 1.74791 2.53803 1.82151C2.49203 1.84911 2.44603 1.87671 2.40003 1.90431C2.28044 1.9595 2.08725 1.9595 1.91245 1.9595H1.83886V2.29989C1.83886 2.32749 1.82046 2.34589 1.77446 2.38269C1.74686 2.40109 1.71926 2.41949 1.70086 2.45629C1.68246 2.49308 1.66406 2.52988 1.66406 2.56668C1.66406 2.60348 1.67326 2.64948 1.70086 2.67708C1.71926 2.70468 1.74686 2.73227 1.77446 2.75067C1.81126 2.77827 1.83886 2.79667 1.83886 2.83347V3.79023C1.83886 3.81783 1.82046 3.83623 1.77446 3.87303C1.74686 3.89143 1.71926 3.90983 1.70086 3.94663C1.68246 3.98342 1.66406 4.02022 1.66406 4.05702C1.66406 4.09382 1.67326 4.13982 1.70086 4.16742C1.71926 4.19502 1.74686 4.22261 1.77446 4.24101C1.81126 4.26861 1.83886 4.28701 1.83886 4.32381V4.6458H3.59599H5.35312V4.32381C5.35312 4.29621 5.37151 4.27781 5.41751 4.24101C5.44511 4.22261 5.47271 4.20422 5.49111 4.16742C5.50951 4.13062 5.52791 4.09382 5.52791 4.05702C5.52791 4.02022 5.51871 3.97422 5.49111 3.94663C5.45431 3.90063 5.42671 3.88223 5.39911 3.86383Z" fill="#011F5B"/>
        <path d="M16.2482 4.04782C16.2482 4.06622 16.239 4.08462 16.2298 4.10302C16.2206 4.12142 16.2022 4.13982 16.1746 4.14902C16.1286 4.18582 16.0734 4.22261 16.0734 4.30541V4.517H14.4174H12.7615V4.30541C12.7615 4.22261 12.7063 4.18582 12.6603 4.14902C12.6419 4.13062 12.6235 4.12142 12.6051 4.10302C12.5959 4.08462 12.5867 4.06622 12.5867 4.04782C12.5867 4.02942 12.5959 4.01102 12.6051 3.99262C12.6143 3.97422 12.6327 3.95583 12.6603 3.94663C12.7063 3.90983 12.7615 3.87303 12.7615 3.79023V2.82427C12.7615 2.74147 12.7063 2.70468 12.6603 2.66788C12.6419 2.64948 12.6235 2.64028 12.6051 2.62188C12.5959 2.60348 12.5867 2.58508 12.5867 2.56668C12.5867 2.54828 12.5959 2.52988 12.6051 2.51148C12.6143 2.49308 12.6327 2.47468 12.6603 2.46548C12.7063 2.42869 12.7615 2.39189 12.7615 2.30909V2.0883C12.7615 2.0883 12.7615 2.0883 12.7707 2.0883C12.8535 2.0883 12.9455 2.0883 13.0191 2.0791V4.26861H14.2242C14.2426 4.35141 14.3254 4.41581 14.4174 4.41581C14.5094 4.41581 14.5922 4.35141 14.6106 4.26861H15.8158V2.0699C15.8986 2.0791 15.9814 2.0791 16.0642 2.0791H16.0734V2.29989C16.0734 2.38269 16.1286 2.41949 16.1746 2.45629C16.193 2.47468 16.2114 2.48388 16.2298 2.50228C16.239 2.52068 16.2482 2.53908 16.2482 2.55748C16.2482 2.57588 16.239 2.59428 16.2298 2.61268C16.2206 2.63108 16.2022 2.64948 16.1746 2.65868C16.1286 2.69548 16.0734 2.73227 16.0734 2.81507V3.77183C16.0734 3.85463 16.1286 3.89143 16.1746 3.92823C16.193 3.94663 16.2114 3.95583 16.2298 3.97422C16.239 4.00182 16.2482 4.02022 16.2482 4.04782ZM13.2675 2.0147C13.3227 1.9871 13.3779 1.9595 13.4239 1.92271C13.5343 1.85831 13.6263 1.79391 13.7827 1.79391C13.9114 1.79391 14.0402 1.84911 14.1506 1.88591C14.2242 1.91351 14.2978 1.94111 14.3622 1.95031V3.86383H14.353C14.261 3.87303 14.1322 3.90983 13.9758 3.96502C13.9298 3.98342 13.8747 3.99262 13.8287 4.01102C13.6815 4.05702 13.5343 4.05702 13.3871 4.05702C13.2951 4.05702 13.2031 4.05702 13.1203 4.06622V2.0423C13.1755 2.0515 13.2215 2.0331 13.2675 2.0147ZM14.6842 1.89511C14.7946 1.84911 14.9234 1.80311 15.0522 1.80311C15.2086 1.80311 15.3098 1.86751 15.411 1.93191C15.457 1.9595 15.5122 1.9963 15.5674 2.0239C15.6134 2.0423 15.6594 2.0607 15.7146 2.0699V4.09382C15.6318 4.08462 15.5398 4.08462 15.4478 4.08462C15.3006 4.08462 15.1534 4.08462 15.0062 4.03862C14.9602 4.02022 14.905 4.01102 14.859 3.99262C14.7118 3.94663 14.5738 3.90063 14.4818 3.89143C14.4818 3.89143 14.4818 3.89143 14.4726 3.89143V1.9595C14.537 1.95031 14.6106 1.92271 14.6842 1.89511ZM16.239 3.86383C16.2022 3.83623 16.1746 3.81783 16.1746 3.78103V2.82427C16.1746 2.79667 16.193 2.77827 16.239 2.74147C16.2666 2.72307 16.2942 2.70468 16.3126 2.66788C16.331 2.63108 16.3494 2.59428 16.3494 2.55748C16.3494 2.52068 16.3402 2.47468 16.3126 2.44709C16.2942 2.41949 16.2666 2.39189 16.239 2.37349C16.2022 2.34589 16.1746 2.32749 16.1746 2.29069V1.9595H16.101C15.9262 1.9595 15.733 1.9595 15.6134 1.90431C15.5674 1.88591 15.5214 1.85831 15.4754 1.82151C15.365 1.75711 15.2454 1.67432 15.0522 1.67432C14.905 1.67432 14.767 1.72951 14.6474 1.77551C14.5646 1.81231 14.491 1.83991 14.4358 1.83991H14.4266H14.4174C14.3622 1.83991 14.2886 1.81231 14.2058 1.77551C14.0862 1.72951 13.9482 1.67432 13.8011 1.67432C13.6171 1.67432 13.4883 1.74791 13.3779 1.82151C13.3319 1.84911 13.2859 1.87671 13.2399 1.90431C13.1203 1.9595 12.9271 1.9595 12.7523 1.9595H12.6787V2.29989C12.6787 2.32749 12.6603 2.34589 12.6143 2.38269C12.5867 2.40109 12.5591 2.41949 12.5407 2.45629C12.5223 2.49308 12.5039 2.52988 12.5039 2.56668C12.5039 2.60348 12.5131 2.64948 12.5407 2.67708C12.5591 2.70468 12.5867 2.73227 12.6143 2.75067C12.6511 2.77827 12.6787 2.79667 12.6787 2.83347V3.79023C12.6787 3.81783 12.6603 3.83623 12.6143 3.87303C12.5867 3.89143 12.5591 3.90983 12.5407 3.94663C12.5223 3.98342 12.5039 4.02022 12.5039 4.05702C12.5039 4.09382 12.5131 4.13982 12.5407 4.16742C12.5591 4.19502 12.5867 4.22261 12.6143 4.24101C12.6511 4.26861 12.6787 4.28701 12.6787 4.32381V4.6458H14.4358H16.193V4.32381C16.193 4.29621 16.2114 4.27781 16.2574 4.24101C16.285 4.22261 16.3126 4.20422 16.331 4.16742C16.3494 4.13062 16.3678 4.09382 16.3678 4.05702C16.3678 4.02022 16.3586 3.97422 16.331 3.94663C16.2942 3.90063 16.2574 3.88223 16.239 3.86383Z" fill="#011F5B"/>
        <path d="M15.8238 12.53L8.99765 5.95226L2.18073 12.53C1.65635 11.4168 1.29756 10.1197 1.30676 8.65696C1.30676 8.61096 1.30676 7.28621 1.30676 5.74067H16.6977C16.6977 7.28621 16.6977 8.61096 16.6977 8.65696C16.6977 10.1197 16.3482 11.4168 15.8238 12.53ZM13.6435 13.2108C13.1099 13.7444 12.2543 13.7444 11.7299 13.2108C11.1964 12.6772 11.1964 11.8216 11.7299 11.2973C12.2635 10.7637 13.1191 10.7637 13.6435 11.2973C14.177 11.8216 14.177 12.6864 13.6435 13.2108ZM7.64531 8.88695C7.64531 8.14178 8.25248 7.5346 8.99765 7.5346C9.74282 7.5346 10.35 8.14178 10.35 8.88695C10.35 9.63212 9.74282 10.2393 8.99765 10.2393C8.25248 10.2485 7.64531 9.64132 7.64531 8.88695ZM13.2387 15.9615C11.408 17.6634 9.51283 18.5098 9.00685 18.6386C8.50087 18.5098 6.60575 17.6542 4.77502 15.9615C4.72902 15.9247 4.68303 15.8787 4.63703 15.8327L9.00685 11.1961L13.3767 15.8327C13.3307 15.8787 13.2847 15.9247 13.2387 15.9615ZM4.36104 13.2108C3.82746 12.6772 3.82746 11.8216 4.36104 11.2973C4.89462 10.7637 5.75018 10.7637 6.27456 11.2973C6.80814 11.8308 6.80814 12.6864 6.27456 13.2108C5.75018 13.7444 4.88542 13.7444 4.36104 13.2108ZM16.6977 0.984463C16.6977 1.49044 16.6977 3.62476 16.6977 5.51988H1.30676C1.30676 3.62476 1.30676 1.49044 1.30676 0.984463H16.6977ZM16.9185 0.763672H1.08597C1.08597 0.763672 1.08597 8.55576 1.08597 8.65696C1.07677 12.116 2.99949 14.6275 4.61863 16.1271C6.38496 17.7646 8.36288 18.7306 8.98846 18.8685H9.00685H9.02525C9.65083 18.7306 11.6287 17.7646 13.3951 16.1271C15.0142 14.6275 16.9369 12.116 16.9277 8.65696C16.9185 8.55576 16.9185 0.763672 16.9185 0.763672Z" fill="#011F5B"/>
        <path d="M49.1286 11.6468V9.09845C48.3007 9.45724 46.1755 9.97242 46.1755 11.0856C46.1755 11.8215 46.7275 12.4287 47.5003 12.4287C48.1903 12.4195 48.595 12.0423 49.1286 11.6468ZM49.147 8.65687V6.70655C49.147 5.98898 48.687 5.80499 48.0063 5.80499C47.3439 5.80499 46.3963 6.24657 46.3963 6.64215C46.3963 6.75255 46.4423 6.88134 46.4423 7.05614C46.4423 7.73691 46.2675 8.19689 45.4856 8.19689C45.1544 8.19689 44.9336 7.8749 44.9336 7.58971C44.9336 7.19413 45.2096 6.81694 45.596 6.49496C46.4239 5.81418 47.7395 5.26221 48.825 5.26221C49.9474 5.26221 50.5454 5.92458 50.5454 7.00094V11.7939C50.5454 12.0975 50.5454 12.6311 50.9686 12.6311C51.2629 12.6311 51.4285 12.2539 51.4837 12.0239H51.7781C51.6861 12.8795 51.3181 13.3855 50.4442 13.3855C49.7634 13.3855 49.193 12.7783 49.1746 12.1527C48.3099 12.7783 47.7303 13.3855 46.5895 13.3855C45.7432 13.3855 44.9612 12.7231 44.9612 11.8675C44.952 9.88962 47.6659 9.28245 49.147 8.65687Z" fill="#011F5B"/>
        <path d="M65.0782 9.30998C65.0782 10.6899 65.5934 12.9622 67.3873 12.9622C69.126 12.9622 69.7332 11.1499 69.7332 9.74236C69.7332 8.22442 69.5124 5.62093 67.4057 5.62093C65.6118 5.62093 65.0782 7.96683 65.0782 9.30998ZM63.5234 9.23638C63.5234 7.07447 65.0782 5.22534 67.3597 5.22534C69.7608 5.22534 71.3063 7.02847 71.3063 9.30078C71.3063 11.6283 69.7976 13.3486 67.3781 13.3486C64.9126 13.3486 63.5234 11.5087 63.5234 9.23638Z" fill="#011F5B"/>
        <path d="M18.9531 1.19595V0.772769H23.1206V1.19595C22.3478 1.21435 22.0534 1.21435 22.0534 1.67433C22.0534 1.69273 22.0626 1.81233 22.1362 1.99632L24.6477 10.5336L28.1988 0.367985H28.4931L31.575 10.4048C31.575 10.4048 34.0129 3.07268 34.0129 2.03312C34.0129 1.21435 33.4977 1.26955 32.8354 1.19595V0.772769H35.3929C36.5152 0.772769 37.6652 0.386385 38.3183 0V6.48574C39.1095 5.77737 39.7811 5.21619 40.9218 5.21619C41.7682 5.21619 42.5502 5.59338 42.9734 6.31095C43.3597 6.93652 43.4333 7.5253 43.4333 8.22447V11.8215C43.4333 12.7507 43.6725 12.7507 44.4821 12.8059V13.1463H40.9954V12.8059C41.7498 12.7507 41.989 12.7507 41.989 11.8215V8.22447C41.989 7.65409 41.989 7.4057 41.7314 6.86293C41.437 6.34775 40.9126 5.84177 40.2503 5.95216C39.2383 6.11775 38.8519 6.58694 38.3276 7.09292V11.8215C38.3276 12.7507 38.5667 12.7507 39.3395 12.8059V13.1463H35.816V12.8059C36.644 12.7507 36.8832 12.7507 36.8832 11.8215V1.30635C36.9016 1.28795 36.598 1.30635 36.2208 1.30635C34.8133 1.39834 34.7765 2.4655 34.3257 3.74425L31.161 13.3671H30.8299L27.702 3.72585L24.0865 13.3763H23.7737L20.4435 2.77829C20.2411 2.22631 20.1491 1.75713 19.8547 1.45354C19.6983 1.29715 19.6891 1.18675 18.9531 1.19595Z" fill="#011F5B"/>
        <path d="M74.9886 13.1554V12.815C74.1974 12.7598 73.9582 12.7598 73.9582 11.8307V7.58965C73.9582 6.76168 75.0622 6.01651 75.8441 6.01651C77.0401 6.01651 77.6749 6.77088 77.6749 7.89324V11.8307C77.6749 12.7598 77.4357 12.7598 76.6077 12.815V13.1554H80.2415V12.815C79.616 12.7598 79.1192 12.7598 79.1192 11.8307V7.58965C79.1192 6.2465 77.7668 5.22534 76.4421 5.22534C75.2829 5.22534 74.7034 5.75892 73.949 6.51329V5.22534C73.1578 5.51053 72.3207 5.92451 71.4651 6.04411V6.3293C72.2287 6.41209 72.5047 6.65128 72.5047 7.33206V11.8307C72.5047 12.7598 72.2655 12.7598 71.4375 12.815V13.1554H74.9886Z" fill="#011F5B"/>
        <path d="M55.8226 13.1554V12.815C54.8843 12.7598 54.6451 12.7598 54.6451 11.8306V7.09283C54.6451 6.80764 55.1235 6.35686 55.6386 6.35686C56.117 6.34766 56.1998 6.90884 56.7978 6.90884C57.5338 6.90884 57.7086 6.51326 57.7086 5.97968C57.7086 5.4277 57.1106 5.10571 56.439 5.10571C55.6478 5.10571 55.0407 5.78649 54.6083 6.39366V5.17931C53.7803 5.55649 52.8787 5.91528 52.0508 6.04408V6.32926C52.8695 6.41206 53.1915 6.60525 53.1915 7.30443V11.8306C53.1915 12.7598 52.9523 12.7598 52.1612 12.815V13.1554H55.8226Z" fill="#011F5B"/>
        <path d="M63.4781 5.66696L63.7448 4.6826H60.5894V3.09106H60.4054C59.6694 3.96503 58.961 4.7102 58.1055 5.46457V5.67616H59.1082V11.0671C59.1082 12.3459 59.6878 13.4131 61.0678 13.4131C62.2545 13.4131 63.1653 12.5483 63.6528 11.9687L63.4321 11.6651C62.9997 12.1527 62.4293 12.4287 61.9049 12.4287C60.847 12.4287 60.5802 11.8583 60.5802 10.874V5.66696H63.4781Z" fill="#011F5B"/>
    </g>
    <defs>
        <clipPath id="clip0_744_4060">
            <rect width="79.4756" height="20" fill="white" transform="translate(0.773438)"/>
        </clipPath>
    </defs>
</svg>
